<svg width="483" height="391" viewBox="0 0 483 391" fill="none" xmlns="http://www.w3.org/2000/svg">
	<g clip-path="url(#clip0_411_1868)">
		<path d="M129.538 14.9229C78.1511 36.3035 48.6609 88.28 48.6609 160.589C48.6609 232.898 33.6089 223.354 14.2395 259.963C0.40882 286.101 7.96094 331.631 25.7364 352.858C50.3613 382.261 92.7114 394.322 140.355 390.222C217.736 383.564 222.953 313.762 337.884 342.376C392.602 356 441.775 308.985 456.618 241.913C465.523 201.67 446.888 147.038 408.615 125.335C356.45 95.7569 358.052 121.055 300.275 57.081C238.178 -11.6772 184.85 -8.09051 129.538 14.9229Z" fill="url(#paint0_radial_411_1868)" />
		<path d="M404.146 157.177C418.862 157.177 430.792 145.249 430.792 130.535C430.792 115.821 418.862 103.893 404.146 103.893C389.43 103.893 377.5 115.821 377.5 130.535C377.5 145.249 389.43 157.177 404.146 157.177Z" fill="#F7BE2B" />
		<g opacity="0.29">
			<path opacity="0.29" d="M404.146 147.806C413.686 147.806 421.419 140.073 421.419 130.535C421.419 120.997 413.686 113.264 404.146 113.264C394.606 113.264 386.873 120.997 386.873 130.535C386.873 140.073 394.606 147.806 404.146 147.806Z" fill="white" />
		</g>
		<path d="M398.495 136.704L400.106 134.205C401.098 135.09 402.361 135.611 403.688 135.683C405.113 135.683 405.739 135.092 405.739 133.949C405.739 131.365 399.107 131.411 399.107 126.878C399.107 123.964 401.126 122.108 404.309 122.108C405.214 122.094 406.11 122.278 406.936 122.646C407.762 123.014 408.499 123.557 409.094 124.238L407.246 126.355C406.898 125.972 406.476 125.663 406.006 125.445C405.536 125.227 405.027 125.106 404.509 125.088C403.301 125.088 402.645 125.575 402.645 126.703C402.645 129.099 409.277 128.89 409.277 133.691C409.277 136.575 407.368 138.663 403.69 138.663C401.786 138.621 399.953 137.93 398.495 136.704V136.704ZM402.913 119.645H405.365V123.263H402.913V119.645ZM402.913 137.155H405.365V141.127H402.913V137.155Z" fill="white" />
		<path d="M359.629 204.673C369.169 204.673 376.902 196.94 376.902 187.402C376.902 177.864 369.169 170.131 359.629 170.131C350.089 170.131 342.356 177.864 342.356 187.402C342.356 196.94 350.089 204.673 359.629 204.673Z" fill="#F7BE2B" />
		<g opacity="0.29">
			<path opacity="0.29" d="M359.629 198.598C365.813 198.598 370.826 193.585 370.826 187.402C370.826 181.219 365.813 176.206 359.629 176.206C353.445 176.206 348.432 181.219 348.432 187.402C348.432 193.585 353.445 198.598 359.629 198.598Z" fill="white" />
		</g>
		<path d="M355.964 191.401L357.009 189.781C357.652 190.354 358.471 190.692 359.331 190.739C360.254 190.739 360.66 190.357 360.66 189.615C360.66 187.94 356.361 187.97 356.361 185.031C356.361 183.143 357.67 181.939 359.733 181.939C360.32 181.93 360.901 182.049 361.436 182.288C361.971 182.527 362.449 182.879 362.834 183.32L361.638 184.693C361.412 184.444 361.139 184.244 360.834 184.102C360.529 183.961 360.199 183.882 359.864 183.871C359.08 183.871 358.655 184.185 358.655 184.918C358.655 186.471 362.954 186.336 362.954 189.45C362.954 191.32 361.717 192.673 359.333 192.673C358.098 192.645 356.909 192.197 355.964 191.401V191.401ZM358.829 180.343H360.418V182.688H358.829V180.343ZM358.829 191.694H360.418V194.267H358.829V191.694Z" fill="white" />
		<path d="M203.32 48.7734L0.000488281 113.527L80.6779 366.778L283.998 302.024L203.32 48.7734Z" fill="#C1D8ED" />
		<g opacity="0.61">
			<path opacity="0.61" d="M68.8667 276.742C68.6787 276.743 68.4955 276.684 68.3437 276.573C68.192 276.462 68.0796 276.305 68.0231 276.126L44.1322 201.128C44.0969 201.017 44.0837 200.901 44.0935 200.785C44.1032 200.669 44.1357 200.556 44.1891 200.453C44.2425 200.35 44.3157 200.258 44.4045 200.183C44.4934 200.108 44.5962 200.051 44.707 200.016L216.882 145.182C217.105 145.111 217.348 145.132 217.557 145.239C217.765 145.347 217.923 145.533 217.994 145.757L241.884 220.755C241.919 220.866 241.933 220.982 241.923 221.098C241.914 221.214 241.881 221.327 241.828 221.43C241.774 221.534 241.701 221.626 241.612 221.7C241.523 221.775 241.42 221.832 241.309 221.867L69.1355 276.701C69.0486 276.729 68.9579 276.743 68.8667 276.742V276.742ZM46.087 201.434L69.4402 274.745L239.927 220.449L216.571 147.138L46.087 201.434Z" fill="white" />
		</g>
		<g opacity="0.61">
			<path opacity="0.61" d="M74.0852 293.126C73.8737 293.126 73.6692 293.05 73.5085 292.913C73.3479 292.775 73.2417 292.585 73.2092 292.376C73.1768 292.167 73.2201 291.953 73.3315 291.774C73.4428 291.594 73.6148 291.46 73.8164 291.396L245.99 236.562C246.214 236.491 246.457 236.512 246.665 236.619C246.874 236.727 247.031 236.913 247.102 237.137C247.174 237.361 247.153 237.604 247.045 237.812C246.937 238.021 246.751 238.178 246.527 238.249L74.354 293.081C74.2673 293.11 74.1766 293.125 74.0852 293.126V293.126Z" fill="white" />
		</g>
		<g opacity="0.61">
			<path opacity="0.61" d="M78.4581 306.854C78.247 306.853 78.0431 306.778 77.8829 306.64C77.7228 306.503 77.617 306.312 77.5847 306.104C77.5523 305.895 77.5955 305.682 77.7065 305.503C77.8175 305.323 77.9889 305.189 78.1899 305.125L250.363 250.291C250.475 250.253 250.592 250.238 250.71 250.246C250.827 250.255 250.942 250.286 251.047 250.339C251.151 250.392 251.245 250.466 251.321 250.555C251.397 250.645 251.455 250.749 251.491 250.861C251.526 250.973 251.539 251.091 251.529 251.208C251.518 251.325 251.485 251.439 251.43 251.543C251.375 251.647 251.3 251.739 251.209 251.813C251.118 251.888 251.013 251.944 250.9 251.977L78.7269 306.812C78.6401 306.84 78.5494 306.854 78.4581 306.854V306.854Z" fill="white" />
		</g>
		<g opacity="0.61">
			<path opacity="0.61" d="M82.8318 320.582C82.6207 320.582 82.4166 320.506 82.2563 320.368C82.0961 320.231 81.9902 320.041 81.9578 319.832C81.9254 319.624 81.9685 319.41 82.0795 319.231C82.1904 319.051 82.3619 318.917 82.563 318.853L254.736 264.018C254.96 263.947 255.203 263.968 255.412 264.075C255.62 264.183 255.777 264.369 255.849 264.593C255.92 264.817 255.899 265.06 255.792 265.268C255.684 265.477 255.498 265.634 255.274 265.705L83.1012 320.539C83.0142 320.567 82.9233 320.582 82.8318 320.582V320.582Z" fill="white" />
		</g>
		<g opacity="0.61">
			<path opacity="0.61" d="M87.2053 334.311C86.9942 334.311 86.7901 334.235 86.6299 334.098C86.4696 333.96 86.3637 333.77 86.3313 333.562C86.2989 333.353 86.342 333.14 86.453 332.96C86.564 332.781 86.7354 332.646 86.9365 332.582L259.11 277.747C259.221 277.712 259.338 277.699 259.454 277.709C259.57 277.718 259.682 277.751 259.786 277.804C259.889 277.858 259.981 277.931 260.056 278.02C260.131 278.109 260.187 278.211 260.223 278.322C260.258 278.433 260.271 278.55 260.261 278.665C260.251 278.781 260.219 278.894 260.165 278.997C260.112 279.1 260.039 279.192 259.95 279.267C259.861 279.342 259.758 279.399 259.647 279.434L87.4741 334.268C87.3874 334.296 87.2966 334.311 87.2053 334.311V334.311Z" fill="white" />
		</g>
		<g opacity="0.61">
			<path opacity="0.61" d="M40.4055 187.402C40.1944 187.402 39.9903 187.326 39.8301 187.188C39.6698 187.051 39.5639 186.861 39.5315 186.652C39.4991 186.444 39.5422 186.23 39.6532 186.051C39.7642 185.871 39.9356 185.737 40.1367 185.673L212.311 130.839C212.534 130.768 212.777 130.788 212.986 130.896C213.194 131.004 213.352 131.19 213.423 131.414C213.494 131.638 213.473 131.881 213.366 132.089C213.258 132.298 213.071 132.455 212.848 132.526L40.6743 187.36C40.5874 187.388 40.4967 187.402 40.4055 187.402V187.402Z" fill="white" />
		</g>
		<g opacity="0.61">
			<path opacity="0.61" d="M91.6873 153.675C91.4761 153.675 91.272 153.599 91.1118 153.461C90.9516 153.324 90.8457 153.134 90.8132 152.925C90.7808 152.717 90.824 152.503 90.9349 152.324C91.0459 152.144 91.2174 152.01 91.4184 151.946L207.279 115.046C207.502 114.979 207.742 115.002 207.948 115.11C208.154 115.218 208.309 115.403 208.38 115.625C208.451 115.847 208.431 116.087 208.326 116.295C208.22 116.502 208.037 116.66 207.816 116.734L91.9561 153.633C91.8691 153.661 91.7784 153.675 91.6873 153.675V153.675Z" fill="white" />
		</g>
		<g opacity="0.61">
			<path opacity="0.61" d="M195.883 79.2746L80.0269 116.186L81.747 121.584L197.603 84.6724L195.883 79.2746Z" fill="white" />
		</g>
		<g opacity="0.61">
			<path opacity="0.61" d="M86.2864 136.721C86.0752 136.72 85.8712 136.645 85.7109 136.507C85.5507 136.37 85.4448 136.18 85.4124 135.971C85.3799 135.763 85.4231 135.549 85.5341 135.37C85.645 135.19 85.8165 135.056 86.0176 134.992L201.877 98.0928C201.988 98.0575 202.105 98.0443 202.221 98.0541C202.337 98.0639 202.449 98.0964 202.553 98.1497C202.656 98.2031 202.748 98.2763 202.823 98.3651C202.898 98.454 202.954 98.5567 202.99 98.6675C203.025 98.7782 203.038 98.8949 203.028 99.0107C203.019 99.1266 202.986 99.2393 202.933 99.3426C202.879 99.4459 202.806 99.5377 202.717 99.6127C202.629 99.6877 202.526 99.7444 202.415 99.7797L86.5552 136.677C86.4683 136.706 86.3777 136.72 86.2864 136.721Z" fill="white" />
		</g>
		<path d="M104.18 241.871C104.081 241.903 103.978 241.916 103.875 241.912L71.2447 240.542C71.1286 240.537 71.0147 240.509 70.9094 240.46C70.804 240.411 70.7094 240.342 70.6308 240.257C70.472 240.084 70.3884 239.855 70.3982 239.621C70.4081 239.387 70.5106 239.166 70.6833 239.007C70.856 238.849 71.0846 238.765 71.319 238.775L103.393 240.122L123.481 202.437C123.583 202.246 123.752 202.098 123.956 202.023C124.16 201.948 124.385 201.951 124.587 202.031L151.952 212.849L169.966 193.94C170.071 193.829 170.204 193.748 170.35 193.703C170.497 193.659 170.652 193.654 170.802 193.688L202.001 200.768L211.534 174.495C211.614 174.274 211.779 174.094 211.991 173.995C212.203 173.896 212.447 173.885 212.667 173.965C212.888 174.045 213.067 174.209 213.167 174.422C213.266 174.634 213.277 174.877 213.197 175.098L203.398 202.102C203.325 202.305 203.18 202.474 202.991 202.577C202.801 202.681 202.581 202.711 202.371 202.663L170.899 195.521L152.821 214.501C152.699 214.629 152.542 214.717 152.37 214.755C152.198 214.792 152.019 214.778 151.855 214.713L124.67 203.966L104.695 241.444C104.586 241.648 104.401 241.802 104.18 241.871V241.871Z" fill="#262626" />
		<path d="M52.3018 169.352C65.4213 169.352 76.0567 158.718 76.0567 145.6C76.0567 132.482 65.4213 121.848 52.3018 121.848C39.1823 121.848 28.5469 132.482 28.5469 145.6C28.5469 158.718 39.1823 169.352 52.3018 169.352Z" fill="#F3F5FD" />
		<path d="M63.818 124.828L52.3053 145.601L45.0957 122.971C48.0687 122.019 51.2006 121.665 54.3111 121.928C57.4216 122.191 60.4493 123.067 63.2199 124.505C63.4201 124.609 63.6216 124.717 63.818 124.828Z" fill="#F7BE2B" />
		<path d="M74.94 138.393C76.2396 142.446 76.4188 146.774 75.4587 150.92L52.3057 145.604L63.2202 124.507C63.4204 124.61 63.6219 124.719 63.8183 124.83C69.1263 127.76 73.1073 132.615 74.94 138.393V138.393Z" fill="#262626" />
		<path d="M76.2848 256.307C76.1325 256.307 75.9825 256.27 75.8476 256.199C75.7128 256.128 75.5972 256.025 75.5106 255.9C75.424 255.774 75.369 255.63 75.3504 255.479C75.3317 255.328 75.3499 255.174 75.4035 255.031L92.8245 208.66C92.8686 208.542 92.9357 208.435 93.0219 208.343C93.1081 208.252 93.2116 208.179 93.3265 208.128C93.4413 208.077 93.5651 208.05 93.6907 208.047C93.8163 208.045 93.9411 208.068 94.0578 208.114L131.07 222.851L146.981 202.366C147.091 202.223 147.241 202.115 147.412 202.055C147.582 201.994 147.766 201.984 147.942 202.026L180.649 209.698L208.431 164.467C208.494 164.36 208.579 164.266 208.68 164.191C208.78 164.117 208.895 164.063 209.016 164.033C209.138 164.003 209.264 163.997 209.388 164.016C209.511 164.036 209.63 164.079 209.737 164.145C209.843 164.21 209.936 164.296 210.009 164.398C210.082 164.5 210.134 164.615 210.162 164.737C210.191 164.859 210.194 164.985 210.173 165.108C210.152 165.232 210.107 165.35 210.04 165.455L181.902 211.268C181.798 211.437 181.643 211.569 181.46 211.645C181.277 211.721 181.074 211.738 180.881 211.692L148.101 204.003L132.124 224.57C131.998 224.731 131.823 224.848 131.626 224.902C131.428 224.956 131.219 224.944 131.028 224.868L94.251 210.225L77.1694 255.696C77.1017 255.875 76.9808 256.03 76.8227 256.14C76.6647 256.249 76.477 256.307 76.2848 256.307V256.307Z" fill="white" />
		<path d="M357.919 44.0698H136.371V327.866H357.919V44.0698Z" fill="#DEE8F5" />
		<path d="M194.997 62.1218H153.826V98.9741H194.997V62.1218Z" fill="white" />
		<path d="M340.467 152.813H303.666V241.165H340.467V152.813Z" fill="#EFE3C4" />
		<path d="M303.666 229.232H153.83V240.496H303.666V229.232Z" fill="#C1D8ED" />
		<path d="M340.467 147.494H153.822V158.132H340.467V147.494Z" fill="white" />
		<path d="M341.352 242.051H152.937V147.494H154.707V240.281H339.582V147.494H341.352V242.051Z" fill="white" />
		<path d="M189.001 152.813H187.23V241.166H189.001V152.813Z" fill="white" />
		<path d="M340.467 168.511H153.83V170.282H340.467V168.511Z" fill="white" />
		<path d="M340.467 180.478H153.83V182.249H340.467V180.478Z" fill="white" />
		<path d="M340.467 192.445H153.83V194.216H340.467V192.445Z" fill="white" />
		<path d="M340.467 204.413H153.83V206.183H340.467V204.413Z" fill="white" />
		<path d="M340.467 216.38H153.83V218.15H340.467V216.38Z" fill="white" />
		<path d="M340.467 228.347H153.83V230.118H340.467V228.347Z" fill="white" />
		<path d="M266.759 152.813H264.988V241.166H266.759V152.813Z" fill="white" />
		<path d="M304.551 152.813H302.78V241.166H304.551V152.813Z" fill="white" />
		<path d="M340.466 290.105H283.9V310.325H340.466V290.105Z" fill="white" />
		<path d="M340.467 258.452H153.822V260.223H340.467V258.452Z" fill="white" />
		<path d="M340.467 273.836H153.822V275.607H340.467V273.836Z" fill="white" />
		<path d="M340.466 82.7048H211.583V84.4755H340.466V82.7048Z" fill="white" />
		<path d="M277.495 98.0891H211.583V99.8598H277.495V98.0891Z" fill="white" />
		<path d="M340.467 115.151H153.822V116.921H340.467V115.151Z" fill="white" />
		<path d="M340.467 130.535H153.822V132.306H340.467V130.535Z" fill="white" />
		<path d="M340.466 62.7512H211.583V70.004H340.466V62.7512Z" fill="white" />
		<path d="M449.174 246.121L360.999 219.286C356.598 217.947 351.945 220.428 350.606 224.827L318.67 329.738C317.33 334.137 319.812 338.79 324.212 340.129L412.388 366.964C416.788 368.303 421.441 365.822 422.78 361.422L454.717 256.512C456.056 252.112 453.575 247.46 449.174 246.121Z" fill="#262626" />
		<path d="M441.681 253.117L363.322 229.27C360.772 228.493 358.075 229.931 357.298 232.482L353.712 244.264C352.935 246.814 354.374 249.511 356.924 250.287L435.283 274.135C437.833 274.911 440.53 273.473 441.307 270.922L444.894 259.14C445.67 256.59 444.232 253.893 441.681 253.117Z" fill="white" />
		<path d="M371.051 262.976L353.434 257.614C351.52 257.032 349.496 258.111 348.913 260.025L344.806 273.516C344.224 275.43 345.303 277.454 347.217 278.037L364.835 283.398C366.749 283.981 368.773 282.901 369.356 280.987L373.462 267.496C374.045 265.582 372.966 263.558 371.051 262.976Z" fill="#FD5D76" />
		<path opacity="0.16" d="M402.575 272.569L384.958 267.207C383.044 266.625 381.019 267.704 380.437 269.618L376.33 283.109C375.747 285.023 376.827 287.047 378.741 287.63L396.358 292.991C398.272 293.574 400.296 292.494 400.879 290.58L404.986 277.089C405.569 275.175 404.489 273.152 402.575 272.569Z" fill="#0F1011" />
		<path opacity="0.16" d="M434.097 282.163L416.48 276.801C414.566 276.219 412.542 277.298 411.959 279.212L407.852 292.703C407.27 294.617 408.349 296.641 410.263 297.223L427.88 302.585C429.795 303.167 431.819 302.088 432.402 300.174L436.508 286.683C437.091 284.769 436.012 282.745 434.097 282.163Z" fill="#0F1011" />
		<path opacity="0.16" d="M362.719 290.349L345.102 284.987C343.188 284.405 341.163 285.484 340.581 287.398L336.474 300.889C335.891 302.803 336.971 304.827 338.885 305.409L356.502 310.771C358.416 311.353 360.44 310.274 361.023 308.36L365.13 294.869C365.713 292.955 364.633 290.931 362.719 290.349Z" fill="#0F1011" />
		<path opacity="0.16" d="M394.242 299.942L376.625 294.581C374.711 293.998 372.686 295.078 372.104 296.992L367.997 310.483C367.414 312.397 368.494 314.421 370.408 315.003L388.025 320.365C389.939 320.947 391.963 319.868 392.546 317.954L396.653 304.463C397.236 302.549 396.156 300.525 394.242 299.942Z" fill="#0F1011" />
		<path opacity="0.16" d="M354.386 317.721L336.769 312.36C334.855 311.777 332.83 312.856 332.248 314.77L328.141 328.261C327.558 330.175 328.638 332.199 330.552 332.782L348.169 338.143C350.083 338.726 352.107 337.646 352.69 335.732L356.797 322.241C357.38 320.327 356.3 318.304 354.386 317.721Z" fill="#0F1011" />
		<path opacity="0.16" d="M385.909 327.315L368.292 321.953C366.378 321.37 364.353 322.45 363.771 324.364L359.664 337.855C359.081 339.769 360.161 341.793 362.075 342.375L379.692 347.737C381.606 348.319 383.63 347.24 384.213 345.326L388.32 331.835C388.903 329.921 387.823 327.897 385.909 327.315Z" fill="#0F1011" />
		<path d="M408.147 304.175C407.227 303.895 406.235 303.992 405.387 304.444C404.539 304.896 403.905 305.667 403.625 306.586L396.348 330.493L394.817 335.522L391.186 347.45C391.047 347.905 391 348.383 391.046 348.856C391.092 349.329 391.231 349.789 391.455 350.209C391.679 350.629 391.983 351 392.351 351.302C392.718 351.604 393.141 351.831 393.597 351.97L411.214 357.332C411.669 357.47 412.147 357.518 412.621 357.472C413.094 357.425 413.554 357.286 413.974 357.063C414.394 356.839 414.765 356.534 415.067 356.167C415.37 355.799 415.596 355.376 415.735 354.921L419.366 342.993L420.897 337.964L428.175 314.057C428.454 313.138 428.358 312.145 427.905 311.297C427.453 310.45 426.683 309.816 425.764 309.537L408.147 304.175Z" fill="#F7BE2B" />
	</g>
	<defs>
		<radialGradient id="paint0_radial_411_1868" cx="0" cy="0" r="1" gradientUnits="userSpaceOnUse" gradientTransform="translate(254.032 -103.167) rotate(123.513) scale(658.236 760.772)">
			<stop stop-color="white" />
			<stop offset="1" stop-color="#503B06" stop-opacity="0" />
		</radialGradient>
		<clipPath id="clip0_411_1868">
			<rect width="483" height="391" fill="white" />
		</clipPath>
	</defs>
</svg>
