<svg width="431" height="288" viewBox="0 0 431 288" fill="none" xmlns="http://www.w3.org/2000/svg">
	<g clip-path="url(#clip0_411_2868)">
		<path d="M351.429 235.045L350.619 234.874C350.788 234.071 350.945 233.254 351.084 232.446L351.9 232.587C351.757 233.405 351.599 234.232 351.429 235.045Z" fill="#B9BABE" />
		<path d="M286.814 288L286.808 287.171C288.45 287.158 290.113 287.082 291.75 286.944L291.82 287.77C290.162 287.909 288.478 287.987 286.814 288ZM281.805 287.851C280.147 287.739 278.471 287.561 276.822 287.327L276.939 286.507C278.568 286.74 280.224 286.914 281.863 287.024L281.805 287.851ZM296.791 287.162L296.66 286.343C298.281 286.082 299.913 285.756 301.511 285.372L301.704 286.178C300.085 286.567 298.433 286.898 296.791 287.162V287.162ZM271.891 286.436C270.262 286.079 268.63 285.656 267.04 285.18L267.277 284.386C268.849 284.856 270.459 285.273 272.068 285.626L271.891 286.436ZM306.528 284.826L306.275 284.038C307.836 283.537 309.401 282.968 310.926 282.347L311.238 283.115C309.693 283.742 308.109 284.318 306.528 284.826V284.826ZM262.295 283.563C260.74 282.967 259.189 282.304 257.685 281.592L258.038 280.842C259.523 281.547 261.055 282.2 262.59 282.79L262.295 283.563ZM315.806 281.052L315.438 280.31C316.909 279.578 318.371 278.781 319.783 277.941L320.205 278.654C318.775 279.505 317.295 280.311 315.806 281.052H315.806ZM253.238 279.277C251.792 278.454 250.359 277.564 248.976 276.632L249.438 275.945C250.804 276.865 252.218 277.743 253.645 278.556L253.238 279.277ZM324.418 275.932L323.944 275.253C325.291 274.309 326.619 273.305 327.891 272.262L328.414 272.904C327.125 273.958 325.781 274.977 324.417 275.932H324.418ZM244.93 273.672C243.625 272.64 242.342 271.544 241.116 270.415L241.676 269.805C242.887 270.92 244.154 272.002 245.441 273.021L244.93 273.672ZM332.172 269.584L331.602 268.983C332.793 267.849 333.956 266.656 335.059 265.436L335.672 265.992C334.555 267.228 333.378 268.436 332.172 269.584ZM237.555 266.882C236.418 265.664 235.313 264.389 234.27 263.091L234.915 262.571C235.945 263.853 237.036 265.113 238.159 266.315L237.555 266.882ZM338.894 262.148L338.241 261.639C339.249 260.339 340.221 258.986 341.128 257.613L341.818 258.071C340.899 259.459 339.915 260.83 338.894 262.147L338.894 262.148ZM231.277 259.066C230.334 257.693 229.431 256.268 228.593 254.828L229.308 254.41C230.136 255.832 231.028 257.24 231.959 258.597L231.277 259.066ZM344.426 253.784L343.703 253.38C344.504 251.943 345.261 250.458 345.951 248.963L346.702 249.311C346.003 250.824 345.237 252.329 344.426 253.784ZM226.231 250.402C225.502 248.903 224.822 247.358 224.208 245.811L224.977 245.505C225.583 247.033 226.255 248.558 226.975 250.039L226.231 250.402ZM348.634 244.682L347.859 244.392C348.433 242.854 348.957 241.272 349.416 239.688L350.211 239.919C349.746 241.519 349.215 243.122 348.634 244.679V244.682Z" fill="#B9BABE" />
		<path d="M222.524 241.044C222.276 240.252 222.042 239.444 221.825 238.64L222.624 238.423C222.838 239.215 223.07 240.013 223.314 240.796L222.524 241.044Z" fill="#B9BABE" />
		<path d="M32.2708 168.496C31.4701 168.259 30.6682 167.994 29.8882 167.711L30.1708 166.931C30.9351 167.21 31.7208 167.47 32.5058 167.701L32.2708 168.496Z" fill="#B9BABE" />
		<path d="M25.2822 165.708C23.7899 164.946 22.3459 164.092 20.9586 163.152L21.4224 162.466C22.7816 163.387 24.1963 164.223 25.6584 164.969L25.2822 165.708ZM16.9833 160.081C15.7234 158.976 14.5325 157.794 13.4173 156.543L14.0347 155.991C15.1272 157.217 16.2939 158.375 17.5283 159.457L16.9833 160.081ZM10.3118 152.594C9.3586 151.215 8.49024 149.779 7.71161 148.294L8.44401 147.909C9.2071 149.364 10.058 150.771 10.9921 152.122L10.3118 152.594ZM5.65426 143.71C5.06257 142.141 4.56758 140.537 4.17208 138.908L4.97648 138.712C5.3638 140.309 5.8487 141.88 6.42846 143.417L5.65426 143.71ZM3.28988 133.961C3.11157 132.415 3.02163 130.859 3.02051 129.303V128.941L3.84808 128.948V129.303C3.84867 130.827 3.93639 132.351 4.11084 133.866L3.28988 133.961ZM4.20021 124.035L3.38009 123.926C3.60197 122.264 3.92505 120.617 4.34752 118.994L5.1482 119.201C4.73403 120.792 4.41703 122.406 4.19897 124.035H4.20021ZM6.673 114.52L5.90295 114.215C6.51862 112.655 7.22932 111.134 8.03105 109.661L8.75766 110.058C7.97207 111.501 7.27587 112.991 6.673 114.52ZM11.3749 105.89L10.7029 105.406C11.6809 104.044 12.7419 102.744 13.8799 101.513L14.4865 102.077C13.372 103.282 12.3328 104.556 11.3749 105.89ZM18.0439 98.6777L17.5105 98.0436C18.791 96.9631 20.1361 95.9618 21.5383 95.0453L21.9906 95.7395C20.6166 96.6373 19.2985 97.6191 18.0439 98.6777ZM26.2654 93.3061L25.9013 92.56C27.4054 91.8223 28.9531 91.1771 30.5357 90.6282L30.8063 91.4115C29.2556 91.9497 27.7392 92.5829 26.2654 93.3061Z" fill="#B9BABE" />
		<path d="M35.5578 90.0865L35.3853 89.2758C36.1992 89.1021 37.0296 88.9516 37.8535 88.8281L37.9776 89.6484C37.1687 89.769 36.3552 89.9161 35.5578 90.0865Z" fill="#B9BABE" />
		<path d="M73.8423 181.216C73.8484 176.775 72.7459 172.404 70.6351 168.499C68.5242 164.594 65.472 161.281 61.7563 158.859C58.0406 156.437 53.7793 154.985 49.3601 154.634C44.941 154.283 40.5045 155.044 36.4541 156.849C32.4038 158.654 28.8683 161.444 26.1694 164.967C23.4705 168.49 21.6939 172.632 21.0013 177.018C20.3087 181.404 20.722 185.894 22.2036 190.079C23.6853 194.264 26.1882 198.011 29.4847 200.98C32.444 203.604 34.8175 206.823 36.4503 210.429C38.0831 214.034 38.9384 217.943 38.9604 221.902V221.931L55.4639 221.95V221.921C55.4913 217.967 56.352 214.062 57.9896 210.464C59.6272 206.865 62.0048 203.654 64.967 201.039C67.7583 198.549 69.9922 195.495 71.5218 192.078C73.0514 188.662 73.8422 184.96 73.8423 181.216V181.216Z" fill="#F7BE2B" />
		<path opacity="0.8" d="M73.8423 181.216C73.8484 176.775 72.7459 172.404 70.6351 168.499C68.5242 164.594 65.472 161.281 61.7563 158.859C58.0406 156.437 53.7793 154.985 49.3601 154.634C44.941 154.283 40.5045 155.044 36.4541 156.849C32.4038 158.654 28.8683 161.444 26.1694 164.967C23.4705 168.49 21.6939 172.632 21.0013 177.018C20.3087 181.404 20.722 185.894 22.2036 190.079C23.6853 194.264 26.1882 198.011 29.4847 200.98C32.444 203.604 34.8175 206.823 36.4503 210.429C38.0831 214.034 38.9384 217.943 38.9604 221.902V221.931L55.4639 221.95V221.921C55.4913 217.967 56.352 214.062 57.9896 210.464C59.6272 206.865 62.0048 203.654 64.967 201.039C67.7583 198.549 69.9922 195.495 71.5218 192.078C73.0514 188.662 73.8422 184.96 73.8423 181.216V181.216Z" fill="white" />
		<path d="M43.9462 222.008L37.4778 184.974C37.4216 184.648 37.4859 184.314 37.6586 184.033C37.8314 183.752 38.1007 183.544 38.4159 183.447C39.0493 183.224 39.7227 183.138 40.3918 183.193C41.061 183.249 41.7109 183.446 42.2989 183.77C42.5074 183.898 42.7039 184.044 42.886 184.206C43.4971 183.66 44.2223 183.256 45.0088 183.026C47.4129 182.282 48.9037 183.231 49.7305 184.158C49.9073 184.357 50.0688 184.57 50.2134 184.794C51.3418 183.55 52.6361 182.905 53.822 183.039C54.1117 183.049 54.3964 183.117 54.6591 183.24C54.9218 183.362 55.157 183.537 55.3505 183.753C55.5521 184.007 55.6476 184.329 55.617 184.652L50.3363 222.003L49.5166 221.887L54.7977 184.535C54.801 184.489 54.8093 183.985 53.7289 183.863C52.7453 183.75 51.6273 184.379 50.6363 185.567C51.3811 187.189 51.4585 189.124 50.9599 190.264C50.8677 190.546 50.6934 190.793 50.4595 190.975C50.2255 191.156 49.9427 191.264 49.6473 191.283C49.3721 191.304 49.0964 191.246 48.8531 191.115C48.6097 190.985 48.4087 190.787 48.274 190.546C47.6491 189.391 48.4291 187.284 49.4181 185.815C49.4962 185.699 49.5756 185.586 49.6564 185.476C49.5027 185.202 49.3206 184.946 49.1131 184.71C48.1457 183.625 46.8468 183.324 45.2533 183.818C44.585 184.009 43.9679 184.347 43.4476 184.808C44.1569 185.806 44.6205 186.957 44.8006 188.169C45.1147 189.854 44.6066 190.563 44.2755 190.836C44.1094 190.976 43.9085 191.068 43.6942 191.102C43.48 191.136 43.2605 191.111 43.0594 191.029C42.1077 190.651 41.3857 189.023 41.449 187.402C41.4714 186.471 41.7796 185.569 42.3316 184.819C42.1884 184.691 42.034 184.577 41.8702 184.477C41.381 184.214 40.8422 184.057 40.2887 184.016C39.7351 183.975 39.1792 184.051 38.6567 184.239C38.5347 184.276 38.4305 184.357 38.3638 184.466C38.297 184.575 38.2723 184.705 38.2942 184.831L44.7626 221.865L43.9462 222.008ZM50.0561 186.349C49.0945 187.809 48.6319 189.466 49.0018 190.149C49.0632 190.259 49.1569 190.347 49.2701 190.401C49.3832 190.455 49.5104 190.473 49.6341 190.452C49.8608 190.448 50.052 190.272 50.2018 189.929C50.5705 189.084 50.5233 187.638 50.0561 186.349ZM42.8939 185.453C42.5092 186.044 42.2945 186.73 42.2732 187.435C42.2161 188.894 42.8691 190.063 43.3623 190.259C43.4259 190.285 43.4955 190.293 43.5634 190.282C43.6312 190.271 43.6947 190.241 43.7467 190.196C43.8659 190.098 44.2358 189.672 43.9842 188.321C43.8308 187.298 43.4589 186.319 42.8939 185.453V185.453Z" fill="white" />
		<path d="M38.9604 221.93L55.4643 221.949L55.4632 222.915C55.4607 225.107 54.5889 227.209 53.0396 228.757C51.4903 230.305 49.3905 231.174 47.202 231.171V231.171C46.1183 231.17 45.0455 230.955 44.0448 230.538C43.0441 230.122 42.135 229.512 41.3696 228.744C40.6042 227.975 39.9974 227.063 39.5839 226.06C39.1703 225.057 38.9581 223.982 38.9593 222.896L38.9604 221.93Z" fill="#F7BE2B" />
		<path opacity="0.5" d="M38.9604 221.93L55.4643 221.949L55.4632 222.915C55.4607 225.107 54.5889 227.209 53.0396 228.757C51.4903 230.305 49.3905 231.174 47.202 231.171V231.171C46.1183 231.17 45.0455 230.955 44.0448 230.538C43.0441 230.122 42.135 229.512 41.3696 228.744C40.6042 227.975 39.9974 227.063 39.5839 226.06C39.1703 225.057 38.9581 223.982 38.9593 222.896L38.9604 221.93Z" fill="white" />
		<path d="M46.3028 24.9672L45.563 24.5962C45.9354 23.8502 46.338 23.1041 46.7559 22.385L47.4714 22.802C47.0621 23.5062 46.6686 24.2348 46.3028 24.9672Z" fill="#B9BABE" />
		<path d="M118.348 36.0728C118.099 34.5231 117.756 32.99 117.321 31.4821L118.115 31.2516C118.56 32.792 118.91 34.358 119.165 35.941L118.348 36.0728ZM115.741 27.0505C115.125 25.6071 114.422 24.2026 113.636 22.8448L114.352 22.4303C115.155 23.8173 115.874 25.2521 116.503 26.7268L115.741 27.0505ZM111.034 18.9267C110.087 17.677 109.064 16.4866 107.972 15.3622L108.565 14.782C109.682 15.931 110.727 17.1477 111.695 18.4252L111.034 18.9267ZM50.0777 18.8853L49.4189 18.3838C50.3882 17.1072 51.4349 15.8915 52.553 14.7434L53.1451 15.3237C52.0511 16.4471 51.0272 17.637 50.0793 18.8865L50.0777 18.8853ZM104.491 12.201C103.267 11.2205 101.984 10.3162 100.649 9.49324L101.083 8.78863C102.447 9.62955 103.757 10.5533 105.008 11.5548L104.491 12.201ZM56.6279 12.1662L56.1115 11.5184C57.3628 10.518 58.6742 9.59555 60.0384 8.7563L60.4716 9.46091C59.1368 10.2834 57.8537 11.1873 56.6296 12.1674L56.6279 12.1662ZM96.5075 7.27537C95.0837 6.61974 93.6215 6.05154 92.1288 5.57395L92.38 4.78437C93.905 5.2721 95.3989 5.85247 96.8534 6.52227L96.5075 7.27537ZM64.619 7.25341L64.2756 6.49947C65.7319 5.8339 67.2273 5.25768 68.7536 4.77401L69.0018 5.56441C67.5081 6.03795 66.0444 6.60199 64.619 7.25341V7.25341ZM87.5771 4.4246C86.037 4.13562 84.4806 3.94183 82.9166 3.84433L82.968 3.01538C84.5657 3.1145 86.1559 3.31217 87.7294 3.60725L87.5771 4.4246ZM73.5593 4.42211L73.4078 3.60601C74.9815 3.31285 76.5716 3.11616 78.1693 3.01704L78.2202 3.84599C76.6563 3.94252 75.0998 4.1345 73.5593 4.42087V4.42211Z" fill="#B9BABE" />
		<path d="M119.647 43.2548L118.819 43.2316C118.842 42.4168 118.838 41.5891 118.809 40.7717L119.636 40.7415C119.667 41.5766 119.67 42.4226 119.647 43.2548Z" fill="#B9BABE" />
		<path d="M33.9533 91.7439C52.7052 91.7439 67.9066 76.5172 67.9066 57.734C67.9066 38.9509 52.7052 23.7241 33.9533 23.7241C15.2014 23.7241 0 38.9509 0 57.734C0 76.5172 15.2014 91.7439 33.9533 91.7439Z" fill="#F7BE2B" />
		<path opacity="0.8" d="M33.9533 91.7439C52.7052 91.7439 67.9066 76.5172 67.9066 57.734C67.9066 38.9509 52.7052 23.7241 33.9533 23.7241C15.2014 23.7241 0 38.9509 0 57.734C0 76.5172 15.2014 91.7439 33.9533 91.7439Z" fill="white" />
		<path d="M41.2746 58.1925C40.1383 60.6604 38.2561 62.7079 35.8943 64.0454C33.5326 65.383 30.8107 65.9428 28.1138 65.6458C25.4169 65.3488 22.8815 64.21 20.8663 62.3904C18.851 60.5709 17.4579 58.1627 16.884 55.5065C16.3101 52.8503 16.5845 50.0807 17.6684 47.5893C18.7522 45.0979 20.5907 43.0109 22.9236 41.6235C25.2566 40.2362 27.966 39.6187 30.6685 39.8584C33.3711 40.0981 35.93 41.1829 37.9833 42.9593V42.9593C40.1042 44.7993 41.5717 47.2792 42.1652 50.0261C42.7587 52.773 42.4461 55.6387 41.2746 58.1925V58.1925ZM20.4048 48.5709C19.3371 50.8865 19.1856 53.5214 19.9807 55.9445C20.7758 58.3676 22.4584 60.3987 24.6894 61.6283C26.9204 62.8579 29.5338 63.1945 32.0028 62.5704C34.4718 61.9463 36.6127 60.4077 37.9941 58.265C39.3754 56.1222 39.8944 53.5346 39.4463 51.0238C38.9983 48.5129 37.6167 46.2655 35.5799 44.7347C33.5431 43.2039 31.0026 42.5035 28.4706 42.7746C25.9387 43.0458 23.6035 44.2684 21.9358 46.1959C21.3169 46.9117 20.8015 47.7112 20.4048 48.5709V48.5709Z" fill="white" />
		<path d="M51.1824 74.8156C51.083 75.031 50.9325 75.2187 50.744 75.3624C50.5556 75.5061 50.3349 75.6015 50.1012 75.6401C49.8675 75.6788 49.6279 75.6596 49.4033 75.5842C49.1787 75.5089 48.9759 75.3796 48.8127 75.2077L36.5377 62.2641C36.4065 62.1257 36.3037 61.9628 36.2353 61.7847C36.167 61.6065 36.1343 61.4166 36.1391 61.2259C36.144 61.0351 36.1864 60.8471 36.2638 60.6727C36.3412 60.4983 36.4521 60.3409 36.5902 60.2095C36.7284 60.078 36.891 59.9751 37.0688 59.9066C37.2467 59.8381 37.4362 59.8054 37.6267 59.8103C37.8171 59.8152 38.0048 59.8576 38.1789 59.9351C38.353 60.0126 38.5101 60.1238 38.6414 60.2621L50.9155 73.2058C51.1157 73.4166 51.2481 73.6827 51.2957 73.9697C51.3433 74.2567 51.3038 74.5514 51.1824 74.8156V74.8156Z" fill="white" />
		<path d="M236.113 58.4565L235.327 58.2024C235.58 57.4149 235.848 56.6178 236.125 55.8345L236.906 56.1113C236.63 56.8872 236.364 57.676 236.113 58.4565Z" fill="#B9BABE" />
		<path d="M396.068 66.3382C395.725 64.7537 395.33 63.1596 394.894 61.6L395.691 61.3766C396.131 62.9516 396.53 64.5622 396.877 66.1621L396.068 66.3382ZM393.445 56.9383C392.918 55.4048 392.34 53.8687 391.725 52.3691L392.49 52.0541C393.111 53.5686 393.696 55.1213 394.228 56.6685L393.445 56.9383ZM238.666 51.5559L237.903 51.2339C238.537 49.726 239.225 48.2169 239.947 46.748L240.689 47.114C239.974 48.5684 239.293 50.063 238.666 51.5559ZM389.74 47.9085C389.036 46.4471 388.284 44.9881 387.499 43.5719L388.223 43.1694C389.015 44.5994 389.776 46.0732 390.486 47.5492L389.74 47.9085ZM242.969 42.7993L242.25 42.3902C243.057 40.9661 243.917 39.5481 244.807 38.1758L245.5 38.6292C244.621 39.9858 243.769 41.3897 242.97 42.7993H242.969ZM385.011 39.3753C384.142 38.0075 383.225 36.6447 382.28 35.3292L382.951 34.8451C383.906 36.1714 384.834 37.5483 385.709 38.931L385.011 39.3753ZM248.277 34.6088L247.611 34.1168C248.582 32.798 249.604 31.4911 250.65 30.2324L251.286 30.7629C250.25 32.0092 249.238 33.3028 248.277 34.6088ZM379.318 31.4484C378.298 30.1909 377.227 28.9471 376.132 27.7509L376.742 27.1909C377.847 28.3991 378.929 29.6558 379.959 30.9254L379.318 31.4484ZM254.516 27.1026L253.913 26.5352C255.03 25.3411 256.2 24.1644 257.389 23.0383L257.957 23.6401C256.781 24.7555 255.623 25.9201 254.516 27.1026ZM372.735 24.2469C371.573 23.1166 370.362 22.0087 369.135 20.9501L369.676 20.3222C370.913 21.3903 372.135 22.5106 373.31 23.6521L372.735 24.2469ZM261.596 20.3873L261.063 19.7527C262.313 18.6999 263.611 17.6691 264.923 16.6893L265.42 17.3525C264.117 18.324 262.831 19.3445 261.596 20.3873ZM365.352 17.8722C364.065 16.8883 362.732 15.93 361.39 15.024L361.852 14.3363C363.208 15.2515 364.555 16.2197 365.854 17.2132L365.352 17.8722ZM269.409 14.5506L268.953 13.8584C270.319 12.9586 271.728 12.0874 273.144 11.2688L273.558 11.9867C272.156 12.797 270.76 13.6599 269.409 14.5506ZM357.263 12.4152C355.873 11.5921 354.436 10.7988 352.996 10.0577L353.374 9.31992C354.829 10.0689 356.279 10.8705 357.685 11.7015L357.263 12.4152ZM277.849 9.66974L277.477 8.92866C278.937 8.19462 280.439 7.49415 281.939 6.84674L282.267 7.60814C280.782 8.24809 279.295 8.94275 277.849 9.66974ZM348.598 7.95795C347.119 7.30432 345.6 6.6851 344.083 6.11768L344.373 5.34095C345.904 5.91417 347.439 6.5392 348.933 7.19946L348.598 7.95795ZM286.8 5.80848L286.517 5.02926C288.053 4.47055 289.626 3.95162 291.193 3.48326L291.43 4.27781C289.878 4.74079 288.32 5.25557 286.8 5.80848ZM339.471 4.54059C337.92 4.06104 336.339 3.62211 334.772 3.23582L334.97 2.43049C336.553 2.82093 338.149 3.26442 339.715 3.74853L339.471 4.54059ZM296.137 3.02236L295.948 2.21538C297.54 1.84235 299.162 1.51077 300.77 1.22934L300.911 2.04627C299.32 2.32107 297.714 2.65265 296.137 3.02236ZM330.004 2.20709C328.411 1.91198 326.79 1.66081 325.187 1.46103L325.289 0.638709C326.908 0.840559 328.546 1.09463 330.155 1.39223L330.004 2.20709ZM305.734 1.35285L305.641 0.529287C307.264 0.344845 308.913 0.206824 310.544 0.118955L310.588 0.947908C308.975 1.03371 307.341 1.17048 305.734 1.35285ZM320.333 1.00055C318.719 0.895684 317.081 0.837658 315.461 0.828954L315.466 0C317.102 0.00870401 318.757 0.0671452 320.387 0.173251L320.333 1.00055Z" fill="#B9BABE" />
		<path d="M397.309 73.613C397.207 72.7978 397.092 71.9729 396.965 71.1626L397.783 71.0354C397.911 71.8536 398.028 72.6863 398.131 73.5098L397.309 73.613Z" fill="#B9BABE" />
		<path d="M411.857 101.74C411.257 101.182 410.637 100.63 410.015 100.098L410.553 99.467C411.184 100.006 411.813 100.567 412.421 101.132L411.857 101.74Z" fill="#B9BABE" />
		<path d="M374.305 202.131L374.283 201.302C375.893 201.26 377.521 201.148 379.12 200.97L379.212 201.794C377.589 201.975 375.938 202.088 374.305 202.131ZM369.386 202.054C367.754 201.96 366.107 201.795 364.492 201.563L364.609 200.743C366.201 200.971 367.825 201.134 369.434 201.226L369.386 202.054ZM384.075 201.046L383.915 200.233C385.497 199.921 387.083 199.537 388.63 199.094L388.858 199.891C387.286 200.341 385.678 200.731 384.074 201.046H384.075ZM393.525 198.336L393.232 197.562C394.739 196.988 396.238 196.343 397.688 195.644L398.046 196.39C396.573 197.1 395.053 197.754 393.524 198.336H393.525ZM402.387 194.067L401.966 193.353C403.354 192.532 404.723 191.642 406.034 190.707L406.514 191.383C405.182 192.333 403.793 193.236 402.385 194.069L402.387 194.067ZM410.399 188.356L409.863 187.724C411.09 186.682 412.289 185.572 413.428 184.426L414.015 185.01C412.858 186.175 411.641 187.302 410.397 188.358L410.399 188.356ZM417.334 181.376L416.701 180.842C417.74 179.605 418.738 178.314 419.666 176.999L420.342 177.477C419.399 178.812 418.387 180.123 417.333 181.378L417.334 181.376ZM423.011 173.34L422.298 172.921C423.113 171.531 423.88 170.089 424.574 168.634L425.318 168.992C424.614 170.47 423.837 171.933 423.009 173.342L423.011 173.34ZM427.255 164.462L426.481 164.169C427.05 162.66 427.561 161.108 428 159.557L428.796 159.783C428.349 161.358 427.83 162.931 427.253 164.464L427.255 164.462ZM429.936 154.99L429.124 154.832C429.43 153.25 429.672 151.634 429.844 150.029L430.667 150.118C430.491 151.747 430.245 153.387 429.935 154.992L429.936 154.99ZM430.986 145.201L430.159 145.182C430.169 144.744 430.174 144.305 430.174 143.867C430.174 142.69 430.137 141.499 430.065 140.326L430.893 140.275C430.966 141.465 431.003 142.673 431.003 143.867C431.001 144.312 430.995 144.758 430.985 145.202L430.986 145.201ZM429.566 135.495C429.333 133.897 429.028 132.292 428.663 130.722L429.468 130.533C429.841 132.126 430.148 133.754 430.384 135.374L429.566 135.495ZM427.359 126.042C426.862 124.509 426.293 122.975 425.668 121.49L426.431 121.168C427.065 122.676 427.642 124.23 428.146 125.787L427.359 126.042ZM423.599 117.097C422.85 115.669 422.031 114.255 421.164 112.896L421.862 112.45C422.741 113.828 423.572 115.262 424.332 116.712L423.599 117.097ZM418.381 108.918C417.403 107.639 416.356 106.385 415.27 105.19L415.882 104.632C416.984 105.844 418.046 107.116 419.038 108.414L418.381 108.918Z" fill="#B9BABE" />
		<path d="M359.642 200.657C358.834 200.47 358.019 200.263 357.218 200.041L357.439 199.242C358.228 199.461 359.032 199.665 359.828 199.849L359.642 200.657Z" fill="#B9BABE" />
		<path d="M401.56 107.806C417.591 107.806 430.586 94.789 430.586 78.7315C430.586 62.6739 417.591 49.6567 401.56 49.6567C385.529 49.6567 372.534 62.6739 372.534 78.7315C372.534 94.789 385.529 107.806 401.56 107.806Z" fill="white" />
		<path opacity="0.2" d="M401.56 107.806C417.591 107.806 430.586 94.789 430.586 78.7315C430.586 62.6739 417.591 49.6567 401.56 49.6567C385.529 49.6567 372.534 62.6739 372.534 78.7315C372.534 94.789 385.529 107.806 401.56 107.806Z" fill="#F7BE2B" />
		<path d="M401.56 100.965C413.819 100.965 423.757 91.011 423.757 78.7316C423.757 66.4522 413.819 56.4978 401.56 56.4978C389.301 56.4978 379.363 66.4522 379.363 78.7316C379.363 91.011 389.301 100.965 401.56 100.965Z" fill="white" />
		<path opacity="0.2" d="M401.56 94.124C410.047 94.124 416.927 87.2325 416.927 78.7315C416.927 70.2305 410.047 63.3391 401.56 63.3391C393.073 63.3391 386.193 70.2305 386.193 78.7315C386.193 87.2325 393.073 94.124 401.56 94.124Z" fill="#F7BE2B" />
		<path d="M401.56 87.2829C406.275 87.2829 410.097 83.4543 410.097 78.7314C410.097 74.0086 406.275 70.1799 401.56 70.1799C396.845 70.1799 393.023 74.0086 393.023 78.7314C393.023 83.4543 396.845 87.2829 401.56 87.2829Z" fill="white" />
		<path opacity="0.2" d="M401.56 81.4347C403.051 81.4347 404.259 80.2245 404.259 78.7315C404.259 77.2386 403.051 76.0283 401.56 76.0283C400.07 76.0283 398.861 77.2386 398.861 78.7315C398.861 80.2245 400.07 81.4347 401.56 81.4347Z" fill="#F7BE2B" />
		<path d="M413.86 215.504H407.724C407.236 215.504 406.76 215.353 406.362 215.071C405.964 214.789 405.663 214.389 405.502 213.929C405.032 212.578 404.477 211.258 403.839 209.979C403.618 209.536 403.543 209.035 403.623 208.547C403.703 208.059 403.935 207.608 404.285 207.26L408.647 202.891C409.09 202.447 409.339 201.844 409.339 201.217C409.339 200.589 409.09 199.986 408.647 199.542L399.225 190.109C398.781 189.665 398.18 189.415 397.553 189.415C396.926 189.415 396.325 189.665 395.881 190.109L391.442 194.555C391.097 194.903 390.651 195.134 390.168 195.216C389.685 195.297 389.189 195.226 388.748 195.011C387.495 194.398 386.205 193.865 384.884 193.416C384.419 193.257 384.015 192.956 383.729 192.555C383.443 192.154 383.29 191.674 383.291 191.182V184.882C383.291 184.571 383.23 184.263 383.111 183.976C382.992 183.689 382.818 183.428 382.599 183.208C382.38 182.988 382.119 182.814 381.832 182.695C381.546 182.576 381.239 182.515 380.928 182.515H367.608C367.298 182.515 366.99 182.576 366.704 182.695C366.417 182.814 366.156 182.988 365.937 183.208C365.717 183.427 365.543 183.688 365.425 183.976C365.306 184.263 365.245 184.571 365.245 184.882V191.182C365.246 191.674 365.093 192.154 364.807 192.555C364.521 192.956 364.118 193.257 363.652 193.416C362.331 193.865 361.04 194.398 359.787 195.011C359.347 195.226 358.85 195.297 358.367 195.216C357.884 195.134 357.439 194.903 357.093 194.555L352.653 190.108C352.21 189.664 351.609 189.415 350.982 189.415C350.355 189.415 349.753 189.664 349.31 190.108L339.888 199.542C339.445 199.986 339.196 200.588 339.196 201.216C339.196 201.844 339.445 202.446 339.888 202.891L344.249 207.259C344.6 207.608 344.832 208.058 344.912 208.546C344.992 209.034 344.917 209.535 344.697 209.978C344.058 211.257 343.504 212.577 343.037 213.928C342.874 214.389 342.573 214.788 342.174 215.07C341.775 215.352 341.299 215.503 340.811 215.503H334.674C334.364 215.503 334.057 215.564 333.77 215.683C333.484 215.802 333.223 215.976 333.004 216.196C332.784 216.416 332.61 216.677 332.492 216.964C332.373 217.251 332.312 217.559 332.312 217.87V231.216C332.312 231.527 332.373 231.834 332.492 232.122C332.61 232.409 332.784 232.67 333.004 232.89C333.223 233.109 333.484 233.284 333.77 233.403C334.057 233.521 334.364 233.583 334.674 233.583H340.649C341.146 233.582 341.631 233.739 342.034 234.031C342.436 234.323 342.737 234.734 342.892 235.207C343.353 236.595 343.905 237.95 344.544 239.265C344.76 239.708 344.834 240.208 344.753 240.694C344.673 241.181 344.443 241.63 344.096 241.98L339.888 246.195C339.669 246.415 339.495 246.675 339.376 246.962C339.257 247.249 339.196 247.557 339.196 247.868C339.196 248.178 339.257 248.486 339.376 248.773C339.495 249.06 339.669 249.32 339.888 249.54L349.31 258.978C349.753 259.421 350.355 259.671 350.982 259.671C351.609 259.671 352.21 259.421 352.653 258.978L356.779 254.845C357.131 254.494 357.584 254.263 358.074 254.184C358.564 254.105 359.067 254.183 359.51 254.406C360.845 255.074 362.223 255.65 363.636 256.13C364.104 256.289 364.511 256.59 364.8 256.992C365.089 257.395 365.244 257.877 365.245 258.372V264.2C365.245 264.511 365.306 264.819 365.424 265.107C365.543 265.395 365.717 265.656 365.936 265.876C366.156 266.097 366.416 266.271 366.703 266.39C366.99 266.51 367.298 266.571 367.608 266.571H380.928C381.239 266.571 381.546 266.509 381.833 266.39C382.12 266.271 382.381 266.096 382.6 265.876C382.82 265.656 382.993 265.394 383.112 265.107C383.23 264.819 383.291 264.511 383.291 264.2V258.372C383.292 257.877 383.447 257.395 383.736 256.992C384.025 256.59 384.432 256.289 384.9 256.13C386.313 255.65 387.691 255.074 389.026 254.406C389.469 254.183 389.972 254.105 390.462 254.184C390.952 254.263 391.405 254.494 391.757 254.845L395.882 258.978C396.326 259.421 396.927 259.671 397.554 259.671C398.181 259.671 398.782 259.421 399.226 258.978L408.647 249.54C408.867 249.32 409.041 249.06 409.16 248.773C409.279 248.486 409.34 248.178 409.34 247.868C409.34 247.557 409.279 247.249 409.16 246.962C409.041 246.675 408.867 246.415 408.647 246.195L404.439 241.98C404.092 241.63 403.862 241.181 403.782 240.694C403.702 240.207 403.776 239.708 403.992 239.265C404.631 237.95 405.182 236.595 405.643 235.207C405.799 234.734 406.099 234.323 406.502 234.031C406.905 233.739 407.389 233.582 407.886 233.583H413.861C414.171 233.583 414.479 233.522 414.766 233.403C415.052 233.284 415.313 233.11 415.532 232.89C415.752 232.67 415.926 232.409 416.044 232.122C416.163 231.835 416.224 231.527 416.224 231.216V217.87C416.224 217.559 416.163 217.251 416.044 216.964C415.925 216.677 415.751 216.416 415.532 216.196C415.312 215.976 415.052 215.802 414.765 215.683C414.478 215.564 414.171 215.503 413.86 215.504V215.504ZM374.269 244.264C370.375 244.264 366.568 243.108 363.329 240.941C360.091 238.774 357.567 235.694 356.076 232.09C354.586 228.486 354.196 224.52 354.955 220.694C355.715 216.868 357.59 213.353 360.344 210.595C363.098 207.837 366.607 205.958 370.426 205.197C374.246 204.436 378.205 204.827 381.803 206.32C385.401 207.813 388.476 210.341 390.64 213.585C392.803 216.829 393.958 220.642 393.957 224.543C393.957 229.773 391.882 234.789 388.19 238.487C384.498 242.185 379.491 244.263 374.27 244.264H374.269Z" fill="#F7BE2B" />
		<path opacity="0.8" d="M413.86 215.504H407.724C407.236 215.504 406.76 215.353 406.362 215.071C405.964 214.789 405.663 214.389 405.502 213.929C405.032 212.578 404.477 211.258 403.839 209.979C403.618 209.536 403.543 209.035 403.623 208.547C403.703 208.059 403.935 207.608 404.285 207.26L408.647 202.891C409.09 202.447 409.339 201.844 409.339 201.217C409.339 200.589 409.09 199.986 408.647 199.542L399.225 190.109C398.781 189.665 398.18 189.415 397.553 189.415C396.926 189.415 396.325 189.665 395.881 190.109L391.442 194.555C391.097 194.903 390.651 195.134 390.168 195.216C389.685 195.297 389.189 195.226 388.748 195.011C387.495 194.398 386.205 193.865 384.884 193.416C384.419 193.257 384.015 192.956 383.729 192.555C383.443 192.154 383.29 191.674 383.291 191.182V184.882C383.291 184.571 383.23 184.263 383.111 183.976C382.992 183.689 382.818 183.428 382.599 183.208C382.38 182.988 382.119 182.814 381.832 182.695C381.546 182.576 381.239 182.515 380.928 182.515H367.608C367.298 182.515 366.99 182.576 366.704 182.695C366.417 182.814 366.156 182.988 365.937 183.208C365.717 183.427 365.543 183.688 365.425 183.976C365.306 184.263 365.245 184.571 365.245 184.882V191.182C365.246 191.674 365.093 192.154 364.807 192.555C364.521 192.956 364.118 193.257 363.652 193.416C362.331 193.865 361.04 194.398 359.787 195.011C359.347 195.226 358.85 195.297 358.367 195.216C357.884 195.134 357.439 194.903 357.093 194.555L352.653 190.108C352.21 189.664 351.609 189.415 350.982 189.415C350.355 189.415 349.753 189.664 349.31 190.108L339.888 199.542C339.445 199.986 339.196 200.588 339.196 201.216C339.196 201.844 339.445 202.446 339.888 202.891L344.249 207.259C344.6 207.608 344.832 208.058 344.912 208.546C344.992 209.034 344.917 209.535 344.697 209.978C344.058 211.257 343.504 212.577 343.037 213.928C342.874 214.389 342.573 214.788 342.174 215.07C341.775 215.352 341.299 215.503 340.811 215.503H334.674C334.364 215.503 334.057 215.564 333.77 215.683C333.484 215.802 333.223 215.976 333.004 216.196C332.784 216.416 332.61 216.677 332.492 216.964C332.373 217.251 332.312 217.559 332.312 217.87V231.216C332.312 231.527 332.373 231.834 332.492 232.122C332.61 232.409 332.784 232.67 333.004 232.89C333.223 233.109 333.484 233.284 333.77 233.403C334.057 233.521 334.364 233.583 334.674 233.583H340.649C341.146 233.582 341.631 233.739 342.034 234.031C342.436 234.323 342.737 234.734 342.892 235.207C343.353 236.595 343.905 237.95 344.544 239.265C344.76 239.708 344.834 240.208 344.753 240.694C344.673 241.181 344.443 241.63 344.096 241.98L339.888 246.195C339.669 246.415 339.495 246.675 339.376 246.962C339.257 247.249 339.196 247.557 339.196 247.868C339.196 248.178 339.257 248.486 339.376 248.773C339.495 249.06 339.669 249.32 339.888 249.54L349.31 258.978C349.753 259.421 350.355 259.671 350.982 259.671C351.609 259.671 352.21 259.421 352.653 258.978L356.779 254.845C357.131 254.494 357.584 254.263 358.074 254.184C358.564 254.105 359.067 254.183 359.51 254.406C360.845 255.074 362.223 255.65 363.636 256.13C364.104 256.289 364.511 256.59 364.8 256.992C365.089 257.395 365.244 257.877 365.245 258.372V264.2C365.245 264.511 365.306 264.819 365.424 265.107C365.543 265.395 365.717 265.656 365.936 265.876C366.156 266.097 366.416 266.271 366.703 266.39C366.99 266.51 367.298 266.571 367.608 266.571H380.928C381.239 266.571 381.546 266.509 381.833 266.39C382.12 266.271 382.381 266.096 382.6 265.876C382.82 265.656 382.993 265.394 383.112 265.107C383.23 264.819 383.291 264.511 383.291 264.2V258.372C383.292 257.877 383.447 257.395 383.736 256.992C384.025 256.59 384.432 256.289 384.9 256.13C386.313 255.65 387.691 255.074 389.026 254.406C389.469 254.183 389.972 254.105 390.462 254.184C390.952 254.263 391.405 254.494 391.757 254.845L395.882 258.978C396.326 259.421 396.927 259.671 397.554 259.671C398.181 259.671 398.782 259.421 399.226 258.978L408.647 249.54C408.867 249.32 409.041 249.06 409.16 248.773C409.279 248.486 409.34 248.178 409.34 247.868C409.34 247.557 409.279 247.249 409.16 246.962C409.041 246.675 408.867 246.415 408.647 246.195L404.439 241.98C404.092 241.63 403.862 241.181 403.782 240.694C403.702 240.207 403.776 239.708 403.992 239.265C404.631 237.95 405.182 236.595 405.643 235.207C405.799 234.734 406.099 234.323 406.502 234.031C406.905 233.739 407.389 233.582 407.886 233.583H413.861C414.171 233.583 414.479 233.522 414.766 233.403C415.052 233.284 415.313 233.11 415.532 232.89C415.752 232.67 415.926 232.409 416.044 232.122C416.163 231.835 416.224 231.527 416.224 231.216V217.87C416.224 217.559 416.163 217.251 416.044 216.964C415.925 216.677 415.751 216.416 415.532 216.196C415.312 215.976 415.052 215.802 414.765 215.683C414.478 215.564 414.171 215.503 413.86 215.504V215.504ZM374.269 244.264C370.375 244.264 366.568 243.108 363.329 240.941C360.091 238.774 357.567 235.694 356.076 232.09C354.586 228.486 354.196 224.52 354.955 220.694C355.715 216.868 357.59 213.353 360.344 210.595C363.098 207.837 366.607 205.958 370.426 205.197C374.246 204.436 378.205 204.827 381.803 206.32C385.401 207.813 388.476 210.341 390.64 213.585C392.803 216.829 393.958 220.642 393.957 224.543C393.957 229.773 391.882 234.789 388.19 238.487C384.498 242.185 379.491 244.263 374.27 244.264H374.269Z" fill="white" />
		<path d="M355.945 24.1387H76.7681C69.9123 24.1387 64.3545 29.7057 64.3545 36.573V241.314C64.3545 248.181 69.9123 253.748 76.7681 253.748H355.945C362.801 253.748 368.359 248.181 368.359 241.314V36.573C368.359 29.7057 362.801 24.1387 355.945 24.1387Z" fill="white" />
		<path d="M355.946 254.163H76.7683C73.3675 254.159 70.1071 252.804 67.7023 250.395C65.2976 247.986 63.9449 244.721 63.9409 241.314V36.5729C63.9449 33.1664 65.2976 29.9006 67.7023 27.4918C70.1071 25.083 73.3675 23.7281 76.7683 23.7241H355.946C359.347 23.7281 362.607 25.083 365.012 27.4918C367.416 29.9006 368.769 33.1664 368.773 36.5729V241.314C368.769 244.721 367.416 247.986 365.012 250.395C362.607 252.804 359.347 254.159 355.946 254.163V254.163ZM76.7683 24.5531C73.5868 24.5566 70.5367 25.8241 68.287 28.0775C66.0374 30.3309 64.772 33.3861 64.7685 36.5729V241.314C64.7721 244.501 66.0375 247.556 68.2872 249.809C70.5368 252.063 73.5869 253.33 76.7683 253.334H355.946C359.127 253.33 362.177 252.063 364.427 249.809C366.676 247.556 367.942 244.501 367.946 241.314V36.5729C367.942 33.3862 366.677 30.331 364.427 28.0776C362.177 25.8242 359.127 24.5567 355.946 24.5531H76.7683Z" fill="#B9BABE" />
		<path d="M347.969 191.365H83.9002C80.2374 191.365 77.2681 194.34 77.2681 198.009V234.617C77.2681 238.286 80.2374 241.26 83.9002 241.26H347.969C351.632 241.26 354.602 238.286 354.602 234.617V198.009C354.602 194.34 351.632 191.365 347.969 191.365Z" fill="#F7BE2B" />
		<path d="M347.969 127.111H83.9002C80.2374 127.111 77.2681 130.085 77.2681 133.754V170.362C77.2681 174.031 80.2374 177.006 83.9002 177.006H347.969C351.632 177.006 354.602 174.031 354.602 170.362V133.754C354.602 130.085 351.632 127.111 347.969 127.111Z" fill="#F7BE2B" />
		<g opacity="0.9">
			<path opacity="0.9" d="M347.969 191.365H83.9002C80.2374 191.365 77.2681 194.34 77.2681 198.009V234.617C77.2681 238.286 80.2374 241.26 83.9002 241.26H347.969C351.632 241.26 354.602 238.286 354.602 234.617V198.009C354.602 194.34 351.632 191.365 347.969 191.365Z" fill="white" />
		</g>
		<g opacity="0.9">
			<path opacity="0.9" d="M347.969 127.111H83.9002C80.2374 127.111 77.2681 130.085 77.2681 133.754V170.362C77.2681 174.031 80.2374 177.006 83.9002 177.006H347.969C351.632 177.006 354.602 174.031 354.602 170.362V133.754C354.602 130.085 351.632 127.111 347.969 127.111Z" fill="white" />
		</g>
		<path d="M347.969 62.8557H83.9002C80.2374 62.8557 77.2681 65.83 77.2681 69.4989V106.107C77.2681 109.776 80.2374 112.75 83.9002 112.75H347.969C351.632 112.75 354.602 109.776 354.602 106.107V69.4989C354.602 65.83 351.632 62.8557 347.969 62.8557Z" fill="#F7BE2B" />
		<path opacity="0.2" d="M347.969 62.8557H83.9002C80.2374 62.8557 77.2681 65.83 77.2681 69.4989V106.107C77.2681 109.776 80.2374 112.75 83.9002 112.75H347.969C351.632 112.75 354.602 109.776 354.602 106.107V69.4989C354.602 65.83 351.632 62.8557 347.969 62.8557Z" fill="white" />
		<path d="M347.969 113.165H83.9C82.0318 113.163 80.2408 112.418 78.9199 111.095C77.5991 109.771 76.8562 107.977 76.8545 106.106V69.4993C76.8565 67.6281 77.5994 65.8341 78.9202 64.5109C80.2411 63.1877 82.032 62.4434 83.9 62.4412H347.969C349.837 62.4432 351.628 63.1875 352.949 64.5107C354.27 65.8339 355.014 67.628 355.016 69.4993V106.106C355.014 107.977 354.271 109.772 352.95 111.095C351.629 112.418 349.838 113.163 347.969 113.165V113.165ZM83.9 63.2701C82.2514 63.2721 80.6708 63.929 79.5052 65.0968C78.3395 66.2646 77.6838 67.8479 77.6821 69.4993V106.106C77.6838 107.757 78.3395 109.341 79.5052 110.508C80.6708 111.676 82.2514 112.333 83.9 112.335H347.969C349.618 112.333 351.199 111.676 352.365 110.509C353.53 109.341 354.186 107.757 354.188 106.106V69.4993C354.186 67.8478 353.53 66.2644 352.365 65.0967C351.199 63.9289 349.618 63.272 347.969 63.2701H83.9Z" fill="#B9BABE" />
		<path d="M162.531 71.5249H90.9669C89.1188 71.5249 87.6206 73.0256 87.6206 74.8768C87.6206 76.728 89.1188 78.2286 90.9669 78.2286H162.531C164.379 78.2286 165.877 76.728 165.877 74.8768C165.877 73.0256 164.379 71.5249 162.531 71.5249Z" fill="white" />
		<path d="M222.225 104.536H87.6198C87.5101 104.536 87.4048 104.493 87.3272 104.415C87.2496 104.337 87.2061 104.232 87.2061 104.122C87.2061 104.012 87.2496 103.906 87.3272 103.829C87.4048 103.751 87.5101 103.707 87.6198 103.707H222.225C222.334 103.707 222.44 103.751 222.517 103.829C222.595 103.906 222.638 104.012 222.638 104.122C222.638 104.232 222.595 104.337 222.517 104.415C222.44 104.493 222.334 104.536 222.225 104.536Z" fill="white" />
		<path d="M343.05 95.7277H87.6198C87.5101 95.7277 87.4048 95.684 87.3272 95.6063C87.2496 95.5285 87.2061 95.4231 87.2061 95.3132C87.2061 95.2032 87.2496 95.0978 87.3272 95.0201C87.4048 94.9424 87.5101 94.8987 87.6198 94.8987H343.05C343.16 94.8987 343.265 94.9424 343.343 95.0201C343.421 95.0978 343.464 95.2032 343.464 95.3132C343.464 95.4231 343.421 95.5285 343.343 95.6063C343.265 95.684 343.16 95.7277 343.05 95.7277Z" fill="white" />
		<path d="M343.05 86.9188H87.6198C87.5101 86.9188 87.4048 86.8751 87.3272 86.7974C87.2496 86.7197 87.2061 86.6142 87.2061 86.5043C87.2061 86.3944 87.2496 86.289 87.3272 86.2112C87.4048 86.1335 87.5101 86.0898 87.6198 86.0898H343.05C343.16 86.0898 343.265 86.1335 343.343 86.2112C343.421 86.289 343.464 86.3944 343.464 86.5043C343.464 86.6142 343.421 86.7197 343.343 86.7974C343.265 86.8751 343.16 86.9188 343.05 86.9188Z" fill="white" />
		<path d="M347.969 177.42H83.9C82.032 177.418 80.2411 176.673 78.9202 175.35C77.5994 174.027 76.8565 172.233 76.8545 170.362V133.754C76.8565 131.883 77.5994 130.089 78.9202 128.766C80.2411 127.443 82.032 126.698 83.9 126.696H347.969C349.837 126.698 351.628 127.442 352.949 128.766C354.27 130.089 355.014 131.883 355.016 133.754V170.362C355.014 172.233 354.27 174.027 352.949 175.35C351.628 176.674 349.837 177.418 347.969 177.42ZM83.9 127.525C82.2514 127.527 80.6709 128.184 79.5052 129.352C78.3395 130.519 77.6838 132.103 77.6821 133.754V170.362C77.6838 172.013 78.3395 173.597 79.5052 174.764C80.6708 175.932 82.2514 176.589 83.9 176.591H347.969C349.618 176.589 351.199 175.932 352.365 174.764C353.53 173.597 354.186 172.013 354.188 170.362V133.754C354.186 132.103 353.53 130.519 352.365 129.352C351.199 128.184 349.618 127.527 347.969 127.525H83.9Z" fill="#B9BABE" />
		<path d="M347.969 241.675H83.9C82.032 241.672 80.2412 240.928 78.9204 239.605C77.5995 238.282 76.8566 236.488 76.8545 234.617V198.009C76.8561 196.137 77.5989 194.343 78.9198 193.019C80.2407 191.696 82.0318 190.951 83.9 190.949H347.969C349.837 190.951 351.628 191.696 352.949 193.019C354.27 194.342 355.013 196.136 355.016 198.007V234.615C355.014 236.487 354.271 238.281 352.95 239.605C351.629 240.928 349.838 241.672 347.969 241.675V241.675ZM83.9 191.778C82.2515 191.78 80.671 192.437 79.5053 193.605C78.3396 194.772 77.6839 196.356 77.6821 198.007V234.615C77.6839 236.267 78.3396 237.85 79.5053 239.017C80.671 240.185 82.2515 240.842 83.9 240.844H347.969C349.618 240.842 351.199 240.185 352.364 239.018C353.53 237.85 354.186 236.267 354.188 234.615V198.009C354.187 196.357 353.531 194.773 352.365 193.605C351.199 192.437 349.618 191.78 347.969 191.778H83.9Z" fill="#B9BABE" />
		<path d="M368.359 36.5713V49.0835H64.3564V36.5713C64.3564 33.2735 65.6643 30.1108 67.9923 27.7789C70.3203 25.447 73.4778 24.137 76.7701 24.137H355.945C359.238 24.137 362.395 25.447 364.723 27.7789C367.051 30.1108 368.359 33.2735 368.359 36.5713V36.5713Z" fill="#B9BABE" />
		<path d="M345.655 150.76L342.052 144.983L336.223 148.492L346.924 103.834L356.356 106.102L345.655 150.76Z" fill="#F7BE2B" />
		<path d="M345.655 151.174C345.585 151.174 345.516 151.156 345.455 151.122C345.393 151.088 345.342 151.039 345.304 150.979L341.916 145.55L336.436 148.849C336.366 148.892 336.286 148.912 336.204 148.908C336.123 148.905 336.044 148.877 335.978 148.829C335.913 148.78 335.862 148.714 335.834 148.637C335.806 148.56 335.801 148.477 335.82 148.398L346.522 103.739C346.547 103.633 346.614 103.541 346.707 103.483C346.8 103.426 346.912 103.408 347.018 103.433L356.453 105.701C356.506 105.714 356.555 105.737 356.599 105.769C356.643 105.801 356.681 105.841 356.709 105.887C356.737 105.934 356.756 105.985 356.765 106.039C356.773 106.093 356.771 106.148 356.759 106.201L346.058 150.857C346.039 150.936 345.997 151.008 345.937 151.064C345.877 151.119 345.802 151.156 345.722 151.169C345.7 151.173 345.678 151.174 345.655 151.174V151.174ZM342.051 144.568C342.122 144.568 342.191 144.586 342.252 144.62C342.314 144.654 342.365 144.703 342.403 144.763L345.483 149.702L355.856 106.408L347.229 104.336L336.855 147.628L341.839 144.628C341.903 144.589 341.976 144.569 342.051 144.57V144.568Z" fill="#B9BABE" />
		<path d="M358.31 150.76L361.913 144.983L367.742 148.492L357.041 103.834L347.609 106.102L358.31 150.76Z" fill="#F7BE2B" />
		<path d="M358.31 151.174C358.287 151.174 358.265 151.173 358.243 151.169C358.163 151.156 358.088 151.119 358.028 151.064C357.969 151.008 357.927 150.936 357.907 150.857L347.208 106.199C347.196 106.146 347.193 106.091 347.202 106.037C347.21 105.983 347.229 105.932 347.258 105.885C347.286 105.839 347.323 105.799 347.367 105.767C347.411 105.735 347.461 105.712 347.514 105.699L356.948 103.431C357.055 103.405 357.167 103.423 357.261 103.481C357.354 103.538 357.421 103.63 357.447 103.737L368.146 148.396C368.165 148.475 368.16 148.558 368.132 148.635C368.104 148.712 368.054 148.778 367.988 148.826C367.922 148.875 367.844 148.902 367.762 148.906C367.681 148.91 367.6 148.889 367.531 148.848L362.05 145.548L358.662 150.978C358.625 151.038 358.573 151.087 358.512 151.122C358.45 151.156 358.38 151.174 358.31 151.174ZM348.107 106.408L358.481 149.702L361.562 144.763C361.62 144.671 361.711 144.605 361.817 144.58C361.922 144.554 362.033 144.572 362.126 144.628L367.109 147.628L356.735 104.334L348.107 106.408Z" fill="#B9BABE" />
		<path d="M376.155 112.412C376.155 114.874 373.069 116.818 372.348 119.04C371.603 121.344 372.931 124.728 371.538 126.645C370.131 128.581 366.498 128.353 364.565 129.762C362.651 131.157 361.751 134.697 359.453 135.445C357.235 136.167 354.44 133.855 351.982 133.855C349.523 133.855 346.727 136.167 344.51 135.445C342.211 134.699 341.312 131.157 339.398 129.762C337.466 128.353 333.831 128.581 332.425 126.645C331.032 124.728 332.362 121.343 331.615 119.04C330.895 116.818 327.809 114.874 327.809 112.412C327.809 109.949 330.895 108.005 331.615 105.783C332.36 103.48 331.032 100.095 332.425 98.1781C333.832 96.2421 337.466 96.4701 339.398 95.0608C341.312 93.6657 342.212 90.1257 344.51 89.378C346.729 88.6568 349.523 90.9679 351.982 90.9679C354.44 90.9679 357.235 88.6568 359.453 89.378C361.752 90.1261 362.651 93.6661 364.565 95.0613C366.498 96.4705 370.132 96.2421 371.539 98.1781C372.931 100.095 371.601 103.48 372.348 105.783C373.07 108.005 376.155 109.949 376.155 112.412Z" fill="#09937E" />
		<path d="M358.53 135.999C357.438 135.999 356.292 135.553 355.173 135.12C354.095 134.702 352.98 134.27 351.983 134.27C350.986 134.27 349.87 134.702 348.792 135.12C347.307 135.696 345.771 136.291 344.384 135.839C342.928 135.366 342.02 133.945 341.141 132.57C340.509 131.582 339.913 130.649 339.155 130.097C338.385 129.536 337.251 129.237 336.159 128.949C334.595 128.534 332.978 128.109 332.09 126.889C331.214 125.682 331.304 124.019 331.394 122.41C331.456 121.27 331.521 120.092 331.222 119.168C330.94 118.298 330.248 117.455 329.515 116.56C328.473 115.29 327.396 113.976 327.396 112.412C327.396 110.847 328.471 109.533 329.515 108.262C330.248 107.369 330.94 106.524 331.222 105.655C331.522 104.731 331.457 103.553 331.394 102.413C331.306 100.804 331.214 99.1388 332.091 97.9343C332.977 96.7133 334.595 96.2868 336.159 95.8744C337.253 95.5842 338.385 95.2875 339.155 94.7254C339.912 94.1742 340.509 93.2404 341.142 92.2523C342.02 90.8783 342.929 89.457 344.384 88.9837C345.774 88.5327 347.308 89.1275 348.793 89.7028C349.871 90.121 350.986 90.5533 351.983 90.5533C352.98 90.5533 354.093 90.121 355.173 89.7028C356.659 89.1275 358.194 88.5323 359.582 88.9837C361.038 89.4574 361.946 90.8783 362.825 92.2527C363.456 93.2408 364.053 94.1742 364.811 94.7259C365.581 95.2875 366.714 95.5859 367.807 95.8744C369.371 96.2888 370.989 96.7137 371.876 97.9343C372.752 99.1409 372.662 100.804 372.572 102.413C372.509 103.553 372.445 104.731 372.744 105.655C373.026 106.525 373.718 107.369 374.451 108.263C375.493 109.533 376.57 110.847 376.57 112.412C376.57 113.976 375.495 115.29 374.451 116.56C373.718 117.455 373.026 118.299 372.744 119.168C372.445 120.092 372.509 121.27 372.572 122.41C372.661 124.019 372.752 125.682 371.876 126.889C370.989 128.109 369.371 128.536 367.807 128.949C366.713 129.239 365.581 129.536 364.811 130.097C364.054 130.649 363.457 131.582 362.824 132.57C361.946 133.945 361.037 135.366 359.582 135.839C359.242 135.948 358.887 136.001 358.53 135.999ZM351.983 133.441C353.134 133.441 354.323 133.902 355.472 134.347C356.884 134.894 358.217 135.412 359.326 135.052C360.5 134.67 361.29 133.435 362.128 132.124C362.773 131.115 363.44 130.071 364.321 129.43C365.217 128.776 366.425 128.458 367.593 128.15C369.082 127.757 370.489 127.386 371.203 126.404C371.907 125.436 371.827 123.99 371.741 122.458C371.674 121.243 371.605 119.986 371.952 118.915C372.283 117.896 373.058 116.951 373.807 116.037C374.757 114.88 375.738 113.682 375.738 112.414C375.738 111.147 374.757 109.949 373.807 108.792C373.058 107.88 372.282 106.932 371.952 105.913C371.605 104.843 371.674 103.586 371.741 102.37C371.824 100.839 371.907 99.3929 371.204 98.4251C370.49 97.4432 369.083 97.0718 367.593 96.6789C366.425 96.3709 365.217 96.0522 364.321 95.399C363.438 94.7557 362.771 93.712 362.128 92.7024C361.291 91.3935 360.501 90.1571 359.327 89.7753C358.217 89.4143 356.885 89.9316 355.472 90.48C354.323 90.9251 353.135 91.386 351.983 91.386C350.832 91.386 349.643 90.9251 348.494 90.4795C347.082 89.932 345.748 89.4148 344.639 89.7749C343.466 90.1567 342.675 91.3935 341.839 92.7024C341.193 93.7116 340.526 94.7553 339.646 95.399C338.749 96.0522 337.541 96.3709 336.373 96.6789C334.883 97.0718 333.477 97.4427 332.763 98.4246C332.06 99.3924 332.14 100.839 332.225 102.37C332.292 103.586 332.361 104.843 332.014 105.913C331.683 106.932 330.909 107.878 330.159 108.792C329.207 109.949 328.228 111.146 328.228 112.414C328.228 113.683 329.21 114.88 330.159 116.037C330.909 116.949 331.684 117.896 332.014 118.915C332.361 119.986 332.292 121.243 332.225 122.458C332.142 123.99 332.059 125.436 332.763 126.404C333.477 127.386 334.883 127.757 336.373 128.15C337.541 128.458 338.749 128.776 339.645 129.43C340.528 130.073 341.195 131.117 341.838 132.124C342.675 133.433 343.466 134.67 344.639 135.052C345.747 135.412 347.081 134.895 348.494 134.347C349.643 133.902 350.831 133.441 351.983 133.441Z" fill="#B9BABE" />
		<path d="M351.983 123.15C357.903 123.15 362.703 118.342 362.703 112.412C362.703 106.481 357.903 101.673 351.983 101.673C346.062 101.673 341.262 106.481 341.262 112.412C341.262 118.342 346.062 123.15 351.983 123.15Z" fill="white" />
		<path d="M351.983 123.565C349.781 123.565 347.628 122.91 345.797 121.685C343.966 120.459 342.538 118.718 341.696 116.68C340.853 114.642 340.632 112.399 341.062 110.236C341.492 108.072 342.552 106.085 344.109 104.525C345.667 102.965 347.651 101.903 349.811 101.473C351.97 101.042 354.209 101.263 356.244 102.107C358.278 102.951 360.017 104.381 361.241 106.215C362.464 108.049 363.117 110.206 363.117 112.411C363.114 115.368 361.94 118.203 359.852 120.294C357.765 122.385 354.935 123.561 351.983 123.565ZM351.983 102.087C349.944 102.087 347.951 102.693 346.256 103.827C344.562 104.962 343.24 106.574 342.46 108.461C341.68 110.347 341.476 112.423 341.874 114.426C342.271 116.428 343.253 118.268 344.695 119.712C346.136 121.156 347.973 122.139 349.972 122.537C351.971 122.936 354.044 122.731 355.927 121.95C357.81 121.168 359.42 119.845 360.553 118.147C361.685 116.449 362.29 114.453 362.29 112.411C362.287 109.674 361.2 107.049 359.268 105.113C357.336 103.178 354.716 102.089 351.983 102.086V102.087Z" fill="#B9BABE" />
	</g>
	<defs>
		<clipPath id="clip0_411_2868">
			<rect width="431" height="288" fill="white" />
		</clipPath>
	</defs>
</svg>
