<svg width="506" height="418" viewBox="0 0 506 418" fill="none" xmlns="http://www.w3.org/2000/svg">
	<g clip-path="url(#clip0_411_2512)" filter="url(#filter0_d_411_2512)">
		<path d="M449.795 6H78.6685V274.826H449.795V6Z" fill="#DEE8F5" />
		<path d="M449.795 6H78.6685V28.1445H449.795V6Z" fill="#C1D8ED" />
		<path d="M437.365 22.6284C440.433 22.6284 442.92 20.1408 442.92 17.0724C442.92 14.0039 440.433 11.5164 437.365 11.5164C434.297 11.5164 431.81 14.0039 431.81 17.0724C431.81 20.1408 434.297 22.6284 437.365 22.6284Z" fill="white" />
		<path d="M457.191 298.322C476.502 298.322 492.157 282.664 492.157 263.349C492.157 244.033 476.502 228.375 457.191 228.375C437.879 228.375 422.225 244.033 422.225 263.349C422.225 282.664 437.879 298.322 457.191 298.322Z" fill="url(#paint0_linear_411_2512)" />
		<g opacity="0.29">
			<path opacity="0.29" d="M457.19 286.02C469.709 286.02 479.857 275.87 479.857 263.348C479.857 250.827 469.709 240.677 457.19 240.677C444.672 240.677 434.523 250.827 434.523 263.348C434.523 275.87 444.672 286.02 457.19 286.02Z" fill="white" />
		</g>
		<path d="M449.774 271.446L451.889 268.167C453.564 269.452 455.031 270.107 456.589 270.107C458.458 270.107 459.28 269.331 459.28 267.83C459.28 264.438 450.577 264.499 450.577 258.548C450.577 254.722 453.227 252.286 457.404 252.286C458.591 252.268 459.767 252.51 460.851 252.993C461.935 253.476 462.9 254.189 463.681 255.083L461.256 257.862C460.057 256.772 459.041 256.198 457.665 256.198C456.078 256.198 455.218 256.838 455.218 258.321C455.218 261.466 463.921 261.191 463.921 267.495C463.921 271.281 461.415 274.021 456.593 274.021C454.093 273.965 451.687 273.057 449.774 271.446ZM455.573 249.054H458.792V253.803H455.573V249.054ZM455.573 272.039H458.792V277.25H455.573V272.039Z" fill="white" />
		<path d="M490.17 386.202H423.045C419.825 386.202 417.215 388.813 417.215 392.034V398.169C417.215 401.389 419.825 404 423.045 404H490.17C493.39 404 496 401.389 496 398.169V392.034C496 388.813 493.39 386.202 490.17 386.202Z" fill="url(#paint1_linear_411_2512)" />
		<path d="M479.72 368.405H412.595C409.375 368.405 406.765 371.016 406.765 374.236V380.371C406.765 383.592 409.375 386.202 412.595 386.202H479.72C482.94 386.202 485.55 383.592 485.55 380.371V374.236C485.55 371.016 482.94 368.405 479.72 368.405Z" fill="url(#paint2_linear_411_2512)" />
		<path d="M490.17 350.607H423.045C419.825 350.607 417.215 353.217 417.215 356.438V362.573C417.215 365.793 419.825 368.404 423.045 368.404H490.17C493.39 368.404 496 365.793 496 362.573V356.438C496 353.217 493.39 350.607 490.17 350.607Z" fill="url(#paint3_linear_411_2512)" />
		<path d="M484.945 333.132H417.82C414.6 333.132 411.99 335.743 411.99 338.964V345.098C411.99 348.319 414.6 350.93 417.82 350.93H484.945C488.165 350.93 490.775 348.319 490.775 345.098V338.964C490.775 335.743 488.165 333.132 484.945 333.132Z" fill="url(#paint4_linear_411_2512)" />
		<path d="M474.495 315.334H407.37C404.15 315.334 401.54 317.945 401.54 321.166V327.3C401.54 330.521 404.15 333.132 407.37 333.132H474.495C477.714 333.132 480.325 330.521 480.325 327.3V321.166C480.325 317.945 477.714 315.334 474.495 315.334Z" fill="url(#paint5_linear_411_2512)" />
		<path d="M484.945 297.537H417.82C414.6 297.537 411.99 300.147 411.99 303.368V309.503C411.99 312.723 414.6 315.334 417.82 315.334H484.945C488.165 315.334 490.775 312.723 490.775 309.503V303.368C490.775 300.147 488.165 297.537 484.945 297.537Z" fill="url(#paint6_linear_411_2512)" />
		<path d="M383.21 386.202H316.085C312.866 386.202 310.255 388.813 310.255 392.034V398.169C310.255 401.389 312.866 404 316.085 404H383.21C386.43 404 389.04 401.389 389.04 398.169V392.034C389.04 388.813 386.43 386.202 383.21 386.202Z" fill="url(#paint7_linear_411_2512)" />
		<path d="M388.867 368.404H321.742C318.522 368.404 315.912 371.015 315.912 374.236V380.371C315.912 383.591 318.522 386.202 321.742 386.202H388.867C392.087 386.202 394.697 383.591 394.697 380.371V374.236C394.697 371.015 392.087 368.404 388.867 368.404Z" fill="url(#paint8_linear_411_2512)" />
		<path d="M383.21 350.607H316.085C312.866 350.607 310.255 353.217 310.255 356.438V362.573C310.255 365.793 312.866 368.404 316.085 368.404H383.21C386.43 368.404 389.04 365.793 389.04 362.573V356.438C389.04 353.217 386.43 350.607 383.21 350.607Z" fill="url(#paint9_linear_411_2512)" />
		<path d="M409.271 46.1121H119.193V235.98H409.271V46.1121Z" fill="white" />
		<path d="M150.797 230.066C150.706 230.066 150.619 230.03 150.554 229.966C150.49 229.902 150.454 229.814 150.454 229.724V52.4619C150.454 52.371 150.49 52.2839 150.554 52.2197C150.619 52.1555 150.706 52.1194 150.797 52.1194C150.887 52.1194 150.974 52.1555 151.039 52.2197C151.103 52.2839 151.139 52.371 151.139 52.4619V229.724C151.139 229.814 151.103 229.902 151.039 229.966C150.974 230.03 150.887 230.066 150.797 230.066Z" fill="#DEE8F5" />
		<path d="M175.961 230.066C175.87 230.066 175.783 230.03 175.719 229.966C175.655 229.902 175.619 229.814 175.619 229.724V52.4619C175.619 52.371 175.655 52.2839 175.719 52.2197C175.783 52.1555 175.87 52.1194 175.961 52.1194C176.052 52.1194 176.139 52.1555 176.203 52.2197C176.267 52.2839 176.303 52.371 176.303 52.4619V229.724C176.303 229.814 176.267 229.902 176.203 229.966C176.139 230.03 176.052 230.066 175.961 230.066Z" fill="#DEE8F5" />
		<path d="M201.125 230.066C201.034 230.066 200.947 230.03 200.883 229.966C200.819 229.902 200.783 229.814 200.783 229.724V52.4619C200.783 52.371 200.819 52.2839 200.883 52.2197C200.947 52.1555 201.034 52.1194 201.125 52.1194C201.216 52.1194 201.303 52.1555 201.367 52.2197C201.431 52.2839 201.468 52.371 201.468 52.4619V229.724C201.468 229.814 201.431 229.902 201.367 229.966C201.303 230.03 201.216 230.066 201.125 230.066Z" fill="#DEE8F5" />
		<path d="M226.288 230.066C226.197 230.066 226.11 230.03 226.046 229.966C225.982 229.902 225.946 229.814 225.946 229.724V52.4619C225.946 52.371 225.982 52.2839 226.046 52.2197C226.11 52.1555 226.197 52.1194 226.288 52.1194C226.379 52.1194 226.466 52.1555 226.53 52.2197C226.595 52.2839 226.631 52.371 226.631 52.4619V229.724C226.631 229.814 226.595 229.902 226.53 229.966C226.466 230.03 226.379 230.066 226.288 230.066Z" fill="#DEE8F5" />
		<path d="M251.452 230.066C251.361 230.066 251.274 230.03 251.21 229.966C251.146 229.902 251.11 229.814 251.11 229.724V52.4619C251.11 52.371 251.146 52.2839 251.21 52.2197C251.274 52.1555 251.361 52.1194 251.452 52.1194C251.543 52.1194 251.63 52.1555 251.694 52.2197C251.759 52.2839 251.795 52.371 251.795 52.4619V229.724C251.795 229.814 251.759 229.902 251.694 229.966C251.63 230.03 251.543 230.066 251.452 230.066Z" fill="#DEE8F5" />
		<path d="M276.617 230.066C276.526 230.066 276.439 230.03 276.375 229.966C276.31 229.902 276.274 229.814 276.274 229.724V52.4619C276.274 52.371 276.31 52.2839 276.375 52.2197C276.439 52.1555 276.526 52.1194 276.617 52.1194C276.708 52.1194 276.795 52.1555 276.859 52.2197C276.923 52.2839 276.959 52.371 276.959 52.4619V229.724C276.959 229.814 276.923 229.902 276.859 229.966C276.795 230.03 276.708 230.066 276.617 230.066Z" fill="#DEE8F5" />
		<path d="M301.78 230.066C301.69 230.066 301.603 230.03 301.538 229.966C301.474 229.902 301.438 229.814 301.438 229.724V52.4619C301.438 52.371 301.474 52.2839 301.538 52.2197C301.603 52.1555 301.69 52.1194 301.78 52.1194C301.871 52.1194 301.958 52.1555 302.023 52.2197C302.087 52.2839 302.123 52.371 302.123 52.4619V229.724C302.123 229.814 302.087 229.902 302.023 229.966C301.958 230.03 301.871 230.066 301.78 230.066Z" fill="#DEE8F5" />
		<path d="M326.946 230.066C326.855 230.066 326.768 230.03 326.704 229.966C326.64 229.902 326.604 229.814 326.604 229.724V52.4619C326.604 52.371 326.64 52.2839 326.704 52.2197C326.768 52.1555 326.855 52.1194 326.946 52.1194C327.037 52.1194 327.124 52.1555 327.188 52.2197C327.252 52.2839 327.288 52.371 327.288 52.4619V229.724C327.288 229.814 327.252 229.902 327.188 229.966C327.124 230.03 327.037 230.066 326.946 230.066Z" fill="#DEE8F5" />
		<path d="M352.109 230.066C352.018 230.066 351.931 230.03 351.866 229.966C351.802 229.902 351.766 229.814 351.766 229.724V52.4619C351.766 52.371 351.802 52.2839 351.866 52.2197C351.931 52.1555 352.018 52.1194 352.109 52.1194C352.199 52.1194 352.286 52.1555 352.351 52.2197C352.415 52.2839 352.451 52.371 352.451 52.4619V229.724C352.451 229.814 352.415 229.902 352.351 229.966C352.286 230.03 352.199 230.066 352.109 230.066Z" fill="#DEE8F5" />
		<path d="M377.272 230.066C377.181 230.066 377.094 230.03 377.03 229.966C376.966 229.902 376.93 229.814 376.93 229.724V52.4619C376.93 52.371 376.966 52.2839 377.03 52.2197C377.094 52.1555 377.181 52.1194 377.272 52.1194C377.363 52.1194 377.45 52.1555 377.514 52.2197C377.578 52.2839 377.615 52.371 377.615 52.4619V229.724C377.615 229.814 377.578 229.902 377.514 229.966C377.45 230.03 377.363 230.066 377.272 230.066Z" fill="#DEE8F5" />
		<path d="M402.436 78.6896H125.633C125.542 78.6896 125.455 78.6535 125.391 78.5893C125.327 78.5251 125.291 78.438 125.291 78.3471C125.291 78.2563 125.327 78.1692 125.391 78.105C125.455 78.0407 125.542 78.0046 125.633 78.0046H402.436C402.527 78.0046 402.614 78.0407 402.678 78.105C402.742 78.1692 402.778 78.2563 402.778 78.3471C402.778 78.438 402.742 78.5251 402.678 78.5893C402.614 78.6535 402.527 78.6896 402.436 78.6896Z" fill="#DEE8F5" />
		<path d="M402.436 103.859H125.633C125.542 103.859 125.455 103.823 125.391 103.759C125.327 103.695 125.291 103.607 125.291 103.517C125.291 103.426 125.327 103.339 125.391 103.274C125.455 103.21 125.542 103.174 125.633 103.174H402.436C402.527 103.174 402.614 103.21 402.678 103.274C402.742 103.339 402.778 103.426 402.778 103.517C402.778 103.607 402.742 103.695 402.678 103.759C402.614 103.823 402.527 103.859 402.436 103.859Z" fill="#DEE8F5" />
		<path d="M402.436 129.028H125.633C125.542 129.028 125.455 128.992 125.391 128.928C125.327 128.864 125.291 128.777 125.291 128.686C125.291 128.595 125.327 128.508 125.391 128.444C125.455 128.38 125.542 128.344 125.633 128.344H402.436C402.527 128.344 402.614 128.38 402.678 128.444C402.742 128.508 402.778 128.595 402.778 128.686C402.778 128.777 402.742 128.864 402.678 128.928C402.614 128.992 402.527 129.028 402.436 129.028Z" fill="#DEE8F5" />
		<path d="M402.436 154.198H125.633C125.542 154.198 125.455 154.162 125.391 154.098C125.327 154.033 125.291 153.946 125.291 153.855C125.291 153.765 125.327 153.678 125.391 153.613C125.455 153.549 125.542 153.513 125.633 153.513H402.436C402.527 153.513 402.614 153.549 402.678 153.613C402.742 153.678 402.778 153.765 402.778 153.855C402.778 153.946 402.742 154.033 402.678 154.098C402.614 154.162 402.527 154.198 402.436 154.198Z" fill="#DEE8F5" />
		<path d="M402.436 179.368H125.633C125.542 179.368 125.455 179.331 125.391 179.267C125.327 179.203 125.291 179.116 125.291 179.025C125.291 178.934 125.327 178.847 125.391 178.783C125.455 178.719 125.542 178.683 125.633 178.683H402.436C402.527 178.683 402.614 178.719 402.678 178.783C402.742 178.847 402.778 178.934 402.778 179.025C402.778 179.116 402.742 179.203 402.678 179.267C402.614 179.331 402.527 179.368 402.436 179.368Z" fill="#DEE8F5" />
		<path d="M402.436 204.537H125.633C125.542 204.537 125.455 204.501 125.391 204.437C125.327 204.373 125.291 204.285 125.291 204.195C125.291 204.104 125.327 204.017 125.391 203.952C125.455 203.888 125.542 203.852 125.633 203.852H402.436C402.527 203.852 402.614 203.888 402.678 203.952C402.742 204.017 402.778 204.104 402.778 204.195C402.778 204.285 402.742 204.373 402.678 204.437C402.614 204.501 402.527 204.537 402.436 204.537Z" fill="#DEE8F5" />
		<path d="M402.436 230.066H125.633C125.542 230.066 125.455 230.03 125.391 229.966C125.327 229.902 125.291 229.814 125.291 229.724V52.4619C125.291 52.371 125.327 52.2839 125.391 52.2197C125.455 52.1555 125.542 52.1194 125.633 52.1194H402.436C402.527 52.1194 402.614 52.1555 402.678 52.2197C402.742 52.2839 402.778 52.371 402.778 52.4619V229.724C402.778 229.814 402.742 229.902 402.678 229.966C402.614 230.03 402.527 230.066 402.436 230.066ZM125.975 229.381H402.093V52.8044H125.975V229.381Z" fill="#DEE8F5" />
		<path d="M138.026 185.532H131.826V209.729H138.026V185.532Z" fill="#686252" />
		<path d="M135.562 174.81H134.29V220.45H135.562V174.81Z" fill="#686252" />
		<path d="M147.604 153.273H141.404V186.146H147.604V153.273Z" fill="#686252" />
		<path d="M145.14 142.552H143.868V196.868H145.14V142.552Z" fill="#686252" />
		<path d="M157.182 153.539H150.982V169.145H157.182V153.539Z" fill="#F7502B" />
		<path d="M154.718 142.817H153.446V179.867H154.718V142.817Z" fill="#F7502B" />
		<path d="M166.761 131.844H160.561V169.393H166.761V131.844Z" fill="#686252" />
		<path d="M164.297 121.122H163.025V180.115H164.297V121.122Z" fill="#686252" />
		<path d="M176.339 131.565H170.139V143.515H176.339V131.565Z" fill="#F7502B" />
		<path d="M173.875 120.843H172.603V154.236H173.875V120.843Z" fill="#F7502B" />
		<path d="M185.917 143.067H179.717V158.673H185.917V143.067Z" fill="#F7502B" />
		<path d="M183.453 132.345H182.181V169.395H183.453V132.345Z" fill="#F7502B" />
		<path d="M195.495 125.043H189.295V158.935H195.495V125.043Z" fill="#686252" />
		<path d="M193.031 114.322H191.759V169.657H193.031V114.322Z" fill="#686252" />
		<path d="M205.073 159.097H198.874V182.932H205.073V159.097Z" fill="#F7502B" />
		<path d="M202.609 148.375H201.337V193.654H202.609V148.375Z" fill="#F7502B" />
		<path d="M214.652 135.543H208.452V159.379H214.652V135.543Z" fill="#686252" />
		<path d="M212.188 124.822H210.916V170.101H212.188V124.822Z" fill="#686252" />
		<path d="M224.23 120.931H218.03V135.624H224.23V120.931Z" fill="#686252" />
		<path d="M221.766 110.21H220.494V146.346H221.766V110.21Z" fill="#686252" />
		<path d="M233.808 120.657H227.608V144.157H233.808V120.657Z" fill="#F7502B" />
		<path d="M231.344 109.935H230.072V154.879H231.344V109.935Z" fill="#F7502B" />
		<path d="M243.386 144.405H237.187V153.61H243.386V144.405Z" fill="#F7502B" />
		<path d="M240.922 133.683H239.65V164.332H240.922V133.683Z" fill="#F7502B" />
		<path d="M252.965 133.341H246.765V144.334H252.965V133.341Z" fill="#686252" />
		<path d="M250.5 122.62H249.229V155.056H250.5V122.62Z" fill="#686252" />
		<path d="M262.543 127.276H256.343V133.795H262.543V127.276Z" fill="#686252" />
		<path d="M260.078 116.555H258.807V144.517H260.078V116.555Z" fill="#686252" />
		<path d="M272.121 100.924H265.921V127.258H272.121V100.924Z" fill="#686252" />
		<path d="M269.657 90.2029H268.385V137.98H269.657V90.2029Z" fill="#686252" />
		<path d="M281.699 101.237H275.5V106.477H281.699V101.237Z" fill="#F7502B" />
		<path d="M279.235 90.5154H277.963V117.199H279.235V90.5154Z" fill="#F7502B" />
		<path d="M291.277 95.6992H285.077V101.579H291.277V95.6992Z" fill="#686252" />
		<path d="M288.813 84.9771H287.542V112.3H288.813V84.9771Z" fill="#686252" />
		<path d="M300.855 96.011H294.655V123.623H300.855V96.011Z" fill="#F7502B" />
		<path d="M298.391 85.2896H297.119V134.345H298.391V85.2896Z" fill="#F7502B" />
		<path d="M310.433 123.199H304.233V136.816H310.433V123.199Z" fill="#F7502B" />
		<path d="M307.969 112.477H306.697V147.538H307.969V112.477Z" fill="#F7502B" />
		<path d="M320.011 136.626H313.812V141.866H320.011V136.626Z" fill="#F7502B" />
		<path d="M317.547 125.904H316.275V152.588H317.547V125.904Z" fill="#F7502B" />
		<path d="M329.59 123.497H323.39V142.16H329.59V123.497Z" fill="#686252" />
		<path d="M327.126 112.775H325.854V152.882H327.126V112.775Z" fill="#686252" />
		<path d="M387.059 78.634H380.859V103.689H387.059V78.634Z" fill="#686252" />
		<path d="M384.595 67.9126H383.323V114.411H384.595V67.9126Z" fill="#686252" />
		<path d="M396.637 72.7979H390.438V78.6772H396.637V72.7979Z" fill="#686252" />
		<path d="M394.173 62.0764H392.901V89.3995H394.173V62.0764Z" fill="#686252" />
		<path d="M339.168 117.105H332.968V123.623H339.168V117.105Z" fill="#686252" />
		<path d="M336.704 106.383H335.432V134.346H336.704V106.383Z" fill="#686252" />
		<path d="M348.746 104.321H342.546V117.231H348.746V104.321Z" fill="#686252" />
		<path d="M346.282 93.5991H345.011V127.953H346.282V93.5991Z" fill="#686252" />
		<path d="M358.324 84.7065H352.125V104.009H358.324V84.7065Z" fill="#686252" />
		<path d="M355.86 73.9844H354.588V114.731H355.86V73.9844Z" fill="#686252" />
		<path d="M367.903 84.7065H361.703V91.225H367.903V84.7065Z" fill="#F7502B" />
		<path d="M365.439 73.9844H364.167V101.947H365.439V73.9844Z" fill="#F7502B" />
		<path d="M377.481 91.0981H371.281V104.008H377.481V91.0981Z" fill="#F7502B" />
		<path d="M375.017 80.3767H373.745V114.731H375.017V80.3767Z" fill="#F7502B" />
		<path d="M105.369 396.584L91.0879 394.885C91.7303 389.479 92.4576 382.985 92.5069 381.92V382.088H106.889C106.885 382.521 106.885 383.833 105.369 396.584Z" fill="#E98862" />
		<path d="M41.2147 398.306L26.833 398.258C26.833 398.258 26.8816 383.405 26.8816 382.093H41.2633C41.264 383.409 41.2147 398.306 41.2147 398.306Z" fill="#E98862" />
		<path d="M85.6753 394.74L110.337 388.918C94.3694 326.221 80.9705 262.226 67.9934 198.852L67.8105 198.906L67.2756 195.256L15.1748 192.037C15.1748 192.037 13.1504 217.557 13.1504 226.084C13.1552 267.873 19.8002 337.348 23.1012 392.942L48.4075 391.646C46.918 337.736 42.8959 283.749 43.1849 229.825C58.3357 284.378 73.4488 339.514 85.6753 394.74Z" fill="#262626" />
		<path d="M58.6987 403.869C59.0681 403.868 59.4335 403.793 59.7742 403.65C60.1148 403.507 60.4239 403.299 60.6839 403.036C60.9439 402.774 61.1497 402.463 61.2894 402.121C61.4291 401.779 61.5001 401.412 61.4983 401.043C61.4983 400.974 61.4983 400.906 61.4901 400.837C61.4484 400.303 61.255 399.791 60.9325 399.363C60.61 398.935 60.1719 398.608 59.6698 398.42L42.9302 392.812C42.6059 392.705 42.2622 392.669 41.9227 392.706C41.5833 392.744 41.256 392.855 40.9633 393.031C38.6619 394.628 35.9091 395.444 33.1095 395.36C30.9291 395.205 28.8361 394.44 27.0692 393.153C26.9139 393.026 26.7255 392.945 26.5261 392.921C26.3267 392.896 26.1245 392.929 25.943 393.015C25.7616 393.101 25.6083 393.237 25.5012 393.407C25.394 393.577 25.3374 393.774 25.3379 393.975V402.166C25.3379 402.653 25.5311 403.119 25.8751 403.463C26.219 403.807 26.6855 404.001 27.1719 404.001H27.1794L58.6987 403.869Z" fill="#C1D8ED" />
		<path d="M122.892 403.869C123.261 403.867 123.626 403.793 123.967 403.65C124.308 403.507 124.617 403.298 124.877 403.035C125.137 402.773 125.343 402.462 125.482 402.119C125.622 401.777 125.693 401.411 125.691 401.042C125.691 400.973 125.691 400.905 125.683 400.836C125.641 400.301 125.448 399.79 125.125 399.361C124.803 398.933 124.364 398.606 123.862 398.419L107.123 392.811C106.799 392.703 106.455 392.667 106.115 392.705C105.776 392.743 105.448 392.853 105.155 393.03C102.854 394.627 100.102 395.443 97.3024 395.359C95.1218 395.204 93.0287 394.439 91.2614 393.152C91.1061 393.024 90.9178 392.944 90.7184 392.919C90.519 392.895 90.3168 392.927 90.1354 393.014C89.9539 393.1 89.8007 393.236 89.6936 393.406C89.5866 393.576 89.5301 393.773 89.5308 393.974V402.165C89.5308 402.651 89.724 403.118 90.0679 403.462C90.4119 403.806 90.8784 403.999 91.3648 403.999H91.3723L122.892 403.869Z" fill="#C1D8ED" />
		<path d="M125.67 171.994H84.9326C83.7267 171.994 82.5401 171.69 81.482 171.111C80.424 170.532 79.5285 169.697 78.8779 168.681L53.1401 128.494L65.2523 120.737L88.8684 157.611H125.67V171.994Z" fill="#F7BE2B" />
		<path d="M70.6627 196.508C67.7932 203.105 11.41 205.845 10.6567 194.241C10.1773 186.857 16.6833 180.411 16.6833 166.019C16.6833 151.627 3.44525 133.249 14.2315 122.46C17.3613 119.33 22.7647 117.309 29.3529 117.302C29.846 121.145 53.1717 121.159 53.3498 117.391C54.2401 117.405 54.9318 117.419 55.3632 117.439C78.0864 118.419 68.1013 144.284 67.8822 163.286C67.6172 185.521 73.6219 189.716 70.6627 196.508Z" fill="#F7BE2B" />
		<path d="M53.3504 117.391C53.1724 121.159 51.1247 126.7 44.8036 127.118C36.38 127.673 29.8466 121.145 29.3535 117.302H29.3741C37.6675 117.302 48.5168 117.316 53.3504 117.391Z" fill="#E98862" />
		<path d="M186.05 158.04L163.405 116.806C163.283 116.547 163.108 116.317 162.891 116.131C162.674 115.945 162.42 115.807 162.146 115.726C161.872 115.645 161.583 115.623 161.3 115.661C161.017 115.699 160.745 115.797 160.502 115.949L111.659 142.768L62.7698 169.494C62.5117 169.617 62.2826 169.794 62.0976 170.012C61.9126 170.23 61.7759 170.485 61.6964 170.76C61.617 171.035 61.5966 171.323 61.6367 171.606C61.6767 171.89 61.7763 172.161 61.9288 172.403L84.4766 213.691L87.8461 219.856C87.9687 220.114 88.1447 220.345 88.3625 220.531C88.5802 220.717 88.8349 220.855 89.1097 220.936C89.3845 221.016 89.6732 221.038 89.957 221C90.2409 220.961 90.5134 220.863 90.7566 220.712L99.3418 216.02L128.076 200.314L128.092 200.331L139.694 193.96L151.308 187.609L151.303 187.588L180.005 171.826L188.581 167.116C188.84 166.993 189.07 166.816 189.256 166.597C189.442 166.379 189.58 166.123 189.66 165.847C189.74 165.572 189.761 165.282 189.721 164.998C189.681 164.713 189.582 164.441 189.429 164.198L186.05 158.04Z" fill="#686252" />
		<path opacity="0.47" d="M163.953 131.124C161.966 132.207 159.631 132.46 157.458 131.829C155.285 131.197 153.45 129.732 152.352 127.752L114.745 148.397L77.1045 168.976C78.1814 170.967 78.4277 173.303 77.7897 175.475C77.1517 177.647 75.6812 179.478 73.6987 180.57L87.3319 205.528C88.1814 205.061 89.1055 204.746 90.0631 204.595C91.2032 204.414 92.3682 204.463 93.489 204.74C94.6098 205.016 95.6637 205.515 96.5883 206.207C97.561 206.932 98.3631 207.862 98.938 208.931L123.455 195.526L123.472 195.543L136.611 188.331L149.76 181.139L149.755 181.115L174.25 167.666C173.661 166.606 173.31 165.429 173.223 164.219C173.138 163.067 173.285 161.909 173.655 160.815C174.025 159.721 174.612 158.712 175.379 157.848C176.022 157.122 176.787 156.513 177.639 156.049L163.953 131.124Z" fill="white" />
		<path d="M95.843 189.894C98.7935 189.894 101.185 187.502 101.185 184.55C101.185 181.599 98.7935 179.207 95.843 179.207C92.8924 179.207 90.5005 181.599 90.5005 184.55C90.5005 187.502 92.8924 189.894 95.843 189.894Z" fill="#686252" />
		<path d="M155.381 157.275C158.332 157.275 160.723 154.883 160.723 151.932C160.723 148.98 158.332 146.588 155.381 146.588C152.43 146.588 150.039 148.98 150.039 151.932C150.039 154.883 152.43 157.275 155.381 157.275Z" fill="#686252" />
		<path d="M126.314 149.913C129.32 149.974 132.261 150.794 134.865 152.296C137.468 153.798 139.65 155.935 141.207 158.507C142.694 161.056 144.274 164.109 143.946 169.987C143.72 172.937 142.732 175.778 141.079 178.233C140.403 179.3 139.608 180.288 138.711 181.178C137.461 182.453 136.028 183.535 134.46 184.389C131.626 185.941 128.433 186.718 125.204 186.64C121.974 186.562 118.822 185.632 116.066 183.945C113.34 182.302 111.097 179.967 109.565 177.176C109.542 177.149 109.534 177.117 109.512 177.091C107.18 172.81 106.641 167.779 108.011 163.1C109.382 158.422 112.551 154.478 116.824 152.133C117.118 151.98 117.411 151.827 117.709 151.69C120.384 150.388 123.342 149.777 126.314 149.913Z" fill="#686252" />
		<path d="M130.112 178.779L128.815 176.406C128.009 176.723 127.164 176.93 126.303 177.022C125.419 177.137 124.521 177.09 123.654 176.885L123.888 173.706C124.642 173.833 125.41 173.864 126.172 173.798C126.825 173.735 127.457 173.541 128.032 173.227C128.575 172.987 129.014 172.561 129.271 172.027C129.347 171.778 129.368 171.517 129.331 171.26C129.295 171.003 129.202 170.757 129.06 170.54C128.955 170.341 128.808 170.168 128.63 170.031C128.451 169.895 128.246 169.798 128.026 169.749C127.499 169.625 126.958 169.563 126.416 169.565C125.807 169.56 125.163 169.574 124.482 169.606C123.807 169.64 123.13 169.602 122.463 169.493C121.81 169.388 121.179 169.169 120.601 168.847C119.981 168.478 119.478 167.94 119.153 167.296C118.538 166.265 118.315 165.046 118.525 163.864C118.774 162.702 119.423 161.665 120.36 160.935L119.024 158.491L121.325 157.233L122.635 159.63C123.389 159.337 124.195 159.2 125.004 159.229C125.762 159.265 126.512 159.403 127.233 159.64L126.567 162.593C126.007 162.441 125.428 162.369 124.847 162.378C124.315 162.404 123.796 162.556 123.332 162.82C122.853 163.042 122.462 163.419 122.222 163.889C122.142 164.123 122.116 164.371 122.148 164.616C122.181 164.86 122.269 165.094 122.407 165.298C122.507 165.484 122.648 165.644 122.819 165.767C122.99 165.89 123.187 165.972 123.395 166.007C123.912 166.104 124.44 166.142 124.966 166.118C125.559 166.101 126.196 166.071 126.874 166.031C127.547 165.99 128.222 166.024 128.886 166.133C129.551 166.241 130.189 166.472 130.768 166.814C131.412 167.218 131.933 167.792 132.275 168.471C132.878 169.509 133.116 170.719 132.951 171.907C132.727 173.15 132.055 174.268 131.064 175.05L132.413 177.516L130.112 178.779Z" fill="white" />
		<path d="M172.047 136.07L139.185 102.414C138.998 102.197 138.768 102.022 138.509 101.901C138.25 101.78 137.968 101.715 137.682 101.71C137.396 101.706 137.113 101.762 136.85 101.875C136.588 101.988 136.352 102.155 136.158 102.366L96.2903 141.297L56.3461 180.152C56.1304 180.34 55.9569 180.571 55.8371 180.831C55.7173 181.09 55.6539 181.373 55.651 181.659C55.6481 181.945 55.7058 182.228 55.8203 182.49C55.9347 182.752 56.1034 182.987 56.3152 183.179L89.0994 216.91L93.996 221.943C94.1836 222.16 94.4147 222.334 94.6744 222.455C94.9341 222.576 95.2164 222.641 95.5028 222.646C95.7893 222.65 96.0734 222.593 96.3366 222.48C96.5997 222.367 96.836 222.199 97.0299 221.989L104.044 215.167L127.519 192.334L127.538 192.345L137.01 183.098L146.498 173.867L146.487 173.846L169.916 150.968L176.916 144.131C177.132 143.943 177.306 143.711 177.426 143.451C177.546 143.19 177.609 142.908 177.612 142.621C177.616 142.335 177.558 142.051 177.444 141.788C177.33 141.525 177.161 141.289 176.95 141.096L172.047 136.07Z" fill="#686252" />
		<path opacity="0.47" d="M143.544 116.062C141.92 117.639 139.739 118.509 137.476 118.483C135.213 118.458 133.052 117.538 131.464 115.925L100.766 145.895L70.0174 175.81C71.5882 177.44 72.4514 179.624 72.4187 181.888C72.386 184.151 71.46 186.31 69.8428 187.893L89.6642 208.283C90.358 207.606 91.1639 207.054 92.0461 206.652C93.0958 206.172 94.2312 205.907 95.3851 205.873C96.5389 205.84 97.6878 206.038 98.7637 206.456C99.8955 206.894 100.917 207.575 101.758 208.45L121.789 188.962L121.81 188.975L132.536 178.504L143.279 168.051L143.267 168.029L163.264 148.507C162.412 147.645 161.759 146.606 161.35 145.465C160.96 144.378 160.791 143.224 160.855 142.071C160.919 140.918 161.213 139.789 161.721 138.752C162.145 137.88 162.718 137.089 163.412 136.413L143.544 116.062Z" fill="white" />
		<path d="M92.2433 191.135C95.1939 191.135 97.5858 188.743 97.5858 185.791C97.5858 182.84 95.1939 180.448 92.2433 180.448C89.2928 180.448 86.9009 182.84 86.9009 185.791C86.9009 188.743 89.2928 191.135 92.2433 191.135Z" fill="#686252" />
		<path d="M140.864 143.749C143.815 143.749 146.206 141.357 146.206 138.405C146.206 135.454 143.815 133.062 140.864 133.062C137.913 133.062 135.521 135.454 135.521 138.405C135.521 141.357 137.913 143.749 140.864 143.749Z" fill="#686252" />
		<path d="M112.319 144.253C115.23 143.506 118.284 143.507 121.195 144.257C124.106 145.007 126.78 146.48 128.969 148.541C131.085 150.596 133.426 153.115 134.686 158.866C135.258 161.769 135.067 164.771 134.132 167.578C133.766 168.787 133.265 169.951 132.639 171.048C131.777 172.612 130.686 174.038 129.404 175.281C127.09 177.536 124.221 179.141 121.088 179.931C117.955 180.722 114.669 180.671 111.562 179.783C108.496 178.931 105.709 177.283 103.486 175.006C103.456 174.985 103.44 174.957 103.411 174.937C100.017 171.438 98.1496 166.735 98.2166 161.861C98.2836 156.986 100.28 152.337 103.768 148.932C104.011 148.706 104.253 148.48 104.503 148.268C106.732 146.298 109.419 144.918 112.319 144.253Z" fill="#686252" />
		<path d="M123.712 171.045L121.826 169.106C121.136 169.629 120.379 170.056 119.575 170.376C118.753 170.722 117.876 170.918 116.986 170.952L116.36 167.826C117.121 167.746 117.868 167.57 118.585 167.302C119.197 167.067 119.754 166.71 120.225 166.254C120.683 165.877 120.992 165.349 121.096 164.765C121.102 164.506 121.052 164.248 120.948 164.01C120.844 163.772 120.689 163.56 120.494 163.389C120.339 163.226 120.152 163.098 119.943 163.014C119.735 162.931 119.511 162.893 119.286 162.904C118.745 162.927 118.208 163.012 117.686 163.159C117.098 163.317 116.48 163.503 115.833 163.717C115.192 163.93 114.53 164.075 113.858 164.148C113.2 164.223 112.534 164.182 111.891 164.026C111.194 163.837 110.566 163.454 110.08 162.92C109.211 162.091 108.671 160.977 108.556 159.782C108.484 158.596 108.832 157.423 109.539 156.468L107.597 154.472L109.477 152.643L111.38 154.6C112.029 154.116 112.769 153.768 113.556 153.579C114.296 153.411 115.057 153.344 115.815 153.38L115.965 156.404C115.385 156.408 114.809 156.494 114.253 156.657C113.747 156.826 113.288 157.111 112.912 157.49C112.51 157.832 112.234 158.3 112.13 158.818C112.114 159.064 112.156 159.311 112.253 159.538C112.349 159.765 112.497 159.966 112.685 160.126C112.831 160.278 113.01 160.394 113.207 160.467C113.405 160.539 113.617 160.565 113.826 160.543C114.351 160.498 114.869 160.393 115.37 160.23C115.939 160.053 116.544 159.854 117.184 159.634C117.821 159.414 118.481 159.266 119.151 159.193C119.82 159.119 120.496 159.171 121.146 159.344C121.875 159.561 122.531 159.974 123.042 160.537C123.902 161.375 124.456 162.477 124.617 163.666C124.734 164.924 124.386 166.181 123.641 167.2L125.601 169.216L123.712 171.045Z" fill="white" />
		<path d="M72.0586 174.227C72.0586 174.227 73.7077 165.217 80.0809 166.785C84.1016 167.775 95.7871 166.008 95.9644 171.173C96.1185 175.654 85.1439 176.848 81.5142 176.475C78.2564 176.14 72.0586 174.227 72.0586 174.227Z" fill="#E98862" />
		<path d="M77.7471 166.685C77.7471 166.685 87.2274 165.287 89.3449 166.187C91.22 166.984 86.6055 169.475 86.6055 169.475L77.7471 166.685Z" fill="#E98862" />
		<path d="M80.7792 179.231L38.4011 177.939C37.0782 177.899 35.7898 177.507 34.6679 176.805C33.5459 176.103 32.6308 175.115 32.0163 173.942L11.0957 134.038L24.3207 127.101L43.2149 163.142L81.234 164.302L80.7792 179.231Z" fill="#F7BE2B" />
		<path d="M35.75 108.357V108.206C35.75 107 35.6952 105.692 35.5788 104.274L36.88 104.034L46.5226 102.247C46.3331 104.679 46.3697 107.123 46.6322 109.549C46.6664 109.823 46.7006 110.103 46.7417 110.384C46.7828 110.665 46.8239 110.967 46.8787 111.261C46.8856 111.323 46.8993 111.391 46.9129 111.46C47.0088 111.994 47.1184 112.522 47.2554 113.042C47.2763 113.149 47.3038 113.254 47.3376 113.357C47.3389 113.376 47.3435 113.395 47.3512 113.412C47.406 113.638 47.4745 113.871 47.5499 114.09C47.6252 114.344 47.7074 114.59 47.8032 114.837C47.8306 114.912 47.858 114.994 47.8923 115.07C47.9813 115.316 48.084 115.556 48.1936 115.789C48.31 116.056 48.4401 116.316 48.5771 116.57C48.5789 116.57 48.5807 116.571 48.582 116.572C48.5832 116.573 48.584 116.575 48.584 116.577C49.1003 117.588 49.8264 118.478 50.7138 119.187H33.5044C34.607 117.282 35.7438 113.967 35.75 108.357Z" fill="#E98862" />
		<path opacity="0.15" d="M48.5858 116.58L39.4966 109.625L46.6388 109.551C46.8447 111.995 47.505 114.379 48.5858 116.58Z" fill="black" />
		<path d="M29.3728 98.68C30.1302 103.056 32.5176 107.2 36.3774 108.612C40.9583 110.291 44.3517 110.404 49.6339 110.404C56.8419 110.404 56.6036 102.885 56.8063 95.3078C57.0117 87.7009 56.405 79.5405 53.556 76.8896C47.8718 71.5987 31.1801 74.949 29.1495 83.7992C28.0997 88.3797 28.6517 94.5173 29.3728 98.68Z" fill="#E98862" />
		<path d="M61.8027 73.742C61.8027 70.1238 57.3012 64.1952 45.2904 72.372L45.2787 72.3802C42.1586 72.2927 39.0411 72.6336 36.0135 73.3933C30.5211 75.0373 23.6336 79.6425 25.3984 90.8093C27.3708 103.276 32.4749 106.599 35.0472 108.128C35.7026 108.517 35.8615 108.201 36.0888 107.473C36.8022 104.782 37.3125 102.041 37.6153 99.2738C38.0643 96.5807 38.2681 93.8523 38.2242 91.1224C38.2242 89.9127 38.2303 85.5054 44.2316 85.4554C47.6065 85.4273 46.3451 85.5616 49.9473 85.5616C50.4603 85.5616 50.9143 85.5383 51.3321 85.5013H51.3362C63.775 85.5006 61.8027 77.3608 61.8027 73.742Z" fill="#363F48" />
		<path d="M46.507 95.3118C47.055 95.3118 47.4993 94.8674 47.4993 94.3192C47.4993 93.771 47.055 93.3267 46.507 93.3267C45.9589 93.3267 45.5146 93.771 45.5146 94.3192C45.5146 94.8674 45.9589 95.3118 46.507 95.3118Z" fill="#363F48" />
		<path d="M54.3351 94.6695C54.8832 94.6695 55.3274 94.2251 55.3274 93.6769C55.3274 93.1287 54.8832 92.6843 54.3351 92.6843C53.7871 92.6843 53.3428 93.1287 53.3428 93.6769C53.3428 94.2251 53.7871 94.6695 54.3351 94.6695Z" fill="#363F48" />
		<path d="M56.0548 91.5622H56.0486L53.4202 91.5293C53.3589 91.5285 53.2985 91.5157 53.2422 91.4915C53.1859 91.4673 53.1349 91.4322 53.0922 91.3884C53.0495 91.3445 53.0158 91.2926 52.9931 91.2357C52.9704 91.1788 52.9592 91.118 52.96 91.0567C52.957 90.9945 52.9673 90.9323 52.9901 90.8743C53.0129 90.8163 53.0478 90.7639 53.0924 90.7204C53.137 90.6768 53.1903 90.6433 53.2488 90.6219C53.3073 90.6006 53.3697 90.5919 53.4318 90.5964L56.0609 90.6293C56.1846 90.6301 56.3029 90.68 56.3898 90.7681C56.4767 90.8561 56.5251 90.9751 56.5242 91.0988C56.5234 91.2225 56.4735 91.3409 56.3855 91.4278C56.2974 91.5147 56.1785 91.563 56.0548 91.5622Z" fill="#363F48" />
		<path d="M44.3646 92.5206C44.2506 92.5203 44.1406 92.4783 44.0554 92.4023C43.9703 92.3264 43.9159 92.222 43.9026 92.1087C43.8893 91.9954 43.9179 91.8811 43.9831 91.7875C44.0483 91.6939 44.1455 91.6274 44.2564 91.6007L46.8479 90.9767C46.9079 90.9608 46.9706 90.9571 47.0321 90.9657C47.0936 90.9744 47.1528 90.9953 47.2061 91.0272C47.2595 91.059 47.3059 91.1012 47.3427 91.1513C47.3795 91.2014 47.4059 91.2583 47.4205 91.3187C47.435 91.3792 47.4373 91.4419 47.4272 91.5032C47.4171 91.5645 47.3949 91.6232 47.3619 91.6758C47.3288 91.7285 47.2856 91.7739 47.2347 91.8096C47.1838 91.8453 47.1264 91.8704 47.0656 91.8836L44.4742 92.5076C44.4383 92.5163 44.4015 92.5207 44.3646 92.5206Z" fill="#363F48" />
		<path d="M41.3444 96.7475C41.3976 97.3025 41.34 97.8626 41.175 98.3952C41.0099 98.9278 40.7406 99.4223 40.3829 99.8499C40.0251 100.278 39.5859 100.63 39.0908 100.886C38.5958 101.143 38.0547 101.298 37.499 101.343C36.9434 101.389 36.3843 101.323 35.8542 101.151C35.3241 100.978 34.8336 100.702 34.4112 100.338C33.9888 99.9739 33.6429 99.5297 33.3936 99.0309C33.1443 98.5321 32.9966 97.9888 32.9591 97.4325C32.9044 96.88 32.9614 96.3221 33.1267 95.792C33.292 95.262 33.5623 94.7707 33.9214 94.3473C34.2805 93.9239 34.7212 93.5772 35.2171 93.3277C35.713 93.0782 36.254 92.9311 36.808 92.8951C39.8062 92.7999 41.1547 94.4329 41.3444 96.7475Z" fill="#E98862" />
		<g opacity="0.15">
			<path opacity="0.15" d="M50.9115 99.8245C50.8295 99.8245 50.7501 99.7951 50.6879 99.7416C50.6258 99.6881 50.5848 99.614 50.5727 99.5329C50.5605 99.4517 50.5778 99.3689 50.6215 99.2995C50.6652 99.2301 50.7324 99.1786 50.8108 99.1546L52.8291 98.5346L51.4176 95.3919C51.3985 95.3507 51.3877 95.3062 51.386 95.2609C51.3842 95.2156 51.3914 95.1704 51.4073 95.128C51.4231 95.0855 51.4472 95.0465 51.4782 95.0134C51.5091 94.9804 51.5464 94.9537 51.5877 94.9351C51.6291 94.9166 51.6737 94.9064 51.719 94.9052C51.7643 94.9039 51.8094 94.9117 51.8517 94.9281C51.894 94.9445 51.9326 94.9691 51.9653 95.0005C51.998 95.0319 52.0241 95.0694 52.0422 95.111L53.6125 98.6093C53.6324 98.6536 53.6427 98.7016 53.6426 98.7502C53.6426 98.7987 53.6322 98.8467 53.6122 98.891C53.5922 98.9352 53.563 98.9747 53.5266 99.0068C53.4901 99.0389 53.4473 99.0629 53.4009 99.0772L51.0122 99.8115C50.9794 99.8208 50.9455 99.8252 50.9115 99.8245Z" fill="black" />
		</g>
		<path d="M46.9653 102.136C46.9653 102.136 50.6286 102.522 53.1974 101.625C53.1974 101.625 53.1769 104.038 50.2786 104.276C47.3803 104.513 46.9653 102.136 46.9653 102.136Z" fill="#F8FCFF" />
		<g filter="url(#filter1_f_411_2512)">
			<circle cx="383" cy="289" r="40" fill="white" fill-opacity="0.28" />
		</g>
	</g>
	<defs>
		<filter id="filter0_d_411_2512" x="0" y="0" width="506" height="418" filterUnits="userSpaceOnUse" color-interpolation-filters="sRGB">
			<feFlood flood-opacity="0" result="BackgroundImageFix" />
			<feColorMatrix in="SourceAlpha" type="matrix" values="0 0 0 0 0 0 0 0 0 0 0 0 0 0 0 0 0 0 127 0" result="hardAlpha" />
			<feOffset dy="4" />
			<feGaussianBlur stdDeviation="5" />
			<feComposite in2="hardAlpha" operator="out" />
			<feColorMatrix type="matrix" values="0 0 0 0 0.820833 0 0 0 0 0.820833 0 0 0 0 0.820833 0 0 0 0.1 0" />
			<feBlend mode="normal" in2="BackgroundImageFix" result="effect1_dropShadow_411_2512" />
			<feBlend mode="normal" in="SourceGraphic" in2="effect1_dropShadow_411_2512" result="shape" />
		</filter>
		<filter id="filter1_f_411_2512" x="223" y="129" width="320" height="320" filterUnits="userSpaceOnUse" color-interpolation-filters="sRGB">
			<feFlood flood-opacity="0" result="BackgroundImageFix" />
			<feBlend mode="normal" in="SourceGraphic" in2="BackgroundImageFix" result="shape" />
			<feGaussianBlur stdDeviation="60" result="effect1_foregroundBlur_411_2512" />
		</filter>
		<linearGradient id="paint0_linear_411_2512" x1="457.191" y1="228.375" x2="457.191" y2="298.322" gradientUnits="userSpaceOnUse">
			<stop offset="0.864583" stop-color="#7AA39C" />
			<stop offset="1" stop-color="#7AA39C" stop-opacity="0" />
		</linearGradient>
		<linearGradient id="paint1_linear_411_2512" x1="456.607" y1="386.202" x2="456.607" y2="404" gradientUnits="userSpaceOnUse">
			<stop offset="0.864583" stop-color="#7AA39C" />
			<stop offset="1" stop-color="#7AA39C" stop-opacity="0" />
		</linearGradient>
		<linearGradient id="paint2_linear_411_2512" x1="446.157" y1="368.405" x2="446.157" y2="386.202" gradientUnits="userSpaceOnUse">
			<stop offset="0.864583" stop-color="#7AA39C" />
			<stop offset="1" stop-color="#7AA39C" stop-opacity="0" />
		</linearGradient>
		<linearGradient id="paint3_linear_411_2512" x1="456.607" y1="350.607" x2="456.607" y2="368.404" gradientUnits="userSpaceOnUse">
			<stop offset="0.864583" stop-color="#7AA39C" />
			<stop offset="1" stop-color="#7AA39C" stop-opacity="0" />
		</linearGradient>
		<linearGradient id="paint4_linear_411_2512" x1="451.383" y1="333.132" x2="451.383" y2="350.93" gradientUnits="userSpaceOnUse">
			<stop offset="0.864583" stop-color="#7AA39C" />
			<stop offset="1" stop-color="#7AA39C" stop-opacity="0" />
		</linearGradient>
		<linearGradient id="paint5_linear_411_2512" x1="440.932" y1="315.334" x2="440.932" y2="333.132" gradientUnits="userSpaceOnUse">
			<stop offset="0.864583" stop-color="#7AA39C" />
			<stop offset="1" stop-color="#7AA39C" stop-opacity="0" />
		</linearGradient>
		<linearGradient id="paint6_linear_411_2512" x1="451.383" y1="297.537" x2="451.383" y2="315.334" gradientUnits="userSpaceOnUse">
			<stop offset="0.864583" stop-color="#7AA39C" />
			<stop offset="1" stop-color="#7AA39C" stop-opacity="0" />
		</linearGradient>
		<linearGradient id="paint7_linear_411_2512" x1="349.648" y1="386.202" x2="349.648" y2="404" gradientUnits="userSpaceOnUse">
			<stop offset="0.723958" stop-color="#7AA39C" />
			<stop offset="1" stop-color="#7AA39C" stop-opacity="0" />
		</linearGradient>
		<linearGradient id="paint8_linear_411_2512" x1="355.305" y1="368.404" x2="355.305" y2="386.202" gradientUnits="userSpaceOnUse">
			<stop offset="0.723958" stop-color="#7AA39C" />
			<stop offset="1" stop-color="#7AA39C" stop-opacity="0" />
		</linearGradient>
		<linearGradient id="paint9_linear_411_2512" x1="349.648" y1="350.607" x2="349.648" y2="368.404" gradientUnits="userSpaceOnUse">
			<stop offset="0.723958" stop-color="#7AA39C" />
			<stop offset="1" stop-color="#7AA39C" stop-opacity="0" />
		</linearGradient>
		<clipPath id="clip0_411_2512">
			<rect width="486" height="398" fill="white" transform="translate(10 6)" />
		</clipPath>
	</defs>
</svg>
