<svg width="142" height="36" viewBox="0 0 142 36" fill="none" xmlns="http://www.w3.org/2000/svg">
	<path d="M47.4234 26.1823H40.7967L39.2053 30.8813H36.3984L42.6752 13.4961H45.5914L51.8682 30.8813H49.0135L47.4234 26.1823ZM41.483 24.0139H46.7358L44.1463 16.3877H44.0739L41.483 24.0139Z" fill="white" />
	<path d="M65.4241 24.5475C65.4241 28.4863 63.3159 31.017 60.1344 31.017C59.3285 31.0592 58.527 30.8735 57.8217 30.4813C57.1164 30.0891 56.5358 29.5062 56.1463 28.7994H56.0861V35.0775H53.4844V18.2092H56.0028V20.3174H56.0506C56.458 19.6139 57.0484 19.0341 57.7591 18.6395C58.4698 18.2449 59.2741 18.0504 60.0866 18.0766C63.3035 18.0766 65.4241 20.6195 65.4241 24.5475ZM62.7498 24.5475C62.7498 21.9813 61.4237 20.2941 59.4002 20.2941C57.4123 20.2941 56.0752 22.0168 56.0752 24.5475C56.0752 27.1014 57.4123 28.8117 59.4002 28.8117C61.4237 28.8117 62.7498 27.1369 62.7498 24.5475Z" fill="white" />
	<path d="M79.3733 24.5475C79.3733 28.4863 77.2651 31.017 74.0836 31.017C73.2777 31.0591 72.4762 30.8735 71.7709 30.4813C71.0656 30.0891 70.485 29.5062 70.0956 28.7994H70.0354V35.0775H67.4336V18.2092H69.9519V20.3174H69.9998C70.4071 19.6139 70.9976 19.0341 71.7082 18.6395C72.4189 18.2449 73.2233 18.0504 74.0357 18.0766C77.2528 18.0766 79.3733 20.6195 79.3733 24.5475ZM76.6991 24.5475C76.6991 21.9813 75.3729 20.2941 73.3494 20.2941C71.3616 20.2941 70.0244 22.0168 70.0244 24.5475C70.0244 27.1014 71.3616 28.8117 73.3494 28.8117C75.3729 28.8117 76.6991 27.1369 76.6991 24.5475H76.6991Z" fill="white" />
	<path d="M88.593 26.0382C88.7858 27.7622 90.4606 28.8942 92.7493 28.8942C94.9422 28.8942 96.52 27.7621 96.52 26.2076C96.52 24.8582 95.5684 24.0502 93.3153 23.4965L91.0622 22.9537C87.8698 22.1826 86.3877 20.6897 86.3877 18.267C86.3877 15.2674 89.0018 13.207 92.7137 13.207C96.3873 13.207 98.9057 15.2674 98.9905 18.267H96.3641C96.2069 16.532 94.7727 15.4848 92.6768 15.4848C90.5809 15.4848 89.1467 16.5444 89.1467 18.0865C89.1467 19.3156 90.0627 20.0389 92.3035 20.5925L94.2189 21.0629C97.7859 21.9064 99.268 23.3393 99.268 25.8822C99.268 29.1347 96.6771 31.1718 92.5564 31.1718C88.701 31.1718 86.0979 29.1826 85.9297 26.038L88.593 26.0382Z" fill="white" />
	<path d="M104.887 15.207V18.2066H107.297V20.267H104.887V27.2547C104.887 28.3402 105.369 28.8461 106.429 28.8461C106.715 28.8411 107.001 28.821 107.285 28.7859V30.8339C106.808 30.923 106.324 30.9633 105.84 30.9543C103.273 30.9543 102.273 29.9904 102.273 27.5322V20.267H100.43V18.2066H102.273V15.207H104.887Z" fill="white" />
	<path d="M108.691 24.5449C108.691 20.5568 111.04 18.0508 114.703 18.0508C118.378 18.0508 120.716 20.5568 120.716 24.5449C120.716 28.5439 118.39 31.0391 114.703 31.0391C111.017 31.0391 108.691 28.5439 108.691 24.5449ZM118.065 24.5449C118.065 21.8092 116.811 20.1945 114.703 20.1945C112.595 20.1945 111.342 21.8215 111.342 24.5449C111.342 27.2916 112.595 28.8939 114.703 28.8939C116.811 28.8939 118.065 27.2916 118.065 24.5449H118.065Z" fill="white" />
	<path d="M122.859 18.2091H125.341V20.3665H125.401C125.569 19.6927 125.964 19.0972 126.519 18.6802C127.074 18.2631 127.756 18.0499 128.45 18.0764C128.75 18.0754 129.049 18.1079 129.341 18.1735V20.6071C128.963 20.4914 128.568 20.4383 128.172 20.4499C127.794 20.4345 127.417 20.5012 127.068 20.6452C126.718 20.7893 126.403 21.0073 126.146 21.2843C125.888 21.5614 125.694 21.8909 125.576 22.2502C125.457 22.6096 125.418 22.9902 125.461 23.3661V30.8842H122.859L122.859 18.2091Z" fill="white" />
	<path d="M141.34 27.159C140.99 29.46 138.749 31.0391 135.882 31.0391C132.195 31.0391 129.906 28.5685 129.906 24.6051C129.906 20.6293 132.207 18.0508 135.773 18.0508C139.28 18.0508 141.485 20.4598 141.485 24.3029V25.1943H132.533V25.3516C132.491 25.818 132.55 26.288 132.704 26.7301C132.858 27.1723 133.105 27.5766 133.427 27.9162C133.75 28.2558 134.141 28.5228 134.574 28.6996C135.008 28.8765 135.474 28.959 135.942 28.9418C136.557 28.9994 137.174 28.857 137.702 28.5358C138.229 28.2146 138.639 27.7317 138.87 27.159L141.34 27.159ZM132.545 23.376H138.882C138.905 22.9565 138.842 22.5368 138.695 22.1431C138.549 21.7494 138.322 21.3903 138.03 21.0882C137.738 20.7861 137.387 20.5477 136.999 20.3877C136.61 20.2278 136.193 20.15 135.773 20.159C135.349 20.1565 134.929 20.2379 134.537 20.3985C134.145 20.5591 133.789 20.7958 133.489 21.0949C133.188 21.394 132.951 21.7496 132.789 22.1411C132.627 22.5326 132.544 22.9523 132.545 23.376V23.376Z" fill="white" />
	<path d="M41.158 0.415729C41.7035 0.376586 42.2508 0.45899 42.7606 0.656996C43.2703 0.855002 43.7298 1.16367 44.1058 1.56075C44.4818 1.95782 44.765 2.4334 44.935 2.95318C45.105 3.47296 45.1574 4.02398 45.0887 4.56651C45.0887 7.23525 43.6463 8.7693 41.158 8.7693H38.1406V0.415729H41.158ZM39.4381 7.58793H41.0131C41.4028 7.61123 41.7929 7.54732 42.1549 7.40086C42.5168 7.2544 42.8416 7.02907 43.1054 6.74128C43.3693 6.45349 43.5657 6.11048 43.6803 5.73721C43.7949 5.36395 43.8249 4.96982 43.768 4.58353C43.8207 4.19876 43.7878 3.80708 43.6714 3.43655C43.555 3.06602 43.3582 2.72582 43.0949 2.44032C42.8316 2.15481 42.5084 1.93108 42.1485 1.78515C41.7886 1.63922 41.4009 1.5747 41.0131 1.59622H39.4381V7.58793Z" fill="white" />
	<path d="M46.5531 5.61077C46.5135 5.19649 46.5609 4.77849 46.6923 4.3836C46.8236 3.9887 47.0361 3.62562 47.316 3.31764C47.5959 3.00967 47.9371 2.7636 48.3177 2.59521C48.6983 2.42683 49.1099 2.33984 49.5261 2.33984C49.9423 2.33984 50.3538 2.42683 50.7344 2.59521C51.115 2.7636 51.4562 3.00967 51.7361 3.31764C52.0161 3.62562 52.2285 3.9887 52.3599 4.3836C52.4913 4.77849 52.5387 5.19649 52.499 5.61077C52.5394 6.02548 52.4926 6.44406 52.3616 6.83959C52.2305 7.23513 52.0182 7.59887 51.7382 7.90745C51.4582 8.21603 51.1168 8.46262 50.7358 8.63137C50.3548 8.80012 49.9427 8.88729 49.5261 8.88729C49.1094 8.88729 48.6973 8.80012 48.3164 8.63137C47.9354 8.46262 47.5939 8.21603 47.3139 7.90745C47.034 7.59887 46.8216 7.23513 46.6906 6.83959C46.5596 6.44406 46.5127 6.02548 46.5531 5.61077V5.61077ZM51.2193 5.61077C51.2193 4.24428 50.6055 3.44516 49.5281 3.44516C48.4467 3.44516 47.8383 4.24428 47.8383 5.61079C47.8383 6.98823 48.4467 7.78119 49.5281 7.78119C50.6055 7.78118 51.2193 6.98274 51.2193 5.61077H51.2193Z" fill="white" />
	<path d="M60.4039 8.76504H59.1133L57.8104 4.12206H57.7119L56.4145 8.76504H55.1361L53.3984 2.46094H54.6604L55.7897 7.27134H55.8826L57.1787 2.46094H58.3723L59.6684 7.27134H59.7668L60.8906 2.46094H62.1348L60.4039 8.76504Z" fill="white" />
	<path d="M63.5977 2.46383H64.7953V3.46529H64.8883C65.046 3.1056 65.312 2.80408 65.6492 2.60276C65.9864 2.40143 66.3781 2.31032 66.7695 2.34214C67.0763 2.31908 67.3843 2.36533 67.6707 2.47747C67.9571 2.5896 68.2147 2.76475 68.4242 2.98993C68.6338 3.21511 68.79 3.48455 68.8813 3.7783C68.9726 4.07205 68.9966 4.38257 68.9516 4.68686V8.76786H67.7074V4.99929C67.7074 3.98621 67.2672 3.48239 66.3471 3.48239C66.1388 3.47269 65.9309 3.50813 65.7376 3.5863C65.5444 3.66446 65.3703 3.78349 65.2273 3.93523C65.0843 4.08697 64.9758 4.26782 64.9093 4.46541C64.8428 4.66299 64.8197 4.87263 64.8418 5.07994V8.76793H63.5977L63.5977 2.46383Z" fill="white" />
	<path d="M70.9336 0H72.1777V8.76503H70.9336V0Z" fill="white" />
	<path d="M73.9047 5.61089C73.8651 5.19658 73.9125 4.77856 74.0439 4.38365C74.1753 3.98873 74.3878 3.62564 74.6677 3.31766C74.9477 3.00968 75.2889 2.7636 75.6695 2.59522C76.0501 2.42683 76.4617 2.33984 76.8779 2.33984C77.2942 2.33984 77.7058 2.42683 78.0864 2.59522C78.467 2.7636 78.8082 3.00968 79.0882 3.31766C79.3681 3.62564 79.5806 3.98873 79.712 4.38365C79.8434 4.77856 79.8908 5.19658 79.8512 5.61089C79.8916 6.02562 79.8447 6.4442 79.7136 6.83973C79.5826 7.23526 79.3702 7.599 79.0902 7.90757C78.8102 8.21614 78.4687 8.46272 78.0877 8.63146C77.7067 8.8002 77.2946 8.88737 76.8779 8.88737C76.4613 8.88737 76.0492 8.8002 75.6682 8.63146C75.2872 8.46272 74.9457 8.21614 74.6657 7.90757C74.3857 7.599 74.1733 7.23526 74.0423 6.83973C73.9112 6.4442 73.8643 6.02562 73.9047 5.61089V5.61089ZM78.5709 5.61089C78.5709 4.24439 77.957 3.44527 76.8797 3.44527C75.7982 3.44527 75.1899 4.24439 75.1899 5.61091C75.1899 6.98835 75.7983 7.78131 76.8797 7.78131C77.957 7.7813 78.5709 6.98286 78.5709 5.61089H78.5709Z" fill="white" />
	<path d="M81.1641 6.9828C81.1641 5.84803 82.009 5.19384 83.5088 5.10087L85.2164 5.00243V4.4583C85.2164 3.79247 84.7762 3.4165 83.9258 3.4165C83.2313 3.4165 82.75 3.67148 82.6119 4.11719H81.4074C81.5346 3.03437 82.5531 2.33984 83.9832 2.33984C85.5637 2.33984 86.4551 3.12664 86.4551 4.4583V8.76562H85.2574V7.87969H85.159C84.9592 8.19748 84.6786 8.45654 84.3459 8.63044C84.0133 8.80433 83.6404 8.88682 83.2654 8.86949C83.0008 8.89701 82.7333 8.86878 82.4802 8.7866C82.2272 8.70442 81.9941 8.57013 81.7962 8.39237C81.5982 8.21461 81.4396 7.99734 81.3308 7.75456C81.2219 7.51178 81.1651 7.24888 81.1641 6.9828V6.9828ZM85.2164 6.44413V5.91708L83.677 6.01552C82.8088 6.07362 82.415 6.36893 82.415 6.92469C82.415 7.49207 82.9072 7.82224 83.584 7.82224C83.7823 7.84232 83.9826 7.8223 84.173 7.76337C84.3635 7.70444 84.5401 7.60782 84.6924 7.47924C84.8447 7.35066 84.9695 7.19276 85.0596 7.01493C85.1496 6.83711 85.2029 6.64299 85.2164 6.44413V6.44413Z" fill="white" />
	<path d="M88.0898 5.61028C88.0898 3.61829 89.1139 2.35637 90.7066 2.35637C91.1006 2.33821 91.4916 2.43258 91.834 2.62843C92.1763 2.82428 92.4558 3.11353 92.6398 3.46237H92.7328V0H93.977V8.76503H92.7848V7.76903H92.6863C92.4881 8.11552 92.1988 8.40117 91.8499 8.59504C91.5009 8.78892 91.1056 8.88363 90.7067 8.86893C89.1029 8.869 88.0898 7.60705 88.0898 5.61028ZM89.375 5.61028C89.375 6.94739 90.0053 7.75198 91.0594 7.75198C92.108 7.75198 92.7561 6.93578 92.7561 5.61575C92.7561 4.30188 92.1012 3.47404 91.0594 3.47404C90.0121 3.47404 89.375 4.2841 89.375 5.61028H89.375Z" fill="white" />
	<path d="M99.1234 5.61077C99.0838 5.19649 99.1312 4.77849 99.2626 4.3836C99.3939 3.9887 99.6064 3.62562 99.8863 3.31764C100.166 3.00967 100.507 2.7636 100.888 2.59521C101.269 2.42683 101.68 2.33984 102.096 2.33984C102.513 2.33984 102.924 2.42683 103.305 2.59521C103.685 2.7636 104.027 3.00967 104.306 3.31764C104.586 3.62562 104.799 3.9887 104.93 4.3836C105.062 4.77849 105.109 5.19649 105.069 5.61077C105.11 6.02548 105.063 6.44406 104.932 6.83959C104.801 7.23513 104.588 7.59887 104.309 7.90745C104.029 8.21603 103.687 8.46262 103.306 8.63137C102.925 8.80012 102.513 8.88729 102.096 8.88729C101.68 8.88729 101.268 8.80012 100.887 8.63137C100.506 8.46262 100.164 8.21603 99.8843 7.90745C99.6043 7.59887 99.3919 7.23513 99.2609 6.83959C99.1299 6.44406 99.0831 6.02548 99.1234 5.61077V5.61077ZM103.79 5.61077C103.79 4.24428 103.176 3.44516 102.098 3.44516C101.017 3.44516 100.409 4.24428 100.409 5.61079C100.409 6.98823 101.017 7.78119 102.098 7.78119C103.176 7.78118 103.79 6.98274 103.79 5.61077Z" fill="white" />
	<path d="M106.738 2.46383H107.936V3.46529H108.029C108.187 3.1056 108.453 2.80408 108.79 2.60276C109.127 2.40143 109.519 2.31032 109.91 2.34214C110.217 2.31908 110.525 2.36533 110.811 2.47747C111.098 2.5896 111.355 2.76475 111.565 2.98993C111.774 3.21511 111.931 3.48455 112.022 3.7783C112.113 4.07205 112.137 4.38257 112.092 4.68686V8.76786H110.848V4.99929C110.848 3.98621 110.408 3.48239 109.488 3.48239C109.279 3.47269 109.072 3.50813 108.878 3.5863C108.685 3.66446 108.511 3.78349 108.368 3.93523C108.225 4.08697 108.116 4.26782 108.05 4.46541C107.983 4.66299 107.96 4.87263 107.982 5.07994V8.76793H106.738V2.46383Z" fill="white" />
	<path d="M119.121 0.890625V2.48886H120.487V3.53682H119.121V6.77842C119.121 7.43877 119.393 7.72793 120.013 7.72793C120.171 7.72742 120.33 7.71784 120.487 7.69922V8.73554C120.264 8.77551 120.037 8.79677 119.81 8.79911C118.427 8.79911 117.876 8.31239 117.876 7.09696V3.53676H116.875V2.48881H117.876V0.890625H119.121Z" fill="white" />
	<path d="M122.188 0H123.421V3.47403H123.519C123.685 3.11098 123.958 2.80775 124.302 2.60567C124.646 2.40358 125.044 2.31246 125.441 2.34473C125.746 2.32813 126.052 2.37907 126.335 2.49393C126.618 2.60879 126.872 2.78473 127.08 3.00921C127.287 3.23368 127.442 3.50115 127.534 3.79254C127.626 4.08393 127.653 4.39205 127.612 4.69493V8.76505H126.367V5.00185C126.367 3.99491 125.898 3.48495 125.019 3.48495C124.805 3.46741 124.59 3.49681 124.389 3.57108C124.188 3.64536 124.005 3.76272 123.854 3.91495C123.702 4.06718 123.586 4.25061 123.514 4.4524C123.441 4.6542 123.413 4.86948 123.432 5.08319V8.76502H122.188L122.188 0Z" fill="white" />
	<path d="M134.866 7.06358C134.697 7.63973 134.331 8.13811 133.831 8.47152C133.332 8.80493 132.731 8.95214 132.134 8.8874C131.719 8.89836 131.306 8.81881 130.925 8.65427C130.543 8.48973 130.202 8.24415 129.925 7.93455C129.648 7.62496 129.442 7.25878 129.32 6.86143C129.199 6.46408 129.165 6.04508 129.222 5.63351C129.167 5.22067 129.201 4.80076 129.322 4.40222C129.443 4.00368 129.648 3.6358 129.924 3.3235C130.2 3.0112 130.539 2.76176 130.92 2.59207C131.3 2.42238 131.712 2.3364 132.129 2.33995C133.883 2.33995 134.941 3.53835 134.941 5.51795V5.95207H130.49V6.02179C130.47 6.25314 130.499 6.486 130.575 6.70545C130.651 6.9249 130.772 7.12609 130.93 7.29613C131.088 7.46617 131.28 7.6013 131.493 7.69286C131.706 7.78441 131.936 7.83037 132.168 7.82779C132.466 7.86352 132.768 7.80993 133.035 7.67384C133.302 7.53775 133.522 7.32531 133.668 7.06354L134.866 7.06358ZM130.49 5.03194H133.674C133.689 4.82036 133.661 4.60784 133.589 4.40804C133.518 4.20823 133.406 4.02556 133.259 3.87176C133.113 3.71796 132.937 3.59643 132.741 3.51498C132.545 3.43354 132.334 3.39398 132.122 3.39884C131.907 3.39614 131.693 3.43654 131.494 3.51766C131.295 3.59878 131.114 3.71898 130.961 3.87118C130.809 4.02338 130.689 4.2045 130.608 4.40385C130.527 4.6032 130.487 4.81676 130.49 5.03194H130.49Z" fill="white" />
	<path d="M18.709 17.0777C18.7226 16.0044 19.003 14.9521 19.5239 14.0187C20.0448 13.0853 20.7895 12.301 21.6886 11.7389C21.1174 10.9093 20.3639 10.2266 19.488 9.74499C18.612 9.26339 17.6376 8.99613 16.6423 8.96447C14.5192 8.73783 12.4609 10.2565 11.379 10.2565C10.2761 10.2565 8.61031 8.98697 6.81653 9.0245C5.65626 9.06262 4.52549 9.40575 3.53439 10.0204C2.54329 10.6351 1.72567 11.5004 1.16117 12.5321C-1.28409 16.8375 0.539857 23.1651 2.88221 26.6453C4.05414 28.3495 5.42379 30.2531 7.21595 30.1856C8.96969 30.1116 9.62467 29.0483 11.7416 29.0483C13.8388 29.0483 14.4534 30.1856 16.2819 30.1427C18.1637 30.1116 19.3494 28.4309 20.4802 26.7106C21.3222 25.4963 21.9701 24.1543 22.4 22.7342C21.3067 22.2639 20.3737 21.4768 19.7174 20.4709C19.061 19.465 18.7103 18.2849 18.709 17.0777V17.0777Z" fill="white" />
	<path d="M15.2571 6.67581C16.2832 5.42316 16.7887 3.81308 16.6663 2.1875C15.0987 2.35494 13.6507 3.11687 12.6108 4.32146C12.1023 4.90994 11.7129 5.59456 11.4648 6.33618C11.2167 7.0778 11.1147 7.86189 11.1647 8.64361C11.9488 8.65182 12.7245 8.47899 13.4334 8.13813C14.1422 7.79728 14.7658 7.29729 15.2571 6.67581Z" fill="white" />
</svg>
