<svg width="154" height="40" viewBox="0 0 154 40" fill="none" xmlns="http://www.w3.org/2000/svg">
	<path d="M72.9316 21.8448C69.6388 21.8448 66.955 24.348 66.955 27.799C66.955 31.2276 69.6388 33.7532 72.9316 33.7532C76.2244 33.7532 78.9082 31.2276 78.9082 27.799C78.9082 24.348 76.2244 21.8448 72.9316 21.8448ZM72.9316 31.4082C71.127 31.4082 69.5702 29.92 69.5702 27.799C69.5702 25.6556 71.127 24.1898 72.9316 24.1898C74.7362 24.1898 76.2916 25.6556 76.2916 27.799C76.2916 29.9186 74.7362 31.4082 72.9316 31.4082ZM59.892 21.8448C56.5992 21.8448 53.9154 24.348 53.9154 27.799C53.9154 31.2276 56.5992 33.7532 59.892 33.7532C63.1848 33.7532 65.8686 31.2276 65.8686 27.799C65.87 24.348 63.1848 21.8448 59.892 21.8448ZM59.892 31.4082C58.0874 31.4082 56.532 29.92 56.532 27.799C56.532 25.6556 58.0888 24.1898 59.892 24.1898C61.6966 24.1898 63.252 25.6556 63.252 27.799C63.2534 29.9186 61.6966 31.4082 59.892 31.4082ZM44.3828 23.6718V26.1974H50.428C50.2474 27.6184 49.7742 28.6558 49.0518 29.3782C48.1726 30.2574 46.7964 31.2276 44.3828 31.2276C40.6616 31.2276 37.7524 28.2274 37.7524 24.5062C37.7524 20.785 40.6616 17.7848 44.3828 17.7848C46.3904 17.7848 47.8562 18.5744 48.9384 19.5894L50.7206 17.8072C49.21 16.3638 47.2024 15.2578 44.3828 15.2578C39.2854 15.2578 35 19.4074 35 24.5048C35 29.6022 39.2854 33.7518 44.3828 33.7518C47.1338 33.7518 49.21 32.8502 50.834 31.1576C52.5028 29.4888 53.0222 27.1424 53.0222 25.2482C53.0222 24.6616 52.9774 24.1198 52.8864 23.669H44.3828V23.6718ZM107.814 25.6332C107.318 24.3018 105.806 21.8434 102.717 21.8434C99.6492 21.8434 97.1012 24.257 97.1012 27.7976C97.1012 31.1352 99.6268 33.7518 103.011 33.7518C105.739 33.7518 107.318 32.083 107.972 31.1128L105.942 29.759C105.266 30.7516 104.341 31.4054 103.011 31.4054C101.679 31.4054 100.733 30.7964 100.124 29.6008L108.086 26.308L107.814 25.6332ZM99.694 27.6184C99.6268 25.3182 101.476 24.145 102.806 24.145C103.844 24.145 104.723 24.663 105.017 25.4078L99.694 27.6184ZM93.2204 33.392H95.837V15.8906H93.2204V33.392ZM88.935 23.1748H88.8454C88.2588 22.4762 87.1318 21.8434 85.7108 21.8434C82.733 21.8434 80.0044 24.46 80.0044 27.82C80.0044 31.1576 82.733 33.7518 85.7108 33.7518C87.1318 33.7518 88.2588 33.1204 88.8454 32.398H88.935V33.2548C88.935 35.5326 87.717 36.7506 85.7542 36.7506C84.1526 36.7506 83.16 35.5998 82.754 34.631L80.4762 35.5788C81.13 37.158 82.8674 39.097 85.7542 39.097C88.8216 39.097 91.4158 37.2924 91.4158 32.895V22.2046H88.935V23.1748V23.1748ZM85.9362 31.4082C84.1316 31.4082 82.621 29.8976 82.621 27.8214C82.621 25.7242 84.1316 24.1898 85.9362 24.1898C87.7184 24.1898 89.1156 25.7228 89.1156 27.8214C89.1156 29.8962 87.7184 31.4082 85.9362 31.4082ZM120.07 15.8906H113.81V33.392H116.421V26.7616H120.068C122.963 26.7616 125.81 24.6658 125.81 21.3268C125.81 17.9878 122.965 15.8906 120.07 15.8906ZM120.137 24.3256H116.421V18.3266H120.137C122.09 18.3266 123.199 19.9436 123.199 21.3268C123.199 22.682 122.09 24.3256 120.137 24.3256ZM136.282 21.8126C134.39 21.8126 132.432 22.6456 131.621 24.4922L133.941 25.461C134.436 24.4922 135.359 24.1772 136.328 24.1772C137.679 24.1772 139.052 24.9878 139.075 26.4284V26.609C138.601 26.3388 137.588 25.9328 136.35 25.9328C133.851 25.9328 131.306 27.3062 131.306 29.8738C131.306 32.216 133.356 33.7238 135.652 33.7238C137.409 33.7238 138.376 32.9356 138.984 32.013H139.073V33.364H141.595V26.6538C141.595 23.5458 139.276 21.8126 136.282 21.8126ZM135.965 31.404C135.11 31.404 133.916 30.9756 133.916 29.9186C133.916 28.5676 135.402 28.0496 136.685 28.0496C137.833 28.0496 138.373 28.2974 139.072 28.6348C138.87 30.256 137.474 31.404 135.965 31.404ZM150.781 22.1948L147.787 29.7828H147.697L144.591 22.1948H141.777L146.437 32.7998L143.78 38.6994H146.504L153.688 22.1948H150.781V22.1948ZM127.252 33.392H129.864V15.8906H127.252V33.392Z" fill="white" />
	<path fill-rule="evenodd" clip-rule="evenodd" d="M80.5934 8.504C79.7674 9.3538 78.7412 9.7766 77.5134 9.7766C76.2856 9.7766 75.2594 9.3524 74.4348 8.504C73.6088 7.6556 73.1972 6.6168 73.1972 5.389C73.1972 4.1612 73.6088 3.1224 74.4348 2.274C75.2594 1.4242 76.2856 1 77.5134 1C78.7342 1 79.759 1.427 80.5878 2.2796C81.4166 3.1322 81.831 4.1682 81.831 5.389C81.831 6.6182 81.418 7.657 80.5934 8.504ZM75.2314 7.8012C75.853 8.4312 76.6132 8.7448 77.5134 8.7448C78.4136 8.7448 79.1738 8.4298 79.7954 7.8012C80.417 7.1712 80.7292 6.3676 80.7292 5.3904C80.7292 4.4132 80.417 3.6082 79.7954 2.9796C79.1752 2.3496 78.4136 2.036 77.5134 2.036C76.6132 2.036 75.853 2.351 75.2314 2.9796C74.6112 3.6096 74.299 4.4132 74.299 5.3904C74.299 6.3676 74.6112 7.1712 75.2314 7.8012Z" fill="white" />
	<path d="M43.926 5.7306C43.926 6.9038 43.5788 7.8376 42.883 8.5348C42.0934 9.3636 41.063 9.778 39.7974 9.778C38.585 9.778 37.5532 9.358 36.7062 8.518C35.8578 7.6766 35.4336 6.635 35.4336 5.3918C35.4336 4.1472 35.8578 3.1056 36.7062 2.2656C37.5532 1.4242 38.585 1.0042 39.7974 1.0042C40.3994 1.0042 40.9748 1.1218 41.5208 1.3556C42.0682 1.5908 42.5064 1.903 42.834 2.2936L42.0962 3.0328C41.5404 2.3678 40.7746 2.036 39.796 2.036C38.9112 2.036 38.1468 2.3468 37.5014 2.9684C36.8574 3.59 36.5354 4.3964 36.5354 5.3904C36.5354 6.3844 36.8574 7.1908 37.5028 7.8138C38.1482 8.4354 38.9126 8.7462 39.7974 8.7462C40.7354 8.7462 41.518 8.434 42.1438 7.8082C42.5498 7.4008 42.785 6.8338 42.848 6.1072H39.7974V5.0964H43.8672C43.9078 5.3162 43.926 5.5276 43.926 5.7306Z" fill="white" />
	<path d="M50.38 2.2222H46.5552V4.885H50.0048V5.8944H46.5552V8.5572H50.38V9.5904H45.4758V1.1904H50.38V2.2222Z" fill="white" />
	<path d="M53.8506 9.5904H54.93V2.2222H57.2764V1.1904H51.5042V2.2222H53.8506V9.5904Z" fill="white" />
	<path d="M61.454 9.5904V1.1904H62.5334V9.5904H61.454Z" fill="white" />
	<path d="M66.2392 9.5904H67.3186V2.2222H69.665V1.1904H63.8928V2.2222H66.2392V9.5904Z" fill="white" />
	<path d="M83.3458 1.1904V9.5904H84.4224V4.3572L84.3762 2.7388H84.4224L88.6938 9.5904H89.8208V1.1904H88.7414V6.1072L88.7876 7.7256H88.7414L84.659 1.1904H83.3458Z" fill="white" />
	<path fill-rule="evenodd" clip-rule="evenodd" d="M80.5934 8.504C79.7674 9.3538 78.7412 9.7766 77.5134 9.7766C76.2856 9.7766 75.2594 9.3524 74.4348 8.504C73.6088 7.6556 73.1972 6.6168 73.1972 5.389C73.1972 4.1612 73.6088 3.1224 74.4348 2.274C75.2594 1.4242 76.2856 1 77.5134 1C78.7342 1 79.759 1.427 80.5878 2.2796C81.4166 3.1322 81.831 4.1682 81.831 5.389C81.831 6.6182 81.418 7.657 80.5934 8.504ZM75.2314 7.8012C75.853 8.4312 76.6132 8.7448 77.5134 8.7448C78.4136 8.7448 79.1738 8.4298 79.7954 7.8012C80.417 7.1712 80.7292 6.3676 80.7292 5.3904C80.7292 4.4132 80.417 3.6082 79.7954 2.9796C79.1752 2.3496 78.4136 2.036 77.5134 2.036C76.6132 2.036 75.853 2.351 75.2314 2.9796C74.6112 3.6096 74.299 4.4132 74.299 5.3904C74.299 6.3676 74.6112 7.1712 75.2314 7.8012Z" stroke="white" stroke-width="0.28" stroke-miterlimit="10" />
	<path d="M43.926 5.7306C43.926 6.9038 43.5788 7.8376 42.883 8.5348C42.0934 9.3636 41.063 9.778 39.7974 9.778C38.585 9.778 37.5532 9.358 36.7062 8.518C35.8578 7.6766 35.4336 6.635 35.4336 5.3918C35.4336 4.1472 35.8578 3.1056 36.7062 2.2656C37.5532 1.4242 38.585 1.0042 39.7974 1.0042C40.3994 1.0042 40.9748 1.1218 41.5208 1.3556C42.0682 1.5908 42.5064 1.903 42.834 2.2936L42.0962 3.0328C41.5404 2.3678 40.7746 2.036 39.796 2.036C38.9112 2.036 38.1468 2.3468 37.5014 2.9684C36.8574 3.59 36.5354 4.3964 36.5354 5.3904C36.5354 6.3844 36.8574 7.1908 37.5028 7.8138C38.1482 8.4354 38.9126 8.7462 39.7974 8.7462C40.7354 8.7462 41.518 8.434 42.1438 7.8082C42.5498 7.4008 42.785 6.8338 42.848 6.1072H39.7974V5.0964H43.8672C43.9078 5.3162 43.926 5.5276 43.926 5.7306Z" stroke="white" stroke-width="0.28" stroke-miterlimit="10" />
	<path d="M50.38 2.2222H46.5552V4.885H50.0048V5.8944H46.5552V8.5572H50.38V9.5904H45.4758V1.1904H50.38V2.2222Z" stroke="white" stroke-width="0.28" stroke-miterlimit="10" />
	<path d="M53.8506 9.5904H54.93V2.2222H57.2764V1.1904H51.5042V2.2222H53.8506V9.5904Z" stroke="white" stroke-width="0.28" stroke-miterlimit="10" />
	<path d="M61.454 9.5904V1.1904H62.5334V9.5904H61.454Z" stroke="white" stroke-width="0.28" stroke-miterlimit="10" />
	<path d="M66.2392 9.5904H67.3186V2.2222H69.665V1.1904H63.8928V2.2222H66.2392V9.5904Z" stroke="white" stroke-width="0.28" stroke-miterlimit="10" />
	<path d="M83.3458 1.1904V9.5904H84.4224V4.3572L84.3762 2.7388H84.4224L88.6938 9.5904H89.8208V1.1904H88.7414V6.1072L88.7876 7.7256H88.7414L84.659 1.1904H83.3458Z" stroke="white" stroke-width="0.28" stroke-miterlimit="10" />
	<path d="M0.510381 5.82556C0.189602 6.16084 0 6.68117 0 7.35499V31.4297C0 32.1046 0.189602 32.6238 0.510381 32.9591L0.591953 33.0375L14.2488 19.5513V19.3923V19.2334L0.591953 5.74609L0.510381 5.82556Z" fill="url(#paint0_linear_298_2254)" />
	<path d="M18.8015 24.0488L14.25 19.5519V19.393V19.2341L18.8026 14.7383L18.9052 14.796L24.2989 17.8222C25.8399 18.6865 25.8399 20.1005 24.2989 20.966L18.9052 23.9922L18.8015 24.0488Z" fill="url(#paint1_linear_298_2254)" />
	<path d="M18.9064 23.9887L14.2512 19.3906L0.511719 32.9574C1.01989 33.4886 1.85767 33.5539 2.80237 33.0238L18.9064 23.9887Z" fill="url(#paint2_linear_298_2254)" />
	<path d="M18.9053 14.7917L2.80237 5.75658C1.85767 5.22645 1.01989 5.29285 0.511719 5.82298L14.2501 19.3898L18.9053 14.7917Z" fill="url(#paint3_linear_298_2254)" />
	<path opacity="0.2" d="M18.8038 23.8867L2.80347 32.8641C1.90838 33.3659 1.10808 33.3333 0.594394 32.8761L0.511719 32.9577L0.593291 33.0361C1.10698 33.4933 1.90727 33.527 2.80237 33.0241L18.9053 23.989L18.8038 23.8867Z" fill="black" />
	<path opacity="0.12" d="M0.510381 32.799C0.189602 32.4637 0 31.9434 0 31.2695V31.4285C0 32.1023 0.189602 32.6226 0.510381 32.9579L0.593056 32.8763L0.510381 32.799Z" fill="black" />
	<path opacity="0.12" d="M24.3009 20.8025L18.8047 23.8864L18.9072 23.9876L24.3009 20.9614C25.0715 20.5293 25.4562 19.9599 25.4562 19.3906C25.3911 19.9055 24.9987 20.4106 24.3009 20.8025Z" fill="black" />
	<path opacity="0.25" d="M2.80103 5.91604L24.2976 17.9773C24.9965 18.3692 25.3879 18.8743 25.4529 19.3903C25.4529 18.821 25.0682 18.2506 24.2976 17.8184L2.80103 5.75711C1.25997 4.89279 0 5.61016 0 7.35295V7.51297C0 5.77017 1.26107 5.05172 2.80103 5.91604Z" fill="white" />
	<defs>
		<linearGradient id="paint0_linear_298_2254" x1="13.038" y1="7.10114" x2="-5.2293" y2="25.5995" gradientUnits="userSpaceOnUse">
			<stop stop-color="#00A0FF" />
			<stop offset="0.0066" stop-color="#00A1FF" />
			<stop offset="0.2601" stop-color="#00BEFF" />
			<stop offset="0.5122" stop-color="#00D2FF" />
			<stop offset="0.7604" stop-color="#00DFFF" />
			<stop offset="1" stop-color="#00E3FF" />
		</linearGradient>
		<linearGradient id="paint1_linear_298_2254" x1="26.3044" y1="19.3924" x2="-0.368716" y2="19.3924" gradientUnits="userSpaceOnUse">
			<stop stop-color="#FFE000" />
			<stop offset="0.4087" stop-color="#FFBD00" />
			<stop offset="0.7754" stop-color="#FFA500" />
			<stop offset="1" stop-color="#FF9C00" />
		</linearGradient>
		<linearGradient id="paint2_linear_298_2254" x1="16.3764" y1="21.8891" x2="-8.39551" y2="46.9744" gradientUnits="userSpaceOnUse">
			<stop stop-color="#FF3A44" />
			<stop offset="1" stop-color="#C31162" />
		</linearGradient>
		<linearGradient id="paint3_linear_298_2254" x1="-2.94829" y1="-2.1907" x2="8.11348" y2="9.01089" gradientUnits="userSpaceOnUse">
			<stop stop-color="#32A071" />
			<stop offset="0.0685" stop-color="#2DA771" />
			<stop offset="0.4762" stop-color="#15CF74" />
			<stop offset="0.8009" stop-color="#06E775" />
			<stop offset="1" stop-color="#00F076" />
		</linearGradient>
	</defs>
</svg>
