<svg width="763" height="416" viewBox="0 0 763 416" fill="none" xmlns="http://www.w3.org/2000/svg">
	<g clip-path="url(#clip0_427_2366)">
		<path d="M42.1682 402.129C14.4453 402.129 -5.67447 373.957 1.44165 345.231C12.8057 299.368 45.3609 237.879 136.359 208.711C257.215 169.978 250.441 13.8442 346.971 13.8442C443.502 13.8442 444.012 93.1364 472.793 101.2C501.573 109.264 598.051 85.3161 619.602 156.001C659.439 286.662 712.911 223.676 754.407 324.291C756.993 330.614 759.227 337.075 761.1 343.645C769.462 372.699 749.162 402.129 720.797 402.129L42.1682 402.129Z" fill="url(#paint0_linear_427_2366)" />
		<path d="M178.355 402.129H41.4262C33.9169 382.58 56.4842 372.936 63.6547 385.606C59.3751 378.048 58.2368 368.468 67.1258 362.301C76.4415 357.412 87.6561 363.001 89.3729 371.843C87.0891 360.069 97.9679 348.335 110.075 345.667C141.147 338.824 148.078 369.489 145.261 374.311C153.47 360.262 187.403 377.601 178.355 402.129Z" fill="#568666" />
		<path d="M561.142 6.10352e-05H190.017V268.898H561.142V6.10352e-05Z" fill="#DEE8F5" />
		<path d="M561.142 6.10352e-05H190.017V22.1505H561.142V6.10352e-05Z" fill="#C1D8ED" />
		<path d="M550.116 16.633C553.184 16.633 555.671 14.1449 555.671 11.0755C555.671 8.00624 553.184 5.51807 550.116 5.51807C547.048 5.51807 544.562 8.00624 544.562 11.0755C544.562 14.1449 547.048 16.633 550.116 16.633Z" fill="white" />
		<path d="M463.032 142.61H207.7V188.961H463.032V142.61Z" fill="white" />
		<path d="M463.032 204.143H207.7V250.495H463.032V204.143Z" fill="white" />
		<path d="M297.513 37.7277H207.701V128.364H297.513V37.7277Z" fill="#C1D8ED" />
		<path d="M253.92 61.2776H251.295V104.813H253.92V61.2776Z" fill="white" />
		<path d="M274.364 81.7326H230.85V84.3589H274.364V81.7326Z" fill="white" />
		<path d="M547.674 37.7277H312.939V128.364H547.674V37.7277Z" fill="#C1D8ED" />
		<path d="M546.272 142.61H477.062V172.714H546.272V142.61Z" fill="white" />
		<path d="M546.272 181.996H477.062V212.1H546.272V181.996Z" fill="white" />
		<path d="M546.272 220.39H477.062V250.495H546.272V220.39Z" fill="white" />
		<path d="M144.489 396.195C145.812 385.065 145.812 383.919 145.812 383.542H133.263C133.263 383.505 133.263 383.456 133.266 383.396C133.222 384.326 132.589 389.994 132.028 394.712L144.489 396.195Z" fill="#E98862" />
		<path d="M94.4898 397.695C94.4898 397.695 94.5322 384.694 94.5322 383.542H81.9838C81.9838 384.691 81.9414 397.655 81.9414 397.655L94.4898 397.695Z" fill="#E98862" />
		<path d="M127.013 392.231L149.118 391.853C148.08 365.53 148.016 337.918 147.693 311.531C143.378 283.089 141.106 251.857 135.781 223.619L135.621 223.667L135.154 220.48L89.6946 217.67C89.6946 217.67 88.383 239.958 87.9259 247.383C85.7108 283.421 81.4073 350.18 78.707 391.512L100.738 393.374C104.707 352.849 110.849 293.801 114.628 251.229C118.966 271.956 121.918 293.417 125.69 313.966C126.445 339.694 127.083 366.584 127.013 392.231Z" fill="#666464" />
		<path d="M109.744 402.551C110.081 402.549 110.415 402.478 110.723 402.342C111.032 402.206 111.309 402.007 111.538 401.759C111.766 401.51 111.941 401.217 112.052 400.898C112.162 400.579 112.206 400.241 112.179 399.904C112.143 399.438 111.974 398.991 111.693 398.618C111.411 398.244 111.029 397.958 110.59 397.795L95.9854 392.898C95.7023 392.804 95.4024 392.773 95.1061 392.806C94.8098 392.839 94.5241 392.935 94.2686 393.089C92.2609 394.483 89.8592 395.195 87.4166 395.122C85.514 394.986 83.6876 394.319 82.1457 393.196C82.0103 393.084 81.846 393.014 81.672 392.993C81.498 392.971 81.3216 393 81.1633 393.075C81.0049 393.15 80.8713 393.269 80.7779 393.417C80.6845 393.566 80.6352 393.738 80.6357 393.913V401.058C80.6357 401.269 80.6774 401.478 80.7582 401.672C80.839 401.867 80.9575 402.044 81.1068 402.193C81.2561 402.341 81.4332 402.459 81.6281 402.539C81.823 402.619 82.0318 402.66 82.2425 402.659L109.744 402.551Z" fill="#C1D8ED" />
		<path d="M159.778 402.551C160.115 402.55 160.449 402.478 160.758 402.342C161.066 402.206 161.344 402.007 161.572 401.759C161.801 401.51 161.976 401.218 162.086 400.899C162.196 400.579 162.24 400.241 162.213 399.904C162.177 399.438 162.008 398.992 161.727 398.618C161.446 398.244 161.063 397.958 160.625 397.795L146.02 392.898C145.737 392.804 145.437 392.773 145.141 392.806C144.844 392.839 144.559 392.935 144.303 393.089C142.295 394.483 139.894 395.195 137.451 395.122C135.548 394.986 133.722 394.319 132.181 393.196C132.045 393.084 131.881 393.014 131.707 392.993C131.533 392.971 131.356 393 131.198 393.075C131.04 393.15 130.906 393.269 130.812 393.417C130.719 393.566 130.669 393.738 130.67 393.913V401.058C130.67 401.269 130.712 401.478 130.792 401.672C130.873 401.867 130.992 402.044 131.141 402.193C131.29 402.341 131.467 402.459 131.662 402.539C131.857 402.619 132.066 402.66 132.277 402.659L159.778 402.551Z" fill="#C1D8ED" />
		<path d="M104.357 156.218C104.357 156.218 108.978 153.767 107.946 141.178L117.493 139.408C117.493 139.408 116.417 150.694 121.249 154.277L104.357 156.218Z" fill="#E98862" />
		<path d="M102.529 136.297C103.19 140.117 105.273 143.734 108.64 144.966C112.638 146.43 115.599 146.53 120.208 146.53C126.497 146.53 126.289 139.967 126.465 133.354C126.644 126.718 126.115 119.593 123.629 117.279C118.67 112.662 104.106 115.586 102.335 123.31C101.419 127.306 101.9 132.66 102.529 136.297Z" fill="#E98862" />
		<path d="M129.836 121.122C129.836 121.122 132.412 120.547 131.707 117.976C131.239 116.273 129.057 116.651 129.057 116.651C129.057 116.651 131.123 116.273 131.123 114.468C131.123 113.332 130.25 111.404 127.615 112.505C124.524 113.797 120.998 113.631 118.317 113.18C116.8 112.848 115.26 112.631 113.711 112.53H113.703C111.922 112.499 110.147 112.736 108.437 113.234C103.644 114.669 96.2796 118.987 97.9336 128.714C99.7203 139.228 106.12 143.848 107.001 144.488C108.656 145.692 118.832 145.936 119.84 144.927C121.349 143.417 122.17 137.346 121.865 126.769C126.035 126.111 128.901 125.827 128.901 125.827C128.901 125.827 132.366 125.956 132.366 123.422C132.366 120.888 129.836 121.122 129.836 121.122Z" fill="#0F1011" />
		<path d="M124.907 134.609C124.954 135.093 124.903 135.582 124.759 136.047C124.615 136.512 124.38 136.943 124.068 137.317C123.756 137.69 123.373 137.997 122.941 138.221C122.509 138.445 122.037 138.58 121.552 138.62C121.067 138.66 120.579 138.602 120.117 138.452C119.654 138.301 119.226 138.06 118.858 137.742C118.489 137.425 118.187 137.037 117.97 136.602C117.752 136.166 117.624 135.692 117.591 135.207C117.543 134.724 117.593 134.238 117.737 133.775C117.881 133.312 118.117 132.884 118.431 132.514C118.744 132.145 119.128 131.842 119.561 131.624C119.994 131.407 120.466 131.278 120.949 131.247C123.565 131.165 124.742 132.588 124.907 134.609Z" fill="#E98862" />
		<path d="M158.359 145.775L158.637 145.895L155.161 146.456L158.573 152.973C158.573 152.973 171.225 155.935 177.145 149.272C177.295 149.102 177.391 148.891 177.42 148.666C177.448 148.44 177.408 148.212 177.305 148.01C177.202 147.808 177.04 147.641 176.841 147.532C176.642 147.424 176.414 147.378 176.189 147.4C172.777 147.747 166.693 148.159 163.953 147.077C165.158 146.485 166.756 145.579 166.505 145.037C165.845 143.615 160.117 145.491 158.359 145.775Z" fill="#E98862" />
		<path d="M237.564 57.3887H147.752V148.025H237.564V57.3887Z" fill="#09937E" />
		<path d="M195.856 145.775L196.134 145.895L192.658 146.456L196.07 152.973C196.07 152.973 208.722 155.935 214.642 149.272C214.792 149.102 214.888 148.891 214.917 148.666C214.945 148.44 214.905 148.212 214.802 148.01C214.699 147.808 214.537 147.641 214.338 147.532C214.139 147.424 213.911 147.378 213.686 147.4C210.274 147.747 204.19 148.159 201.45 147.077C202.656 146.485 204.253 145.579 204.002 145.037C203.343 143.615 197.614 145.491 195.856 145.775Z" fill="#E98862" />
		<path d="M192.241 145.208L160.452 168.161L153.074 164.686L164.414 155.287L156.102 145.248L140.051 158.552L132.892 155.18C132.504 154.969 132.103 154.781 131.693 154.615L130.539 154.072L130.483 154.192C128.981 153.765 127.433 153.524 125.873 153.474C123.474 153.371 111.768 153.355 103.196 153.355C97.4385 153.355 92.7114 155.122 89.9812 157.853C80.5693 167.27 92.1216 183.316 92.1216 195.876C92.1216 208.436 86.4449 214.061 86.8632 220.506C87.5205 230.637 136.715 228.243 139.222 222.489C141.803 216.555 136.565 212.898 136.794 193.488C136.854 188.263 137.762 182.443 138.354 176.894L141.991 173.879L158.378 181.598C159.43 182.094 160.596 182.298 161.755 182.191C162.913 182.083 164.021 181.667 164.965 180.987L199.87 155.786L192.241 145.208Z" fill="#F7BE2B" />
		<path d="M670.683 264.189L664.524 265.646L672.245 298.317L678.403 296.86L670.683 264.189Z" fill="#F0F6FF" />
		<path d="M677.458 261.657L672.171 290.333L675.59 290.964L680.877 262.288L677.458 261.657Z" fill="#C1D8ED" />
		<path d="M677.461 261.648L676.859 264.811L680.275 265.461L680.876 262.298L677.461 261.648Z" fill="#DEE8F5" />
		<path d="M666.873 268.938L664.975 269.686L676.053 297.822L677.952 297.074L666.873 268.938Z" fill="#0CBC8B" />
		<path d="M681.146 281.255H664.446V302.61H681.146V281.255Z" fill="#C1D8ED" />
		<path d="M619.866 341.183H613.62V402.662H619.866V341.183Z" fill="#C1D8ED" />
		<path d="M614.726 341.183H608.479V402.662H614.726V341.183Z" fill="#DEE8F5" />
		<path d="M697.67 341.183H691.424V402.662H697.67V341.183Z" fill="#C1D8ED" />
		<path d="M692.529 341.183H686.283V402.662H692.529V341.183Z" fill="#DEE8F5" />
		<path d="M636.999 341.183H630.753V402.662H636.999V341.183Z" fill="#C1D8ED" />
		<path d="M631.858 341.183H625.612V402.662H631.858V341.183Z" fill="#DEE8F5" />
		<path d="M714.802 341.183H708.556V402.662H714.802V341.183Z" fill="#C1D8ED" />
		<path d="M709.661 341.183H703.415V402.662H709.661V341.183Z" fill="#DEE8F5" />
		<path d="M714.802 301.83H630.791V342.657H714.802V301.83Z" fill="#C1D8ED" />
		<path d="M692.49 301.83H608.479V342.657H692.49V301.83Z" fill="#DEE8F5" />
		<g opacity="0.53">
			<path opacity="0.53" d="M687.971 307.634H612.999V336.672H687.971V307.634Z" fill="#F3F5FD" />
		</g>
		<path d="M650.485 325.485C652.324 325.485 653.814 323.993 653.814 322.153C653.814 320.314 652.324 318.822 650.485 318.822C648.646 318.822 647.155 320.314 647.155 322.153C647.155 323.993 648.646 325.485 650.485 325.485Z" fill="white" />
		<path d="M525.504 272.726C525.504 272.726 520.975 288.962 518.43 297.388C518.31 297.787 518.284 298.209 518.356 298.619C518.428 299.03 518.595 299.418 518.843 299.753C519.092 300.088 519.416 300.36 519.788 300.547C520.161 300.734 520.572 300.831 520.989 300.83H536.883C537.57 300.83 538.23 300.566 538.727 300.092C539.224 299.618 539.519 298.97 539.552 298.284L540.623 275.682L525.504 272.726Z" fill="#0F1011" />
		<path d="M549.864 308.842C549.864 308.842 545.241 306.395 546.261 293.806L536.711 292.043C536.711 292.043 537.794 303.328 532.968 306.916L549.864 308.842Z" fill="#E98862" />
		<path opacity="0.15" d="M534.923 304.557L542.848 298.479L536.619 298.419C536.441 300.553 535.866 302.635 534.923 304.557Z" fill="black" />
		<path d="M551.674 288.922C551.016 292.741 548.936 296.36 545.57 297.596C541.901 299.057 537.93 299.598 534.004 299.17C523.553 298.32 525.597 274.546 530.557 269.923C535.516 265.3 550.078 268.212 551.857 275.934C552.776 279.929 552.299 285.287 551.674 288.922Z" fill="#E98862" />
		<path d="M536.72 285.993C537.199 285.993 537.586 285.605 537.586 285.127C537.586 284.648 537.199 284.26 536.72 284.26C536.242 284.26 535.854 284.648 535.854 285.127C535.854 285.605 536.242 285.993 536.72 285.993Z" fill="#0F1011" />
		<path d="M529.889 285.439C530.367 285.439 530.755 285.051 530.755 284.572C530.755 284.094 530.367 283.706 529.889 283.706C529.411 283.706 529.023 284.094 529.023 284.572C529.023 285.051 529.411 285.439 529.889 285.439Z" fill="#0F1011" />
		<path d="M530.681 282.29L528.387 282.321" stroke="#0F1011" stroke-width="1.362" stroke-miterlimit="10" stroke-linecap="round" />
		<path d="M538.587 283.148L536.325 282.606" stroke="#0F1011" stroke-width="1.362" stroke-miterlimit="10" stroke-linecap="round" />
		<path d="M536.325 291.949C536.325 291.949 533.13 292.289 530.888 291.509C530.888 291.509 530.907 293.614 533.437 293.82C535.966 294.025 536.325 291.949 536.325 291.949Z" fill="white" />
		<g opacity="0.15">
			<path opacity="0.15" d="M532.881 289.935C532.953 289.935 533.022 289.909 533.076 289.863C533.13 289.816 533.166 289.751 533.177 289.68C533.187 289.61 533.172 289.537 533.134 289.477C533.096 289.416 533.037 289.371 532.969 289.35L531.207 288.812L532.437 286.066C532.466 285.995 532.465 285.915 532.436 285.843C532.407 285.772 532.352 285.715 532.282 285.683C532.211 285.652 532.131 285.648 532.059 285.674C531.986 285.7 531.927 285.753 531.892 285.822L530.386 289.186L532.794 289.924C532.822 289.932 532.852 289.936 532.881 289.935Z" fill="black" />
		</g>
		<path d="M524.959 274.672C524.959 274.672 526.489 262.289 546.321 265.33C551.265 266.089 558.272 269.951 559.407 282.608C559.926 288.414 561.926 293.888 563.453 297.353C563.633 297.76 563.709 298.206 563.674 298.65C563.639 299.093 563.494 299.521 563.251 299.895C563.009 300.268 562.677 300.575 562.286 300.787C561.896 301 561.458 301.111 561.013 301.111L547.072 301.116C546.722 301.117 546.375 301.048 546.051 300.915C545.727 300.781 545.433 300.585 545.185 300.338C544.936 300.091 544.739 299.797 544.605 299.473C544.47 299.15 544.401 298.803 544.4 298.452C544.4 298.413 544.4 298.374 544.4 298.333C544.5 295.959 544.579 291.939 544.444 285.796C543.719 282.29 545.65 279.818 542.848 280.624C532.442 283.613 525.741 274.873 524.959 274.672Z" fill="#0F1011" />
		<path d="M541.095 288.857C541.056 289.337 541.112 289.821 541.26 290.28C541.408 290.739 541.645 291.164 541.957 291.532C542.269 291.899 542.651 292.202 543.079 292.422C543.508 292.642 543.977 292.775 544.457 292.814C544.938 292.853 545.421 292.797 545.88 292.649C546.339 292.501 546.764 292.264 547.131 291.952C547.498 291.639 547.801 291.258 548.02 290.828C548.24 290.399 548.374 289.931 548.412 289.45C548.506 288.497 548.217 287.546 547.609 286.806C547.002 286.066 546.126 285.598 545.173 285.504C545.133 285.5 545.092 285.497 545.054 285.494C542.434 285.407 541.259 286.835 541.095 288.857Z" fill="#E98862" />
		<path d="M512.052 401.279C510.917 401.089 498.108 398.9 498.108 398.9L500.221 386.525C500.221 386.525 512.994 388.708 514.126 388.897L512.052 401.279Z" fill="#E98862" />
		<path d="M490.801 413.15C490.747 413.483 490.762 413.824 490.846 414.151C490.929 414.479 491.079 414.785 491.286 415.052C491.493 415.318 491.753 415.539 492.049 415.701C492.346 415.862 492.672 415.961 493.008 415.991C493.474 416.032 493.942 415.939 494.357 415.723C494.772 415.507 495.117 415.177 495.35 414.772L502.588 401.168C502.727 400.905 502.808 400.614 502.824 400.316C502.84 400.018 502.792 399.72 502.683 399.443C501.64 397.232 501.334 394.744 501.81 392.345C502.258 390.49 503.218 388.799 504.58 387.463C504.712 387.348 504.808 387.197 504.858 387.029C504.908 386.861 504.909 386.682 504.861 386.513C504.813 386.345 504.718 386.193 504.587 386.076C504.456 385.96 504.295 385.883 504.122 385.854L497.078 384.674C496.87 384.639 496.658 384.646 496.452 384.693C496.247 384.741 496.053 384.828 495.882 384.951C495.71 385.074 495.565 385.229 495.454 385.408C495.343 385.587 495.268 385.787 495.234 385.995L490.801 413.15Z" fill="#C1D8ED" />
		<path d="M551.702 367.808C557.021 368.029 562.431 368.184 567.846 368.319L575.981 368.498L584.108 368.645L584.917 368.659C588.274 368.722 591.482 370.056 593.894 372.392C596.306 374.728 597.743 377.892 597.916 381.246C598.089 384.601 596.984 387.896 594.824 390.467C592.664 393.039 589.61 394.695 586.278 395.103L505.968 404.859L502.696 381.113L582.647 368.764L584.818 395.222L576.566 395.756L568.32 396.255C562.814 396.573 557.306 396.871 551.698 397.101L551.702 367.808Z" fill="#666464" />
		<path d="M571.961 396.08C560.874 394.465 559.772 394.167 559.405 394.071L562.666 381.948C562.629 381.938 562.581 381.925 562.524 381.912C563.432 382.111 569.067 382.972 573.767 383.655L571.961 396.08Z" fill="#E98862" />
		<path d="M585.811 406.871C585.927 407.187 585.977 407.525 585.957 407.862C585.937 408.199 585.848 408.528 585.696 408.829C585.543 409.13 585.33 409.397 585.07 409.612C584.809 409.827 584.508 409.986 584.183 410.079C583.734 410.208 583.256 410.205 582.808 410.072C582.359 409.939 581.958 409.68 581.652 409.326L571.966 397.345C571.78 397.112 571.646 396.842 571.574 396.553C571.502 396.264 571.493 395.963 571.548 395.671C572.152 393.301 571.98 390.8 571.058 388.536C570.266 386.8 569.003 385.321 567.413 384.268C567.261 384.18 567.138 384.051 567.057 383.895C566.976 383.739 566.941 383.564 566.957 383.389C566.972 383.214 567.036 383.048 567.143 382.908C567.249 382.769 567.393 382.663 567.557 382.602L574.25 380.105C574.447 380.032 574.657 379.998 574.868 380.006C575.078 380.014 575.285 380.063 575.477 380.151C575.668 380.239 575.84 380.364 575.983 380.518C576.127 380.673 576.238 380.855 576.311 381.052L585.811 406.871Z" fill="#C1D8ED" />
		<path d="M533.871 394.95C530.505 394.663 527.142 394.456 523.778 394.262C520.415 394.083 517.052 393.903 513.69 393.784L508.647 393.59L503.604 393.444C500.242 393.332 496.882 393.286 493.521 393.222L494.686 369.063C500.977 369.944 507.277 370.753 513.575 371.581C519.873 372.41 526.178 373.173 532.482 373.949L541.943 375.064L551.411 376.126C557.726 376.805 564.041 377.48 570.371 378.036L567.594 401.847C561.306 400.93 555.005 400.132 548.703 399.336L539.246 398.189L529.782 397.095C523.469 396.397 517.157 395.689 510.84 395.043C504.522 394.397 498.203 393.734 491.878 393.141C488.845 392.857 486.03 391.437 483.998 389.165C481.966 386.893 480.866 383.937 480.919 380.889C480.972 377.841 482.173 374.925 484.283 372.725C486.393 370.525 489.255 369.204 492.297 369.025L493.045 368.983C496.401 368.786 499.757 368.607 503.112 368.362L508.145 368.018L513.176 367.624C516.531 367.371 519.885 367.058 523.237 366.747C526.591 366.42 529.944 366.08 533.295 365.66L533.871 394.95Z" fill="#666464" />
		<path d="M563.914 364.14L565.682 393.856L514.599 393.255L518.455 366.948L563.914 364.14Z" fill="#666464" />
		<path d="M580.966 357.422L567.428 315.427C566.867 313.241 565.702 311.256 564.065 309.703C561.334 306.971 556.619 305.208 550.871 305.202C550.441 308.556 530.089 308.568 529.933 305.28C529.156 305.292 528.553 305.304 528.176 305.321C519.954 305.676 516.644 308.842 515.593 313.608L498.335 355.392C497.913 356.415 497.769 357.531 497.917 358.628C498.065 359.725 498.501 360.763 499.179 361.637C499.858 362.511 500.755 363.19 501.781 363.605C502.806 364.02 503.923 364.157 505.018 364.001L514.447 362.657C513.983 365.006 513.91 366.833 514.828 368.946C517.331 374.703 566.527 377.095 567.184 366.967C567.19 366.867 567.191 366.769 567.195 366.668L575.369 365.907C576.341 365.817 577.28 365.51 578.117 365.008C578.954 364.506 579.667 363.822 580.204 363.007C580.742 362.192 581.089 361.267 581.221 360.299C581.353 359.332 581.266 358.347 580.966 357.418V357.422ZM514.129 350.023L517.249 342.47C517.215 345.172 517.07 347.542 516.863 349.634L514.129 350.023ZM566.072 353.686L563.686 353.908C562.511 350.165 561.917 346.263 561.925 342.339C561.925 341.882 561.945 341.428 561.974 340.976L566.072 353.686Z" fill="#F7BE2B" />
		<path d="M546.92 325.294L549.031 356.787C549.056 357.159 549.005 357.531 548.88 357.882C548.755 358.232 548.559 358.553 548.305 358.825C548.051 359.097 547.744 359.314 547.403 359.462C547.062 359.61 546.694 359.686 546.322 359.686H502.357C501.685 359.686 501.037 359.437 500.538 358.987C500.039 358.536 499.724 357.917 499.655 357.248L496.402 325.755C496.363 325.377 496.404 324.994 496.522 324.633C496.64 324.271 496.832 323.939 497.087 323.656C497.341 323.374 497.652 323.148 498 322.993C498.347 322.839 498.723 322.759 499.103 322.759H544.21C544.899 322.759 545.562 323.021 546.065 323.491C546.568 323.962 546.874 324.606 546.92 325.294Z" fill="#9EBCEA" />
		<path d="M506.029 359.686H552.223C553.27 359.686 554.118 358.837 554.118 357.79C554.118 356.743 553.27 355.894 552.223 355.894H506.029C504.982 355.894 504.134 356.743 504.134 357.79C504.134 358.837 504.982 359.686 506.029 359.686Z" fill="#9EBCEA" />
		<path d="M521.552 345.408C523.862 345.408 525.735 343.534 525.735 341.223C525.735 338.911 523.862 337.038 521.552 337.038C519.242 337.038 517.369 338.911 517.369 341.223C517.369 343.534 519.242 345.408 521.552 345.408Z" fill="white" />
		<path d="M527.577 363.686C530.26 365.342 534.413 366.125 538.034 366.412L538.238 359.812C536.535 359.764 533.917 359.585 531.355 359.686C530.196 358.741 529.529 358.46 528.341 357.271C527.074 356.005 523.753 355.244 523.126 357.271C522.5 359.298 525.223 362.229 527.577 363.686Z" fill="#E98862" />
		<path d="M529.934 305.28C530.089 308.568 531.876 313.404 537.391 313.769C544.741 314.253 550.441 308.556 550.871 305.202H550.854C543.617 305.202 534.152 305.214 529.934 305.28Z" fill="#E98862" />
		<path d="M502.017 318.192L492.562 312.213H447.745V275.719H502.017V318.192Z" fill="#DEE8F5" />
		<path d="M455.722 293.628L467.935 287.699V290.019L458.246 294.531V294.583L467.935 299.12V301.414L455.722 295.485V293.628Z" fill="white" stroke="white" stroke-miterlimit="10" />
		<path d="M470.746 302.445L477.033 283.756H479.25L472.962 302.445H470.746Z" fill="white" stroke="white" stroke-miterlimit="10" />
		<path d="M494.04 295.536L481.827 301.414V299.12L491.67 294.583V294.531L481.827 289.994V287.699L494.04 293.576V295.536Z" fill="white" stroke="white" stroke-miterlimit="10" />
		<path d="M431.62 61.2776H428.995V104.813H431.62V61.2776Z" fill="white" />
		<path d="M452.064 81.7326H408.55V84.3589H452.064V81.7326Z" fill="white" />
		<g opacity="0.61">
			<path opacity="0.61" d="M168.296 95.1481C175.216 95.1481 180.827 89.5349 180.827 82.6108C180.827 75.6867 175.216 70.0736 168.296 70.0736C161.375 70.0736 155.765 75.6867 155.765 82.6108C155.765 89.5349 161.375 95.1481 168.296 95.1481Z" fill="white" />
			<path opacity="0.61" d="M229.513 115.928H155.765V122.328H229.513V115.928Z" fill="white" />
			<path opacity="0.61" d="M229.513 101.488H155.765V107.889H229.513V101.488Z" fill="white" />
			<path opacity="0.61" d="M229.513 130.367H155.765V136.767H229.513V130.367Z" fill="white" />
			<path opacity="0.61" d="M229.513 87.0486H184.784V93.449H229.513V87.0486Z" fill="white" />
			<path opacity="0.61" d="M229.513 72.609H184.784V79.0094H229.513V72.609Z" fill="white" />
		</g>
	</g>
	<defs>
		<linearGradient id="paint0_linear_427_2366" x1="381.499" y1="13.8442" x2="381.499" y2="402.129" gradientUnits="userSpaceOnUse">
			<stop stop-color="#F7BE2B" />
			<stop offset="0.137685" stop-color="#F7BE2B" stop-opacity="0.547668" />
			<stop offset="0.52275" stop-color="#F7BE2B" stop-opacity="0.180645" />
			<stop offset="1" stop-color="#F7BE2B" stop-opacity="0" />
		</linearGradient>
		<clipPath id="clip0_427_2366">
			<rect width="763" height="416" fill="white" />
		</clipPath>
	</defs>
</svg>
