<svg width="199" height="50" viewBox="0 0 199 50" fill="none" xmlns="http://www.w3.org/2000/svg">
	<path d="M67.14 17.96V32H63.72V23.58L60.58 32H57.82L54.66 23.56V32H51.24V17.96H55.28L59.22 27.68L63.12 17.96H67.14ZM80.1194 26.24C80.1194 26.56 80.0994 26.8933 80.0594 27.24H72.3194C72.3727 27.9333 72.5927 28.4667 72.9794 28.84C73.3794 29.2 73.866 29.38 74.4394 29.38C75.2927 29.38 75.886 29.02 76.2194 28.3H79.8594C79.6727 29.0333 79.3327 29.6933 78.8394 30.28C78.3594 30.8667 77.7527 31.3267 77.0194 31.66C76.286 31.9933 75.466 32.16 74.5594 32.16C73.466 32.16 72.4927 31.9267 71.6394 31.46C70.786 30.9933 70.1194 30.3267 69.6394 29.46C69.1594 28.5933 68.9194 27.58 68.9194 26.42C68.9194 25.26 69.1527 24.2467 69.6194 23.38C70.0994 22.5133 70.766 21.8467 71.6194 21.38C72.4727 20.9133 73.4527 20.68 74.5594 20.68C75.6394 20.68 76.5994 20.9067 77.4394 21.36C78.2794 21.8133 78.9327 22.46 79.3994 23.3C79.8794 24.14 80.1194 25.12 80.1194 26.24ZM76.6194 25.34C76.6194 24.7533 76.4194 24.2867 76.0194 23.94C75.6194 23.5933 75.1194 23.42 74.5194 23.42C73.946 23.42 73.4594 23.5867 73.0594 23.92C72.6727 24.2533 72.4327 24.7267 72.3394 25.34H76.6194ZM85.3436 17.2V32H81.9236V17.2H85.3436ZM92.902 32.16C91.8087 32.16 90.822 31.9267 89.942 31.46C89.0754 30.9933 88.3887 30.3267 87.882 29.46C87.3887 28.5933 87.142 27.58 87.142 26.42C87.142 25.2733 87.3954 24.2667 87.902 23.4C88.4087 22.52 89.102 21.8467 89.982 21.38C90.862 20.9133 91.8487 20.68 92.942 20.68C94.0354 20.68 95.022 20.9133 95.902 21.38C96.782 21.8467 97.4754 22.52 97.982 23.4C98.4887 24.2667 98.742 25.2733 98.742 26.42C98.742 27.5667 98.482 28.58 97.962 29.46C97.4554 30.3267 96.7554 30.9933 95.862 31.46C94.982 31.9267 93.9954 32.16 92.902 32.16ZM92.902 29.2C93.5554 29.2 94.1087 28.96 94.562 28.48C95.0287 28 95.262 27.3133 95.262 26.42C95.262 25.5267 95.0354 24.84 94.582 24.36C94.142 23.88 93.5954 23.64 92.942 23.64C92.2754 23.64 91.722 23.88 91.282 24.36C90.842 24.8267 90.622 25.5133 90.622 26.42C90.622 27.3133 90.8354 28 91.262 28.48C91.702 28.96 92.2487 29.2 92.902 29.2ZM107.356 20.72C108.663 20.72 109.703 21.1467 110.476 22C111.263 22.84 111.656 24 111.656 25.48V32H108.256V25.94C108.256 25.1933 108.063 24.6133 107.676 24.2C107.29 23.7867 106.77 23.58 106.116 23.58C105.463 23.58 104.943 23.7867 104.556 24.2C104.17 24.6133 103.976 25.1933 103.976 25.94V32H100.556V20.84H103.976V22.32C104.323 21.8267 104.79 21.44 105.376 21.16C105.963 20.8667 106.623 20.72 107.356 20.72Z" fill="white" />
	<path d="M130.092 32H128.272L120.952 20.9V32H119.132V18.04H120.952L128.272 29.12V18.04H130.092V32ZM143.194 26.1C143.194 26.4467 143.174 26.8133 143.134 27.2H134.374C134.441 28.28 134.808 29.1267 135.474 29.74C136.154 30.34 136.974 30.64 137.934 30.64C138.721 30.64 139.374 30.46 139.894 30.1C140.428 29.7267 140.801 29.2333 141.014 28.62H142.974C142.681 29.6733 142.094 30.5333 141.214 31.2C140.334 31.8533 139.241 32.18 137.934 32.18C136.894 32.18 135.961 31.9467 135.134 31.48C134.321 31.0133 133.681 30.3533 133.214 29.5C132.748 28.6333 132.514 27.6333 132.514 26.5C132.514 25.3667 132.741 24.3733 133.194 23.52C133.648 22.6667 134.281 22.0133 135.094 21.56C135.921 21.0933 136.868 20.86 137.934 20.86C138.974 20.86 139.894 21.0867 140.694 21.54C141.494 21.9933 142.108 22.62 142.534 23.42C142.974 24.2067 143.194 25.1 143.194 26.1ZM141.314 25.72C141.314 25.0267 141.161 24.4333 140.854 23.94C140.548 23.4333 140.128 23.0533 139.594 22.8C139.074 22.5333 138.494 22.4 137.854 22.4C136.934 22.4 136.148 22.6933 135.494 23.28C134.854 23.8667 134.488 24.68 134.394 25.72H141.314ZM147.817 22.54V29C147.817 29.5333 147.93 29.9133 148.157 30.14C148.383 30.3533 148.777 30.46 149.337 30.46H150.677V32H149.037C148.023 32 147.263 31.7667 146.757 31.3C146.25 30.8333 145.997 30.0667 145.997 29V22.54H144.577V21.04H145.997V18.28H147.817V21.04H150.677V22.54H147.817ZM167.482 21.04L164.062 32H162.182L159.542 23.3L156.902 32H155.022L151.582 21.04H153.442L155.962 30.24L158.682 21.04H160.542L163.202 30.26L165.682 21.04H167.482ZM174.068 32.18C173.041 32.18 172.108 31.9467 171.268 31.48C170.441 31.0133 169.788 30.3533 169.308 29.5C168.841 28.6333 168.608 27.6333 168.608 26.5C168.608 25.38 168.848 24.3933 169.328 23.54C169.821 22.6733 170.488 22.0133 171.328 21.56C172.168 21.0933 173.108 20.86 174.148 20.86C175.188 20.86 176.128 21.0933 176.968 21.56C177.808 22.0133 178.468 22.6667 178.948 23.52C179.441 24.3733 179.688 25.3667 179.688 26.5C179.688 27.6333 179.435 28.6333 178.928 29.5C178.435 30.3533 177.761 31.0133 176.908 31.48C176.055 31.9467 175.108 32.18 174.068 32.18ZM174.068 30.58C174.721 30.58 175.335 30.4267 175.908 30.12C176.481 29.8133 176.941 29.3533 177.288 28.74C177.648 28.1267 177.828 27.38 177.828 26.5C177.828 25.62 177.655 24.8733 177.308 24.26C176.961 23.6467 176.508 23.1933 175.948 22.9C175.388 22.5933 174.781 22.44 174.128 22.44C173.461 22.44 172.848 22.5933 172.288 22.9C171.741 23.1933 171.301 23.6467 170.968 24.26C170.635 24.8733 170.468 25.62 170.468 26.5C170.468 27.3933 170.628 28.1467 170.948 28.76C171.281 29.3733 171.721 29.8333 172.268 30.14C172.815 30.4333 173.415 30.58 174.068 30.58ZM183.901 22.82C184.221 22.1933 184.674 21.7067 185.261 21.36C185.861 21.0133 186.588 20.84 187.441 20.84V22.72H186.961C184.921 22.72 183.901 23.8267 183.901 26.04V32H182.081V21.04H183.901V22.82ZM195.662 32L191.362 27.16V32H189.542V17.2H191.362V25.9L195.582 21.04H198.122L192.962 26.5L198.142 32H195.662Z" fill="#CCCED2" />
	<path d="M34.7412 14.5599C35.5801 15.453 36.3385 16.4184 37.0076 17.4449C39.2861 20.928 40.4802 25.0087 40.4389 29.1707C40.3976 33.3327 39.1226 37.3889 36.7754 40.8261C34.4282 44.2633 31.1141 46.927 27.2526 48.4802C23.3911 50.0334 19.1555 50.4063 15.082 49.5517V49.5423L15.0915 49.514C15.0959 49.5096 15.0915 49.5046 15.0959 49.5001C15.0909 49.4857 15.0959 49.4813 15.0959 49.4719L16.7398 41.6374L23.7081 8.35938L23.7125 8.36436C23.8389 8.38764 23.9608 8.41591 24.0872 8.44861C24.3732 8.50958 24.6542 8.58441 24.9396 8.66422C25.2068 8.73406 25.469 8.80888 25.7312 8.89313C26.1191 9.01064 26.5071 9.14643 26.8829 9.29608C27.0562 9.35705 27.2249 9.42262 27.389 9.49284C27.6373 9.59095 27.8711 9.69404 28.1144 9.80656C28.2929 9.88138 28.4659 9.97284 28.6394 10.0593C28.7752 10.1203 28.9059 10.1862 29.0417 10.2561C29.5666 10.5277 30.0815 10.8181 30.5876 11.1368C32.1159 12.0912 33.5124 13.242 34.7412 14.5599Z" fill="white" />
	<g style="mix-blend-mode:multiply" opacity="0.16">
		<g style="mix-blend-mode:multiply" opacity="0.16">
			<path d="M30.5876 11.1368L15.082 49.5517L23.7081 8.35938C26.1477 8.87024 28.4771 9.81066 30.5876 11.1368Z" fill="black" />
		</g>
	</g>
	<path d="M25.3697 0.440022V0.449448C25.3653 0.453882 25.3697 0.46829 25.3603 0.477158C25.3635 0.491302 25.362 0.506123 25.3559 0.519284L23.7119 8.36377L16.7393 41.6368C16.6079 41.6085 16.486 41.5813 16.3596 41.5475C11.0457 40.3458 6.4103 37.1184 3.43914 32.5518C3.04604 31.9491 2.68347 31.327 2.35279 30.6878C2.35279 30.6878 2.34781 30.6734 2.33894 30.6546C2.32022 30.6283 2.30443 30.6 2.29184 30.5703C0.512953 27.0752 -0.253202 23.1522 0.0799224 19.2446C0.413047 15.337 1.83217 11.6003 4.177 8.45666C6.52181 5.31303 9.69896 2.88768 13.3496 1.45453C17.0001 0.0213831 20.9787 -0.362461 24.836 0.346352C24.8548 0.346352 24.8687 0.350788 24.8781 0.350788C25.0421 0.374621 25.2062 0.40732 25.3697 0.440022Z" fill="#F7BE2B" />
	<g style="mix-blend-mode:multiply" opacity="0.25">
		<g style="mix-blend-mode:multiply" opacity="0.25">
			<path d="M24.0874 8.44861C23.6994 10.7106 23.2211 13.3145 22.6823 16.1008C22.4018 17.5419 22.1253 19.0384 21.8116 20.5493C21.4978 22.0602 21.1886 23.5977 20.8749 25.1297C20.5473 26.6656 20.2147 28.197 19.8916 29.7096C19.559 31.2128 19.2265 32.6971 18.9083 34.1304C18.2571 37.001 17.6296 39.6731 17.0582 41.9555C16.5039 44.2407 15.9857 46.1374 15.6487 47.4677C15.3444 48.6316 15.1382 49.3522 15.0917 49.514C15.0882 49.4999 15.0897 49.485 15.0961 49.4719L23.7082 8.35938C23.8346 8.38321 23.961 8.41591 24.0874 8.44861Z" fill="black" />
		</g>
	</g>
	<g style="mix-blend-mode:screen" opacity="0.7">
		<g style="mix-blend-mode:screen" opacity="0.7">
			<path d="M25.3601 0.476562C25.3633 0.490707 25.3617 0.505528 25.3556 0.518689L16.739 41.6362C16.6077 41.6079 16.4857 41.5808 16.3594 41.547C16.7529 39.29 17.2307 36.6766 17.7689 33.8904C18.0499 32.4493 18.3403 30.9589 18.6402 29.4413C18.9494 27.9337 19.2632 26.3928 19.5769 24.8614C19.9044 23.3255 20.237 21.7941 20.5601 20.2815C20.8739 18.7689 21.2253 17.2935 21.5434 15.8607C22.1897 12.9946 22.8221 10.3209 23.3885 8.03064C23.9428 5.74541 24.466 3.85314 24.803 2.52346C25.1073 1.35729 25.3135 0.63619 25.3601 0.476562Z" fill="white" />
		</g>
	</g>
	<g style="mix-blend-mode:screen" opacity="0.25">
		<g style="mix-blend-mode:screen" opacity="0.25">
			<path d="M32.3599 15.9062C33.2732 16.8124 34.0864 17.8141 34.7853 18.8942C36.112 20.9141 37.0268 23.1761 37.477 25.5503C37.9272 27.9246 37.9041 30.3644 37.409 32.7297C36.9138 35.095 35.9563 37.3392 34.5916 39.3335C33.2268 41.3278 31.4815 43.033 29.4561 44.3511C26.144 46.5349 22.2088 47.5763 18.25 47.3164L18.2966 47.0947L32.3599 15.9062Z" fill="white" />
		</g>
	</g>
	<g style="mix-blend-mode:screen" opacity="0.25">
		<g style="mix-blend-mode:screen" opacity="0.25">
			<path d="M22.1973 2.67095L22.1037 3.11103L5.79281 31.3076C5.74625 31.2422 5.6947 31.1718 5.65258 31.1019C4.32694 29.0804 3.41336 26.817 2.96427 24.4416C2.51517 22.0662 2.5394 19.6256 3.03553 17.2596C3.53167 14.8935 4.48995 12.6488 5.85544 10.6539C7.22098 8.65901 8.96685 6.95332 10.993 5.63462C14.3063 3.45508 18.2397 2.41468 22.1973 2.67095Z" fill="white" />
		</g>
	</g>
	<g style="mix-blend-mode:multiply" opacity="0.16">
		<g style="mix-blend-mode:multiply" opacity="0.16">
			<path d="M34.7412 14.5586C35.5801 15.4517 36.3385 16.4171 37.0076 17.4435C39.2861 20.9267 40.4802 25.0074 40.4389 29.1694C40.3976 33.3314 39.1226 37.3876 36.7754 40.8248C34.4282 44.262 31.1141 46.9257 27.2526 48.4789C23.3911 50.0321 19.1555 50.405 15.082 49.5504C16.1795 49.7001 17.2851 49.783 18.3927 49.7987C20.5843 49.7952 22.7635 49.4686 24.8599 48.8293C26.9368 48.1969 28.9036 47.2476 30.6907 46.0147L31.9826 45.0403C32.426 44.7266 32.793 44.3242 33.2021 43.9728L33.7968 43.4246L34.3399 42.8255C34.7107 42.4381 35.0593 42.03 35.3842 41.6033L36.3397 40.3014L37.1639 38.9157C37.4588 38.4612 37.6511 37.9507 37.8995 37.478C38.1407 36.997 38.3472 36.4992 38.5175 35.9886C38.8965 34.9811 39.1987 33.9463 39.4214 32.8931L39.6985 31.2962C39.754 30.7625 39.7878 30.2237 39.8299 29.6856C39.8639 29.146 39.8702 28.6051 39.8488 28.0649L39.8394 27.2501L39.7501 26.4492C39.6428 25.3686 39.4598 24.2968 39.2025 23.2417L38.7247 21.6776C38.5795 21.1482 38.3267 20.6705 38.1344 20.16C38.0313 19.9072 37.9377 19.6545 37.8252 19.4012L37.4371 18.6662C37.1706 18.1835 36.9383 17.6591 36.6457 17.2096C36.0667 16.2872 35.4306 15.4018 34.7412 14.5586Z" fill="black" />
		</g>
	</g>
	<g style="mix-blend-mode:screen" opacity="0.7">
		<g style="mix-blend-mode:screen" opacity="0.7">
			<path d="M24.8354 0.343578C24.7511 0.334156 24.6197 0.324734 24.4474 0.310878C24.1098 0.263765 23.5999 0.249909 22.9625 0.202796C22.1959 0.176907 21.4285 0.191154 20.6634 0.245476C18.514 0.394624 16.3968 0.84867 14.3753 1.59399C13.1731 2.05146 12.0121 2.61071 10.9051 3.26566C10.6196 3.43194 10.3197 3.63591 10.0249 3.81992C9.75329 3.9862 9.4817 4.22287 9.20512 4.41465C8.92799 4.62527 8.65751 4.83145 8.37373 5.03764C8.0966 5.25934 7.84939 5.49656 7.58224 5.72604C7.32451 5.96492 7.05292 6.1894 6.80017 6.43328L6.07409 7.21534C5.58634 7.73158 5.13272 8.27908 4.71615 8.8543C4.49282 9.12927 4.28783 9.41865 4.10257 9.72061L3.51726 10.6152C3.15699 11.2193 2.84772 11.8656 2.51959 12.4836C2.26186 13.1343 1.95259 13.7623 1.73255 14.413C1.62502 14.7361 1.52192 15.0643 1.41384 15.3869L1.25478 15.874L1.14391 16.3612C1.00368 17.0169 0.820771 17.6488 0.745946 18.2951C0.636473 18.9183 0.564657 19.5477 0.530889 20.1796C0.480459 20.7775 0.464733 21.3778 0.483782 21.9776C0.476625 22.5392 0.503285 23.1008 0.563604 23.6592C0.624573 24.1974 0.684977 24.7173 0.741512 25.2045C0.839616 25.6962 0.928864 26.1507 1.01311 26.5902C1.19103 27.4515 1.45651 28.1776 1.62279 28.8006C2.03017 29.8537 2.28347 30.5099 2.33502 30.6546C2.34389 30.6734 2.34889 30.6879 2.34889 30.6879C2.34889 30.6879 2.3256 30.6457 2.28791 30.5703C0.50903 27.0752 -0.257107 23.1522 0.0760172 19.2446C0.409141 15.337 1.82826 11.6003 4.1731 8.45667C6.51794 5.31303 9.69504 2.88768 13.3456 1.45453C16.9962 0.0213832 20.9748 -0.362461 24.832 0.346352L24.8354 0.343578Z" fill="white" />
		</g>
	</g>
</svg>
