<svg width="23" height="29" viewBox="0 0 23 29" fill="none" xmlns="http://www.w3.org/2000/svg">
	<path d="M18.709 15.0777C18.7226 14.0044 19.003 12.9521 19.5239 12.0187C20.0448 11.0853 20.7895 10.301 21.6886 9.73886C21.1174 8.9093 20.3639 8.2266 19.488 7.74499C18.612 7.26339 17.6376 6.99613 16.6423 6.96447C14.5192 6.73783 12.4609 8.2565 11.379 8.2565C10.2761 8.2565 8.61031 6.98697 6.81653 7.0245C5.65626 7.06262 4.52549 7.40575 3.53439 8.02045C2.54329 8.63514 1.72567 9.50045 1.16117 10.5321C-1.28409 14.8375 0.539857 21.1651 2.88221 24.6453C4.05414 26.3495 5.42379 28.2531 7.21595 28.1856C8.96969 28.1116 9.62467 27.0483 11.7416 27.0483C13.8388 27.0483 14.4534 28.1856 16.2819 28.1427C18.1637 28.1116 19.3494 26.4309 20.4802 24.7106C21.3222 23.4963 21.9701 22.1543 22.4 20.7342C21.3067 20.2639 20.3737 19.4768 19.7174 18.4709C19.061 17.465 18.7103 16.2849 18.709 15.0777Z" fill="white" />
	<path d="M15.2571 4.67581C16.2832 3.42316 16.7887 1.81308 16.6663 0.1875C15.0987 0.35494 13.6507 1.11687 12.6108 2.32146C12.1023 2.90994 11.7129 3.59456 11.4648 4.33618C11.2167 5.0778 11.1147 5.86189 11.1647 6.64361C11.9488 6.65182 12.7245 6.47899 13.4334 6.13813C14.1422 5.79728 14.7658 5.29729 15.2571 4.67581Z" fill="white" />
</svg>
