<svg width="447" height="533" viewBox="0 0 447 533" fill="none" xmlns="http://www.w3.org/2000/svg">
	<path d="M301.582 284.821C337.467 341.52 362.927 397.207 375.111 441.364C381.207 463.456 383.948 482.549 383.075 497.389C382.198 512.288 377.72 522.438 369.896 527.39C362.072 532.342 350.982 532.045 337.142 526.46C323.356 520.898 307.273 510.249 289.916 495.285C255.222 465.374 215.79 418.53 179.905 361.832C144.02 305.133 118.56 249.447 106.376 205.289C100.28 183.197 97.5388 164.105 98.412 149.264C99.2886 134.366 103.766 124.216 111.59 119.264C119.415 114.312 130.504 114.609 144.345 120.193C158.131 125.755 174.214 136.404 191.571 151.368C226.265 181.28 265.697 228.123 301.582 284.821Z" stroke="url(#paint0_linear_297_960)" stroke-width="4" />
	<path fill-rule="evenodd" clip-rule="evenodd" d="M226.105 95.0546H405.742L402.392 84.9716L414.141 81.7849L423.945 102.184C425.922 105.701 426.404 110.08 424.691 114.276L292.365 438.397C290.223 443.645 285.118 447.074 279.451 447.074H93.7797C87.307 447.074 82.1828 442.79 80.4498 437.261L71.5398 418.722L85.5512 412.681L86.2279 414.717L213.191 103.731C215.333 98.4841 220.437 95.0546 226.105 95.0546Z" fill="#575C61" />
	<path d="M211.587 89.6854C212.664 87.0728 215.21 85.3679 218.036 85.3679H399.659C404.624 85.3679 407.999 90.4091 406.107 94.9998L275.193 412.711C274.116 415.323 271.57 417.028 268.744 417.028H87.1216C82.1564 417.028 78.7813 411.987 80.673 407.396L211.587 89.6854Z" fill="white" />
	<path fill-rule="evenodd" clip-rule="evenodd" d="M216.722 75.1887C211.054 75.1887 205.949 78.6182 203.807 83.8655L71.4815 407.987C67.7355 417.162 74.4851 427.208 84.3961 427.208H270.067C275.735 427.208 280.839 423.779 282.982 418.532L415.307 94.4106C419.053 85.2347 412.303 75.1887 402.392 75.1887H216.722ZM269.132 417.017L269.272 417.008C271.884 416.811 274.186 415.159 275.195 412.71L406.109 94.9993C408.001 90.4085 404.626 85.3674 399.661 85.3674H354.48C352.112 85.3674 350.002 86.8624 349.216 89.0966L345.372 100.031C343.801 104.5 339.581 107.49 334.844 107.49H263.503C259.656 107.49 256.963 103.689 258.239 100.06L261.445 90.9401C262.402 88.2182 260.382 85.3674 257.497 85.3674H218.036C215.211 85.3674 212.664 87.0722 211.588 89.6849L80.6733 407.396C78.7816 411.986 82.1568 417.028 87.1237 417.028H268.744C268.875 417.028 269.004 417.024 269.132 417.017Z" fill="url(#paint1_linear_297_960)" />
	<path d="M173.307 231.527C173.94 230.036 175.404 229.067 177.024 229.067L317.836 229.067C320.728 229.067 322.683 232.018 321.553 234.681L290.484 307.914C289.851 309.406 288.388 310.375 286.767 310.375H145.955C143.063 310.375 141.109 307.423 142.238 304.76L173.307 231.527Z" fill="#D8DEE2" stroke="#B0BAC0" stroke-width="1.39494" stroke-linecap="round" stroke-linejoin="round" stroke-dasharray="6.97 6.97" />
	<rect width="78.5632" height="5.57974" rx="2.78987" transform="matrix(1 0 -0.197144 0.980375 141.412 397.912)" fill="#D8DEE2" />
	<rect x="0.531808" y="0.677509" width="148.585" height="26.5038" rx="13.2519" transform="matrix(1 0 -0.237516 0.971384 127.879 341.858)" stroke="#989C9F" stroke-width="1.39494" />
	<path d="M169.338 353.353C169.204 353.904 168.95 354.41 168.577 354.87C168.206 355.322 167.717 355.688 167.109 355.968C166.501 356.248 165.797 356.388 164.997 356.388H163.519L162.684 359.803H160.298L162.624 350.29H166.488C167.269 350.29 167.898 350.421 168.373 350.683C168.848 350.945 169.165 351.307 169.322 351.767C169.479 352.228 169.484 352.757 169.338 353.353ZM165.267 354.545C165.722 354.545 166.087 354.441 166.361 354.234C166.635 354.026 166.818 353.732 166.911 353.353C167.004 352.973 166.964 352.68 166.792 352.472C166.619 352.264 166.305 352.16 165.85 352.16H164.552L163.969 354.545H165.267ZM177.232 358.122H173.577L172.581 359.803H170.084L175.953 350.29H178.715L179.932 359.803H177.407L177.232 358.122ZM177.056 356.334L176.694 352.851L174.642 356.334H177.056ZM193.456 350.29L188.509 356.659L187.74 359.803H185.355L186.124 356.659L184.291 350.29H186.997L187.92 354.274L190.778 350.29H193.456ZM207.229 350.29L204.903 359.803H202.518L203.913 354.098L200.328 359.803H198.403L197.597 354.085L196.199 359.803H193.813L196.139 350.29H198.957L200.095 356.876L204.425 350.29H207.229ZM212.598 352.147L212.128 354.071H215.322L214.885 355.86H211.69L211.18 357.946H214.793L214.339 359.803H208.341L210.667 350.29H216.665L216.211 352.147H212.598ZM226.37 359.803H223.985L221.43 353.935L219.995 359.803H217.61L219.936 350.29H222.321L224.869 356.185L226.31 350.29H228.696L226.37 359.803ZM239.192 350.29L238.738 352.147H236.143L234.271 359.803H231.886L233.758 352.147H231.163L231.617 350.29H239.192Z" fill="#989C9F" />
	<circle r="13.3636" transform="matrix(1 0 -0.115457 0.993312 219.98 129.721)" fill="#D8DEE2" />
	<rect width="63.4124" height="5.57974" rx="2.78987" transform="matrix(1 0 -0.148327 0.988938 242.63 125.537)" fill="#D8DEE2" />
	<path d="M199.809 158.509C200.037 156.986 201.472 155.75 203.013 155.75H342.89C344.431 155.75 345.495 156.986 345.266 158.509C345.038 160.033 343.604 161.269 342.063 161.269H202.185C200.644 161.269 199.58 160.033 199.809 158.509Z" fill="#D8DEE2" />
	<rect width="25.9929" height="6.83239" rx="3.4162" transform="matrix(1 0 0.237516 0.971384 162.316 434.331)" fill="#414549" />
	<path d="M210.202 437.649C209.754 435.816 210.92 434.331 212.807 434.331L213.834 434.331C215.721 434.331 217.613 435.816 218.062 437.649C218.51 439.482 217.344 440.967 215.457 440.967H214.43C212.543 440.967 210.65 439.482 210.202 437.649Z" fill="#414549" />
	<path d="M223.869 437.649C223.421 435.816 224.587 434.331 226.474 434.331L227.501 434.331C229.388 434.331 231.28 435.816 231.729 437.649C232.177 439.482 231.011 440.967 229.124 440.967H228.097C226.21 440.967 224.317 439.482 223.869 437.649Z" fill="#414549" />
	<path d="M237.537 437.649C237.089 435.816 238.255 434.331 240.142 434.331L241.169 434.331C243.056 434.331 244.948 435.816 245.397 437.649C245.845 439.482 244.678 440.967 242.792 440.967H241.765C239.878 440.967 237.985 439.482 237.537 437.649Z" fill="#414549" />
	<path d="M106.858 437.649C106.41 435.816 107.576 434.331 109.463 434.331L110.49 434.331C112.377 434.331 114.27 435.816 114.718 437.649C115.166 439.482 114 440.967 112.113 440.967H111.086C109.199 440.967 107.306 439.482 106.858 437.649Z" fill="#414549" />
	<path d="M120.525 437.649C120.077 435.816 121.243 434.331 123.13 434.331L124.157 434.331C126.044 434.331 127.937 435.816 128.385 437.649C128.833 439.482 127.667 440.967 125.78 440.967H124.753C122.866 440.967 120.973 439.482 120.525 437.649Z" fill="#414549" />
	<path d="M134.193 437.649C133.745 435.816 134.911 434.331 136.798 434.331L137.825 434.331C139.712 434.331 141.605 435.816 142.053 437.649C142.501 439.482 141.335 440.967 139.448 440.967H138.421C136.534 440.967 134.641 439.482 134.193 437.649Z" fill="#414549" />
	<rect width="26.0075" height="4.18481" rx="2.0924" transform="matrix(1 0 -0.22937 0.973339 289.743 92.8103)" fill="#707A7E" />
	<path d="M318.876 94.8469C319.141 93.7221 320.292 92.8103 321.448 92.8103L321.791 92.8103C322.947 92.8103 323.668 93.7221 323.403 94.8469C323.138 95.9717 321.987 96.8835 320.831 96.8835H320.488C319.332 96.8835 318.61 95.9717 318.876 94.8469Z" fill="#707A7E" />
	<path d="M47.8663 186.37C49.6573 182.409 53.6017 179.863 57.9488 179.863H260.549C268.587 179.863 273.943 188.163 270.631 195.488L229.83 285.722C228.039 289.683 224.094 292.229 219.747 292.229H17.1473C9.10908 292.229 3.75301 283.929 7.06483 276.604L47.8663 186.37Z" fill="#989C9F" />
	<rect width="59.1938" height="5.79299" rx="2.8965" transform="matrix(1 0 -0.371206 0.928551 65.8691 193.742)" fill="white" />
	<path d="M58.9932 206.836C59.587 205.351 61.3652 204.146 62.9649 204.146H100.132C101.732 204.146 102.547 205.351 101.954 206.836C101.36 208.321 99.5815 209.526 97.9818 209.526H60.8145C59.2148 209.526 58.3993 208.321 58.9932 206.836Z" fill="white" fill-opacity="0.7" />
	<path d="M32.1816 269.238C32.7755 267.753 34.5536 266.549 36.1533 266.549H55.0249C56.6246 266.549 57.44 267.753 56.8462 269.238C56.2524 270.724 54.4742 271.928 52.8745 271.928H34.0029C32.4032 271.928 31.5878 270.724 32.1816 269.238Z" fill="white" fill-opacity="0.7" />
	<path d="M60.9082 269.238C61.502 267.753 63.2802 266.549 64.8799 266.549H83.7514C85.3511 266.549 86.1666 267.753 85.5727 269.238C84.9789 270.724 83.2007 271.928 81.601 271.928H62.7295C61.1298 271.928 60.3144 270.724 60.9082 269.238Z" fill="white" fill-opacity="0.7" />
	<path d="M89.6348 269.238C90.2286 267.753 92.0068 266.549 93.6065 266.549H112.478C114.078 266.549 114.893 267.753 114.299 269.238C113.705 270.724 111.927 271.928 110.328 271.928H91.4561C89.8564 271.928 89.041 270.724 89.6348 269.238Z" fill="white" fill-opacity="0.7" />
	<rect width="19.8015" height="19.8015" rx="2.21306" transform="matrix(-0.405026 0.914305 0.999989 -0.00466398 52.5479 222.605)" fill="url(#paint2_linear_297_960)" />
	<mask id="mask0_297_960" style="mask-type:alpha" maskUnits="userSpaceOnUse" x="45" y="222" width="27" height="19">
		<rect width="19.8015" height="19.8015" rx="2.20016" transform="matrix(-0.405026 0.914305 0.999989 -0.00466398 52.5293 222.608)" fill="#EDE910" />
	</mask>
	<g mask="url(#mask0_297_960)">
		<path d="M45.877 226.658L75.4198 226.521" stroke="#FFB801" stroke-width="0.880065" />
		<path d="M43.6465 231.686L55.5022 231.63M73.1894 231.548L61.2293 231.604" stroke="#FFB801" stroke-width="0.880065" />
		<path d="M41.416 236.717L70.9589 236.579" stroke="#FFB801" stroke-width="0.880065" />
		<path d="M66.793 218.891L54.8272 245.903" stroke="#FFB801" stroke-width="0.880065" />
		<path d="M61.4463 218.589L49.4805 245.6" stroke="#FFB801" stroke-width="0.880065" />
		<path d="M44.8909 245.625L51.0986 231.612" stroke="#FFB801" stroke-width="0.880065" />
		<path d="M71.4799 218.543L65.708 231.573" stroke="#FFB801" stroke-width="0.880065" />
	</g>
	<mask id="mask1_297_960" style="mask-type:alpha" maskUnits="userSpaceOnUse" x="6" y="179" width="266" height="114">
		<path d="M47.8673 186.369C49.6583 182.408 53.6027 179.863 57.9497 179.863H260.55C268.588 179.863 273.944 188.163 270.632 195.487L229.831 285.722C228.04 289.683 224.095 292.228 219.748 292.228H17.1483C9.11005 292.228 3.75399 283.928 7.06581 276.604L47.8673 186.369Z" fill="#989C9F" />
	</mask>
	<g mask="url(#mask1_297_960)">
		<circle r="73.3763" transform="matrix(1 0 -0.245477 0.969403 201.287 292.228)" fill="url(#paint3_linear_297_960)" />
		<circle r="72.6789" transform="matrix(1 0 -0.245477 0.969403 230.24 269.236)" stroke="url(#paint4_linear_297_960)" stroke-width="1.39494" />
	</g>
	<circle r="11.8378" transform="matrix(1 0 -0.221378 0.975188 205.074 269.244)" fill="white" />
	<path fill-rule="evenodd" clip-rule="evenodd" d="M195.025 280.023C192.046 277.664 190.639 273.714 191.655 269.239C192.67 264.767 195.867 260.819 199.913 258.459C198.71 257.968 197.344 257.698 195.851 257.698C189.314 257.698 182.84 262.867 181.393 269.243C179.946 275.618 184.072 280.787 190.61 280.787C192.105 280.787 193.597 280.517 195.025 280.023Z" fill="white" fill-opacity="0.6" />
	<ellipse cx="110.869" cy="67.0373" rx="36.1471" ry="39.8669" transform="rotate(62.2503 110.869 67.0373)" fill="url(#paint5_linear_297_960)" />
	<ellipse cx="108.944" cy="62.8301" rx="34.5873" ry="39.9504" transform="rotate(62.2503 108.944 62.8301)" fill="url(#paint6_linear_297_960)" />
	<path d="M121.906 87.4725C105.854 95.9181 87.3062 91.3438 80.2455 77.9235C73.1848 64.5031 79.9206 46.627 95.9732 38.1814C112.026 29.7359 130.573 34.3101 137.634 47.7305C144.694 61.1509 137.959 79.027 121.906 87.4725Z" fill="url(#paint7_linear_297_960)" stroke="url(#paint8_linear_297_960)" stroke-width="3.30871" />
	<g clip-path="url(#clip0_297_960)">
		<path fill-rule="evenodd" clip-rule="evenodd" d="M137.356 72.6429C144.178 56.5344 135.935 40.1061 118.943 35.947C101.95 31.788 82.6473 41.4738 75.825 57.5823C82.647 41.4746 101.951 31.7882 118.943 35.947C135.934 40.1059 144.178 56.5352 137.356 72.6429ZM92.9919 68.8597L120.615 75.621C120.726 75.6476 120.822 75.705 120.89 75.7857C120.958 75.8665 120.995 75.967 120.996 76.0746C120.998 76.1821 120.964 76.2918 120.899 76.3897C120.833 76.4876 120.74 76.5693 120.63 76.6244L112.999 80.4218C112.702 80.5686 112.368 80.6098 112.069 80.5364L84.4461 73.7751C84.3343 73.7488 84.2382 73.6914 84.1699 73.6105C84.1017 73.5295 84.0645 73.4286 84.063 73.3207C84.0616 73.2127 84.0959 73.1026 84.1618 73.0045C84.2276 72.9064 84.3218 72.8247 84.4325 72.7699L92.0627 68.9743C92.3595 68.8275 92.6934 68.7863 92.9919 68.8597ZM91.2205 57.7796L118.844 64.5409C119.081 64.5986 119.283 64.7253 119.42 64.9033L119.509 65.0456L122.795 71.5154C122.838 71.5996 122.853 71.6958 122.84 71.7937C122.826 71.8917 122.784 71.988 122.718 72.0725C122.652 72.1569 122.564 72.2266 122.464 72.2741C122.364 72.3216 122.255 72.3453 122.148 72.3427L122.012 72.3234L94.3885 65.5622C94.1501 65.5038 93.9502 65.3744 93.812 65.1998L93.7237 65.0575L90.4368 58.5877C90.3942 58.5034 90.3789 58.4073 90.3925 58.3093C90.4061 58.2114 90.4482 58.1151 90.5143 58.0306C90.5805 57.9461 90.6682 57.8765 90.7685 57.829C90.8687 57.7814 90.9778 57.7578 91.0843 57.7604L91.2205 57.7796ZM101.111 49.6888L128.735 56.4501C128.846 56.4764 128.942 56.5338 129.011 56.6147C129.079 56.6957 129.116 56.7966 129.118 56.9046C129.119 57.0125 129.085 57.1226 129.019 57.2207C128.953 57.3188 128.859 57.4005 128.748 57.4553L121.118 61.2509C120.821 61.3977 120.487 61.4389 120.189 61.3655L92.5653 54.6042C92.4541 54.5776 92.3585 54.5203 92.2907 54.4395C92.2228 54.3587 92.1858 54.2582 92.1842 54.1506C92.1827 54.0431 92.2168 53.9334 92.2821 53.8355C92.3474 53.7376 92.441 53.6559 92.551 53.6008L100.182 49.8034C100.479 49.6566 100.813 49.6154 101.111 49.6888Z" fill="#707A7E" />
	</g>
	<g clip-path="url(#clip1_297_960)">
		<path fill-rule="evenodd" clip-rule="evenodd" d="M138.541 70.3165C145.364 54.208 137.12 37.7797 120.128 33.6206C103.136 29.4616 83.8331 39.1474 77.0108 55.2559C83.8328 39.1482 103.137 29.4618 120.128 33.6206C137.119 37.7795 145.363 54.2088 138.541 70.3165ZM94.1777 66.5333L121.801 73.2946C121.912 73.3212 122.008 73.3785 122.076 73.4593C122.144 73.5401 122.181 73.6406 122.182 73.7482C122.184 73.8557 122.15 73.9654 122.084 74.0633C122.019 74.1612 121.925 74.2429 121.815 74.2979L114.184 78.0954C113.888 78.2422 113.554 78.2834 113.255 78.21L85.6318 71.4487C85.5201 71.4223 85.424 71.365 85.3557 71.2841C85.2875 71.2031 85.2503 71.1022 85.2488 70.9942C85.2474 70.8863 85.2817 70.7762 85.3476 70.6781C85.4134 70.58 85.5076 70.4983 85.6183 70.4435L93.2485 66.6479C93.5453 66.5011 93.8792 66.4599 94.1777 66.5333ZM92.4063 55.4532L120.03 62.2145C120.267 62.2722 120.469 62.3989 120.606 62.5769L120.694 62.7192L123.981 69.189C124.024 69.2732 124.039 69.3693 124.026 69.4673C124.012 69.5653 123.97 69.6616 123.904 69.746C123.838 69.8305 123.75 69.9002 123.65 69.9477C123.549 69.9952 123.44 70.0189 123.334 70.0163L123.198 69.997L95.5743 63.2358C95.3358 63.1774 95.136 63.048 94.9977 62.8734L94.9095 62.731L91.6226 56.2613C91.58 56.177 91.5647 56.0809 91.5783 55.9829C91.5919 55.8849 91.634 55.7887 91.7001 55.7042C91.7663 55.6197 91.854 55.5501 91.9543 55.5025C92.0545 55.455 92.1636 55.4313 92.2701 55.434L92.4063 55.4532ZM102.297 47.3624L129.92 54.1237C130.032 54.15 130.128 54.2074 130.196 54.2883C130.265 54.3693 130.302 54.4702 130.303 54.5781C130.305 54.6861 130.27 54.7962 130.205 54.8943C130.139 54.9924 130.045 55.0741 129.934 55.1289L122.304 58.9245C122.007 59.0713 121.673 59.1125 121.374 59.0391L93.7511 52.2778C93.6399 52.2512 93.5443 52.1938 93.4765 52.1131C93.4086 52.0323 93.3716 51.9317 93.37 51.8242C93.3685 51.7166 93.4025 51.607 93.4678 51.5091C93.5331 51.4112 93.6268 51.3295 93.7368 51.2744L101.368 47.477C101.665 47.3302 101.998 47.289 102.297 47.3624Z" fill="white" />
	</g>
	<ellipse rx="49.2457" ry="54.3134" transform="matrix(-0.442466 0.896785 0.896785 0.442466 355.019 343.965)" fill="url(#paint9_linear_297_960)" />
	<ellipse rx="47.1207" ry="54.4272" transform="matrix(-0.442466 0.896785 0.896785 0.442466 357.492 338.172)" fill="url(#paint10_linear_297_960)" />
	<path d="M340.432 372.741C362.814 383.784 388.312 376.884 397.635 357.989C406.957 339.095 396.919 314.661 374.536 303.618C352.154 292.574 326.656 299.475 317.333 318.369C308.011 337.264 318.049 361.697 340.432 372.741Z" fill="url(#paint11_linear_297_960)" stroke="url(#paint12_linear_297_960)" stroke-width="3.30871" />
	<g clip-path="url(#clip2_297_960)">
		<path fill-rule="evenodd" clip-rule="evenodd" d="M321.892 350.716C312.566 331.06 321.894 310.048 342.728 303.781C321.895 310.048 312.567 331.061 321.892 350.716ZM342.728 303.781C363.561 297.514 388.007 308.367 397.333 328.022C388.008 308.368 363.56 297.515 342.728 303.781ZM359.318 327.835L361.815 333.097C372.385 330.433 381.087 330.03 382.187 332.35C383.288 334.67 376.425 338.948 366.282 342.513L374.285 359.381L365.06 362.156L357.059 345.292C346.471 347.961 337.751 348.37 336.649 346.048C335.548 343.726 342.428 339.44 352.588 335.87L350.093 330.61L337.329 334.449L333.521 326.424L368.274 315.97L372.081 323.995L359.318 327.835ZM365.601 341.078L365.603 341.082C374.569 337.948 380.681 334.394 379.827 332.592C378.974 330.795 371.435 331.342 362.105 333.709L364.894 339.588C364.638 339.69 363.264 340.23 360.419 341.086C358.047 341.8 356.286 342.22 355.668 342.36L352.878 336.48C343.895 339.624 337.768 343.188 338.622 344.987C339.476 346.789 347.032 346.237 356.379 343.86L356.376 343.853C356.978 343.702 358.686 343.265 361.067 342.549C364.049 341.651 365.35 341.174 365.601 341.078Z" fill="#707A7E" />
	</g>
	<g clip-path="url(#clip3_297_960)">
		<path fill-rule="evenodd" clip-rule="evenodd" d="M318.894 347.278C309.568 327.622 318.896 306.61 339.73 300.343C318.897 306.61 309.569 327.623 318.894 347.278ZM339.73 300.343C360.563 294.076 385.009 304.928 394.335 324.584C385.01 304.929 360.562 294.076 339.73 300.343ZM356.32 324.396L358.816 329.659C369.387 326.995 378.089 326.591 379.189 328.911C380.29 331.231 373.427 335.509 363.284 339.074L371.287 355.943L362.062 358.718L354.061 341.854C343.473 344.522 334.753 344.932 333.651 342.61C332.55 340.288 339.43 336.001 349.59 332.432L347.095 327.171L334.331 331.011L330.523 322.986L365.276 312.532L369.083 320.557L356.32 324.396ZM362.603 337.639L362.605 337.644C371.571 334.51 377.683 330.955 376.829 329.154C375.976 327.356 368.436 327.904 359.107 330.271L361.896 336.149C361.64 336.252 360.266 336.792 357.421 337.648C355.049 338.361 353.288 338.782 352.67 338.922L349.88 333.041C340.897 336.185 334.77 339.749 335.624 341.549C336.478 343.35 344.034 342.798 353.381 340.421L353.378 340.414C353.98 340.264 355.688 339.826 358.069 339.11C361.051 338.213 362.352 337.735 362.603 337.639Z" fill="white" />
	</g>
	<defs>
		<linearGradient id="paint0_linear_297_960" x1="52.9661" y1="84.7344" x2="279.422" y2="425.453" gradientUnits="userSpaceOnUse">
			<stop stop-color="white" />
			<stop offset="1" stop-color="#51595C" stop-opacity="0.3" />
		</linearGradient>
		<linearGradient id="paint1_linear_297_960" x1="281.867" y1="13.9044" x2="119.268" y2="344.645" gradientUnits="userSpaceOnUse">
			<stop stop-color="#B9C3C9" />
			<stop offset="1" stop-color="#6B757E" />
		</linearGradient>
		<linearGradient id="paint2_linear_297_960" x1="-8.3858" y1="-4.78771" x2="21.3123" y2="-17.3902" gradientUnits="userSpaceOnUse">
			<stop stop-color="#FFEF00" />
			<stop offset="1" stop-color="#FFB900" />
		</linearGradient>
		<linearGradient id="paint3_linear_297_960" x1="-234.912" y1="-156.547" x2="118.385" y2="-87.3675" gradientUnits="userSpaceOnUse">
			<stop stop-opacity="0.28" />
			<stop offset="1" stop-opacity="0" />
			<stop offset="1" stop-opacity="0" />
		</linearGradient>
		<linearGradient id="paint4_linear_297_960" x1="63.2975" y1="-21.8806" x2="39.7915" y2="111.26" gradientUnits="userSpaceOnUse">
			<stop stop-color="white" />
			<stop offset="1" stop-color="white" stop-opacity="0" />
		</linearGradient>
		<linearGradient id="paint5_linear_297_960" x1="110.869" y1="27.1705" x2="110.869" y2="106.904" gradientUnits="userSpaceOnUse">
			<stop stop-color="#859299" />
			<stop offset="1" stop-color="#4A5056" />
		</linearGradient>
		<linearGradient id="paint6_linear_297_960" x1="108.944" y1="22.8797" x2="108.944" y2="102.78" gradientUnits="userSpaceOnUse">
			<stop stop-color="#B9C4C9" />
			<stop offset="1" stop-color="#6A747D" />
		</linearGradient>
		<linearGradient id="paint7_linear_297_960" x1="133.677" y1="43.887" x2="65.5062" y2="43.9101" gradientUnits="userSpaceOnUse">
			<stop stop-color="#AFB7BB" />
			<stop offset="1" stop-color="#575F67" />
		</linearGradient>
		<linearGradient id="paint8_linear_297_960" x1="193.38" y1="57.4426" x2="89.5476" y2="41.1951" gradientUnits="userSpaceOnUse">
			<stop offset="0.537867" stop-color="#8B969B" stop-opacity="0.26" />
			<stop offset="1" stop-color="#545C63" />
		</linearGradient>
		<linearGradient id="paint9_linear_297_960" x1="49.2457" y1="0" x2="49.2457" y2="108.627" gradientUnits="userSpaceOnUse">
			<stop stop-color="#859299" />
			<stop offset="1" stop-color="#4A5056" />
		</linearGradient>
		<linearGradient id="paint10_linear_297_960" x1="47.1207" y1="0" x2="47.1207" y2="108.854" gradientUnits="userSpaceOnUse">
			<stop stop-color="#B9C4C9" />
			<stop offset="1" stop-color="#6A747D" />
		</linearGradient>
		<linearGradient id="paint11_linear_297_960" x1="323.123" y1="313.26" x2="415.967" y2="310.879" gradientUnits="userSpaceOnUse">
			<stop stop-color="#AFB7BB" />
			<stop offset="1" stop-color="#575F67" />
		</linearGradient>
		<linearGradient id="paint12_linear_297_960" x1="242.293" y1="333.834" x2="383.129" y2="308.032" gradientUnits="userSpaceOnUse">
			<stop offset="0.537867" stop-color="#8B969B" stop-opacity="0.26" />
			<stop offset="1" stop-color="#545C63" />
		</linearGradient>
		<clipPath id="clip0_297_960">
			<rect width="39.5918" height="31.6734" fill="white" transform="matrix(0.971327 0.237748 -0.389986 0.920821 94.7065 45.875)" />
		</clipPath>
		<clipPath id="clip1_297_960">
			<rect width="39.5918" height="31.6734" fill="white" transform="matrix(0.971327 0.237748 -0.389986 0.920821 95.8953 43.5364)" />
		</clipPath>
		<clipPath id="clip2_297_960">
			<rect width="54.1616" height="46.776" fill="white" transform="matrix(0.957612 -0.288062 0.428651 0.90347 324.522 328.296)" />
		</clipPath>
		<clipPath id="clip3_297_960">
			<rect width="54.1616" height="46.776" fill="white" transform="matrix(0.957612 -0.288062 0.428651 0.90347 321.527 324.859)" />
		</clipPath>
	</defs>
</svg>
