<svg width="689" height="699" viewBox="0 0 689 699" fill="none" xmlns="http://www.w3.org/2000/svg">
	<path d="M370.582 399.821C406.467 456.52 431.927 512.207 444.111 556.364C450.207 578.456 452.948 597.549 452.075 612.389C451.198 627.288 446.72 637.438 438.896 642.39C431.072 647.342 419.982 647.045 406.142 641.46C392.356 635.898 376.273 625.249 358.916 610.285C324.222 580.374 284.79 533.53 248.905 476.832C213.02 420.133 187.56 364.447 175.376 320.289C169.28 298.197 166.539 279.105 167.412 264.264C168.289 249.366 172.766 239.216 180.59 234.264C188.415 229.312 199.504 229.609 213.345 235.193C227.131 240.755 243.214 251.404 260.571 266.368C295.265 296.28 334.697 343.123 370.582 399.821Z" stroke="url(#paint0_linear_298_2685)" stroke-width="4" />
	<g filter="url(#filter0_f_298_2685)">
		<circle cx="217" cy="160" r="40" fill="white" fill-opacity="0.28" />
	</g>
	<g filter="url(#filter1_f_298_2685)">
		<circle cx="411" cy="516" r="40" fill="white" fill-opacity="0.28" />
	</g>
	<g filter="url(#filter2_f_298_2685)">
		<circle cx="478.5" cy="249.5" r="52.5" fill="white" fill-opacity="0.28" />
	</g>
	<path fill-rule="evenodd" clip-rule="evenodd" d="M295.105 210.055H474.742L471.392 199.972L483.141 196.785L492.945 217.184C494.922 220.701 495.404 225.08 493.691 229.276L361.365 553.397C359.223 558.645 354.118 562.074 348.451 562.074H162.78C156.307 562.074 151.183 557.79 149.45 552.261L140.54 533.722L154.551 527.681L155.228 529.717L282.191 218.731C284.333 213.484 289.437 210.055 295.105 210.055Z" fill="#575C61" />
	<path d="M280.587 204.685C281.664 202.073 284.21 200.368 287.036 200.368H468.659C473.624 200.368 476.999 205.409 475.107 210L344.193 527.711C343.116 530.323 340.57 532.028 337.744 532.028H156.122C151.156 532.028 147.781 526.987 149.673 522.396L280.587 204.685Z" fill="white" />
	<path fill-rule="evenodd" clip-rule="evenodd" d="M285.722 190.189C280.054 190.189 274.949 193.618 272.807 198.866L140.482 522.987C136.735 532.162 143.485 542.208 153.396 542.208H339.067C344.735 542.208 349.839 538.779 351.982 533.532L484.307 209.411C488.053 200.235 481.303 190.189 471.392 190.189H285.722ZM338.132 532.017L338.272 532.008C340.884 531.811 343.186 530.159 344.195 527.71L475.109 209.999C477.001 205.409 473.626 200.367 468.661 200.367H423.48C421.112 200.367 419.002 201.862 418.216 204.097L414.372 215.031C412.801 219.5 408.581 222.49 403.844 222.49H332.503C328.656 222.49 325.963 218.689 327.239 215.06L330.445 205.94C331.402 203.218 329.382 200.367 326.497 200.367H287.036C284.211 200.367 281.664 202.072 280.588 204.685L149.673 522.396C147.782 526.986 151.157 532.028 156.124 532.028H337.744C337.875 532.028 338.004 532.024 338.132 532.017Z" fill="url(#paint1_linear_298_2685)" />
	<path d="M242.307 346.527C242.94 345.036 244.404 344.067 246.024 344.067L386.836 344.067C389.728 344.067 391.683 347.018 390.553 349.681L359.484 422.914C358.851 424.406 357.388 425.375 355.767 425.375H214.955C212.063 425.375 210.109 422.423 211.238 419.76L242.307 346.527Z" fill="#D8DEE2" stroke="#B0BAC0" stroke-width="1.39494" stroke-linecap="round" stroke-linejoin="round" stroke-dasharray="6.97 6.97" />
	<rect width="78.5632" height="5.57974" rx="2.78987" transform="matrix(1 0 -0.197144 0.980375 210.412 512.912)" fill="#D8DEE2" />
	<rect x="0.531808" y="0.677509" width="148.585" height="26.5038" rx="13.2519" transform="matrix(1 0 -0.237516 0.971384 196.879 456.858)" stroke="#989C9F" stroke-width="1.39494" />
	<path d="M238.338 468.353C238.204 468.904 237.95 469.41 237.577 469.87C237.206 470.322 236.717 470.688 236.109 470.968C235.501 471.248 234.797 471.388 233.997 471.388H232.519L231.684 474.803H229.298L231.624 465.29H235.488C236.269 465.29 236.898 465.421 237.373 465.683C237.848 465.945 238.165 466.307 238.322 466.767C238.479 467.228 238.484 467.757 238.338 468.353ZM234.267 469.545C234.722 469.545 235.087 469.441 235.361 469.234C235.635 469.026 235.818 468.732 235.911 468.353C236.004 467.973 235.964 467.68 235.792 467.472C235.619 467.264 235.305 467.16 234.85 467.16H233.552L232.969 469.545H234.267ZM246.232 473.122H242.577L241.581 474.803H239.084L244.953 465.29H247.715L248.932 474.803H246.407L246.232 473.122ZM246.056 471.334L245.694 467.851L243.642 471.334H246.056ZM262.456 465.29L257.509 471.659L256.74 474.803H254.355L255.124 471.659L253.291 465.29H255.997L256.92 469.274L259.778 465.29H262.456ZM276.229 465.29L273.903 474.803H271.518L272.913 469.098L269.328 474.803H267.403L266.597 469.085L265.199 474.803H262.813L265.139 465.29H267.957L269.095 471.876L273.425 465.29H276.229ZM281.598 467.147L281.128 469.071H284.322L283.885 470.86H280.69L280.18 472.946H283.793L283.339 474.803H277.341L279.667 465.29H285.665L285.211 467.147H281.598ZM295.37 474.803H292.985L290.43 468.935L288.995 474.803H286.61L288.936 465.29H291.321L293.869 471.185L295.31 465.29H297.696L295.37 474.803ZM308.192 465.29L307.738 467.147H305.143L303.271 474.803H300.886L302.758 467.147H300.163L300.617 465.29H308.192Z" fill="#989C9F" />
	<circle r="13.3636" transform="matrix(1 0 -0.115457 0.993312 288.98 244.721)" fill="#D8DEE2" />
	<rect width="63.4124" height="5.57974" rx="2.78987" transform="matrix(1 0 -0.148327 0.988938 311.63 240.537)" fill="#D8DEE2" />
	<path d="M268.809 273.509C269.037 271.986 270.472 270.75 272.013 270.75H411.89C413.431 270.75 414.495 271.986 414.266 273.509C414.038 275.033 412.604 276.269 411.063 276.269H271.185C269.644 276.269 268.58 275.033 268.809 273.509Z" fill="#D8DEE2" />
	<rect width="25.9929" height="6.83239" rx="3.4162" transform="matrix(1 0 0.237516 0.971384 231.316 549.331)" fill="#414549" />
	<path d="M279.202 552.649C278.754 550.816 279.92 549.331 281.807 549.331L282.834 549.331C284.721 549.331 286.613 550.816 287.062 552.649C287.51 554.482 286.344 555.967 284.457 555.967H283.43C281.543 555.967 279.65 554.482 279.202 552.649Z" fill="#414549" />
	<path d="M292.869 552.649C292.421 550.816 293.587 549.331 295.474 549.331L296.501 549.331C298.388 549.331 300.28 550.816 300.729 552.649C301.177 554.482 300.011 555.967 298.124 555.967H297.097C295.21 555.967 293.317 554.482 292.869 552.649Z" fill="#414549" />
	<path d="M306.537 552.649C306.089 550.816 307.255 549.331 309.142 549.331L310.169 549.331C312.056 549.331 313.948 550.816 314.397 552.649C314.845 554.482 313.678 555.967 311.792 555.967H310.765C308.878 555.967 306.985 554.482 306.537 552.649Z" fill="#414549" />
	<path d="M175.858 552.649C175.41 550.816 176.576 549.331 178.463 549.331L179.49 549.331C181.377 549.331 183.27 550.816 183.718 552.649C184.166 554.482 183 555.967 181.113 555.967H180.086C178.199 555.967 176.306 554.482 175.858 552.649Z" fill="#414549" />
	<path d="M189.525 552.649C189.077 550.816 190.243 549.331 192.13 549.331L193.157 549.331C195.044 549.331 196.937 550.816 197.385 552.649C197.833 554.482 196.667 555.967 194.78 555.967H193.753C191.866 555.967 189.973 554.482 189.525 552.649Z" fill="#414549" />
	<path d="M203.193 552.649C202.745 550.816 203.911 549.331 205.798 549.331L206.825 549.331C208.712 549.331 210.605 550.816 211.053 552.649C211.501 554.482 210.335 555.967 208.448 555.967H207.421C205.534 555.967 203.641 554.482 203.193 552.649Z" fill="#414549" />
	<rect width="26.0075" height="4.18481" rx="2.0924" transform="matrix(1 0 -0.22937 0.973339 358.743 207.81)" fill="#707A7E" />
	<path d="M387.876 209.847C388.141 208.722 389.292 207.81 390.448 207.81L390.791 207.81C391.947 207.81 392.668 208.722 392.403 209.847C392.138 210.972 390.987 211.884 389.831 211.884H389.488C388.332 211.884 387.61 210.972 387.876 209.847Z" fill="#707A7E" />
	<path d="M116.866 301.37C118.657 297.409 122.602 294.863 126.949 294.863H329.549C337.587 294.863 342.943 303.163 339.631 310.488L298.83 400.722C297.039 404.683 293.094 407.229 288.747 407.229H86.1473C78.1091 407.229 72.753 398.929 76.0648 391.604L116.866 301.37Z" fill="#989C9F" />
	<rect width="59.1938" height="5.79299" rx="2.8965" transform="matrix(1 0 -0.371206 0.928551 134.869 308.742)" fill="white" />
	<path d="M127.993 321.836C128.587 320.351 130.365 319.146 131.965 319.146H169.132C170.732 319.146 171.547 320.351 170.954 321.836C170.36 323.321 168.581 324.526 166.982 324.526H129.814C128.215 324.526 127.399 323.321 127.993 321.836Z" fill="white" fill-opacity="0.7" />
	<path d="M101.182 384.238C101.775 382.753 103.554 381.549 105.153 381.549H124.025C125.625 381.549 126.44 382.753 125.846 384.238C125.252 385.724 123.474 386.928 121.874 386.928H103.003C101.403 386.928 100.588 385.724 101.182 384.238Z" fill="white" fill-opacity="0.7" />
	<path d="M129.908 384.238C130.502 382.753 132.28 381.549 133.88 381.549H152.751C154.351 381.549 155.167 382.753 154.573 384.238C153.979 385.724 152.201 386.928 150.601 386.928H131.73C130.13 386.928 129.314 385.724 129.908 384.238Z" fill="white" fill-opacity="0.7" />
	<path d="M158.635 384.238C159.229 382.753 161.007 381.549 162.606 381.549H181.478C183.078 381.549 183.893 382.753 183.299 384.238C182.705 385.724 180.927 386.928 179.328 386.928H160.456C158.856 386.928 158.041 385.724 158.635 384.238Z" fill="white" fill-opacity="0.7" />
	<rect width="19.8015" height="19.8015" rx="2.21306" transform="matrix(-0.405026 0.914305 0.999989 -0.00466398 121.548 337.605)" fill="url(#paint2_linear_298_2685)" />
	<mask id="mask0_298_2685" style="mask-type:alpha" maskUnits="userSpaceOnUse" x="114" y="337" width="27" height="19">
		<rect width="19.8015" height="19.8015" rx="2.20016" transform="matrix(-0.405026 0.914305 0.999989 -0.00466398 121.529 337.608)" fill="#EDE910" />
	</mask>
	<g mask="url(#mask0_298_2685)">
		<path d="M114.877 341.658L144.42 341.521" stroke="#FFB801" stroke-width="0.880065" />
		<path d="M112.646 346.686L124.502 346.63M142.189 346.548L130.229 346.604" stroke="#FFB801" stroke-width="0.880065" />
		<path d="M110.416 351.717L139.959 351.579" stroke="#FFB801" stroke-width="0.880065" />
		<path d="M135.793 333.891L123.827 360.903" stroke="#FFB801" stroke-width="0.880065" />
		<path d="M130.446 333.589L118.481 360.6" stroke="#FFB801" stroke-width="0.880065" />
		<path d="M113.891 360.625L120.099 346.612" stroke="#FFB801" stroke-width="0.880065" />
		<path d="M140.48 333.543L134.708 346.573" stroke="#FFB801" stroke-width="0.880065" />
	</g>
	<mask id="mask1_298_2685" style="mask-type:alpha" maskUnits="userSpaceOnUse" x="75" y="294" width="266" height="114">
		<path d="M116.867 301.369C118.658 297.408 122.603 294.863 126.95 294.863H329.55C337.588 294.863 342.944 303.163 339.632 310.487L298.831 400.722C297.04 404.683 293.095 407.228 288.748 407.228H86.1483C78.1101 407.228 72.754 398.928 76.0658 391.604L116.867 301.369Z" fill="#989C9F" />
	</mask>
	<g mask="url(#mask1_298_2685)">
		<circle r="73.3763" transform="matrix(1 0 -0.245477 0.969403 270.287 407.228)" fill="url(#paint3_linear_298_2685)" />
		<circle r="72.6789" transform="matrix(1 0 -0.245477 0.969403 299.24 384.236)" stroke="url(#paint4_linear_298_2685)" stroke-width="1.39494" />
	</g>
	<circle r="11.8378" transform="matrix(1 0 -0.221378 0.975188 274.074 384.244)" fill="white" />
	<path fill-rule="evenodd" clip-rule="evenodd" d="M264.025 395.023C261.046 392.664 259.639 388.714 260.655 384.239C261.67 379.767 264.867 375.819 268.913 373.459C267.71 372.968 266.344 372.698 264.851 372.698C258.314 372.698 251.84 377.867 250.393 384.243C248.946 390.618 253.072 395.787 259.61 395.787C261.105 395.787 262.597 395.517 264.025 395.023Z" fill="white" fill-opacity="0.6" />
	<ellipse cx="179.869" cy="182.037" rx="36.1471" ry="39.8669" transform="rotate(62.2503 179.869 182.037)" fill="url(#paint5_linear_298_2685)" />
	<ellipse cx="177.944" cy="177.83" rx="34.5873" ry="39.9504" transform="rotate(62.2503 177.944 177.83)" fill="url(#paint6_linear_298_2685)" />
	<path d="M190.906 202.473C174.854 210.918 156.306 206.344 149.246 192.923C142.185 179.503 148.921 161.627 164.973 153.181C181.026 144.736 199.573 149.31 206.634 162.731C213.694 176.151 206.959 194.027 190.906 202.473Z" fill="url(#paint7_linear_298_2685)" stroke="url(#paint8_linear_298_2685)" stroke-width="3.30871" />
	<g clip-path="url(#clip0_298_2685)">
		<path fill-rule="evenodd" clip-rule="evenodd" d="M206.356 187.643C213.178 171.534 204.935 155.106 187.943 150.947C170.95 146.788 151.647 156.474 144.825 172.582C151.647 156.475 170.951 146.788 187.943 150.947C204.934 155.106 213.178 171.535 206.356 187.643ZM161.992 183.86L189.615 190.621C189.726 190.648 189.822 190.705 189.89 190.786C189.958 190.866 189.995 190.967 189.996 191.075C189.998 191.182 189.964 191.292 189.899 191.39C189.833 191.488 189.74 191.569 189.63 191.624L181.999 195.422C181.702 195.569 181.368 195.61 181.069 195.536L153.446 188.775C153.334 188.749 153.238 188.691 153.17 188.61C153.102 188.53 153.064 188.429 153.063 188.321C153.062 188.213 153.096 188.103 153.162 188.005C153.228 187.906 153.322 187.825 153.432 187.77L161.063 183.974C161.36 183.827 161.693 183.786 161.992 183.86ZM160.22 172.78L187.844 179.541C188.081 179.599 188.283 179.725 188.42 179.903L188.509 180.046L191.795 186.515C191.838 186.6 191.853 186.696 191.84 186.794C191.826 186.892 191.784 186.988 191.718 187.072C191.652 187.157 191.564 187.227 191.464 187.274C191.364 187.322 191.255 187.345 191.148 187.343L191.012 187.323L163.388 180.562C163.15 180.504 162.95 180.374 162.812 180.2L162.724 180.057L159.437 173.588C159.394 173.503 159.379 173.407 159.393 173.309C159.406 173.211 159.448 173.115 159.514 173.031C159.58 172.946 159.668 172.876 159.768 172.829C159.869 172.781 159.978 172.758 160.084 172.76L160.22 172.78ZM170.111 164.689L197.735 171.45C197.846 171.476 197.942 171.534 198.011 171.615C198.079 171.696 198.116 171.797 198.118 171.905C198.119 172.013 198.085 172.123 198.019 172.221C197.953 172.319 197.859 172.4 197.748 172.455L190.118 176.251C189.821 176.398 189.487 176.439 189.189 176.365L161.565 169.604C161.454 169.578 161.359 169.52 161.291 169.439C161.223 169.359 161.186 169.258 161.184 169.151C161.183 169.043 161.217 168.933 161.282 168.835C161.347 168.738 161.441 168.656 161.551 168.601L169.182 164.803C169.479 164.657 169.813 164.615 170.111 164.689Z" fill="#707A7E" />
	</g>
	<g clip-path="url(#clip1_298_2685)">
		<path fill-rule="evenodd" clip-rule="evenodd" d="M207.541 185.316C214.364 169.208 206.12 152.78 189.128 148.621C172.136 144.462 152.833 154.147 146.011 170.256C152.833 154.148 172.137 144.462 189.128 148.621C206.119 152.779 214.363 169.209 207.541 185.316ZM163.178 181.533L190.801 188.295C190.912 188.321 191.008 188.379 191.076 188.459C191.144 188.54 191.181 188.641 191.182 188.748C191.184 188.856 191.15 188.965 191.084 189.063C191.019 189.161 190.925 189.243 190.815 189.298L183.184 193.095C182.888 193.242 182.554 193.283 182.255 193.21L154.632 186.449C154.52 186.422 154.424 186.365 154.356 186.284C154.287 186.203 154.25 186.102 154.249 185.994C154.247 185.886 154.282 185.776 154.348 185.678C154.413 185.58 154.508 185.498 154.618 185.443L162.248 181.648C162.545 181.501 162.879 181.46 163.178 181.533ZM161.406 170.453L189.03 177.214C189.267 177.272 189.469 177.399 189.606 177.577L189.694 177.719L192.981 184.189C193.024 184.273 193.039 184.369 193.026 184.467C193.012 184.565 192.97 184.662 192.904 184.746C192.838 184.831 192.75 184.9 192.65 184.948C192.549 184.995 192.44 185.019 192.334 185.016L192.198 184.997L164.574 178.236C164.336 178.177 164.136 178.048 163.998 177.873L163.909 177.731L160.623 171.261C160.58 171.177 160.565 171.081 160.578 170.983C160.592 170.885 160.634 170.789 160.7 170.704C160.766 170.62 160.854 170.55 160.954 170.503C161.055 170.455 161.164 170.431 161.27 170.434L161.406 170.453ZM171.297 162.362L198.92 169.124C199.032 169.15 199.128 169.207 199.196 169.288C199.265 169.369 199.302 169.47 199.303 169.578C199.305 169.686 199.27 169.796 199.205 169.894C199.139 169.992 199.045 170.074 198.934 170.129L191.304 173.925C191.007 174.071 190.673 174.112 190.374 174.039L162.751 167.278C162.64 167.251 162.544 167.194 162.476 167.113C162.409 167.032 162.372 166.932 162.37 166.824C162.368 166.717 162.403 166.607 162.468 166.509C162.533 166.411 162.627 166.33 162.737 166.274L170.368 162.477C170.665 162.33 170.998 162.289 171.297 162.362Z" fill="white" />
	</g>
	<ellipse rx="49.2457" ry="54.3134" transform="matrix(-0.442466 0.896785 0.896785 0.442466 424.019 458.965)" fill="url(#paint9_linear_298_2685)" />
	<ellipse rx="47.1207" ry="54.4272" transform="matrix(-0.442466 0.896785 0.896785 0.442466 426.492 453.172)" fill="url(#paint10_linear_298_2685)" />
	<path d="M409.432 487.741C431.814 498.784 457.312 491.884 466.635 472.989C475.957 454.095 465.919 429.661 443.536 418.618C421.154 407.574 395.656 414.475 386.333 433.369C377.011 452.264 387.049 476.697 409.432 487.741Z" fill="url(#paint11_linear_298_2685)" stroke="url(#paint12_linear_298_2685)" stroke-width="3.30871" />
	<g clip-path="url(#clip2_298_2685)">
		<path fill-rule="evenodd" clip-rule="evenodd" d="M390.892 465.716C381.566 446.06 390.894 425.048 411.728 418.781C390.895 425.048 381.567 446.061 390.892 465.716ZM411.728 418.781C432.561 412.514 457.007 423.367 466.333 443.022C457.008 423.368 432.56 412.515 411.728 418.781ZM428.318 442.835L430.815 448.097C441.385 445.433 450.087 445.03 451.187 447.35C452.288 449.67 445.425 453.948 435.282 457.513L443.285 474.381L434.06 477.156L426.059 460.292C415.471 462.961 406.751 463.37 405.649 461.048C404.548 458.726 411.428 454.44 421.588 450.87L419.093 445.61L406.329 449.449L402.521 441.424L437.274 430.97L441.081 438.995L428.318 442.835ZM434.601 456.078L434.603 456.082C443.569 452.948 449.681 449.394 448.827 447.592C447.974 445.795 440.435 446.342 431.105 448.709L433.894 454.588C433.638 454.69 432.264 455.23 429.419 456.086C427.047 456.8 425.286 457.22 424.668 457.36L421.878 451.48C412.895 454.624 406.768 458.188 407.622 459.987C408.476 461.789 416.032 461.237 425.379 458.86L425.376 458.853C425.978 458.702 427.686 458.265 430.067 457.549C433.049 456.651 434.35 456.174 434.601 456.078Z" fill="#707A7E" />
	</g>
	<g clip-path="url(#clip3_298_2685)">
		<path fill-rule="evenodd" clip-rule="evenodd" d="M387.894 462.278C378.568 442.622 387.896 421.61 408.73 415.343C387.897 421.61 378.569 442.623 387.894 462.278ZM408.73 415.343C429.563 409.076 454.009 419.928 463.335 439.584C454.01 419.929 429.562 409.076 408.73 415.343ZM425.32 439.396L427.816 444.659C438.387 441.995 447.089 441.591 448.189 443.911C449.29 446.231 442.427 450.509 432.284 454.074L440.287 470.943L431.062 473.718L423.061 456.854C412.473 459.522 403.753 459.932 402.651 457.61C401.55 455.288 408.43 451.001 418.59 447.432L416.095 442.171L403.331 446.011L399.523 437.986L434.276 427.532L438.083 435.557L425.32 439.396ZM431.603 452.639L431.605 452.644C440.571 449.51 446.683 445.955 445.829 444.154C444.976 442.356 437.436 442.904 428.107 445.271L430.896 451.149C430.64 451.252 429.266 451.792 426.421 452.648C424.049 453.361 422.288 453.782 421.67 453.922L418.88 448.041C409.897 451.185 403.77 454.749 404.624 456.549C405.478 458.35 413.034 457.798 422.381 455.421L422.378 455.414C422.98 455.264 424.688 454.826 427.069 454.11C430.051 453.213 431.352 452.735 431.603 452.639Z" fill="white" />
	</g>
	<defs>
		<filter id="filter0_f_298_2685" x="57" y="0" width="320" height="320" filterUnits="userSpaceOnUse" color-interpolation-filters="sRGB">
			<feFlood flood-opacity="0" result="BackgroundImageFix" />
			<feBlend mode="normal" in="SourceGraphic" in2="BackgroundImageFix" result="shape" />
			<feGaussianBlur stdDeviation="60" result="effect1_foregroundBlur_298_2685" />
		</filter>
		<filter id="filter1_f_298_2685" x="251" y="356" width="320" height="320" filterUnits="userSpaceOnUse" color-interpolation-filters="sRGB">
			<feFlood flood-opacity="0" result="BackgroundImageFix" />
			<feBlend mode="normal" in="SourceGraphic" in2="BackgroundImageFix" result="shape" />
			<feGaussianBlur stdDeviation="60" result="effect1_foregroundBlur_298_2685" />
		</filter>
		<filter id="filter2_f_298_2685" x="268.5" y="39.5" width="420" height="420" filterUnits="userSpaceOnUse" color-interpolation-filters="sRGB">
			<feFlood flood-opacity="0" result="BackgroundImageFix" />
			<feBlend mode="normal" in="SourceGraphic" in2="BackgroundImageFix" result="shape" />
			<feGaussianBlur stdDeviation="78.75" result="effect1_foregroundBlur_298_2685" />
		</filter>
		<linearGradient id="paint0_linear_298_2685" x1="121.966" y1="199.734" x2="348.422" y2="540.453" gradientUnits="userSpaceOnUse">
			<stop stop-color="white" />
			<stop offset="1" stop-color="#51595C" stop-opacity="0.3" />
		</linearGradient>
		<linearGradient id="paint1_linear_298_2685" x1="350.867" y1="128.904" x2="188.268" y2="459.645" gradientUnits="userSpaceOnUse">
			<stop stop-color="#B9C3C9" />
			<stop offset="1" stop-color="#6B757E" />
		</linearGradient>
		<linearGradient id="paint2_linear_298_2685" x1="-8.3858" y1="-4.78771" x2="21.3123" y2="-17.3902" gradientUnits="userSpaceOnUse">
			<stop stop-color="#FFEF00" />
			<stop offset="1" stop-color="#FFB900" />
		</linearGradient>
		<linearGradient id="paint3_linear_298_2685" x1="-234.912" y1="-156.547" x2="118.385" y2="-87.3675" gradientUnits="userSpaceOnUse">
			<stop stop-opacity="0.28" />
			<stop offset="1" stop-opacity="0" />
			<stop offset="1" stop-opacity="0" />
		</linearGradient>
		<linearGradient id="paint4_linear_298_2685" x1="63.2975" y1="-21.8806" x2="39.7915" y2="111.26" gradientUnits="userSpaceOnUse">
			<stop stop-color="white" />
			<stop offset="1" stop-color="white" stop-opacity="0" />
		</linearGradient>
		<linearGradient id="paint5_linear_298_2685" x1="179.869" y1="142.17" x2="179.869" y2="221.904" gradientUnits="userSpaceOnUse">
			<stop stop-color="#859299" />
			<stop offset="1" stop-color="#4A5056" />
		</linearGradient>
		<linearGradient id="paint6_linear_298_2685" x1="177.944" y1="137.88" x2="177.944" y2="217.78" gradientUnits="userSpaceOnUse">
			<stop stop-color="#B9C4C9" />
			<stop offset="1" stop-color="#6A747D" />
		</linearGradient>
		<linearGradient id="paint7_linear_298_2685" x1="202.677" y1="158.887" x2="134.506" y2="158.91" gradientUnits="userSpaceOnUse">
			<stop stop-color="#AFB7BB" />
			<stop offset="1" stop-color="#575F67" />
		</linearGradient>
		<linearGradient id="paint8_linear_298_2685" x1="262.38" y1="172.443" x2="158.548" y2="156.195" gradientUnits="userSpaceOnUse">
			<stop offset="0.537867" stop-color="#8B969B" stop-opacity="0.26" />
			<stop offset="1" stop-color="#545C63" />
		</linearGradient>
		<linearGradient id="paint9_linear_298_2685" x1="49.2457" y1="0" x2="49.2457" y2="108.627" gradientUnits="userSpaceOnUse">
			<stop stop-color="#859299" />
			<stop offset="1" stop-color="#4A5056" />
		</linearGradient>
		<linearGradient id="paint10_linear_298_2685" x1="47.1207" y1="0" x2="47.1207" y2="108.854" gradientUnits="userSpaceOnUse">
			<stop stop-color="#B9C4C9" />
			<stop offset="1" stop-color="#6A747D" />
		</linearGradient>
		<linearGradient id="paint11_linear_298_2685" x1="392.123" y1="428.26" x2="484.967" y2="425.879" gradientUnits="userSpaceOnUse">
			<stop stop-color="#AFB7BB" />
			<stop offset="1" stop-color="#575F67" />
		</linearGradient>
		<linearGradient id="paint12_linear_298_2685" x1="311.293" y1="448.834" x2="452.129" y2="423.032" gradientUnits="userSpaceOnUse">
			<stop offset="0.537867" stop-color="#8B969B" stop-opacity="0.26" />
			<stop offset="1" stop-color="#545C63" />
		</linearGradient>
		<clipPath id="clip0_298_2685">
			<rect width="39.5918" height="31.6734" fill="white" transform="matrix(0.971327 0.237748 -0.389986 0.920821 163.707 160.875)" />
		</clipPath>
		<clipPath id="clip1_298_2685">
			<rect width="39.5918" height="31.6734" fill="white" transform="matrix(0.971327 0.237748 -0.389986 0.920821 164.895 158.536)" />
		</clipPath>
		<clipPath id="clip2_298_2685">
			<rect width="54.1616" height="46.776" fill="white" transform="matrix(0.957612 -0.288062 0.428651 0.90347 393.522 443.296)" />
		</clipPath>
		<clipPath id="clip3_298_2685">
			<rect width="54.1616" height="46.776" fill="white" transform="matrix(0.957612 -0.288062 0.428651 0.90347 390.527 439.859)" />
		</clipPath>
	</defs>
</svg>
