<svg width="700" height="712" viewBox="0 0 700 712" fill="none" xmlns="http://www.w3.org/2000/svg">
	<path d="M363.583 467.833C327.7 524.533 288.27 571.378 253.577 601.291C236.221 616.256 220.139 626.906 206.353 632.469C192.512 638.053 181.423 638.351 173.598 633.4C165.774 628.448 161.296 618.298 160.419 603.399C159.545 588.559 162.285 569.466 168.38 547.374C180.563 503.216 206.02 447.528 241.902 390.828C277.785 334.128 317.215 287.283 351.908 257.37C369.264 242.406 385.346 231.756 399.132 226.193C412.972 220.608 424.062 220.311 431.887 225.262C439.711 230.214 444.189 240.364 445.066 255.262C445.94 270.103 443.2 289.195 437.105 311.287C424.922 355.446 399.465 411.133 363.583 467.833Z" stroke="url(#paint0_linear_298_2676)" stroke-width="4" />
	<g filter="url(#filter0_f_298_2676)">
		<circle cx="124" cy="364" r="40" fill="white" fill-opacity="0.28" />
	</g>
	<g filter="url(#filter1_f_298_2676)">
		<circle cx="239.144" cy="195.144" r="45.1441" fill="white" fill-opacity="0.28" />
	</g>
	<g filter="url(#filter2_f_298_2676)">
		<circle cx="459.144" cy="334.144" r="45.1441" fill="white" fill-opacity="0.28" />
	</g>
	<path d="M142.107 394.523C141.339 388.338 146.163 382.879 152.395 382.879L417.721 382.879C422.952 382.879 427.364 386.776 428.009 391.967L447.011 544.95C447.779 551.135 442.956 556.594 436.724 556.594H171.397C166.166 556.594 161.755 552.697 161.11 547.506L142.107 394.523Z" fill="url(#paint1_linear_298_2676)" />
	<g filter="url(#filter3_f_298_2676)">
		<path d="M241.266 444.523C245.05 458.09 238.073 471.89 225.682 475.347C213.291 478.803 200.178 470.607 196.393 457.04C192.609 443.473 199.586 429.673 211.977 426.217C224.368 422.76 237.481 430.956 241.266 444.523Z" fill="#0B1021" fill-opacity="0.14" />
		<path d="M221.281 484.457C201.501 485.773 185.365 501.757 182.78 520.345C182.128 525.03 185.18 529.268 189.646 530.827C207.941 537.211 241.618 543.708 264.948 529.522C268.481 527.374 270.31 523.221 269.201 519.237C263.864 500.054 241.487 483.113 221.281 484.457Z" fill="#0B1021" fill-opacity="0.14" />
	</g>
	<g filter="url(#filter4_dd_298_2676)">
		<path d="M253.051 432.734C256.835 446.301 249.858 460.101 237.467 463.557C225.076 467.014 211.963 458.818 208.178 445.251C204.394 431.684 211.371 417.884 223.762 414.428C236.153 410.971 249.266 419.167 253.051 432.734Z" fill="white" />
		<path d="M233.066 472.668C213.286 473.984 197.15 489.968 194.565 508.556C193.914 513.241 196.965 517.479 201.431 519.038C219.726 525.422 253.403 531.919 276.733 517.733C280.266 515.585 282.095 511.432 280.986 507.448C275.649 488.265 253.272 471.324 233.066 472.668Z" fill="white" />
	</g>
	<path d="M296.635 427.837C295.622 424.971 297.748 421.965 300.787 421.965H379.868C381.735 421.965 383.399 423.142 384.021 424.902C385.034 427.767 382.908 430.773 379.868 430.773H300.787C298.921 430.773 297.257 429.597 296.635 427.837Z" fill="white" />
	<path opacity="0.5" d="M300.475 452.2C299.462 449.334 301.588 446.328 304.627 446.328H393.721C395.588 446.328 397.251 447.505 397.873 449.265C398.886 452.131 396.76 455.137 393.721 455.137H304.627C302.76 455.137 301.097 453.96 300.475 452.2Z" fill="white" />
	<path opacity="0.5" d="M304.834 468.872C303.821 466.006 305.947 463 308.986 463H365.153C367.019 463 368.683 464.177 369.305 465.937C370.318 468.802 368.192 471.808 365.153 471.808H308.986C307.12 471.808 305.456 470.632 304.834 468.872Z" fill="white" />
	<path d="M309.636 515.473C308.754 508.864 313.895 502.991 320.563 502.991H397.874C403.399 502.991 408.07 507.081 408.801 512.557C409.683 519.166 404.542 525.039 397.874 525.039H320.563C315.038 525.039 310.367 520.949 309.636 515.473Z" stroke="white" stroke-width="1.27985" />
	<path d="M352.337 512.089C352.401 512.606 352.341 513.08 352.156 513.512C351.97 513.935 351.646 514.278 351.184 514.54C350.722 514.803 350.124 514.934 349.39 514.934H348.033L348.432 518.135H346.244L345.132 509.219H348.677C349.394 509.219 350.015 509.342 350.54 509.587C351.066 509.833 351.479 510.172 351.78 510.603C352.082 511.035 352.267 511.53 352.337 512.089ZM349.008 513.207C349.426 513.207 349.725 513.11 349.906 512.915C350.086 512.72 350.154 512.445 350.11 512.089C350.066 511.734 349.929 511.459 349.7 511.264C349.471 511.069 349.147 510.972 348.729 510.972H347.539L347.818 513.207H349.008ZM360.907 516.56H357.554L357.212 518.135H354.921L357.06 509.219H359.594L363.957 518.135H361.641L360.907 516.56ZM360.134 514.883L358.614 511.619L357.92 514.883H360.134ZM372.819 509.219L370.454 515.188L370.821 518.135H368.633L368.265 515.188L364.41 509.219H366.893L369.1 512.953L370.362 509.219H372.819Z" fill="white" />
	<mask id="mask0_298_2676" style="mask-type:alpha" maskUnits="userSpaceOnUse" x="142" y="382" width="306" height="175">
		<path d="M142.107 394.523C141.339 388.338 146.163 382.879 152.395 382.879L417.721 382.879C422.952 382.879 427.364 386.776 428.009 391.967L447.011 544.95C447.779 551.135 442.956 556.594 436.724 556.594H171.397C166.166 556.594 161.755 552.697 161.11 547.506L142.107 394.523Z" fill="url(#paint2_linear_298_2676)" />
		<path d="M241.266 444.523C245.05 458.09 238.073 471.89 225.682 475.347C213.291 478.803 200.178 470.607 196.393 457.04C192.609 443.473 199.586 429.673 211.977 426.217C224.368 422.76 237.481 430.956 241.266 444.523Z" fill="#0B1021" fill-opacity="0.14" />
		<path d="M221.281 484.457C201.501 485.773 185.365 501.757 182.78 520.345C182.128 525.03 185.18 529.268 189.646 530.827C207.941 537.211 241.618 543.708 264.948 529.522C268.481 527.374 270.31 523.221 269.201 519.237C263.864 500.054 241.487 483.113 221.281 484.457Z" fill="#0B1021" fill-opacity="0.14" />
		<path d="M253.051 432.734C256.835 446.301 249.858 460.101 237.467 463.557C225.076 467.014 211.963 458.818 208.178 445.251C204.394 431.684 211.371 417.884 223.762 414.428C236.153 410.971 249.266 419.167 253.051 432.734Z" fill="white" />
		<path d="M233.066 472.668C213.286 473.984 197.15 489.968 194.565 508.556C193.914 513.241 196.965 517.479 201.431 519.038C219.726 525.422 253.403 531.919 276.733 517.733C280.266 515.585 282.095 511.432 280.986 507.448C275.649 488.265 253.272 471.324 233.066 472.668Z" fill="white" />
		<path d="M296.635 427.837C295.622 424.971 297.748 421.965 300.787 421.965H379.868C381.735 421.965 383.399 423.142 384.021 424.902C385.034 427.767 382.908 430.773 379.868 430.773H300.787C298.921 430.773 297.257 429.597 296.635 427.837Z" fill="white" />
		<path opacity="0.5" d="M300.475 452.2C299.462 449.334 301.588 446.328 304.627 446.328H393.721C395.588 446.328 397.251 447.505 397.873 449.265C398.886 452.131 396.76 455.137 393.721 455.137H304.627C302.76 455.137 301.097 453.96 300.475 452.2Z" fill="white" />
		<path opacity="0.5" d="M304.834 468.872C303.821 466.006 305.947 463 308.986 463H365.153C367.019 463 368.683 464.177 369.305 465.937C370.318 468.802 368.192 471.808 365.153 471.808H308.986C307.12 471.808 305.456 470.632 304.834 468.872Z" fill="white" />
		<path d="M309.636 515.473C308.754 508.864 313.895 502.991 320.563 502.991H397.874C403.399 502.991 408.07 507.081 408.801 512.557C409.683 519.166 404.542 525.039 397.874 525.039H320.563C315.038 525.039 310.367 520.949 309.636 515.473Z" stroke="white" stroke-width="1.27985" />
		<path d="M352.337 512.089C352.401 512.606 352.341 513.08 352.156 513.512C351.97 513.935 351.646 514.278 351.184 514.54C350.722 514.803 350.124 514.934 349.39 514.934H348.033L348.432 518.135H346.244L345.132 509.219H348.677C349.394 509.219 350.015 509.342 350.54 509.587C351.066 509.833 351.479 510.172 351.78 510.603C352.082 511.035 352.267 511.53 352.337 512.089ZM349.008 513.207C349.426 513.207 349.725 513.11 349.906 512.915C350.086 512.72 350.154 512.445 350.11 512.089C350.066 511.734 349.929 511.459 349.7 511.264C349.471 511.069 349.147 510.972 348.729 510.972H347.539L347.818 513.207H349.008ZM360.907 516.56H357.554L357.212 518.135H354.921L357.06 509.219H359.594L363.957 518.135H361.641L360.907 516.56ZM360.134 514.883L358.614 511.619L357.92 514.883H360.134ZM372.819 509.219L370.454 515.188L370.821 518.135H368.633L368.265 515.188L364.41 509.219H366.893L369.1 512.953L370.362 509.219H372.819Z" fill="white" />
	</mask>
	<g mask="url(#mask0_298_2676)">
		<rect x="106.001" y="364" width="400" height="212" fill="black" fill-opacity="0.3" />
	</g>
	<mask id="mask1_298_2676" style="mask-type:alpha" maskUnits="userSpaceOnUse" x="142" y="382" width="306" height="175">
		<path d="M142.109 394.523C141.341 388.338 146.164 382.879 152.397 382.879L417.723 382.879C422.954 382.879 427.366 386.776 428.011 391.967L447.013 544.95C447.781 551.135 442.958 556.594 436.726 556.594H171.399C166.168 556.594 161.757 552.697 161.112 547.506L142.109 394.523Z" fill="#707478" />
	</mask>
	<g mask="url(#mask1_298_2676)">
		<path d="M117.844 399.848C136.292 415.745 162.931 415.073 177.345 398.347C191.759 381.621 188.489 355.174 170.042 339.277C151.594 323.379 124.955 324.052 110.541 340.778C96.1269 357.504 99.3967 383.951 117.844 399.848Z" fill="black" fill-opacity="0.1" />
		<path d="M199.222 334.173C198.274 326.537 204.229 319.797 211.923 319.797L472.348 319.797C478.806 319.797 484.253 324.609 485.049 331.018L503.447 479.136C504.396 486.772 498.441 493.512 490.746 493.512H230.321C223.863 493.512 218.416 488.701 217.62 482.291L199.222 334.173Z" fill="black" fill-opacity="0.1" />
	</g>
	<path d="M211.685 318.574C210.917 312.389 215.741 306.93 221.973 306.93L487.3 306.93C492.531 306.93 496.942 310.827 497.587 316.018L516.589 469.001C517.358 475.186 512.534 480.645 506.302 480.645H240.975C235.744 480.645 231.333 476.748 230.688 471.557L211.685 318.574Z" fill="url(#paint3_linear_298_2676)" />
	<g filter="url(#filter5_dd_298_2676)">
		<path d="M322.633 356.785C326.418 370.351 319.441 384.152 307.049 387.608C294.658 391.065 281.545 382.869 277.761 369.302C273.976 355.735 280.953 341.935 293.345 338.478C305.736 335.022 318.849 343.218 322.633 356.785Z" fill="white" />
		<path d="M302.641 396.719C282.861 398.035 266.724 414.019 264.139 432.607C263.488 437.292 266.539 441.53 271.005 443.088C289.3 449.473 322.977 455.969 346.307 441.784C349.84 439.636 351.669 435.483 350.561 431.499C345.223 412.316 322.847 395.375 302.641 396.719Z" fill="white" />
	</g>
	<g filter="url(#filter6_dd_298_2676)">
		<path d="M378.58 439.609C377.647 432.616 383.086 426.402 390.141 426.402H467.452C473.298 426.402 478.24 430.729 479.013 436.523C479.947 443.516 474.507 449.73 467.452 449.73H390.141C384.296 449.73 379.353 445.403 378.58 439.609Z" fill="white" />
	</g>
	<path d="M366.213 351.887C365.2 349.022 367.326 346.016 370.365 346.016H449.446C451.313 346.016 452.977 347.192 453.599 348.952C454.612 351.818 452.486 354.824 449.446 354.824H370.365C368.499 354.824 366.835 353.647 366.213 351.887Z" fill="white" />
	<path opacity="0.5" d="M370.057 376.251C369.044 373.385 371.17 370.379 374.209 370.379H463.303C465.17 370.379 466.833 371.556 467.455 373.316C468.468 376.181 466.342 379.187 463.303 379.187H374.209C372.342 379.187 370.679 378.011 370.057 376.251Z" fill="white" />
	<path opacity="0.5" d="M374.412 392.923C373.399 390.057 375.525 387.051 378.565 387.051H434.731C436.598 387.051 438.261 388.227 438.883 389.987C439.896 392.853 437.77 395.859 434.731 395.859H378.565C376.698 395.859 375.034 394.683 374.412 392.923Z" fill="white" />
	<path d="M421.911 436.14C421.976 436.657 421.915 437.131 421.73 437.562C421.544 437.986 421.22 438.329 420.758 438.591C420.296 438.854 419.698 438.985 418.964 438.985H417.607L418.007 442.185H415.818L414.706 433.27H418.251C418.968 433.27 419.589 433.393 420.114 433.638C420.64 433.884 421.053 434.222 421.355 434.654C421.656 435.086 421.841 435.581 421.911 436.14ZM418.582 437.258C419 437.258 419.3 437.16 419.48 436.966C419.661 436.771 419.729 436.496 419.684 436.14C419.64 435.784 419.503 435.509 419.274 435.315C419.045 435.12 418.721 435.022 418.303 435.022H417.113L417.392 437.258H418.582ZM430.481 440.611H427.128L426.787 442.185H424.496L426.634 433.27H429.169L433.531 442.185H431.215L430.481 440.611ZM429.709 438.934L428.188 435.67L427.495 438.934H429.709ZM442.393 433.27L440.028 439.239L440.395 442.185H438.207L437.839 439.239L433.985 433.27H436.468L438.674 437.004L439.936 433.27H442.393Z" fill="#989C9F" />
	<path d="M537.844 461.25C553.659 465.342 577.214 486.298 587.015 496.265L527.18 510.023C535.316 524.377 525.464 532.754 519.521 535.148L496.413 514.115C503.634 494.789 522.029 457.159 537.844 461.25Z" fill="url(#paint4_linear_298_2676)" />
	<mask id="mask2_298_2676" style="mask-type:alpha" maskUnits="userSpaceOnUse" x="211" y="306" width="306" height="175">
		<path d="M211.687 318.573C210.919 312.388 215.742 306.929 221.974 306.929L487.301 306.929C492.532 306.929 496.943 310.826 497.588 316.017L516.591 469C517.359 475.185 512.535 480.644 506.303 480.644L240.976 480.644C235.745 480.644 231.334 476.747 230.689 471.556L211.687 318.573Z" fill="#989C9F" />
	</mask>
	<g mask="url(#mask2_298_2676)">
		<path d="M551.78 591.173L592.318 657.052C592.969 658.111 593.771 659.09 594.739 659.869C621.337 681.277 665.36 655.59 665.378 621.985C665.38 619.023 663.925 616.303 661.867 614.175C627.909 579.053 600.23 511.84 588.376 502.14C576.146 492.132 524.331 485.813 493.091 459.007C474.426 442.991 462.598 437.954 456.454 437.18C453.613 436.822 451.352 439.005 450.756 441.805C448.432 452.709 458.007 458.198 474.122 477.297C493.237 499.902 510.858 515.376 522.309 524.033C527.762 528.156 530.215 536.242 524.76 540.363C519.877 544.051 514.442 544.811 509.516 544.153C502.475 543.212 501.727 534.235 499.978 527.35C499.753 526.463 499.455 525.62 499.108 524.83C497.403 520.94 492.732 519.788 488.783 521.35C479.917 524.858 469.641 531.848 472.127 542.496C478.939 569.957 518.177 581.694 541.957 584.944C545.992 585.496 549.646 587.705 551.78 591.173Z" fill="black" fill-opacity="0.1" />
	</g>
	<path d="M552.386 578.656L596.4 650.187C596.997 651.156 597.733 652.052 598.617 652.77C625.303 674.439 669.699 648.444 669.376 614.597C669.35 611.886 668.029 609.399 666.139 607.455C632.057 572.412 604.262 504.866 592.376 495.14C580.146 485.132 528.331 478.813 497.091 452.007C472.099 430.561 459.364 428.8 456.12 430.601C450.223 444.585 460.068 448.899 478.122 470.297C504.435 501.415 527.918 519.019 536.37 523.931C526.439 543.02 509.036 537.664 501.575 532.599C507.699 523.713 502.576 515.362 499.248 512.297C490.232 514.422 472.985 522.038 476.127 535.496C483.598 565.616 530.079 576.819 552.386 578.656Z" fill="url(#paint5_linear_298_2676)" />
	<mask id="mask3_298_2676" style="mask-type:alpha" maskUnits="userSpaceOnUse" x="454" y="430" width="216" height="231">
		<path d="M552.386 578.656L596.4 650.187C596.997 651.156 597.733 652.052 598.617 652.77C625.303 674.439 669.699 648.444 669.376 614.597C669.35 611.886 668.029 609.399 666.139 607.455C632.057 572.412 604.262 504.866 592.376 495.14C580.146 485.132 528.331 478.813 497.091 452.007C472.099 430.561 459.364 428.8 456.12 430.601C450.223 444.585 460.068 448.899 478.122 470.297C504.435 501.415 527.918 519.019 536.37 523.931C526.439 543.02 509.036 537.664 501.575 532.599C507.699 523.713 502.576 515.362 499.248 512.297C490.232 514.422 472.985 522.038 476.127 535.496C483.598 565.616 530.079 576.819 552.386 578.656Z" fill="url(#paint6_linear_298_2676)" />
	</mask>
	<g mask="url(#mask3_298_2676)">
		<path d="M483.726 517.493C486.186 521.487 494.46 526.105 499.194 512.336C504.195 497.786 493.153 511.553 483.726 517.493Z" fill="white" fill-opacity="0.3" />
		<path d="M466.035 440.606C459.495 441.205 453.608 431.246 451.482 426.191C452.863 418.053 468.284 422.348 475.823 425.512C475.285 430.294 472.576 440.007 466.035 440.606Z" fill="white" fill-opacity="0.3" />
	</g>
	<mask id="mask4_298_2676" style="mask-type:alpha" maskUnits="userSpaceOnUse" x="496" y="460" width="92" height="76">
		<path d="M537.84 461.25C553.655 465.342 577.21 486.298 587.011 496.265L527.176 510.023C535.312 524.377 525.46 532.754 519.517 535.148L496.41 514.115C503.63 494.789 522.025 457.159 537.84 461.25Z" fill="url(#paint7_linear_298_2676)" />
	</mask>
	<g mask="url(#mask4_298_2676)">
		<path d="M510.172 528.342C512.403 525.36 518.253 522.131 523.798 533.068C529.343 544.004 517.024 534.474 510.172 528.342Z" fill="white" fill-opacity="0.3" />
	</g>
	<path d="M123.058 392.269C138 405.145 159.577 404.601 171.252 391.053C182.926 377.506 180.278 356.085 165.336 343.209C150.394 330.333 128.818 330.877 117.143 344.425C105.468 357.972 108.117 379.393 123.058 392.269Z" fill="url(#paint8_linear_298_2676)" />
	<path d="M126.498 387.923C141.471 400.827 162.665 400.778 173.836 387.815C185.007 374.852 181.924 353.883 166.951 340.98C151.978 328.077 130.784 328.126 119.614 341.089C108.443 354.052 111.525 375.02 126.498 387.923Z" fill="url(#paint9_linear_298_2676)" />
	<path d="M129.467 384.467C142.239 395.473 160.317 395.432 169.846 384.374C179.375 373.317 176.746 355.431 163.974 344.425C151.202 333.418 133.124 333.46 123.595 344.517C114.066 355.575 116.695 373.461 129.467 384.467Z" fill="url(#paint10_linear_298_2676)" />
	<mask id="path-44-inside-1_298_2676" fill="white">
		<path fill-rule="evenodd" clip-rule="evenodd" d="M168.326 383.064C159.691 393.083 142.923 393.413 130.777 382.946C118.632 372.48 116.481 355.847 125.115 345.827C133.749 335.808 150.518 335.479 162.663 345.945C174.809 356.411 176.96 373.045 168.326 383.064ZM169.846 384.374C160.317 395.432 142.239 395.473 129.467 384.467C116.695 373.461 114.066 355.575 123.595 344.517C133.124 333.46 151.202 333.418 163.974 344.425C176.746 355.431 179.375 373.317 169.846 384.374Z" />
	</mask>
	<path fill-rule="evenodd" clip-rule="evenodd" d="M168.326 383.064C159.691 393.083 142.923 393.413 130.777 382.946C118.632 372.48 116.481 355.847 125.115 345.827C133.749 335.808 150.518 335.479 162.663 345.945C174.809 356.411 176.96 373.045 168.326 383.064ZM169.846 384.374C160.317 395.432 142.239 395.473 129.467 384.467C116.695 373.461 114.066 355.575 123.595 344.517C133.124 333.46 151.202 333.418 163.974 344.425C176.746 355.431 179.375 373.317 169.846 384.374Z" fill="url(#paint11_linear_298_2676)" />
	<path d="M133.078 380.276C144.115 389.787 158.586 388.967 165.656 380.763L170.995 385.365C160.797 397.2 141.731 397.038 128.477 385.616L133.078 380.276ZM127.785 348.128C120.716 356.332 122.042 370.766 133.078 380.276L128.477 385.616C115.222 374.194 112.247 355.361 122.445 343.527L127.785 348.128ZM160.363 348.615C149.326 339.105 134.855 339.925 127.785 348.128L122.445 343.527C132.644 331.692 151.71 331.853 164.964 343.275L160.363 348.615ZM165.656 380.763C172.725 372.559 171.399 358.126 160.363 348.615L164.964 343.275C178.219 354.697 181.194 373.53 170.995 385.365L165.656 380.763ZM131.768 381.797C143.44 391.855 159.218 391.308 167.176 382.074L172.516 386.675C161.416 399.556 141.038 399.091 127.166 387.137L131.768 381.797ZM126.265 346.818C118.307 356.053 120.096 371.739 131.768 381.797L127.166 387.137C113.294 375.182 109.825 355.097 120.925 342.216L126.265 346.818ZM161.673 347.095C150.001 337.037 134.223 337.584 126.265 346.818L120.925 342.216C132.024 329.336 152.402 329.8 166.275 341.755L161.673 347.095ZM167.176 382.074C175.134 372.839 173.344 357.153 161.673 347.095L166.275 341.755C180.147 353.709 183.616 373.795 172.516 386.675L167.176 382.074Z" fill="url(#paint12_linear_298_2676)" mask="url(#path-44-inside-1_298_2676)" />
	<path fill-rule="evenodd" clip-rule="evenodd" d="M159.984 364.112L159.984 364.112L150.305 374.405L136.256 375.91L155.023 383.893L155.023 383.893L155.023 383.893L159.984 364.112L159.984 364.112Z" fill="#707A7E" />
	<path fill-rule="evenodd" clip-rule="evenodd" d="M159.255 361.295L159.255 361.295L136.256 346.16L136.256 346.16L136.256 346.16L134.443 373.632L149.134 372.058L149.134 372.058L159.255 361.295Z" fill="#707A7E" />
	<path fill-rule="evenodd" clip-rule="evenodd" d="M161.765 363.217L152.086 373.51L138.038 375.016L156.804 382.998L161.765 363.217Z" fill="white" />
	<path fill-rule="evenodd" clip-rule="evenodd" d="M161.028 360.385L138.029 345.249L136.216 372.722L150.907 371.148L161.028 360.385Z" fill="white" />
	<ellipse cx="203.66" cy="224.898" rx="45.1824" ry="49.832" transform="rotate(49.2467 203.66 224.898)" fill="url(#paint13_linear_298_2676)" />
	<ellipse cx="200.125" cy="220.321" rx="43.2327" ry="49.9364" transform="rotate(49.2467 200.125 220.321)" fill="url(#paint14_linear_298_2676)" />
	<path d="M223.046 246.921C205.775 261.804 181.701 261.493 169.191 246.976C156.681 232.459 159.929 208.603 177.2 193.72C194.47 178.837 218.545 179.147 231.055 193.664C243.565 208.181 240.316 232.038 223.046 246.921Z" fill="url(#paint15_linear_298_2676)" stroke="url(#paint16_linear_298_2676)" stroke-width="3.52461" />
	<path d="M215.801 233.167C215.768 231.112 214.917 229.081 213.248 227.076C216.823 227.691 219.635 226.3 221.686 222.906C222.438 221.682 222.864 220.452 222.964 219.213C223.063 217.975 222.854 216.763 222.333 215.575C221.813 214.387 221.123 213.263 220.266 212.202C219.408 211.141 218.338 210.036 217.057 208.889L221.964 202.325L217.953 199.326L213.182 205.708C212.487 205.189 211.415 204.414 209.965 203.384L214.776 196.95L210.764 193.951L205.856 200.516C205.27 200.104 204.421 199.484 203.31 198.653L197.807 194.498L194.613 198.77L197.505 200.932C198.824 201.918 199.156 203.087 198.499 204.436L192.909 211.912C193.083 212.042 193.215 212.155 193.307 212.25L192.89 211.939L185.061 222.41C184.26 223.192 183.426 223.258 182.557 222.609L179.666 220.448L175.295 224.611L180.504 228.506C180.834 228.753 181.308 229.114 181.928 229.589C182.547 230.065 183.012 230.42 183.325 230.654L178.359 237.296L182.371 240.296L187.279 233.732C187.994 234.295 189.047 235.095 190.437 236.134L185.549 242.672L189.56 245.671L194.526 239.028C196.002 240.024 197.362 240.839 198.608 241.471C199.854 242.104 201.133 242.594 202.445 242.938C203.757 243.283 204.979 243.404 206.111 243.303C207.242 243.202 208.38 242.847 209.525 242.241C210.668 241.633 211.762 240.759 212.805 239.617C214.836 237.373 215.834 235.222 215.801 233.167ZM206.538 208.131C206.66 208.222 207.006 208.474 207.577 208.887C208.149 209.3 208.624 209.642 209.004 209.912C209.383 210.183 209.871 210.581 210.466 211.108C211.061 211.633 211.543 212.102 211.912 212.513C212.281 212.925 212.652 213.425 213.023 214.014C213.395 214.603 213.63 215.158 213.728 215.678C213.827 216.198 213.819 216.761 213.704 217.366C213.591 217.971 213.32 218.56 212.891 219.133C212.528 219.62 212.118 220.004 211.664 220.287C211.209 220.57 210.724 220.729 210.211 220.764C209.697 220.8 209.2 220.794 208.721 220.747C208.242 220.7 207.7 220.546 207.097 220.284C206.494 220.023 205.976 219.784 205.542 219.568C205.108 219.352 204.595 219.043 204.002 218.641C203.41 218.238 202.962 217.931 202.661 217.719C202.359 217.507 201.955 217.205 201.449 216.813C200.943 216.421 200.647 216.193 200.56 216.128L206.539 208.131L206.538 208.131L206.538 208.131ZM204.23 234.059C203.766 234.335 203.294 234.524 202.813 234.625C202.332 234.725 201.794 234.729 201.2 234.636C200.606 234.545 200.057 234.418 199.554 234.259C199.05 234.099 198.477 233.86 197.835 233.543C197.192 233.225 196.643 232.928 196.184 232.654C195.726 232.379 195.193 232.034 194.583 231.619C193.973 231.203 193.503 230.872 193.173 230.625C192.843 230.379 192.43 230.062 191.932 229.677C191.435 229.292 191.117 229.048 190.978 228.944L197.561 220.139C197.699 220.243 198.118 220.543 198.817 221.038C199.517 221.534 200.083 221.944 200.517 222.269C200.951 222.593 201.531 223.067 202.256 223.691C202.981 224.313 203.566 224.872 204.009 225.366C204.452 225.859 204.9 226.445 205.355 227.123C205.809 227.801 206.111 228.439 206.259 229.038C206.407 229.636 206.43 230.275 206.327 230.956C206.224 231.638 205.939 232.291 205.471 232.916C205.107 233.403 204.695 233.783 204.23 234.059Z" fill="#707A7E" />
	<path d="M213.762 232.174C213.729 230.119 212.878 228.089 211.209 226.084C214.783 226.698 217.596 225.308 219.646 221.914C220.399 220.69 220.825 219.459 220.925 218.221C221.024 216.983 220.815 215.771 220.294 214.583C219.774 213.395 219.084 212.27 218.227 211.21C217.369 210.149 216.299 209.044 215.018 207.897L219.925 201.333L215.914 198.334L211.143 204.716C210.448 204.197 209.376 203.422 207.926 202.392L212.737 195.958L208.725 192.959L203.817 199.523C203.231 199.112 202.382 198.491 201.271 197.661L195.768 193.506L192.574 197.778L195.465 199.939C196.785 200.926 197.117 202.095 196.46 203.444L190.87 210.92C191.044 211.05 191.176 211.163 191.268 211.258L190.851 210.946L183.022 221.418C182.221 222.199 181.387 222.266 180.518 221.617L177.627 219.456L173.256 223.619L178.465 227.514C178.795 227.76 179.269 228.122 179.889 228.597C180.507 229.073 180.973 229.428 181.286 229.662L176.32 236.304L180.332 239.304L185.24 232.74C185.955 233.302 187.008 234.103 188.398 235.142L183.51 241.68L187.521 244.678L192.487 238.036C193.963 239.032 195.323 239.846 196.569 240.479C197.815 241.112 199.094 241.601 200.406 241.946C201.718 242.291 202.94 242.412 204.072 242.311C205.203 242.21 206.341 241.855 207.485 241.249C208.629 240.641 209.723 239.767 210.766 238.625C212.797 236.381 213.795 234.23 213.762 232.174ZM204.499 207.139C204.621 207.23 204.967 207.482 205.538 207.895C206.11 208.308 206.585 208.65 206.965 208.92C207.344 209.191 207.832 209.589 208.427 210.115C209.022 210.641 209.504 211.11 209.873 211.521C210.242 211.932 210.613 212.433 210.984 213.022C211.356 213.611 211.591 214.166 211.689 214.686C211.788 215.206 211.78 215.769 211.665 216.374C211.552 216.979 211.28 217.568 210.852 218.141C210.489 218.627 210.079 219.012 209.625 219.295C209.17 219.578 208.685 219.737 208.172 219.772C207.658 219.808 207.161 219.802 206.682 219.755C206.203 219.708 205.661 219.554 205.058 219.292C204.455 219.031 203.937 218.792 203.503 218.576C203.069 218.36 202.556 218.051 201.963 217.648C201.37 217.246 200.923 216.939 200.621 216.727C200.32 216.514 199.916 216.213 199.41 215.821C198.904 215.429 198.608 215.201 198.521 215.136L204.5 207.139L204.499 207.139L204.499 207.139ZM202.191 233.067C201.727 233.343 201.255 233.532 200.774 233.633C200.293 233.733 199.755 233.737 199.161 233.644C198.567 233.552 198.018 233.426 197.515 233.266C197.011 233.107 196.438 232.868 195.796 232.551C195.153 232.232 194.604 231.936 194.145 231.661C193.687 231.387 193.154 231.042 192.544 230.627C191.934 230.211 191.464 229.88 191.134 229.633C190.804 229.387 190.391 229.07 189.893 228.685C189.396 228.3 189.078 228.056 188.939 227.952L195.521 219.147C195.66 219.251 196.079 219.551 196.778 220.046C197.478 220.541 198.044 220.952 198.478 221.276C198.912 221.601 199.492 222.075 200.217 222.699C200.942 223.321 201.527 223.88 201.97 224.374C202.413 224.867 202.861 225.453 203.316 226.131C203.77 226.809 204.071 227.447 204.22 228.045C204.368 228.644 204.391 229.283 204.288 229.964C204.185 230.645 203.9 231.299 203.432 231.924C203.068 232.411 202.655 232.791 202.191 233.067Z" fill="white" />
	<defs>
		<filter id="filter0_f_298_2676" x="-36" y="204" width="320" height="320" filterUnits="userSpaceOnUse" color-interpolation-filters="sRGB">
			<feFlood flood-opacity="0" result="BackgroundImageFix" />
			<feBlend mode="normal" in="SourceGraphic" in2="BackgroundImageFix" result="shape" />
			<feGaussianBlur stdDeviation="60" result="effect1_foregroundBlur_298_2676" />
		</filter>
		<filter id="filter1_f_298_2676" x="44" y="0" width="390.288" height="390.288" filterUnits="userSpaceOnUse" color-interpolation-filters="sRGB">
			<feFlood flood-opacity="0" result="BackgroundImageFix" />
			<feBlend mode="normal" in="SourceGraphic" in2="BackgroundImageFix" result="shape" />
			<feGaussianBlur stdDeviation="75" result="effect1_foregroundBlur_298_2676" />
		</filter>
		<filter id="filter2_f_298_2676" x="264" y="139" width="390.288" height="390.288" filterUnits="userSpaceOnUse" color-interpolation-filters="sRGB">
			<feFlood flood-opacity="0" result="BackgroundImageFix" />
			<feBlend mode="normal" in="SourceGraphic" in2="BackgroundImageFix" result="shape" />
			<feGaussianBlur stdDeviation="75" result="effect1_foregroundBlur_298_2676" />
		</filter>
		<filter id="filter3_f_298_2676" x="151.594" y="394.327" width="149.029" height="174.778" filterUnits="userSpaceOnUse" color-interpolation-filters="sRGB">
			<feFlood flood-opacity="0" result="BackgroundImageFix" />
			<feBlend mode="normal" in="SourceGraphic" in2="BackgroundImageFix" result="shape" />
			<feGaussianBlur stdDeviation="15.5494" result="effect1_foregroundBlur_298_2676" />
		</filter>
		<filter id="filter4_dd_298_2676" x="175.478" y="398.637" width="123.831" height="149.581" filterUnits="userSpaceOnUse" color-interpolation-filters="sRGB">
			<feFlood flood-opacity="0" result="BackgroundImageFix" />
			<feColorMatrix in="SourceAlpha" type="matrix" values="0 0 0 0 0 0 0 0 0 0 0 0 0 0 0 0 0 0 127 0" result="hardAlpha" />
			<feOffset dy="4" />
			<feGaussianBlur stdDeviation="9" />
			<feComposite in2="hardAlpha" operator="out" />
			<feColorMatrix type="matrix" values="0 0 0 0 0.320732 0 0 0 0 0.320732 0 0 0 0 0.320732 0 0 0 0.25 0" />
			<feBlend mode="normal" in2="BackgroundImageFix" result="effect1_dropShadow_298_2676" />
			<feColorMatrix in="SourceAlpha" type="matrix" values="0 0 0 0 0 0 0 0 0 0 0 0 0 0 0 0 0 0 127 0" result="hardAlpha" />
			<feOffset dx="-5" dy="-1" />
			<feGaussianBlur stdDeviation="7" />
			<feComposite in2="hardAlpha" operator="out" />
			<feColorMatrix type="matrix" values="0 0 0 0 1 0 0 0 0 1 0 0 0 0 1 0 0 0 0.3 0" />
			<feBlend mode="normal" in2="effect1_dropShadow_298_2676" result="effect2_dropShadow_298_2676" />
			<feBlend mode="normal" in="SourceGraphic" in2="effect2_dropShadow_298_2676" result="shape" />
		</filter>
		<filter id="filter5_dd_298_2676" x="245.052" y="322.688" width="123.831" height="149.581" filterUnits="userSpaceOnUse" color-interpolation-filters="sRGB">
			<feFlood flood-opacity="0" result="BackgroundImageFix" />
			<feColorMatrix in="SourceAlpha" type="matrix" values="0 0 0 0 0 0 0 0 0 0 0 0 0 0 0 0 0 0 127 0" result="hardAlpha" />
			<feOffset dy="4" />
			<feGaussianBlur stdDeviation="9" />
			<feComposite in2="hardAlpha" operator="out" />
			<feColorMatrix type="matrix" values="0 0 0 0 0.320732 0 0 0 0 0.320732 0 0 0 0 0.320732 0 0 0 0.25 0" />
			<feBlend mode="normal" in2="BackgroundImageFix" result="effect1_dropShadow_298_2676" />
			<feColorMatrix in="SourceAlpha" type="matrix" values="0 0 0 0 0 0 0 0 0 0 0 0 0 0 0 0 0 0 127 0" result="hardAlpha" />
			<feOffset dx="-5" dy="-1" />
			<feGaussianBlur stdDeviation="7" />
			<feComposite in2="hardAlpha" operator="out" />
			<feColorMatrix type="matrix" values="0 0 0 0 1 0 0 0 0 1 0 0 0 0 1 0 0 0 0.3 0" />
			<feBlend mode="normal" in2="effect1_dropShadow_298_2676" result="effect2_dropShadow_298_2676" />
			<feBlend mode="normal" in="SourceGraphic" in2="effect2_dropShadow_298_2676" result="shape" />
		</filter>
		<filter id="filter6_dd_298_2676" x="360.475" y="412.402" width="136.643" height="59.3274" filterUnits="userSpaceOnUse" color-interpolation-filters="sRGB">
			<feFlood flood-opacity="0" result="BackgroundImageFix" />
			<feColorMatrix in="SourceAlpha" type="matrix" values="0 0 0 0 0 0 0 0 0 0 0 0 0 0 0 0 0 0 127 0" result="hardAlpha" />
			<feOffset dy="4" />
			<feGaussianBlur stdDeviation="9" />
			<feComposite in2="hardAlpha" operator="out" />
			<feColorMatrix type="matrix" values="0 0 0 0 0.321569 0 0 0 0 0.321569 0 0 0 0 0.321569 0 0 0 0.25 0" />
			<feBlend mode="normal" in2="BackgroundImageFix" result="effect1_dropShadow_298_2676" />
			<feColorMatrix in="SourceAlpha" type="matrix" values="0 0 0 0 0 0 0 0 0 0 0 0 0 0 0 0 0 0 127 0" result="hardAlpha" />
			<feOffset dx="-5" dy="-3" />
			<feGaussianBlur stdDeviation="4.5" />
			<feComposite in2="hardAlpha" operator="out" />
			<feColorMatrix type="matrix" values="0 0 0 0 1 0 0 0 0 1 0 0 0 0 1 0 0 0 0.25 0" />
			<feBlend mode="normal" in2="effect1_dropShadow_298_2676" result="effect2_dropShadow_298_2676" />
			<feBlend mode="normal" in="SourceGraphic" in2="effect2_dropShadow_298_2676" result="shape" />
		</filter>
		<linearGradient id="paint0_linear_298_2676" x1="438" y1="157.5" x2="227" y2="508" gradientUnits="userSpaceOnUse">
			<stop stop-color="white" />
			<stop offset="1" stop-color="#51595C" stop-opacity="0.3" />
		</linearGradient>
		<linearGradient id="paint1_linear_298_2676" x1="294.423" y1="363.449" x2="312.923" y2="569.449" gradientUnits="userSpaceOnUse">
			<stop stop-color="#A2A7AA" />
			<stop offset="1" stop-color="#94989A" />
		</linearGradient>
		<linearGradient id="paint2_linear_298_2676" x1="294.423" y1="363.449" x2="312.923" y2="569.449" gradientUnits="userSpaceOnUse">
			<stop stop-color="#A2A7AA" />
			<stop offset="1" stop-color="#94989A" />
		</linearGradient>
		<linearGradient id="paint3_linear_298_2676" x1="364.001" y1="287.5" x2="382.501" y2="497" gradientUnits="userSpaceOnUse">
			<stop stop-color="#A2A7AA" />
			<stop offset="1" stop-color="#94989A" />
		</linearGradient>
		<linearGradient id="paint4_linear_298_2676" x1="551.339" y1="537.928" x2="512.647" y2="461.038" gradientUnits="userSpaceOnUse">
			<stop stop-color="#41434A" />
			<stop offset="1" stop-color="#7F8284" />
		</linearGradient>
		<linearGradient id="paint5_linear_298_2676" x1="611.452" y1="717.097" x2="485.327" y2="437.736" gradientUnits="userSpaceOnUse">
			<stop stop-color="#41434A" />
			<stop offset="1" stop-color="#7F8284" />
		</linearGradient>
		<linearGradient id="paint6_linear_298_2676" x1="592.003" y1="628.691" x2="485.327" y2="437.736" gradientUnits="userSpaceOnUse">
			<stop stop-color="#3D3F45" />
			<stop offset="1" stop-color="#7F8284" />
		</linearGradient>
		<linearGradient id="paint7_linear_298_2676" x1="534.579" y1="532.773" x2="573.543" y2="404.933" gradientUnits="userSpaceOnUse">
			<stop stop-color="#FFC39D" />
			<stop offset="1" stop-color="#F69E66" />
		</linearGradient>
		<linearGradient id="paint8_linear_298_2676" x1="117.143" y1="344.425" x2="159.412" y2="413.572" gradientUnits="userSpaceOnUse">
			<stop stop-color="#859299" />
			<stop offset="1" stop-color="#4A5056" />
		</linearGradient>
		<linearGradient id="paint9_linear_298_2676" x1="119.614" y1="341.089" x2="173.836" y2="387.815" gradientUnits="userSpaceOnUse">
			<stop stop-color="#B9C4C9" />
			<stop offset="1" stop-color="#6A747D" />
		</linearGradient>
		<linearGradient id="paint10_linear_298_2676" x1="128.946" y1="342.927" x2="188.445" y2="356.689" gradientUnits="userSpaceOnUse">
			<stop stop-color="#AFB7BB" />
			<stop offset="1" stop-color="#575F67" />
		</linearGradient>
		<linearGradient id="paint11_linear_298_2676" x1="128.946" y1="342.927" x2="188.445" y2="356.689" gradientUnits="userSpaceOnUse">
			<stop stop-color="#AFB7BB" />
			<stop offset="1" stop-color="#575F67" />
		</linearGradient>
		<linearGradient id="paint12_linear_298_2676" x1="74.1008" y1="342.725" x2="168.007" y2="349.473" gradientUnits="userSpaceOnUse">
			<stop offset="0.537867" stop-color="#8B969B" stop-opacity="0.26" />
			<stop offset="1" stop-color="#545C63" />
		</linearGradient>
		<linearGradient id="paint13_linear_298_2676" x1="203.66" y1="175.066" x2="203.66" y2="274.73" gradientUnits="userSpaceOnUse">
			<stop stop-color="#859299" />
			<stop offset="1" stop-color="#4A5056" />
		</linearGradient>
		<linearGradient id="paint14_linear_298_2676" x1="200.125" y1="170.385" x2="200.125" y2="270.258" gradientUnits="userSpaceOnUse">
			<stop stop-color="#B9C4C9" />
			<stop offset="1" stop-color="#6A747D" />
		</linearGradient>
		<linearGradient id="paint15_linear_298_2676" x1="224.924" y1="190.295" x2="141.904" y2="209.497" gradientUnits="userSpaceOnUse">
			<stop stop-color="#AFB7BB" />
			<stop offset="1" stop-color="#575F67" />
		</linearGradient>
		<linearGradient id="paint16_linear_298_2676" x1="301.449" y1="190.013" x2="170.421" y2="199.429" gradientUnits="userSpaceOnUse">
			<stop offset="0.537867" stop-color="#8B969B" stop-opacity="0.26" />
			<stop offset="1" stop-color="#545C63" />
		</linearGradient>
	</defs>
</svg>
