<svg width="390" height="390" viewBox="0 0 390 390" fill="none" xmlns="http://www.w3.org/2000/svg">
	<rect width="390" height="390" rx="20" fill="#5B657C" />
	<rect width="218" height="218" transform="translate(86 86)" fill="#5B657C" />
	<path fill-rule="evenodd" clip-rule="evenodd" d="M114.808 114.808C104.167 125.45 104.167 142.578 104.167 176.833V213.167C104.167 247.422 104.167 264.55 114.808 275.192C125.45 285.833 142.578 285.833 176.833 285.833H213.167C247.422 285.833 264.55 285.833 275.191 275.192C285.833 264.55 285.833 247.422 285.833 213.167V176.833C285.833 151.043 285.833 134.961 281.292 124.046V240.417C272.568 240.417 264.201 236.951 258.032 230.782L251.205 223.955C244.653 217.403 241.377 214.127 237.662 212.746C233.579 211.229 229.087 211.229 225.004 212.746C221.29 214.127 218.014 217.403 211.462 223.955L210.434 224.982C205.117 230.299 202.459 232.958 199.634 233.454C197.439 233.839 195.178 233.404 193.283 232.23C190.845 230.721 189.364 227.265 186.402 220.354L185.916 219.222C179.107 203.334 175.703 195.39 169.763 192.412C166.773 190.913 163.427 190.269 160.094 190.55C153.474 191.109 147.363 197.221 135.14 209.443L117.792 226.792V112.227C116.741 113.009 115.75 113.867 114.808 114.808Z" fill="#CCCED2" />
	<path d="M113.25 176.833C113.25 159.449 113.269 147.324 114.499 138.176C115.694 129.289 117.88 124.583 121.231 121.231C124.583 117.879 129.289 115.694 138.176 114.499C147.324 113.269 159.449 113.25 176.833 113.25H213.167C230.551 113.25 242.676 113.269 251.824 114.499C260.711 115.694 265.417 117.879 268.769 121.231C272.121 124.583 274.306 129.289 275.501 138.176C276.731 147.324 276.75 159.449 276.75 176.833V213.167C276.75 230.551 276.731 242.676 275.501 251.824C274.306 260.711 272.121 265.417 268.769 268.769C265.417 272.121 260.711 274.306 251.824 275.501C242.676 276.731 230.551 276.75 213.167 276.75H176.833C159.449 276.75 147.324 276.731 138.176 275.501C129.289 274.306 124.583 272.121 121.231 268.769C117.88 265.417 115.694 260.711 114.499 251.824C113.269 242.676 113.25 230.551 113.25 213.167V176.833Z" stroke="#CCCED2" stroke-width="18.1667" />
	<circle cx="222.25" cy="167.75" r="18.1667" fill="#CCCED2" />
</svg>
