<svg width="621" height="514" viewBox="0 0 621 514" fill="none" xmlns="http://www.w3.org/2000/svg">
	<path d="M46.1074 240.523C45.3392 234.338 50.1625 228.879 56.3946 228.879L321.721 228.879C326.952 228.879 331.364 232.776 332.009 237.967L351.011 390.95C351.779 397.135 346.956 402.594 340.724 402.594H75.3971C70.1661 402.594 65.7547 398.697 65.1099 393.506L46.1074 240.523Z" fill="url(#paint0_linear_297_960)" />
	<g filter="url(#filter0_f_297_960)">
		<path d="M145.266 290.523C149.05 304.09 142.073 317.89 129.682 321.347C117.291 324.803 104.178 316.607 100.393 303.04C96.6087 289.473 103.586 275.673 115.977 272.217C128.368 268.76 141.481 276.956 145.266 290.523Z" fill="#0B1021" fill-opacity="0.14" />
		<path d="M125.281 330.457C105.501 331.773 89.365 347.757 86.78 366.345C86.1284 371.03 89.1799 375.268 93.6461 376.827C111.941 383.211 145.618 389.708 168.948 375.522C172.481 373.374 174.31 369.221 173.201 365.237C167.864 346.054 145.487 329.113 125.281 330.457Z" fill="#0B1021" fill-opacity="0.14" />
	</g>
	<g filter="url(#filter1_dd_297_960)">
		<path d="M157.051 278.734C160.835 292.301 153.858 306.101 141.467 309.557C129.076 313.014 115.963 304.818 112.178 291.251C108.394 277.684 115.371 263.884 127.762 260.428C140.153 256.971 153.266 265.167 157.051 278.734Z" fill="white" />
		<path d="M137.066 318.668C117.286 319.984 101.15 335.968 98.5652 354.556C97.9136 359.241 100.965 363.479 105.431 365.038C123.726 371.422 157.403 377.919 180.733 363.733C184.266 361.585 186.095 357.432 184.986 353.448C179.649 334.265 157.272 317.324 137.066 318.668Z" fill="white" />
	</g>
	<path d="M200.635 273.837C199.622 270.971 201.748 267.965 204.787 267.965H283.868C285.735 267.965 287.399 269.142 288.021 270.902C289.034 273.767 286.908 276.773 283.868 276.773H204.787C202.921 276.773 201.257 275.597 200.635 273.837Z" fill="white" />
	<path opacity="0.5" d="M204.475 298.2C203.462 295.334 205.588 292.328 208.627 292.328H297.721C299.588 292.328 301.251 293.505 301.873 295.265C302.886 298.131 300.76 301.137 297.721 301.137H208.627C206.76 301.137 205.097 299.96 204.475 298.2Z" fill="white" />
	<path opacity="0.5" d="M208.834 314.872C207.821 312.006 209.947 309 212.986 309H269.153C271.019 309 272.683 310.177 273.305 311.937C274.318 314.802 272.192 317.808 269.153 317.808H212.986C211.12 317.808 209.456 316.632 208.834 314.872Z" fill="white" />
	<path d="M213.636 361.473C212.754 354.864 217.895 348.991 224.563 348.991H301.874C307.399 348.991 312.07 353.081 312.801 358.557C313.683 365.166 308.542 371.039 301.874 371.039H224.563C219.038 371.039 214.367 366.949 213.636 361.473Z" stroke="white" stroke-width="1.27985" />
	<path d="M256.337 358.089C256.401 358.606 256.341 359.08 256.156 359.512C255.97 359.935 255.646 360.278 255.184 360.54C254.722 360.803 254.124 360.934 253.39 360.934H252.033L252.432 364.135H250.244L249.132 355.219H252.677C253.394 355.219 254.015 355.342 254.54 355.587C255.066 355.833 255.479 356.172 255.78 356.603C256.082 357.035 256.267 357.53 256.337 358.089ZM253.008 359.207C253.426 359.207 253.725 359.11 253.906 358.915C254.086 358.72 254.154 358.445 254.11 358.089C254.066 357.734 253.929 357.459 253.7 357.264C253.471 357.069 253.147 356.972 252.729 356.972H251.539L251.818 359.207H253.008ZM264.907 362.56H261.554L261.212 364.135H258.921L261.06 355.219H263.594L267.957 364.135H265.641L264.907 362.56ZM264.134 360.883L262.614 357.619L261.92 360.883H264.134ZM276.819 355.219L274.454 361.188L274.821 364.135H272.633L272.265 361.188L268.41 355.219H270.893L273.1 358.953L274.362 355.219H276.819Z" fill="white" />
	<mask id="mask0_297_960" style="mask-type:alpha" maskUnits="userSpaceOnUse" x="46" y="228" width="306" height="175">
		<path d="M46.1074 240.523C45.3392 234.338 50.1625 228.879 56.3946 228.879L321.721 228.879C326.952 228.879 331.364 232.776 332.009 237.967L351.011 390.95C351.779 397.135 346.956 402.594 340.724 402.594H75.3971C70.1661 402.594 65.7547 398.697 65.1099 393.506L46.1074 240.523Z" fill="url(#paint1_linear_297_960)" />
		<path d="M145.266 290.523C149.05 304.09 142.073 317.89 129.682 321.347C117.291 324.803 104.178 316.607 100.393 303.04C96.6087 289.473 103.586 275.673 115.977 272.217C128.368 268.76 141.481 276.956 145.266 290.523Z" fill="#0B1021" fill-opacity="0.14" />
		<path d="M125.281 330.457C105.501 331.773 89.365 347.757 86.78 366.345C86.1284 371.03 89.1799 375.268 93.6461 376.827C111.941 383.211 145.618 389.708 168.948 375.522C172.481 373.374 174.31 369.221 173.201 365.237C167.864 346.054 145.487 329.113 125.281 330.457Z" fill="#0B1021" fill-opacity="0.14" />
		<path d="M157.051 278.734C160.835 292.301 153.858 306.101 141.467 309.557C129.076 313.014 115.963 304.818 112.178 291.251C108.394 277.684 115.371 263.884 127.762 260.428C140.153 256.971 153.266 265.167 157.051 278.734Z" fill="white" />
		<path d="M137.066 318.668C117.286 319.984 101.15 335.968 98.5652 354.556C97.9136 359.241 100.965 363.479 105.431 365.038C123.726 371.422 157.403 377.919 180.733 363.733C184.266 361.585 186.095 357.432 184.986 353.448C179.649 334.265 157.272 317.324 137.066 318.668Z" fill="white" />
		<path d="M200.635 273.837C199.622 270.971 201.748 267.965 204.787 267.965H283.868C285.735 267.965 287.399 269.142 288.021 270.902C289.034 273.767 286.908 276.773 283.868 276.773H204.787C202.921 276.773 201.257 275.597 200.635 273.837Z" fill="white" />
		<path opacity="0.5" d="M204.475 298.2C203.462 295.334 205.588 292.328 208.627 292.328H297.721C299.588 292.328 301.251 293.505 301.873 295.265C302.886 298.131 300.76 301.137 297.721 301.137H208.627C206.76 301.137 205.097 299.96 204.475 298.2Z" fill="white" />
		<path opacity="0.5" d="M208.834 314.872C207.821 312.006 209.947 309 212.986 309H269.153C271.019 309 272.683 310.177 273.305 311.937C274.318 314.802 272.192 317.808 269.153 317.808H212.986C211.12 317.808 209.456 316.632 208.834 314.872Z" fill="white" />
		<path d="M213.636 361.473C212.754 354.864 217.895 348.991 224.563 348.991H301.874C307.399 348.991 312.07 353.081 312.801 358.557C313.683 365.166 308.542 371.039 301.874 371.039H224.563C219.038 371.039 214.367 366.949 213.636 361.473Z" stroke="white" stroke-width="1.27985" />
		<path d="M256.337 358.089C256.401 358.606 256.341 359.08 256.156 359.512C255.97 359.935 255.646 360.278 255.184 360.54C254.722 360.803 254.124 360.934 253.39 360.934H252.033L252.432 364.135H250.244L249.132 355.219H252.677C253.394 355.219 254.015 355.342 254.54 355.587C255.066 355.833 255.479 356.172 255.78 356.603C256.082 357.035 256.267 357.53 256.337 358.089ZM253.008 359.207C253.426 359.207 253.725 359.11 253.906 358.915C254.086 358.72 254.154 358.445 254.11 358.089C254.066 357.734 253.929 357.459 253.7 357.264C253.471 357.069 253.147 356.972 252.729 356.972H251.539L251.818 359.207H253.008ZM264.907 362.56H261.554L261.212 364.135H258.921L261.06 355.219H263.594L267.957 364.135H265.641L264.907 362.56ZM264.134 360.883L262.614 357.619L261.92 360.883H264.134ZM276.819 355.219L274.454 361.188L274.821 364.135H272.633L272.265 361.188L268.41 355.219H270.893L273.1 358.953L274.362 355.219H276.819Z" fill="white" />
	</mask>
	<g mask="url(#mask0_297_960)">
		<rect x="10.001" y="210" width="400" height="212" fill="black" fill-opacity="0.3" />
	</g>
	<mask id="mask1_297_960" style="mask-type:alpha" maskUnits="userSpaceOnUse" x="46" y="228" width="306" height="175">
		<path d="M46.1093 240.523C45.3411 234.338 50.1645 228.879 56.3965 228.879L321.723 228.879C326.954 228.879 331.366 232.776 332.011 237.967L351.013 390.95C351.781 397.135 346.958 402.594 340.726 402.594H75.399C70.168 402.594 65.7566 398.697 65.1118 393.506L46.1093 240.523Z" fill="#707478" />
	</mask>
	<g mask="url(#mask1_297_960)">
		<path d="M21.8442 245.848C40.2918 261.745 66.9313 261.073 81.3453 244.347C95.7592 227.621 92.4894 201.174 74.0419 185.277C55.5943 169.379 28.9548 170.052 14.5408 186.778C0.126858 203.504 3.3967 229.951 21.8442 245.848Z" fill="black" fill-opacity="0.1" />
		<path d="M103.222 180.173C102.274 172.537 108.229 165.797 115.923 165.797L376.348 165.797C382.806 165.797 388.253 170.609 389.049 177.018L407.447 325.136C408.396 332.772 402.441 339.512 394.746 339.512H134.321C127.863 339.512 122.416 334.701 121.62 328.291L103.222 180.173Z" fill="black" fill-opacity="0.1" />
	</g>
	<path d="M115.685 164.574C114.917 158.389 119.741 152.93 125.973 152.93L391.3 152.93C396.531 152.93 400.942 156.827 401.587 162.018L420.589 315.001C421.358 321.186 416.534 326.645 410.302 326.645H144.975C139.744 326.645 135.333 322.748 134.688 317.557L115.685 164.574Z" fill="url(#paint2_linear_297_960)" />
	<g filter="url(#filter2_dd_297_960)">
		<path d="M226.633 202.785C230.418 216.351 223.441 230.152 211.049 233.608C198.658 237.065 185.545 228.869 181.761 215.302C177.976 201.735 184.953 187.935 197.345 184.478C209.736 181.022 222.849 189.218 226.633 202.785Z" fill="white" />
		<path d="M206.641 242.719C186.861 244.035 170.724 260.019 168.139 278.607C167.488 283.292 170.539 287.53 175.005 289.088C193.3 295.473 226.977 301.969 250.307 287.784C253.84 285.636 255.669 281.483 254.561 277.499C249.223 258.316 226.847 241.375 206.641 242.719Z" fill="white" />
	</g>
	<g filter="url(#filter3_dd_297_960)">
		<path d="M282.58 285.609C281.647 278.616 287.086 272.402 294.141 272.402H371.452C377.298 272.402 382.24 276.729 383.013 282.523C383.947 289.516 378.507 295.73 371.452 295.73H294.141C288.296 295.73 283.353 291.403 282.58 285.609Z" fill="white" />
	</g>
	<path d="M270.213 197.887C269.2 195.022 271.326 192.016 274.365 192.016H353.446C355.313 192.016 356.977 193.192 357.599 194.952C358.612 197.818 356.486 200.824 353.446 200.824H274.365C272.499 200.824 270.835 199.647 270.213 197.887Z" fill="white" />
	<path opacity="0.5" d="M274.057 222.251C273.044 219.385 275.17 216.379 278.209 216.379H367.303C369.17 216.379 370.833 217.556 371.455 219.316C372.468 222.181 370.342 225.187 367.303 225.187H278.209C276.342 225.187 274.679 224.011 274.057 222.251Z" fill="white" />
	<path opacity="0.5" d="M278.412 238.923C277.399 236.057 279.525 233.051 282.565 233.051H338.731C340.598 233.051 342.261 234.227 342.883 235.987C343.896 238.853 341.77 241.859 338.731 241.859H282.565C280.698 241.859 279.034 240.683 278.412 238.923Z" fill="white" />
	<path d="M325.911 282.14C325.976 282.657 325.915 283.131 325.73 283.562C325.544 283.986 325.22 284.329 324.758 284.591C324.296 284.854 323.698 284.985 322.964 284.985H321.607L322.007 288.185H319.818L318.706 279.27H322.251C322.968 279.27 323.589 279.393 324.114 279.638C324.64 279.884 325.053 280.222 325.355 280.654C325.656 281.086 325.841 281.581 325.911 282.14ZM322.582 283.258C323 283.258 323.3 283.16 323.48 282.966C323.661 282.771 323.729 282.496 323.684 282.14C323.64 281.784 323.503 281.509 323.274 281.315C323.045 281.12 322.721 281.022 322.303 281.022H321.113L321.392 283.258H322.582ZM334.481 286.611H331.128L330.787 288.185H328.496L330.634 279.27H333.169L337.531 288.185H335.215L334.481 286.611ZM333.709 284.934L332.188 281.67L331.495 284.934H333.709ZM346.393 279.27L344.028 285.239L344.395 288.185H342.207L341.839 285.239L337.985 279.27H340.468L342.674 283.004L343.936 279.27H346.393Z" fill="#989C9F" />
	<path d="M441.844 307.25C457.659 311.342 481.214 332.298 491.015 342.265L431.18 356.023C439.316 370.377 429.464 378.754 423.521 381.148L400.413 360.115C407.634 340.789 426.029 303.159 441.844 307.25Z" fill="url(#paint3_linear_297_960)" />
	<mask id="mask2_297_960" style="mask-type:alpha" maskUnits="userSpaceOnUse" x="115" y="152" width="306" height="175">
		<path d="M115.687 164.573C114.919 158.388 119.742 152.929 125.974 152.929L391.301 152.929C396.532 152.929 400.943 156.826 401.588 162.017L420.591 315C421.359 321.185 416.535 326.644 410.303 326.644L144.976 326.644C139.745 326.644 135.334 322.747 134.689 317.556L115.687 164.573Z" fill="#989C9F" />
	</mask>
	<g mask="url(#mask2_297_960)">
		<path d="M455.78 437.173L496.318 503.052C496.969 504.111 497.771 505.09 498.739 505.869C525.337 527.277 569.36 501.59 569.378 467.985C569.38 465.023 567.925 462.303 565.867 460.175C531.909 425.053 504.23 357.84 492.376 348.14C480.146 338.132 428.331 331.813 397.091 305.007C378.426 288.991 366.598 283.954 360.454 283.18C357.613 282.822 355.352 285.005 354.756 287.805C352.432 298.709 362.007 304.198 378.122 323.297C397.237 345.902 414.858 361.376 426.309 370.033C431.762 374.156 434.215 382.242 428.76 386.363C423.877 390.051 418.442 390.811 413.516 390.153C406.475 389.212 405.727 380.235 403.978 373.35C403.753 372.463 403.455 371.62 403.108 370.83C401.403 366.94 396.732 365.788 392.783 367.35C383.917 370.858 373.641 377.848 376.127 388.496C382.939 415.957 422.177 427.694 445.957 430.944C449.992 431.496 453.646 433.705 455.78 437.173Z" fill="black" fill-opacity="0.1" />
	</g>
	<path d="M456.386 424.656L500.4 496.187C500.997 497.156 501.733 498.052 502.617 498.77C529.303 520.439 573.699 494.444 573.376 460.597C573.35 457.886 572.029 455.399 570.139 453.455C536.057 418.412 508.262 350.866 496.376 341.14C484.146 331.132 432.331 324.813 401.091 298.007C376.099 276.561 363.364 274.8 360.12 276.601C354.223 290.585 364.068 294.899 382.122 316.297C408.435 347.415 431.918 365.019 440.37 369.931C430.439 389.02 413.036 383.664 405.575 378.599C411.699 369.713 406.576 361.362 403.248 358.297C394.232 360.422 376.985 368.038 380.127 381.496C387.598 411.616 434.079 422.819 456.386 424.656Z" fill="url(#paint4_linear_297_960)" />
	<mask id="mask3_297_960" style="mask-type:alpha" maskUnits="userSpaceOnUse" x="358" y="276" width="216" height="231">
		<path d="M456.386 424.656L500.4 496.187C500.997 497.156 501.733 498.052 502.617 498.77C529.303 520.439 573.699 494.444 573.376 460.597C573.35 457.886 572.029 455.399 570.139 453.455C536.057 418.412 508.262 350.866 496.376 341.14C484.146 331.132 432.331 324.813 401.091 298.007C376.099 276.561 363.364 274.8 360.12 276.601C354.223 290.585 364.068 294.899 382.122 316.297C408.435 347.415 431.918 365.019 440.37 369.931C430.439 389.02 413.036 383.664 405.575 378.599C411.699 369.713 406.576 361.362 403.248 358.297C394.232 360.422 376.985 368.038 380.127 381.496C387.598 411.616 434.079 422.819 456.386 424.656Z" fill="url(#paint5_linear_297_960)" />
	</mask>
	<g mask="url(#mask3_297_960)">
		<path d="M387.726 363.493C390.186 367.487 398.46 372.105 403.194 358.336C408.195 343.786 397.153 357.553 387.726 363.493Z" fill="white" fill-opacity="0.3" />
		<path d="M370.035 286.606C363.495 287.205 357.608 277.246 355.482 272.191C356.863 264.053 372.284 268.348 379.823 271.512C379.285 276.294 376.576 286.007 370.035 286.606Z" fill="white" fill-opacity="0.3" />
	</g>
	<mask id="mask4_297_960" style="mask-type:alpha" maskUnits="userSpaceOnUse" x="400" y="306" width="92" height="76">
		<path d="M441.84 307.25C457.655 311.342 481.21 332.298 491.011 342.265L431.176 356.023C439.312 370.377 429.46 378.754 423.517 381.148L400.41 360.115C407.63 340.789 426.025 303.159 441.84 307.25Z" fill="url(#paint6_linear_297_960)" />
	</mask>
	<g mask="url(#mask4_297_960)">
		<path d="M414.172 374.342C416.403 371.36 422.253 368.131 427.798 379.068C433.343 390.004 421.024 380.474 414.172 374.342Z" fill="white" fill-opacity="0.3" />
	</g>
	<path d="M27.0582 238.269C42 251.145 63.5769 250.601 75.2516 237.053C86.9263 223.506 84.2779 202.085 69.3361 189.209C54.3944 176.333 32.8175 176.877 21.1428 190.425C9.46807 203.972 12.1165 225.393 27.0582 238.269Z" fill="url(#paint7_linear_297_960)" />
	<path d="M30.4979 233.923C45.4709 246.827 66.6648 246.778 77.8357 233.815C89.0067 220.852 85.9245 199.883 70.9514 186.98C55.9784 174.077 34.7845 174.126 23.6136 187.089C12.4426 200.052 15.5248 221.02 30.4979 233.923Z" fill="url(#paint8_linear_297_960)" />
	<path d="M33.4671 230.467C46.239 241.473 64.3173 241.432 73.846 230.374C83.3747 219.317 80.7456 201.431 67.9737 190.425C55.2018 179.418 37.1236 179.46 27.5948 190.517C18.0661 201.575 20.6952 219.461 33.4671 230.467Z" fill="url(#paint9_linear_297_960)" />
	<mask id="path-40-inside-1_297_960" fill="white">
		<path fill-rule="evenodd" clip-rule="evenodd" d="M72.3255 229.064C63.6914 239.083 46.9227 239.413 34.7774 228.946C22.6321 218.48 20.4812 201.847 29.1153 191.827C37.7495 181.808 54.5181 181.479 66.6634 191.945C78.8087 202.411 80.9596 219.045 72.3255 229.064ZM73.846 230.374C64.3173 241.432 46.239 241.473 33.4671 230.467C20.6952 219.461 18.0661 201.575 27.5948 190.517C37.1236 179.46 55.2018 179.418 67.9737 190.425C80.7456 201.431 83.3747 219.317 73.846 230.374Z" />
	</mask>
	<path fill-rule="evenodd" clip-rule="evenodd" d="M72.3255 229.064C63.6914 239.083 46.9227 239.413 34.7774 228.946C22.6321 218.48 20.4812 201.847 29.1153 191.827C37.7495 181.808 54.5181 181.479 66.6634 191.945C78.8087 202.411 80.9596 219.045 72.3255 229.064ZM73.846 230.374C64.3173 241.432 46.239 241.473 33.4671 230.467C20.6952 219.461 18.0661 201.575 27.5948 190.517C37.1236 179.46 55.2018 179.418 67.9737 190.425C80.7456 201.431 83.3747 219.317 73.846 230.374Z" fill="url(#paint10_linear_297_960)" />
	<path d="M37.0783 226.276C48.1146 235.787 62.5858 234.967 69.6555 226.763L74.9955 231.365C64.7969 243.2 45.7308 243.038 32.4765 231.616L37.0783 226.276ZM31.7853 194.128C24.7156 202.332 26.0419 216.766 37.0783 226.276L32.4765 231.616C19.2223 220.194 16.2467 201.361 26.4453 189.527L31.7853 194.128ZM64.3626 194.615C53.3262 185.105 38.855 185.925 31.7853 194.128L26.4453 189.527C36.6439 177.692 55.7101 177.853 68.9643 189.275L64.3626 194.615ZM69.6555 226.763C76.7252 218.559 75.3989 204.126 64.3626 194.615L68.9643 189.275C82.2186 200.697 85.1941 219.53 74.9955 231.365L69.6555 226.763ZM35.768 227.797C47.4396 237.855 63.2182 237.308 71.176 228.074L76.516 232.675C65.4163 245.556 45.0384 245.091 31.1662 233.137L35.768 227.797ZM30.2648 192.818C22.307 202.053 24.0964 217.739 35.768 227.797L31.1662 233.137C17.294 221.182 13.8252 201.097 24.9248 188.216L30.2648 192.818ZM65.6728 193.095C54.0012 183.037 38.2226 183.584 30.2648 192.818L24.9248 188.216C36.0245 175.336 56.4024 175.8 70.2746 187.755L65.6728 193.095ZM71.176 228.074C79.1338 218.839 77.3444 203.153 65.6728 193.095L70.2746 187.755C84.1468 199.709 87.6156 219.795 76.516 232.675L71.176 228.074Z" fill="url(#paint11_linear_297_960)" mask="url(#path-40-inside-1_297_960)" />
	<path fill-rule="evenodd" clip-rule="evenodd" d="M63.9842 210.112L63.9842 210.112L54.305 220.405L40.2563 221.91L59.0227 229.893L59.0227 229.893L59.0227 229.893L63.9843 210.112L63.9842 210.112Z" fill="#707A7E" />
	<path fill-rule="evenodd" clip-rule="evenodd" d="M63.2545 207.295L63.2546 207.295L40.2561 192.16L40.2561 192.16L40.256 192.16L38.443 219.632L53.1336 218.058L53.1337 218.058L63.2545 207.295Z" fill="#707A7E" />
	<path fill-rule="evenodd" clip-rule="evenodd" d="M65.7655 209.217L56.0863 219.51L42.0376 221.016L60.8039 228.998L65.7655 209.217Z" fill="white" />
	<path fill-rule="evenodd" clip-rule="evenodd" d="M65.028 206.385L42.0295 191.249L40.2164 218.722L54.9071 217.148L65.028 206.385Z" fill="white" />
	<ellipse cx="107.66" cy="70.898" rx="45.1824" ry="49.832" transform="rotate(49.2467 107.66 70.898)" fill="url(#paint12_linear_297_960)" />
	<ellipse cx="104.125" cy="66.3213" rx="43.2327" ry="49.9364" transform="rotate(49.2467 104.125 66.3213)" fill="url(#paint13_linear_297_960)" />
	<path d="M127.046 92.9206C109.775 107.804 85.7007 107.493 73.1906 92.9761C60.6806 78.4592 63.9291 54.6025 81.1997 39.7196C98.4702 24.8366 122.545 25.1472 135.055 39.6641C147.565 54.181 144.316 78.0376 127.046 92.9206Z" fill="url(#paint14_linear_297_960)" stroke="url(#paint15_linear_297_960)" stroke-width="3.52461" />
	<path d="M119.801 79.1667C119.768 77.1117 118.917 75.0812 117.248 73.0759C120.823 73.6906 123.635 72.3005 125.686 68.9061C126.438 67.6819 126.864 66.4517 126.964 65.2135C127.063 63.9748 126.854 62.7628 126.333 61.575C125.813 60.3871 125.123 59.2626 124.266 58.2018C123.408 57.1409 122.338 56.0364 121.057 54.8893L125.964 48.3249L121.953 45.3261L117.182 51.7081C116.487 51.1888 115.415 50.4142 113.965 49.3845L118.776 42.9504L114.764 39.9511L109.856 46.5155C109.27 46.1044 108.421 45.4837 107.31 44.6528L101.807 40.498L98.6133 44.7701L101.505 46.9316C102.824 47.9184 103.156 49.0867 102.499 50.4362L96.9093 57.9124C97.0832 58.0424 97.2153 58.1551 97.3067 58.2504L96.8897 57.9386L89.0612 68.4099C88.2605 69.1916 87.4256 69.2583 86.5572 68.6091L83.6662 66.4477L79.2946 70.611L84.5044 74.506C84.8345 74.7527 85.3084 75.1139 85.928 75.5893C86.5465 76.0654 87.012 76.4202 87.3246 76.6539L82.3587 83.2963L86.3711 86.296L91.2786 79.7317C91.9945 80.2946 93.0474 81.0951 94.4367 82.1337L89.5488 88.6717L93.56 91.6706L98.526 85.0282C100.002 86.0237 101.362 86.8386 102.608 87.471C103.854 88.1037 105.133 88.5936 106.445 88.938C107.757 89.283 108.979 89.4043 110.111 89.3027C111.242 89.202 112.38 88.8472 113.525 88.2409C114.668 87.6335 115.762 86.7594 116.805 85.6167C118.836 83.373 119.834 81.2223 119.801 79.1667ZM110.538 54.131C110.66 54.2219 111.006 54.4739 111.577 54.8871C112.149 55.3003 112.624 55.6421 113.004 55.9125C113.383 56.1831 113.871 56.5813 114.466 57.1075C115.061 57.6335 115.543 58.1022 115.912 58.5134C116.281 58.9246 116.652 59.4252 117.023 60.0141C117.395 60.6035 117.63 61.1581 117.728 61.678C117.827 62.1984 117.819 62.7612 117.704 63.3661C117.591 63.9713 117.32 64.5604 116.891 65.1334C116.528 65.6197 116.118 66.0043 115.664 66.2872C115.209 66.5701 114.724 66.7287 114.211 66.7645C113.697 66.8002 113.2 66.7943 112.721 66.7471C112.242 66.7002 111.7 66.5458 111.097 66.2844C110.494 66.0232 109.976 65.7844 109.542 65.5683C109.108 65.3521 108.595 65.0431 108.002 64.6405C107.41 64.2379 106.962 63.9309 106.661 63.7189C106.359 63.5066 105.955 63.2049 105.449 62.8132C104.943 62.4214 104.647 62.1931 104.56 62.1281L110.539 54.1311L110.538 54.1309L110.538 54.131ZM108.23 80.0594C107.766 80.3354 107.294 80.5241 106.813 80.625C106.332 80.7247 105.794 80.7289 105.2 80.6364C104.606 80.5447 104.057 80.418 103.554 80.2586C103.05 80.0994 102.477 79.8598 101.835 79.5429C101.192 79.2246 100.643 78.9282 100.184 78.6535C99.7265 78.3791 99.1929 78.0341 98.5826 77.6188C97.9733 77.2031 97.5029 76.872 97.1731 76.6255C96.8431 76.3787 96.4298 76.0623 95.9325 75.6773C95.4346 75.2925 95.1169 75.0481 94.9779 74.9442L101.561 66.1393C101.699 66.243 102.118 66.5429 102.817 67.0382C103.517 67.5337 104.083 67.944 104.517 68.2686C104.951 68.5932 105.531 69.0669 106.256 69.6908C106.981 70.3135 107.566 70.8717 108.009 71.3657C108.452 71.8595 108.9 72.4447 109.355 73.1233C109.809 73.801 110.111 74.4393 110.259 75.0376C110.407 75.6364 110.43 76.2752 110.327 76.9563C110.224 77.6375 109.939 78.2907 109.471 78.916C109.107 79.4027 108.695 79.7833 108.23 80.0594Z" fill="#707A7E" />
	<path d="M117.762 78.1745C117.729 76.1195 116.878 74.089 115.209 72.0837C118.783 72.6984 121.596 71.3083 123.646 67.914C124.399 66.6897 124.825 65.4595 124.925 64.2213C125.024 62.9826 124.815 61.7706 124.294 60.5828C123.774 59.3949 123.084 58.2704 122.227 57.2096C121.369 56.1487 120.299 55.0442 119.018 53.8971L123.925 47.3327L119.914 44.3339L115.143 50.7159C114.448 50.1966 113.376 49.422 111.926 48.3923L116.737 41.9582L112.725 38.959L107.817 45.5233C107.231 45.1122 106.382 44.4915 105.271 43.6606L99.7682 39.5058L96.5743 43.7779L99.4655 45.9394C100.785 46.9262 101.117 48.0945 100.46 49.444L94.8703 56.9202C95.0442 57.0502 95.1763 57.1629 95.2676 57.2582L94.8506 56.9465L87.0222 67.4177C86.2214 68.1995 85.3866 68.2661 84.5182 67.6169L81.6271 65.4555L77.2555 69.6188L82.4654 73.5138C82.7954 73.7605 83.2694 74.1217 83.889 74.5971C84.5075 75.0732 84.9729 75.428 85.2856 75.6617L80.3196 82.3041L84.332 85.3038L89.2395 78.7395C89.9554 79.3025 91.0083 80.1029 92.3976 81.1415L87.5097 87.6795L91.521 90.6784L96.4869 84.036C97.9631 85.0315 99.3232 85.8464 100.569 86.4788C101.815 87.1115 103.094 87.6014 104.406 87.9459C105.718 88.2908 106.94 88.4121 108.072 88.3105C109.203 88.2098 110.341 87.855 111.485 87.2487C112.629 86.6413 113.723 85.7672 114.766 84.6245C116.797 82.3808 117.795 80.2302 117.762 78.1745ZM108.499 53.1388C108.621 53.2297 108.967 53.4817 109.538 53.8949C110.11 54.3081 110.585 54.6499 110.965 54.9203C111.344 55.1909 111.832 55.5892 112.427 56.1153C113.022 56.6413 113.504 57.1101 113.873 57.5212C114.242 57.9324 114.613 58.4331 114.984 59.0219C115.356 59.6113 115.591 60.1659 115.689 60.6858C115.788 61.2062 115.78 61.769 115.665 62.3739C115.552 62.9791 115.28 63.5682 114.852 64.1412C114.489 64.6275 114.079 65.0121 113.625 65.295C113.17 65.5779 112.685 65.7366 112.172 65.7723C111.658 65.808 111.161 65.8021 110.682 65.7549C110.203 65.708 109.661 65.5536 109.058 65.2922C108.455 65.031 107.937 64.7922 107.503 64.5761C107.069 64.36 106.556 64.0509 105.963 63.6483C105.37 63.2457 104.923 62.9387 104.621 62.7267C104.32 62.5144 103.916 62.2127 103.41 61.821C102.904 61.4292 102.608 61.201 102.521 61.1359L108.5 53.1389L108.499 53.1387L108.499 53.1388ZM106.191 79.0673C105.727 79.3432 105.255 79.5319 104.774 79.6328C104.293 79.7325 103.755 79.7367 103.161 79.6443C102.567 79.5525 102.018 79.4258 101.515 79.2664C101.011 79.1072 100.438 78.8677 99.7963 78.5507C99.1532 78.2325 98.6038 77.936 98.1452 77.6613C97.6874 77.3869 97.1538 77.0419 96.5435 76.6266C95.9342 76.2109 95.4638 75.8799 95.134 75.6333C94.804 75.3866 94.3907 75.0702 93.8934 74.6851C93.3956 74.3003 93.0779 74.056 92.9388 73.952L99.5215 65.1471C99.6603 65.2508 100.079 65.5507 100.778 66.046C101.478 66.5415 102.044 66.9518 102.478 67.2764C102.912 67.601 103.492 68.0747 104.217 68.6986C104.942 69.3213 105.527 69.8795 105.97 70.3735C106.413 70.8673 106.861 71.4525 107.316 72.1311C107.77 72.8088 108.071 73.4471 108.22 74.0454C108.368 74.6442 108.391 75.283 108.288 75.9641C108.185 76.6453 107.9 77.2985 107.432 77.9238C107.068 78.4105 106.655 78.7911 106.191 79.0673Z" fill="white" />
	<defs>
		<filter id="filter0_f_297_960" x="55.5936" y="240.327" width="149.029" height="174.778" filterUnits="userSpaceOnUse" color-interpolation-filters="sRGB">
			<feFlood flood-opacity="0" result="BackgroundImageFix" />
			<feBlend mode="normal" in="SourceGraphic" in2="BackgroundImageFix" result="shape" />
			<feGaussianBlur stdDeviation="15.5494" result="effect1_foregroundBlur_297_960" />
		</filter>
		<filter id="filter1_dd_297_960" x="79.4775" y="244.637" width="123.831" height="149.581" filterUnits="userSpaceOnUse" color-interpolation-filters="sRGB">
			<feFlood flood-opacity="0" result="BackgroundImageFix" />
			<feColorMatrix in="SourceAlpha" type="matrix" values="0 0 0 0 0 0 0 0 0 0 0 0 0 0 0 0 0 0 127 0" result="hardAlpha" />
			<feOffset dy="4" />
			<feGaussianBlur stdDeviation="9" />
			<feComposite in2="hardAlpha" operator="out" />
			<feColorMatrix type="matrix" values="0 0 0 0 0.320732 0 0 0 0 0.320732 0 0 0 0 0.320732 0 0 0 0.25 0" />
			<feBlend mode="normal" in2="BackgroundImageFix" result="effect1_dropShadow_297_960" />
			<feColorMatrix in="SourceAlpha" type="matrix" values="0 0 0 0 0 0 0 0 0 0 0 0 0 0 0 0 0 0 127 0" result="hardAlpha" />
			<feOffset dx="-5" dy="-1" />
			<feGaussianBlur stdDeviation="7" />
			<feComposite in2="hardAlpha" operator="out" />
			<feColorMatrix type="matrix" values="0 0 0 0 1 0 0 0 0 1 0 0 0 0 1 0 0 0 0.3 0" />
			<feBlend mode="normal" in2="effect1_dropShadow_297_960" result="effect2_dropShadow_297_960" />
			<feBlend mode="normal" in="SourceGraphic" in2="effect2_dropShadow_297_960" result="shape" />
		</filter>
		<filter id="filter2_dd_297_960" x="149.052" y="168.688" width="123.831" height="149.581" filterUnits="userSpaceOnUse" color-interpolation-filters="sRGB">
			<feFlood flood-opacity="0" result="BackgroundImageFix" />
			<feColorMatrix in="SourceAlpha" type="matrix" values="0 0 0 0 0 0 0 0 0 0 0 0 0 0 0 0 0 0 127 0" result="hardAlpha" />
			<feOffset dy="4" />
			<feGaussianBlur stdDeviation="9" />
			<feComposite in2="hardAlpha" operator="out" />
			<feColorMatrix type="matrix" values="0 0 0 0 0.320732 0 0 0 0 0.320732 0 0 0 0 0.320732 0 0 0 0.25 0" />
			<feBlend mode="normal" in2="BackgroundImageFix" result="effect1_dropShadow_297_960" />
			<feColorMatrix in="SourceAlpha" type="matrix" values="0 0 0 0 0 0 0 0 0 0 0 0 0 0 0 0 0 0 127 0" result="hardAlpha" />
			<feOffset dx="-5" dy="-1" />
			<feGaussianBlur stdDeviation="7" />
			<feComposite in2="hardAlpha" operator="out" />
			<feColorMatrix type="matrix" values="0 0 0 0 1 0 0 0 0 1 0 0 0 0 1 0 0 0 0.3 0" />
			<feBlend mode="normal" in2="effect1_dropShadow_297_960" result="effect2_dropShadow_297_960" />
			<feBlend mode="normal" in="SourceGraphic" in2="effect2_dropShadow_297_960" result="shape" />
		</filter>
		<filter id="filter3_dd_297_960" x="264.475" y="258.402" width="136.643" height="59.3274" filterUnits="userSpaceOnUse" color-interpolation-filters="sRGB">
			<feFlood flood-opacity="0" result="BackgroundImageFix" />
			<feColorMatrix in="SourceAlpha" type="matrix" values="0 0 0 0 0 0 0 0 0 0 0 0 0 0 0 0 0 0 127 0" result="hardAlpha" />
			<feOffset dy="4" />
			<feGaussianBlur stdDeviation="9" />
			<feComposite in2="hardAlpha" operator="out" />
			<feColorMatrix type="matrix" values="0 0 0 0 0.321569 0 0 0 0 0.321569 0 0 0 0 0.321569 0 0 0 0.25 0" />
			<feBlend mode="normal" in2="BackgroundImageFix" result="effect1_dropShadow_297_960" />
			<feColorMatrix in="SourceAlpha" type="matrix" values="0 0 0 0 0 0 0 0 0 0 0 0 0 0 0 0 0 0 127 0" result="hardAlpha" />
			<feOffset dx="-5" dy="-3" />
			<feGaussianBlur stdDeviation="4.5" />
			<feComposite in2="hardAlpha" operator="out" />
			<feColorMatrix type="matrix" values="0 0 0 0 1 0 0 0 0 1 0 0 0 0 1 0 0 0 0.25 0" />
			<feBlend mode="normal" in2="effect1_dropShadow_297_960" result="effect2_dropShadow_297_960" />
			<feBlend mode="normal" in="SourceGraphic" in2="effect2_dropShadow_297_960" result="shape" />
		</filter>
		<linearGradient id="paint0_linear_297_960" x1="198.423" y1="209.449" x2="216.923" y2="415.449" gradientUnits="userSpaceOnUse">
			<stop stop-color="#A2A7AA" />
			<stop offset="1" stop-color="#94989A" />
		</linearGradient>
		<linearGradient id="paint1_linear_297_960" x1="198.423" y1="209.449" x2="216.923" y2="415.449" gradientUnits="userSpaceOnUse">
			<stop stop-color="#A2A7AA" />
			<stop offset="1" stop-color="#94989A" />
		</linearGradient>
		<linearGradient id="paint2_linear_297_960" x1="268.001" y1="133.5" x2="286.501" y2="343" gradientUnits="userSpaceOnUse">
			<stop stop-color="#A2A7AA" />
			<stop offset="1" stop-color="#94989A" />
		</linearGradient>
		<linearGradient id="paint3_linear_297_960" x1="455.339" y1="383.928" x2="416.647" y2="307.038" gradientUnits="userSpaceOnUse">
			<stop stop-color="#41434A" />
			<stop offset="1" stop-color="#7F8284" />
		</linearGradient>
		<linearGradient id="paint4_linear_297_960" x1="515.452" y1="563.097" x2="389.327" y2="283.736" gradientUnits="userSpaceOnUse">
			<stop stop-color="#41434A" />
			<stop offset="1" stop-color="#7F8284" />
		</linearGradient>
		<linearGradient id="paint5_linear_297_960" x1="496.003" y1="474.691" x2="389.327" y2="283.736" gradientUnits="userSpaceOnUse">
			<stop stop-color="#3D3F45" />
			<stop offset="1" stop-color="#7F8284" />
		</linearGradient>
		<linearGradient id="paint6_linear_297_960" x1="438.579" y1="378.773" x2="477.543" y2="250.933" gradientUnits="userSpaceOnUse">
			<stop stop-color="#FFC39D" />
			<stop offset="1" stop-color="#F69E66" />
		</linearGradient>
		<linearGradient id="paint7_linear_297_960" x1="21.1428" y1="190.425" x2="63.4115" y2="259.572" gradientUnits="userSpaceOnUse">
			<stop stop-color="#859299" />
			<stop offset="1" stop-color="#4A5056" />
		</linearGradient>
		<linearGradient id="paint8_linear_297_960" x1="23.6136" y1="187.089" x2="77.8357" y2="233.815" gradientUnits="userSpaceOnUse">
			<stop stop-color="#B9C4C9" />
			<stop offset="1" stop-color="#6A747D" />
		</linearGradient>
		<linearGradient id="paint9_linear_297_960" x1="32.9455" y1="188.927" x2="92.445" y2="202.689" gradientUnits="userSpaceOnUse">
			<stop stop-color="#AFB7BB" />
			<stop offset="1" stop-color="#575F67" />
		</linearGradient>
		<linearGradient id="paint10_linear_297_960" x1="32.9455" y1="188.927" x2="92.445" y2="202.689" gradientUnits="userSpaceOnUse">
			<stop stop-color="#AFB7BB" />
			<stop offset="1" stop-color="#575F67" />
		</linearGradient>
		<linearGradient id="paint11_linear_297_960" x1="-21.8992" y1="188.725" x2="72.0074" y2="195.473" gradientUnits="userSpaceOnUse">
			<stop offset="0.537867" stop-color="#8B969B" stop-opacity="0.26" />
			<stop offset="1" stop-color="#545C63" />
		</linearGradient>
		<linearGradient id="paint12_linear_297_960" x1="107.66" y1="21.066" x2="107.66" y2="120.73" gradientUnits="userSpaceOnUse">
			<stop stop-color="#859299" />
			<stop offset="1" stop-color="#4A5056" />
		</linearGradient>
		<linearGradient id="paint13_linear_297_960" x1="104.125" y1="16.3849" x2="104.125" y2="116.258" gradientUnits="userSpaceOnUse">
			<stop stop-color="#B9C4C9" />
			<stop offset="1" stop-color="#6A747D" />
		</linearGradient>
		<linearGradient id="paint14_linear_297_960" x1="128.924" y1="36.2952" x2="45.9044" y2="55.4971" gradientUnits="userSpaceOnUse">
			<stop stop-color="#AFB7BB" />
			<stop offset="1" stop-color="#575F67" />
		</linearGradient>
		<linearGradient id="paint15_linear_297_960" x1="205.449" y1="36.0128" x2="74.421" y2="45.4286" gradientUnits="userSpaceOnUse">
			<stop offset="0.537867" stop-color="#8B969B" stop-opacity="0.26" />
			<stop offset="1" stop-color="#545C63" />
		</linearGradient>
	</defs>
</svg>
