<svg width="540" height="468" viewBox="0 0 540 468" fill="none" xmlns="http://www.w3.org/2000/svg">
	<path d="M402.184 360.043C386.547 374.382 368.238 385.5 348.304 392.763C328.371 400.026 307.201 403.291 286.005 402.373" stroke="white" stroke-opacity="0.1" stroke-width="4" stroke-linecap="round" />
	<path d="M154.397 157.96C173.734 125.674 203.735 101.151 239.223 88.6245C274.711 76.098 313.458 76.3537 348.778 89.3475" stroke="white" stroke-opacity="0.1" stroke-width="4" stroke-linecap="round" />
	<path d="M305.87 464.819C259.323 467.496 213.099 455.596 173.631 430.775C134.163 405.955 103.414 369.449 85.6619 326.337" stroke="white" stroke-opacity="0.28" stroke-width="4" stroke-linecap="round" />
	<path d="M275.852 17.397C308.094 14.9243 340.489 19.4546 370.816 30.6771C401.142 41.8996 428.683 59.5488 451.548 82.4142" stroke="white" stroke-opacity="0.28" stroke-width="4" stroke-linecap="round" />
	<rect width="131.364" height="81.3794" rx="3.76181" transform="matrix(0.996917 0.0784591 -0.213371 0.976971 408.363 112)" fill="#989C9F" />
	<rect width="43.552" height="4.16122" rx="2.08061" transform="matrix(0.996917 0.0784591 -0.213371 0.976971 419.244 126.643)" fill="white" />
	<rect width="28.3857" height="4.16122" rx="2.08061" transform="matrix(0.996917 0.0784591 -0.213371 0.976971 417.768 133.411)" fill="white" fill-opacity="0.7" />
	<rect width="16.4655" height="4.16122" rx="2.08061" transform="matrix(0.996917 0.0784591 -0.213371 0.976971 408.821 174.383)" fill="white" fill-opacity="0.7" />
	<rect width="16.4655" height="4.16122" rx="2.08061" transform="matrix(0.996917 0.0784591 -0.213371 0.976971 427.998 175.901)" fill="white" fill-opacity="0.7" />
	<rect width="16.4655" height="4.16122" rx="2.08061" transform="matrix(0.996917 0.0784591 -0.213371 0.976971 447.18 177.402)" fill="white" fill-opacity="0.7" />
	<rect width="14.1837" height="14.1837" rx="1.25394" transform="matrix(0.996917 0.0784591 -0.213371 0.976971 415.099 145.616)" fill="url(#paint0_linear_297_960)" />
	<mask id="mask0_297_960" style="mask-type:alpha" maskUnits="userSpaceOnUse" x="412" y="145" width="17" height="16">
		<rect width="14.1837" height="14.1837" rx="1.57597" transform="matrix(0.996917 0.0784591 -0.213371 0.976971 415.1 145.617)" fill="#EDE910" />
	</mask>
	<g mask="url(#mask0_297_960)">
		<path d="M418.979 142.458L414.463 163.132" stroke="#FFB801" stroke-width="0.630387" />
		<path d="M422.919 142.766L421.107 151.063M418.404 163.441L420.232 155.071" stroke="#FFB801" stroke-width="0.630387" />
		<path d="M426.845 143.07L422.329 163.744" stroke="#FFB801" stroke-width="0.630387" />
		<path d="M410.309 154.236L431.405 155.896" stroke="#FFB801" stroke-width="0.630387" />
		<path d="M410.902 150.366L431.999 152.027" stroke="#FFB801" stroke-width="0.630387" />
		<path d="M432.691 148.83L421.746 147.969" stroke="#FFB801" stroke-width="0.630387" />
		<path d="M409.369 157.403L419.545 158.204" stroke="#FFB801" stroke-width="0.630387" />
	</g>
	<mask id="mask1_297_960" style="mask-type:alpha" maskUnits="userSpaceOnUse" x="391" y="112" width="148" height="90">
		<rect width="131.365" height="81.3803" rx="3.76514" transform="matrix(0.996917 0.0784591 -0.213371 0.976971 408.363 112)" fill="#989C9F" />
	</mask>
	<g mask="url(#mask1_297_960)">
		<circle r="37.793" transform="matrix(0.996917 0.0784591 -0.213371 0.976971 505.692 184.834)" fill="url(#paint1_linear_297_960)" />
		<circle r="37.4463" transform="matrix(0.996917 0.0784591 -0.213371 0.976971 523.078 174.439)" stroke="url(#paint2_linear_297_960)" stroke-width="0.693536" />
	</g>
	<circle r="6.49519" transform="matrix(0.996917 0.0784591 -0.213371 0.976971 505.205 184.045)" fill="white" />
	<path fill-rule="evenodd" clip-rule="evenodd" d="M499.76 189.643C498.124 188.195 497.34 185.926 497.877 183.469C498.414 181.009 500.148 178.937 502.352 177.792C501.691 177.463 500.94 177.253 500.122 177.189C496.546 176.907 493.026 179.52 492.261 183.025C491.495 186.529 493.774 189.598 497.35 189.88C498.167 189.944 498.981 189.857 499.76 189.643Z" fill="white" fill-opacity="0.6" />
	<ellipse cx="170.276" cy="80.8813" rx="42.5074" ry="46.8817" transform="rotate(32.9723 170.276 80.8813)" fill="url(#paint3_linear_297_960)" />
	<ellipse cx="165.879" cy="77.6762" rx="40.6731" ry="46.9799" transform="rotate(32.9723 165.879 77.6762)" fill="url(#paint4_linear_297_960)" />
	<path d="M193.596 95.652C181.922 113.646 160.099 119.713 144.974 109.901C129.848 100.089 126.492 77.6876 138.166 59.6935C149.839 41.6994 171.662 35.6327 186.788 45.4446C201.913 55.2566 205.269 77.6579 193.596 95.652Z" fill="url(#paint5_linear_297_960)" stroke="url(#paint6_linear_297_960)" stroke-width="3.31594" />
	<path d="M183.416 85.1454C182.844 83.2983 181.54 81.689 179.504 80.3179C182.894 79.9306 185.067 77.9338 186.025 74.3277C186.382 73.0237 186.442 71.8004 186.205 70.6559C185.968 69.511 185.46 68.4716 184.676 67.5363C183.894 66.6005 182.974 65.7668 181.92 65.035C180.866 64.303 179.608 63.5876 178.149 62.8894L180.85 55.6673L176.437 54.0166L173.811 61.0381C173.047 60.7522 171.874 60.3354 170.293 59.7877L172.941 52.7089L168.527 51.058L165.826 58.2801C165.188 58.0634 164.258 57.7266 163.035 57.2692L156.97 54.9678L155.212 59.668L158.393 60.8578C159.845 61.4009 160.453 62.3687 160.215 63.7606L157.138 71.986C157.33 72.0575 157.479 72.1245 157.586 72.1865L157.128 72.0149L152.818 83.5354C152.301 84.4525 151.565 84.7328 150.61 84.3755L147.429 83.1857L144.579 88.0981L150.31 90.2421C150.674 90.3779 151.197 90.5792 151.882 90.8452C152.566 91.112 153.08 91.3097 153.424 91.4384L150.69 98.7464L155.105 100.398L157.806 93.1755C158.601 93.4951 159.763 93.9404 161.291 94.5121L158.601 101.705L163.014 103.356L165.747 96.048C167.343 96.5579 168.786 96.9352 170.078 97.1779C171.37 97.4208 172.654 97.526 173.93 97.4911C175.206 97.4568 176.341 97.2441 177.336 96.8541C178.332 96.4647 179.266 95.8444 180.14 94.995C181.012 94.1451 181.77 93.0672 182.41 91.7603C183.653 89.1985 183.988 86.9931 183.416 85.1454ZM168.45 64.9777C168.584 65.0278 168.963 65.1641 169.587 65.3867C170.212 65.6093 170.732 65.7927 171.146 65.9367C171.56 66.0809 172.105 66.3121 172.782 66.6304C173.458 66.9485 174.016 67.2448 174.458 67.5188C174.9 67.7928 175.367 68.1472 175.857 68.5811C176.349 69.0152 176.707 69.4542 176.933 69.8979C177.159 70.3418 177.3 70.8522 177.356 71.4286C177.413 72.0052 177.324 72.6087 177.088 73.2391C176.888 73.7741 176.62 74.2294 176.283 74.6048C175.948 74.98 175.551 75.2512 175.097 75.4188C174.643 75.5865 174.192 75.7123 173.747 75.796C173.302 75.8799 172.772 75.8833 172.159 75.8061C171.545 75.7292 171.014 75.6503 170.565 75.5695C170.116 75.4887 169.571 75.3449 168.93 75.1376C168.289 74.9302 167.804 74.7709 167.476 74.6589C167.147 74.5468 166.703 74.3807 166.143 74.1604C165.582 73.94 165.255 73.8119 165.159 73.7761L168.45 64.9777L168.45 64.9776L168.45 64.9777ZM173.202 89.0022C172.855 89.3738 172.478 89.6687 172.07 89.8866C171.662 90.1035 171.177 90.2492 170.617 90.3223C170.056 90.396 169.527 90.4264 169.031 90.415C168.534 90.4041 167.953 90.3387 167.29 90.2217C166.625 90.1039 166.051 89.981 165.564 89.8538C165.079 89.7267 164.506 89.5558 163.845 89.3416C163.185 89.1269 162.673 88.9519 162.31 88.8162C161.947 88.6804 161.491 88.5036 160.94 88.287C160.389 88.0707 160.038 87.9338 159.885 87.8766L163.508 78.1894C163.661 78.2465 164.118 78.4069 164.88 78.6698C165.642 78.9329 166.261 79.1543 166.739 79.333C167.217 79.5117 167.866 79.7865 168.685 80.1588C169.504 80.53 170.179 80.88 170.71 81.2092C171.24 81.5384 171.799 81.9487 172.388 82.4417C172.977 82.9341 173.418 83.4309 173.71 83.9321C174.001 84.4339 174.19 85.0048 174.277 85.647C174.364 86.2893 174.278 86.9544 174.021 87.6424C173.82 88.1779 173.548 88.6304 173.202 89.0022Z" fill="#707A7E" />
	<path d="M181.316 84.7828C180.744 82.9358 179.44 81.3264 177.405 79.9554C180.795 79.5681 182.968 77.5713 183.925 73.9651C184.282 72.6611 184.342 71.4378 184.106 70.2933C183.869 69.1485 183.36 68.1091 182.577 67.1737C181.795 66.2379 180.875 65.4043 179.821 64.6724C178.766 63.9405 177.509 63.2251 176.049 62.5269L178.751 55.3047L174.338 53.654L171.711 60.6755C170.947 60.3897 169.775 59.9728 168.194 59.4251L170.842 52.3463L166.428 50.6954L163.726 57.9176C163.089 57.7008 162.158 57.364 160.936 56.9067L154.871 54.6052L153.113 59.3054L156.294 60.4952C157.746 61.0384 158.353 62.0062 158.115 63.3981L155.039 71.6234C155.23 71.695 155.379 71.7619 155.487 71.8239L155.028 71.6523L150.719 83.1729C150.202 84.09 149.465 84.3703 148.51 84.0129L145.329 82.8232L142.479 87.7356L148.211 89.8796C148.574 90.0154 149.097 90.2166 149.782 90.4826C150.466 90.7495 150.98 90.9472 151.324 91.0758L148.591 98.3838L153.005 100.035L155.706 92.813C156.501 93.1326 157.663 93.5778 159.192 94.1496L156.501 101.343L160.914 102.993L163.648 95.6855C165.243 96.1953 166.687 96.5726 167.978 96.8153C169.27 97.0583 170.554 97.1635 171.83 97.1286C173.106 97.0942 174.242 96.8816 175.237 96.4915C176.232 96.1022 177.166 95.4818 178.04 94.6325C178.912 93.7825 179.67 92.7047 180.311 91.3977C181.553 88.836 181.888 86.6305 181.316 84.7828ZM166.35 64.6152C166.484 64.6652 166.863 64.8015 167.488 65.0242C168.113 65.2467 168.632 65.4301 169.046 65.5742C169.461 65.7184 170.006 65.9495 170.682 66.2678C171.358 66.586 171.917 66.8823 172.359 67.1562C172.8 67.4302 173.267 67.7846 173.758 68.2185C174.249 68.6527 174.607 69.0917 174.833 69.5353C175.059 69.9793 175.201 70.4897 175.257 71.0661C175.314 71.6427 175.224 72.2462 174.988 72.8766C174.788 73.4116 174.52 73.8668 174.184 74.2422C173.848 74.6175 173.452 74.8887 172.998 75.0563C172.543 75.224 172.092 75.3497 171.647 75.4334C171.202 75.5173 170.673 75.5207 170.059 75.4436C169.446 75.3667 168.914 75.2878 168.466 75.2069C168.017 75.1262 167.472 74.9824 166.831 74.775C166.189 74.5676 165.704 74.4084 165.376 74.2964C165.048 74.1843 164.603 74.0182 164.043 73.7978C163.483 73.5775 163.155 73.4493 163.06 73.4135L166.351 64.6152L166.35 64.6151L166.35 64.6152ZM171.102 88.6396C170.755 89.0112 170.379 89.3062 169.971 89.5241C169.563 89.741 169.078 89.8867 168.517 89.9597C167.956 90.0335 167.427 90.0638 166.931 90.0525C166.434 90.0415 165.854 89.9761 165.19 89.8591C164.526 89.7413 163.951 89.6185 163.465 89.4913C162.979 89.3642 162.406 89.1933 161.745 88.9791C161.086 88.7643 160.574 88.5894 160.211 88.4536C159.848 88.3178 159.391 88.1411 158.84 87.9245C158.289 87.7082 157.938 87.5713 157.785 87.514L161.408 77.8269C161.561 77.884 162.018 78.0444 162.78 78.3072C163.543 78.5704 164.162 78.7918 164.64 78.9705C165.117 79.1491 165.766 79.424 166.585 79.7962C167.404 80.1674 168.079 80.5175 168.61 80.8467C169.14 81.1758 169.699 81.5862 170.289 82.0792C170.877 82.5715 171.318 83.0684 171.61 83.5696C171.901 84.0713 172.091 84.6422 172.177 85.2845C172.264 85.9267 172.179 86.5918 171.921 87.2798C171.721 87.8153 171.448 88.2679 171.102 88.6396Z" fill="white" />
	<path fill-rule="evenodd" clip-rule="evenodd" d="M156.71 210.229L156.655 210.142C156.585 210.021 156.511 209.903 156.432 209.788L150.244 199.955L141.348 205.186L143.673 207.498H22.5755C19.9383 207.498 17.7083 209.45 17.359 212.064L8.47352 278.553L7.03291 277.12L1.0481 281.403L8.20435 290.311C9.14002 291.727 10.746 292.677 12.599 292.677H142.113C144.75 292.677 146.98 290.725 147.329 288.111L157.306 213.458C157.461 212.294 157.225 211.177 156.706 210.232L156.71 210.229Z" fill="#575C61" />
	<path d="M11.0936 200.465C11.2594 199.225 12.3176 198.299 13.569 198.299H148.663C150.174 198.299 151.338 199.63 151.138 201.127L140.423 281.311C140.257 282.552 139.199 283.478 137.947 283.478H2.85337C1.34266 283.478 0.177849 282.147 0.377958 280.65L11.0936 200.465Z" fill="url(#paint7_linear_297_960)" />
	<mask id="mask2_297_960" style="mask-type:alpha" maskUnits="userSpaceOnUse" x="0" y="198" width="151" height="86">
		<path d="M10.9255 201.723C11.1875 199.763 12.86 198.299 14.8379 198.299H147.006C149.394 198.299 151.235 200.402 150.919 202.769L140.591 280.054C140.329 282.014 138.656 283.478 136.678 283.478H4.50976C2.12208 283.478 0.28109 281.375 0.597363 279.008L10.9255 201.723Z" fill="url(#paint8_linear_297_960)" />
	</mask>
	<g mask="url(#mask2_297_960)">
		<path d="M20.4912 184.361L5.04688 300.387" stroke="black" stroke-opacity="0.07" stroke-width="0.657862" />
		<path d="M35.9365 184.361L20.4922 300.387" stroke="black" stroke-opacity="0.07" stroke-width="0.657862" />
		<path d="M51.3779 184.361L35.9336 300.387" stroke="black" stroke-opacity="0.07" stroke-width="0.657862" />
		<path d="M66.8272 184.361L51.3828 300.387" stroke="black" stroke-opacity="0.07" stroke-width="0.657862" />
		<path d="M82.2686 184.361L66.8242 300.387" stroke="black" stroke-opacity="0.07" stroke-width="0.657862" />
		<path d="M97.71 184.361L82.2656 300.387" stroke="black" stroke-opacity="0.07" stroke-width="0.657862" />
		<path d="M113.159 184.361L97.7148 300.387" stroke="black" stroke-opacity="0.07" stroke-width="0.657862" />
		<path d="M128.605 184.361L113.16 300.387" stroke="black" stroke-opacity="0.07" stroke-width="0.657862" />
		<path d="M144.046 184.361L128.602 300.387" stroke="black" stroke-opacity="0.07" stroke-width="0.657862" />
		<path d="M-24.5038 290.279C-26.6823 281.61 -22.9316 270.799 -11.3204 257.284C-6.33587 255.137 6.68095 254.246 18.9296 268.409C22.8973 272.998 26.7927 274.805 30.5939 274.622C34.364 274.441 37.9037 272.306 41.1867 269.321C44.4761 266.331 47.5739 262.426 50.456 258.59C51.1503 257.667 51.8313 256.748 52.4996 255.846C54.6192 252.987 56.6101 250.301 58.485 248.179C60.7599 245.604 62.9444 244.097 64.9946 243.373C67.0374 242.651 68.9774 242.694 70.7949 243.271C74.4601 244.435 77.667 247.784 80.0828 251.529C81.3249 253.454 83.175 255.726 85.4329 257.508C87.6878 259.286 90.3947 260.61 93.3349 260.545C96.2952 260.48 99.3835 259.01 102.388 255.42C105.384 251.84 108.32 246.129 111.012 237.502C113.134 230.703 116.303 225.926 120.022 222.659C123.74 219.392 128.034 217.613 132.441 216.852C141.196 215.339 150.373 217.852 156.21 220.676C166.123 239.377 176.014 267.068 173.705 289.646C172.55 300.946 168.345 310.921 159.602 317.875C150.851 324.836 137.475 328.835 117.849 328.009C68.5837 325.936 24.6062 321.608 -1.20105 311.042C-14.1133 305.756 -22.3193 298.973 -24.5038 290.279Z" fill="url(#paint9_linear_297_960)" fill-opacity="0.6" stroke="white" stroke-width="1.04799" />
	</g>
	<path d="M70.5734 242.602C70.25 244.284 68.6571 245.37 67.0366 245.059C65.4162 244.747 64.3395 243.148 64.6629 241.466C64.9864 239.783 66.5793 238.697 68.1998 239.008C69.8202 239.32 70.8969 240.919 70.5734 242.602Z" fill="#F7BE2B" stroke="white" stroke-width="1.31572" />
	<g filter="url(#filter0_d_297_960)">
		<path fill-rule="evenodd" clip-rule="evenodd" d="M57.8283 221.322C57.1908 221.322 56.645 221.779 56.533 222.407L55.108 230.396C54.9641 231.202 55.5841 231.942 56.4033 231.942H64.7764L66.3065 234.346C66.7327 235.015 67.6501 235.158 68.2594 234.65L71.504 231.942H80.8489C81.4864 231.942 82.0322 231.485 82.1441 230.858L83.5692 222.869C83.7131 222.063 83.093 221.322 82.2739 221.322H57.8283Z" fill="white" />
	</g>
	<path d="M61.0597 227.927C61.0356 228.088 60.9705 228.24 60.8645 228.383C60.7621 228.522 60.6225 228.638 60.4456 228.731C60.2723 228.821 60.0748 228.874 59.8532 228.889L59.7967 229.266H59.4959L59.5531 228.885C59.2439 228.857 59.0056 228.764 58.8381 228.606C58.6712 228.445 58.605 228.228 58.6396 227.955H59.3447C59.33 228.178 59.4257 228.313 59.6318 228.359L59.765 227.472C59.5478 227.416 59.3744 227.36 59.2449 227.304C59.1154 227.248 59.0098 227.159 58.9281 227.035C58.8464 226.911 58.8216 226.742 58.8537 226.528C58.8941 226.258 59.0242 226.038 59.2441 225.868C59.4671 225.697 59.7355 225.6 60.0494 225.575L60.1059 225.199H60.4067L60.3503 225.575C60.6474 225.6 60.8736 225.69 61.029 225.845C61.1875 226 61.2572 226.213 61.2383 226.486H60.5285C60.5326 226.396 60.5113 226.319 60.4647 226.254C60.4216 226.186 60.3568 226.137 60.2701 226.11L60.1383 226.988C60.3645 227.047 60.5408 227.104 60.6672 227.16C60.7971 227.213 60.903 227.301 60.9846 227.425C61.0668 227.546 61.0918 227.713 61.0597 227.927ZM59.5448 226.495C59.5294 226.598 59.5482 226.681 59.6011 226.746C59.6545 226.808 59.7377 226.86 59.8507 226.9L59.9714 226.096C59.8562 226.111 59.7607 226.153 59.6846 226.221C59.6086 226.289 59.562 226.381 59.5448 226.495ZM59.9313 228.369C60.0536 228.347 60.1532 228.299 60.2302 228.225C60.3103 228.15 60.3582 228.06 60.374 227.955C60.3894 227.853 60.3688 227.771 60.3123 227.709C60.2558 227.647 60.1694 227.595 60.0533 227.555L59.9313 228.369ZM61.9175 226.072L62.0074 225.473H63.1402L62.6319 228.861H61.9551L62.3734 226.072H61.9175ZM64.1245 227.067C63.8353 226.906 63.7161 226.657 63.7667 226.319C63.7918 226.151 63.8569 226 63.962 225.863C64.0706 225.724 64.2172 225.614 64.4016 225.533C64.5896 225.45 64.809 225.408 65.0597 225.408C65.3103 225.408 65.5156 225.45 65.6754 225.533C65.8388 225.614 65.9523 225.724 66.016 225.863C66.0833 226 66.1044 226.151 66.0793 226.319C66.0537 226.489 65.9889 226.639 65.8847 226.77C65.7811 226.897 65.6534 226.996 65.5017 227.067C65.6629 227.142 65.7814 227.25 65.8571 227.393C65.9329 227.535 65.9561 227.704 65.9268 227.899C65.8952 228.11 65.8127 228.294 65.6794 228.452C65.5496 228.607 65.3844 228.727 65.1839 228.81C64.9833 228.894 64.7655 228.936 64.5305 228.936C64.2955 228.936 64.0902 228.894 63.9148 228.81C63.7425 228.727 63.6131 228.607 63.5266 228.452C63.4438 228.294 63.4182 228.11 63.4498 227.899C63.4791 227.704 63.553 227.535 63.6715 227.393C63.7905 227.247 63.9415 227.138 64.1245 227.067ZM65.4261 226.412C65.4489 226.26 65.4195 226.142 65.3381 226.058C65.2597 225.975 65.1407 225.933 64.9809 225.933C64.8242 225.933 64.6926 225.975 64.586 226.058C64.4826 226.142 64.4193 226.261 64.396 226.416C64.3751 226.556 64.4054 226.667 64.4868 226.751C64.5714 226.835 64.6889 226.877 64.8393 226.877C64.9898 226.877 65.1198 226.835 65.2295 226.751C65.3396 226.664 65.4052 226.551 65.4261 226.412ZM64.7682 227.351C64.5896 227.351 64.4372 227.396 64.3109 227.485C64.1877 227.575 64.1136 227.704 64.0885 227.871C64.0653 228.026 64.0995 228.153 64.1912 228.252C64.2864 228.349 64.4265 228.397 64.6114 228.397C64.7962 228.397 64.9494 228.347 65.0708 228.248C65.1922 228.149 65.2643 228.023 65.2871 227.871C65.3117 227.707 65.2759 227.58 65.1797 227.49C65.084 227.397 64.9468 227.351 64.7682 227.351ZM66.563 227.123C66.6434 226.587 66.8035 226.167 67.0434 225.863C67.2863 225.56 67.635 225.408 68.0893 225.408C68.5437 225.408 68.8452 225.56 68.994 225.863C69.1458 226.167 69.1816 226.587 69.1012 227.123C69.0203 227.662 68.8581 228.085 68.6147 228.392C68.3744 228.699 68.0271 228.852 67.5727 228.852C67.1184 228.852 66.8155 228.699 66.6641 228.392C66.5158 228.085 66.4821 227.662 66.563 227.123ZM68.4525 227.123C68.4869 226.894 68.5001 226.701 68.492 226.547C68.4875 226.388 68.4472 226.26 68.3712 226.161C68.2984 226.062 68.1742 226.012 67.9987 226.012C67.8232 226.012 67.6826 226.062 67.5769 226.161C67.4743 226.26 67.3954 226.388 67.3404 226.547C67.289 226.701 67.246 226.894 67.2116 227.123C67.1763 227.358 67.1607 227.557 67.1647 227.718C67.1692 227.876 67.2095 228.005 67.2855 228.104C67.3619 228.2 67.4879 228.248 67.6634 228.248C67.8388 228.248 67.9792 228.2 68.0845 228.104C68.1902 228.005 68.2691 227.876 68.321 227.718C68.3733 227.557 68.4172 227.358 68.4525 227.123ZM69.7027 228.894C69.5836 228.894 69.4902 228.858 69.4226 228.787C69.3585 228.713 69.3346 228.621 69.3509 228.513C69.3672 228.404 69.4182 228.314 69.5041 228.243C69.5936 228.169 69.6979 228.132 69.817 228.132C69.9329 228.132 70.0229 228.169 70.087 228.243C70.1515 228.314 70.1756 228.404 70.1593 228.513C70.1431 228.621 70.0918 228.713 70.0054 228.787C69.9195 228.858 69.8186 228.894 69.7027 228.894ZM70.8226 227.123C70.903 226.587 71.0631 226.167 71.303 225.863C71.5459 225.56 71.8946 225.408 72.349 225.408C72.8033 225.408 73.1049 225.56 73.2536 225.863C73.4054 226.167 73.4412 226.587 73.3608 227.123C73.2799 227.662 73.1177 228.085 72.8743 228.392C72.634 228.699 72.2867 228.852 71.8323 228.852C71.378 228.852 71.0751 228.699 70.9237 228.392C70.7754 228.085 70.7417 227.662 70.8226 227.123ZM72.7121 227.123C72.7465 226.894 72.7597 226.701 72.7516 226.547C72.7471 226.388 72.7068 226.26 72.6308 226.161C72.558 226.062 72.4338 226.012 72.2583 226.012C72.0828 226.012 71.9422 226.062 71.8365 226.161C71.7339 226.26 71.655 226.388 71.6 226.547C71.5486 226.701 71.5057 226.894 71.4713 227.123C71.4359 227.358 71.4203 227.557 71.4243 227.718C71.4288 227.876 71.4691 228.005 71.5451 228.104C71.6215 228.2 71.7475 228.248 71.923 228.248C72.0985 228.248 72.2388 228.2 72.3441 228.104C72.4499 228.005 72.5287 227.876 72.5806 227.718C72.633 227.557 72.6768 227.358 72.7121 227.123ZM73.8613 227.123C73.9417 226.587 74.1018 226.167 74.3416 225.863C74.5846 225.56 74.9332 225.408 75.3876 225.408C75.842 225.408 76.1435 225.56 76.2922 225.863C76.4441 226.167 76.4798 226.587 76.3994 227.123C76.3185 227.662 76.1564 228.085 75.913 228.392C75.6727 228.699 75.3253 228.852 74.871 228.852C74.4166 228.852 74.1138 228.699 73.9624 228.392C73.8141 228.085 73.7804 227.662 73.8613 227.123ZM75.7508 227.123C75.7852 226.894 75.7983 226.701 75.7902 226.547C75.7857 226.388 75.7455 226.26 75.6695 226.161C75.5966 226.062 75.4724 226.012 75.297 226.012C75.1215 226.012 74.9809 226.062 74.8751 226.161C74.7725 226.26 74.6937 226.388 74.6387 226.547C74.5872 226.701 74.5443 226.894 74.5099 227.123C74.4746 227.358 74.4589 227.557 74.463 227.718C74.4675 227.876 74.5077 228.005 74.5837 228.104C74.6602 228.2 74.7861 228.248 74.9616 228.248C75.1371 228.248 75.2775 228.2 75.3828 228.104C75.4885 228.005 75.5673 227.876 75.6192 227.718C75.6716 227.557 75.7155 227.358 75.7508 227.123ZM76.8999 227.123C76.9803 226.587 77.1404 226.167 77.3803 225.863C77.6232 225.56 77.9719 225.408 78.4262 225.408C78.8806 225.408 79.1821 225.56 79.3309 225.863C79.4827 226.167 79.5185 226.587 79.4381 227.123C79.3572 227.662 79.195 228.085 78.9516 228.392C78.7113 228.699 78.364 228.852 77.9096 228.852C77.4553 228.852 77.1524 228.699 77.001 228.392C76.8527 228.085 76.819 227.662 76.8999 227.123ZM78.7894 227.123C78.8238 226.894 78.837 226.701 78.8289 226.547C78.8244 226.388 78.7841 226.26 78.7081 226.161C78.6353 226.062 78.5111 226.012 78.3356 226.012C78.1601 226.012 78.0195 226.062 77.9138 226.161C77.8112 226.26 77.7323 226.388 77.6773 226.547C77.6259 226.701 77.5829 226.894 77.5486 227.123C77.5132 227.358 77.4976 227.557 77.5016 227.718C77.5061 227.876 77.5464 228.005 77.6224 228.104C77.6988 228.2 77.8248 228.248 78.0003 228.248C78.1757 228.248 78.3161 228.2 78.4214 228.104C78.5272 228.005 78.606 227.876 78.6579 227.718C78.7103 227.557 78.7541 227.358 78.7894 227.123Z" fill="#29293E" />
	<path d="M430.432 309.606L463.918 296.478C465.268 295.95 466.791 296.121 467.989 296.936L501.769 319.919C502.897 320.687 503.614 321.953 503.65 323.317C504.732 363.898 470.941 384.984 451.781 391.241C450.466 391.67 449.026 391.397 447.963 390.51C424.932 371.266 423.453 333.799 427.803 312.676C428.092 311.269 429.095 310.13 430.432 309.606Z" fill="#575C61" />
	<path d="M423.569 304.97L457.055 291.843C458.404 291.314 459.927 291.485 461.125 292.3L494.905 315.283C496.034 316.051 496.75 317.317 496.787 318.682C497.869 359.262 464.078 380.349 444.918 386.605C443.602 387.034 442.162 386.761 441.1 385.874C418.069 366.631 416.589 329.164 420.939 308.04C421.229 306.633 422.232 305.494 423.569 304.97Z" fill="url(#paint10_linear_297_960)" />
	<path d="M427.442 308.594L456.984 297.013C458.293 296.5 459.772 296.666 460.935 297.457L490.785 317.766C491.881 318.512 492.577 319.739 492.609 321.064C493.473 357.049 463.581 375.809 446.485 381.448C445.208 381.869 443.812 381.604 442.785 380.738C422.424 363.588 421.063 330.411 424.892 311.573C425.17 310.207 426.144 309.103 427.442 308.594Z" fill="url(#paint11_linear_297_960)" fill-opacity="0.24" />
	<path d="M432.496 310.334L454.661 301.645C457.359 300.587 460.405 300.93 462.801 302.56L485.899 318.275C488.157 319.811 489.615 322.322 489.566 325.052C489.03 354.774 465.209 371.061 449.796 376.899C447.207 377.88 444.291 377.345 442.287 375.435C426.282 360.177 424.557 333.362 427.332 316.493C427.798 313.659 429.822 311.382 432.496 310.334Z" fill="url(#paint12_linear_297_960)" />
	<path fill-rule="evenodd" clip-rule="evenodd" d="M474.133 331.591C475.511 333.392 475.169 335.969 473.368 337.347L455.695 350.875C454.122 352.078 451.914 351.988 450.445 350.659L442.402 343.385C440.72 341.864 440.589 339.267 442.11 337.586C443.631 335.904 446.228 335.773 447.91 337.294L453.418 342.276L468.377 330.827C470.178 329.448 472.755 329.791 474.133 331.591Z" fill="#707A7E" />
	<path fill-rule="evenodd" clip-rule="evenodd" d="M472.766 328.454C474.144 330.255 473.802 332.832 472.001 334.21L454.328 347.737C452.755 348.941 450.547 348.85 449.078 347.522L441.034 340.247C439.353 338.726 439.222 336.13 440.743 334.448C442.264 332.766 444.861 332.636 446.543 334.157L452.051 339.139L467.01 327.689C468.811 326.311 471.388 326.653 472.766 328.454Z" fill="white" />
	<circle cx="292.989" cy="240.967" r="90.6878" fill="url(#paint13_linear_297_960)" />
	<path d="M327.335 216.281C329.318 218.393 331.112 220.676 332.694 223.103C338.082 231.34 340.905 240.989 340.808 250.831C340.71 260.672 337.695 270.264 332.145 278.391C326.594 286.519 318.758 292.818 309.627 296.491C300.496 300.163 290.48 301.045 280.848 299.024V299.002L280.87 298.935C280.88 298.925 280.87 298.913 280.88 298.902C280.869 298.868 280.88 298.858 280.88 298.836L284.768 280.31L301.245 201.619L301.256 201.631C301.555 201.686 301.843 201.753 302.142 201.83C302.818 201.974 303.482 202.151 304.157 202.34C304.789 202.505 305.409 202.682 306.029 202.881C306.947 203.159 307.864 203.48 308.753 203.834C309.162 203.978 309.561 204.133 309.949 204.299C310.536 204.531 311.089 204.775 311.665 205.041C312.087 205.218 312.496 205.434 312.906 205.639C313.227 205.783 313.536 205.939 313.857 206.104C315.099 206.746 316.316 207.433 317.513 208.187C321.127 210.444 324.429 213.165 327.335 216.281Z" fill="#191B1F" />
	<g style="mix-blend-mode:multiply" opacity="0.16">
		<g style="mix-blend-mode:multiply" opacity="0.16">
			<path d="M317.509 208.183L280.844 299.02L301.241 201.615C307.01 202.823 312.518 205.047 317.509 208.183Z" fill="black" />
		</g>
	</g>
	<path d="M305.184 182.89V182.912C305.174 182.923 305.184 182.957 305.162 182.978C305.17 183.011 305.166 183.046 305.152 183.078L301.264 201.627L284.776 280.306C284.466 280.239 284.177 280.175 283.879 280.095C271.313 277.253 260.352 269.621 253.326 258.823C252.397 257.398 251.539 255.927 250.757 254.415C250.757 254.415 250.746 254.381 250.725 254.337C250.68 254.275 250.643 254.208 250.613 254.138C246.407 245.873 244.595 236.596 245.383 227.356C246.171 218.116 249.526 209.28 255.071 201.847C260.616 194.413 268.129 188.678 276.761 185.289C285.393 181.9 294.801 180.993 303.922 182.669C303.967 182.669 303.999 182.679 304.022 182.679C304.41 182.735 304.798 182.813 305.184 182.89Z" fill="#191B1F" />
	<g style="mix-blend-mode:multiply" opacity="0.25">
		<g style="mix-blend-mode:multiply" opacity="0.25">
			<path d="M302.139 201.826C301.222 207.175 300.091 213.332 298.817 219.921C298.154 223.329 297.5 226.867 296.758 230.44C296.016 234.013 295.285 237.649 294.543 241.271C293.768 244.903 292.982 248.524 292.218 252.101C291.431 255.655 290.645 259.165 289.893 262.555C288.353 269.342 286.869 275.661 285.518 281.058C284.207 286.462 282.982 290.947 282.185 294.092C281.465 296.845 280.978 298.549 280.868 298.931C280.859 298.898 280.863 298.863 280.878 298.832L301.243 201.615C301.542 201.672 301.84 201.749 302.139 201.826Z" fill="black" />
		</g>
	</g>
	<path d="M305.158 182.982C305.166 183.016 305.162 183.051 305.148 183.082L284.773 280.31C284.462 280.244 284.174 280.179 283.875 280.099C284.806 274.762 285.935 268.583 287.208 261.994C287.872 258.587 288.559 255.062 289.268 251.474C290 247.909 290.741 244.265 291.483 240.644C292.258 237.012 293.044 233.391 293.808 229.814C294.55 226.237 295.381 222.749 296.133 219.361C297.662 212.583 299.157 206.261 300.496 200.845C301.807 195.441 303.044 190.967 303.841 187.823C304.561 185.065 305.048 183.36 305.158 182.982Z" fill="white" />
	<g style="mix-blend-mode:screen" opacity="0.25">
		<g style="mix-blend-mode:screen" opacity="0.25">
			<path d="M321.697 219.463C323.857 221.606 325.779 223.974 327.432 226.528C330.569 231.305 332.732 236.653 333.797 242.268C334.862 247.882 334.807 253.651 333.636 259.244C332.465 264.838 330.201 270.144 326.974 274.86C323.747 279.576 319.62 283.608 314.83 286.725C306.999 291.889 297.693 294.351 288.332 293.737L288.442 293.212L321.697 219.463Z" fill="#191B1F" />
		</g>
	</g>
	<g style="mix-blend-mode:screen" opacity="0.25">
		<g style="mix-blend-mode:screen" opacity="0.25">
			<path d="M297.677 188.17L297.455 189.211L258.886 255.886C258.776 255.731 258.654 255.565 258.554 255.399C255.42 250.619 253.259 245.267 252.197 239.65C251.136 234.033 251.193 228.262 252.366 222.667C253.539 217.072 255.805 211.764 259.034 207.047C262.263 202.33 266.391 198.297 271.182 195.178C279.017 190.024 288.318 187.564 297.677 188.17Z" fill="#191B1F" />
		</g>
	</g>
	<g style="mix-blend-mode:multiply" opacity="0.16">
		<g style="mix-blend-mode:multiply" opacity="0.16">
			<path d="M327.331 216.275C329.314 218.387 331.108 220.67 332.69 223.097C338.078 231.334 340.901 240.983 340.804 250.825C340.706 260.666 337.691 270.258 332.141 278.386C326.59 286.513 318.754 292.812 309.623 296.485C300.492 300.158 290.476 301.039 280.844 299.019C283.439 299.373 286.053 299.569 288.672 299.606C293.855 299.598 299.008 298.825 303.965 297.313C308.876 295.818 313.527 293.573 317.753 290.658L320.808 288.354C321.856 287.612 322.724 286.661 323.691 285.83L325.098 284.533L326.382 283.117C327.259 282.2 328.083 281.236 328.851 280.227L331.111 277.148L333.06 273.871C333.757 272.797 334.212 271.59 334.799 270.472C335.369 269.334 335.858 268.157 336.26 266.95C337.157 264.567 337.871 262.12 338.398 259.63L339.053 255.854C339.184 254.592 339.264 253.318 339.364 252.045C339.444 250.77 339.459 249.49 339.408 248.213L339.386 246.286L339.175 244.392C338.921 241.837 338.489 239.303 337.88 236.808L336.75 233.109C336.407 231.858 335.809 230.728 335.354 229.521C335.111 228.923 334.889 228.325 334.623 227.726L333.706 225.989C333.075 224.847 332.526 223.607 331.834 222.544C330.465 220.363 328.961 218.269 327.331 216.275Z" fill="black" />
		</g>
	</g>
	<g style="mix-blend-mode:screen" opacity="0.7">
		<g style="mix-blend-mode:screen" opacity="0.7">
			<path d="M303.914 182.662C303.715 182.64 303.404 182.617 302.997 182.585C302.199 182.473 300.993 182.441 299.486 182.329C297.673 182.268 295.858 182.302 294.049 182.43C288.967 182.783 283.96 183.856 279.18 185.619C276.337 186.701 273.592 188.023 270.974 189.572C270.299 189.965 269.59 190.447 268.893 190.882C268.251 191.276 267.608 191.835 266.954 192.289C266.299 192.787 265.659 193.274 264.988 193.762C264.333 194.286 263.749 194.847 263.117 195.39C262.507 195.955 261.865 196.485 261.267 197.062L259.551 198.911C258.397 200.132 257.325 201.427 256.34 202.787C255.811 203.437 255.327 204.121 254.889 204.835L253.505 206.951C252.653 208.379 251.921 209.908 251.145 211.369C250.536 212.908 249.805 214.393 249.284 215.931C249.03 216.695 248.786 217.471 248.531 218.234L248.155 219.386L247.892 220.538C247.561 222.089 247.128 223.583 246.951 225.111C246.693 226.585 246.523 228.073 246.443 229.567C246.324 230.981 246.286 232.401 246.331 233.819C246.315 235.147 246.378 236.475 246.52 237.795C246.664 239.068 246.807 240.297 246.941 241.449C247.173 242.612 247.384 243.687 247.583 244.726C248.004 246.763 248.632 248.48 249.025 249.953C249.988 252.443 250.587 253.995 250.709 254.337C250.73 254.381 250.742 254.416 250.742 254.416C250.742 254.416 250.687 254.316 250.598 254.138C246.391 245.873 244.58 236.596 245.367 227.356C246.155 218.116 249.511 209.28 255.055 201.847C260.6 194.413 268.113 188.678 276.745 185.289C285.377 181.9 294.785 180.993 303.906 182.669L303.914 182.662Z" fill="#191B1F" />
		</g>
	</g>
	<path d="M209.879 355.221C209.719 352.803 207.624 350.842 205.201 350.842C202.777 350.842 200.942 352.803 201.102 355.221C201.21 356.843 202.187 358.259 203.551 359.016L204.108 367.427C204.829 367.388 205.555 367.368 206.288 367.368C207.028 367.368 207.764 367.388 208.497 367.428L207.939 359.012C209.199 358.255 209.987 356.84 209.879 355.221Z" fill="#434A4C" />
	<path fill-rule="evenodd" clip-rule="evenodd" d="M233.396 377.449C234.551 378.423 235.656 379.457 236.705 380.545L239.418 377.646C240.305 378.057 241.284 378.287 242.301 378.287C245.936 378.287 248.688 375.346 248.448 371.718C248.208 368.091 245.066 365.15 241.43 365.15C237.795 365.15 235.042 368.091 235.283 371.718C235.35 372.732 235.643 373.692 236.111 374.549L233.396 377.449ZM241.72 369.529C242.932 369.529 243.98 370.509 244.06 371.718C244.14 372.928 243.222 373.908 242.01 373.908C240.799 373.908 239.751 372.928 239.671 371.718C239.591 370.509 240.509 369.529 241.72 369.529Z" fill="#434A4C" />
	<path d="M248.353 404.739C248.44 405.465 248.509 406.195 248.558 406.93C248.606 407.664 248.635 408.394 248.643 409.118H257.077C257.923 410.425 259.398 411.305 261.022 411.305C263.445 411.305 265.28 409.344 265.12 406.926C264.96 404.508 262.865 402.547 260.441 402.547C258.816 402.547 257.455 403.429 256.784 404.739H248.353Z" fill="#434A4C" />
	<path fill-rule="evenodd" clip-rule="evenodd" d="M240.204 433.311C239.299 434.399 238.332 435.433 237.306 436.408L240.181 439.098C239.948 439.828 239.847 440.621 239.902 441.45C240.142 445.077 243.284 448.018 246.92 448.018C250.555 448.018 253.308 445.077 253.067 441.45C252.827 437.822 249.685 434.881 246.05 434.881C244.852 434.881 243.75 435.201 242.819 435.759L240.204 433.311ZM246.34 439.26C245.128 439.26 244.21 440.241 244.291 441.45C244.371 442.659 245.418 443.639 246.63 443.639C247.842 443.639 248.759 442.659 248.679 441.45C248.599 440.241 247.552 439.26 246.34 439.26Z" fill="#434A4C" />
	<path d="M213.73 446.432C213.003 446.472 212.269 446.492 211.53 446.492C210.797 446.492 210.067 446.472 209.342 446.433L209.899 454.839C208.635 455.596 207.846 457.012 207.953 458.634C208.113 461.052 210.208 463.013 212.631 463.013C215.055 463.013 216.89 461.052 216.73 458.634C216.623 457.014 215.648 455.6 214.287 454.842L213.73 446.432Z" fill="#434A4C" />
	<path fill-rule="evenodd" clip-rule="evenodd" d="M184.418 436.408C183.263 435.433 182.158 434.399 181.11 433.311C180.339 434.135 179.575 434.951 178.82 435.758C177.816 435.2 176.672 434.881 175.475 434.881C171.839 434.881 169.087 437.822 169.327 441.45C169.568 445.077 172.709 448.018 176.345 448.018C179.98 448.018 182.733 445.077 182.493 441.45C182.438 440.62 182.231 439.827 181.901 439.096C182.73 438.211 183.569 437.314 184.418 436.408ZM178.104 441.45C178.024 440.241 176.977 439.26 175.765 439.26C174.553 439.26 173.636 440.241 173.716 441.45C173.796 442.659 174.843 443.639 176.055 443.639C177.267 443.639 178.184 442.659 178.104 441.45Z" fill="#434A4C" />
	<path d="M169.465 409.118C169.377 408.394 169.309 407.664 169.26 406.93C169.212 406.195 169.183 405.465 169.175 404.739H160.75C159.905 403.429 158.427 402.547 156.802 402.547C154.378 402.547 152.543 404.508 152.704 406.926C152.864 409.344 154.958 411.305 157.382 411.305C159.005 411.305 160.364 410.425 161.037 409.118H169.465Z" fill="#434A4C" />
	<path fill-rule="evenodd" clip-rule="evenodd" d="M177.619 380.544C178.523 379.456 179.491 378.422 180.517 377.448L177.42 374.549C177.774 373.692 177.94 372.732 177.873 371.718C177.633 368.091 174.491 365.15 170.855 365.15C167.22 365.15 164.468 368.091 164.708 371.718C164.948 375.346 168.09 378.287 171.726 378.287C172.743 378.287 173.69 378.057 174.523 377.646L177.619 380.544ZM169.096 371.718C169.016 370.509 169.934 369.529 171.146 369.529C172.357 369.529 173.405 370.509 173.485 371.718C173.565 372.928 172.647 373.908 171.436 373.908C170.224 373.908 169.176 372.928 169.096 371.718Z" fill="#434A4C" />
	<path d="M211.004 354.057C210.844 351.638 208.749 349.678 206.326 349.678C203.902 349.678 202.067 351.638 202.227 354.057C202.335 355.679 203.312 357.095 204.676 357.851L205.233 366.263C205.954 366.224 206.68 366.204 207.413 366.204C208.153 366.204 208.889 366.224 209.622 366.264L209.064 357.848C210.324 357.091 211.112 355.676 211.004 354.057Z" fill="#989C9F" />
	<path fill-rule="evenodd" clip-rule="evenodd" d="M234.521 376.285C235.676 377.259 236.781 378.293 237.83 379.381L240.543 376.482C241.43 376.893 242.409 377.123 243.426 377.123C247.061 377.123 249.813 374.182 249.573 370.554C249.333 366.927 246.191 363.986 242.555 363.986C238.92 363.986 236.167 366.927 236.408 370.554C236.475 371.568 236.768 372.528 237.236 373.385L234.521 376.285ZM242.845 368.365C244.057 368.365 245.105 369.345 245.185 370.554C245.265 371.764 244.347 372.744 243.135 372.744C241.924 372.744 240.876 371.764 240.796 370.554C240.716 369.345 241.634 368.365 242.845 368.365Z" fill="#989C9F" />
	<path d="M249.478 403.575C249.565 404.3 249.634 405.031 249.683 405.766C249.731 406.5 249.76 407.23 249.768 407.954H258.202C259.048 409.261 260.523 410.141 262.147 410.141C264.57 410.141 266.405 408.18 266.245 405.762C266.085 403.343 263.99 401.383 261.566 401.383C259.941 401.383 258.58 402.265 257.909 403.575H249.478Z" fill="#989C9F" />
	<path fill-rule="evenodd" clip-rule="evenodd" d="M241.329 432.147C240.424 433.235 239.457 434.269 238.431 435.244L241.306 437.934C241.073 438.664 240.972 439.457 241.027 440.286C241.267 443.913 244.409 446.854 248.045 446.854C251.68 446.854 254.433 443.913 254.192 440.286C253.952 436.658 250.81 433.717 247.175 433.717C245.977 433.717 244.875 434.037 243.944 434.595L241.329 432.147ZM247.465 438.096C246.253 438.096 245.335 439.076 245.416 440.286C245.496 441.495 246.543 442.475 247.755 442.475C248.967 442.475 249.884 441.495 249.804 440.286C249.724 439.076 248.677 438.096 247.465 438.096Z" fill="#989C9F" />
	<path d="M214.855 445.268C214.128 445.308 213.394 445.328 212.655 445.328C211.922 445.328 211.192 445.308 210.467 445.269L211.024 453.675C209.76 454.432 208.971 455.848 209.078 457.47C209.238 459.888 211.333 461.849 213.756 461.849C216.18 461.849 218.015 459.888 217.855 457.47C217.748 455.85 216.773 454.436 215.412 453.678L214.855 445.268Z" fill="#989C9F" />
	<path fill-rule="evenodd" clip-rule="evenodd" d="M185.543 435.244C184.388 434.269 183.283 433.235 182.235 432.147C181.464 432.971 180.7 433.787 179.945 434.594C178.941 434.036 177.797 433.717 176.6 433.717C172.964 433.717 170.212 436.658 170.452 440.286C170.693 443.913 173.834 446.854 177.47 446.854C181.105 446.854 183.858 443.913 183.618 440.286C183.563 439.456 183.356 438.663 183.026 437.932C183.855 437.047 184.694 436.15 185.543 435.244ZM179.229 440.286C179.149 439.076 178.102 438.096 176.89 438.096C175.678 438.096 174.761 439.076 174.841 440.286C174.921 441.495 175.968 442.475 177.18 442.475C178.392 442.475 179.309 441.495 179.229 440.286Z" fill="#989C9F" />
	<path d="M170.59 407.954C170.502 407.23 170.434 406.5 170.385 405.766C170.337 405.031 170.308 404.3 170.3 403.575H161.875C161.03 402.265 159.552 401.383 157.927 401.383C155.503 401.383 153.668 403.343 153.829 405.762C153.989 408.18 156.083 410.141 158.507 410.141C160.13 410.141 161.489 409.261 162.162 407.954H170.59Z" fill="#989C9F" />
	<path fill-rule="evenodd" clip-rule="evenodd" d="M178.744 379.38C179.648 378.292 180.616 377.258 181.642 376.284L178.545 373.385C178.899 372.528 179.065 371.568 178.998 370.554C178.758 366.927 175.616 363.986 171.98 363.986C168.345 363.986 165.593 366.927 165.833 370.554C166.073 374.182 169.215 377.123 172.851 377.123C173.868 377.123 174.815 376.893 175.648 376.482L178.744 379.38ZM170.221 370.554C170.141 369.345 171.059 368.365 172.271 368.365C173.482 368.365 174.53 369.345 174.61 370.554C174.69 371.764 173.772 372.744 172.561 372.744C171.349 372.744 170.301 371.764 170.221 370.554Z" fill="#989C9F" />
	<mask id="mask3_297_960" style="mask-type:alpha" maskUnits="userSpaceOnUse" x="153" y="349" width="114" height="113">
		<path d="M211.012 354.057C210.852 351.638 208.757 349.678 206.334 349.678C203.91 349.678 202.075 351.638 202.235 354.057C202.343 355.679 203.32 357.095 204.684 357.851L205.241 366.263C205.961 366.224 206.688 366.204 207.421 366.204C208.161 366.204 208.897 366.224 209.629 366.264L209.072 357.848C210.332 357.091 211.119 355.676 211.012 354.057Z" fill="#989C9F" />
		<path fill-rule="evenodd" clip-rule="evenodd" d="M234.529 376.285C235.684 377.259 236.789 378.293 237.837 379.381L240.551 376.482C241.438 376.893 242.416 377.123 243.433 377.123C247.069 377.123 249.821 374.182 249.581 370.554C249.341 366.927 246.199 363.986 242.563 363.986C238.928 363.986 236.175 366.927 236.416 370.554C236.483 371.568 236.776 372.528 237.244 373.385L234.529 376.285ZM242.853 368.365C244.065 368.365 245.112 369.345 245.192 370.554C245.273 371.764 244.355 372.744 243.143 372.744C241.931 372.744 240.884 371.764 240.804 370.554C240.724 369.345 241.641 368.365 242.853 368.365Z" fill="#989C9F" />
		<path d="M249.486 403.575C249.573 404.3 249.642 405.031 249.69 405.766C249.739 406.5 249.767 407.23 249.776 407.954H258.21C259.056 409.261 260.531 410.141 262.154 410.141C264.578 410.141 266.413 408.18 266.253 405.762C266.093 403.343 263.998 401.383 261.574 401.383C259.949 401.383 258.588 402.265 257.916 403.575H249.486Z" fill="#989C9F" />
		<path fill-rule="evenodd" clip-rule="evenodd" d="M241.336 432.147C240.432 433.235 239.465 434.269 238.439 435.244L241.314 437.934C241.081 438.664 240.98 439.457 241.035 440.286C241.275 443.913 244.417 446.854 248.053 446.854C251.688 446.854 254.441 443.913 254.2 440.286C253.96 436.658 250.818 433.717 247.182 433.717C245.984 433.717 244.882 434.037 243.952 434.595L241.336 432.147ZM247.473 438.096C246.261 438.096 245.343 439.076 245.423 440.286C245.503 441.495 246.551 442.475 247.763 442.475C248.974 442.475 249.892 441.495 249.812 440.286C249.732 439.076 248.684 438.096 247.473 438.096Z" fill="#989C9F" />
		<path d="M214.863 445.268C214.136 445.308 213.402 445.328 212.663 445.328C211.93 445.328 211.2 445.308 210.475 445.269L211.031 453.675C209.768 454.432 208.978 455.848 209.086 457.47C209.246 459.888 211.341 461.849 213.764 461.849C216.188 461.849 218.023 459.888 217.863 457.47C217.755 455.85 216.78 454.436 215.42 453.678L214.863 445.268Z" fill="#989C9F" />
		<path fill-rule="evenodd" clip-rule="evenodd" d="M185.55 435.244C184.396 434.269 183.291 433.235 182.242 432.147C181.471 432.971 180.708 433.787 179.953 434.594C178.949 434.036 177.805 433.717 176.608 433.717C172.972 433.717 170.22 436.658 170.46 440.286C170.7 443.913 173.842 446.854 177.478 446.854C181.113 446.854 183.866 443.913 183.625 440.286C183.57 439.456 183.364 438.663 183.034 437.932C183.863 437.047 184.702 436.15 185.55 435.244ZM179.237 440.286C179.157 439.076 178.109 438.096 176.898 438.096C175.686 438.096 174.768 439.076 174.848 440.286C174.929 441.495 175.976 442.475 177.188 442.475C178.4 442.475 179.317 441.495 179.237 440.286Z" fill="#989C9F" />
		<path d="M170.598 407.954C170.51 407.23 170.442 406.5 170.393 405.766C170.345 405.031 170.316 404.3 170.308 403.575H161.883C161.038 402.265 159.56 401.383 157.935 401.383C155.511 401.383 153.676 403.343 153.836 405.762C153.997 408.18 156.091 410.141 158.515 410.141C160.138 410.141 161.497 409.261 162.17 407.954H170.598Z" fill="#989C9F" />
		<path fill-rule="evenodd" clip-rule="evenodd" d="M178.752 379.38C179.656 378.292 180.624 377.258 181.65 376.284L178.553 373.385C178.907 372.528 179.073 371.568 179.006 370.554C178.766 366.927 175.624 363.986 171.988 363.986C168.353 363.986 165.6 366.927 165.841 370.554C166.081 374.182 169.223 377.123 172.858 377.123C173.875 377.123 174.823 376.893 175.656 376.482L178.752 379.38ZM170.229 370.554C170.149 369.345 171.067 368.365 172.278 368.365C173.49 368.365 174.537 369.345 174.618 370.554C174.698 371.764 173.78 372.744 172.568 372.744C171.357 372.744 170.309 371.764 170.229 370.554Z" fill="#989C9F" />
	</mask>
	<g mask="url(#mask3_297_960)">
		<rect width="25.3161" height="17.6537" transform="matrix(1 0 0.0660997 0.997813 146.973 396.842)" fill="#707A7E" />
		<rect width="25.3161" height="17.6537" transform="matrix(1 0 0.0660997 0.997813 246.754 396.842)" fill="#707A7E" />
		<rect width="25.3161" height="17.6537" transform="matrix(-0.0660997 -0.997813 1 0 199.859 367.631)" fill="#707A7E" />
		<rect width="25.3161" height="17.6537" transform="matrix(-0.0660997 -0.997813 1 0 206.508 468.061)" fill="#707A7E" />
	</g>
	<circle r="35.2876" transform="matrix(1 0 0.0660997 0.997813 206.561 409.244)" fill="url(#paint14_linear_297_960)" />
	<circle r="35.2876" transform="matrix(1 0 0.0660997 0.997813 210.042 405.771)" fill="url(#paint15_linear_297_960)" />
	<circle r="25.2104" transform="matrix(1 0 0.0660997 0.997813 210.044 405.767)" fill="url(#paint16_linear_297_960)" stroke="url(#paint17_linear_297_960)" stroke-width="2.49742" />
	<path d="M204.109 414.784H201.242L194.101 404.996L194.75 414.784H191.883L190.936 400.5H193.803L200.945 410.309L200.295 400.5H203.163L204.109 414.784ZM214.824 400.521L214.977 402.83H209.017L209.26 406.487H213.827L213.977 408.756H209.41L209.809 414.784H206.942L205.997 400.521H214.824ZM226.585 400.521L226.738 402.83H222.928L223.72 414.784H220.853L220.061 402.83H216.252L216.099 400.521H226.585Z" fill="#707A7E" />
	<path d="M205.171 413.382H202.304L195.164 403.593L195.812 413.382H192.945L191.999 399.098H194.866L202.008 408.906L201.358 399.098H204.225L205.171 413.382ZM215.886 399.118L216.039 401.427H210.08L210.322 405.085H214.889L215.039 407.353H210.472L210.872 413.382H208.005L207.06 399.118H215.886ZM227.647 399.118L227.8 401.427H223.991L224.783 413.382H221.916L221.124 401.427H217.315L217.162 399.118H227.647Z" fill="white" />
	<defs>
		<filter id="filter0_d_297_960" x="47.1928" y="218.691" width="44.2916" height="29.4215" filterUnits="userSpaceOnUse" color-interpolation-filters="sRGB">
			<feFlood flood-opacity="0" result="BackgroundImageFix" />
			<feColorMatrix in="SourceAlpha" type="matrix" values="0 0 0 0 0 0 0 0 0 0 0 0 0 0 0 0 0 0 127 0" result="hardAlpha" />
			<feOffset dy="5.2629" />
			<feGaussianBlur stdDeviation="3.94718" />
			<feComposite in2="hardAlpha" operator="out" />
			<feColorMatrix type="matrix" values="0 0 0 0 0.629065 0 0 0 0 0.629065 0 0 0 0 0.629065 0 0 0 0.18 0" />
			<feBlend mode="normal" in2="BackgroundImageFix" result="effect1_dropShadow_297_960" />
			<feBlend mode="normal" in="SourceGraphic" in2="effect1_dropShadow_297_960" result="shape" />
		</filter>
		<linearGradient id="paint0_linear_297_960" x1="1.90901" y1="-5.63311" x2="17.0242" y2="17.457" gradientUnits="userSpaceOnUse">
			<stop stop-color="#FFEF00" />
			<stop offset="1" stop-color="#FFB900" />
		</linearGradient>
		<linearGradient id="paint1_linear_297_960" x1="-120.993" y1="-80.6309" x2="60.9753" y2="-44.9993" gradientUnits="userSpaceOnUse">
			<stop stop-opacity="0.28" />
			<stop offset="1" stop-opacity="0" />
			<stop offset="1" stop-opacity="0" />
		</linearGradient>
		<linearGradient id="paint2_linear_297_960" x1="32.6019" y1="-11.2697" x2="20.4949" y2="57.3052" gradientUnits="userSpaceOnUse">
			<stop stop-color="white" />
			<stop offset="1" stop-color="white" stop-opacity="0" />
		</linearGradient>
		<linearGradient id="paint3_linear_297_960" x1="170.276" y1="33.9996" x2="170.276" y2="127.763" gradientUnits="userSpaceOnUse">
			<stop stop-color="#859299" />
			<stop offset="1" stop-color="#4A5056" />
		</linearGradient>
		<linearGradient id="paint4_linear_297_960" x1="165.879" y1="30.6963" x2="165.879" y2="124.656" gradientUnits="userSpaceOnUse">
			<stop stop-color="#B9C4C9" />
			<stop offset="1" stop-color="#6A747D" />
		</linearGradient>
		<linearGradient id="paint5_linear_297_960" x1="180.363" y1="44.0186" x2="110.45" y2="83.2476" gradientUnits="userSpaceOnUse">
			<stop stop-color="#AFB7BB" />
			<stop offset="1" stop-color="#575F67" />
		</linearGradient>
		<linearGradient id="paint6_linear_297_960" x1="249.398" y1="23.588" x2="133.549" y2="66.6365" gradientUnits="userSpaceOnUse">
			<stop offset="0.537867" stop-color="#8B969B" stop-opacity="0.26" />
			<stop offset="1" stop-color="#545C63" />
		</linearGradient>
		<linearGradient id="paint7_linear_297_960" x1="92.6094" y1="183.47" x2="102.8" y2="270.424" gradientUnits="userSpaceOnUse">
			<stop stop-color="#B9C3C9" />
			<stop offset="1" stop-color="#6B757E" />
		</linearGradient>
		<linearGradient id="paint8_linear_297_960" x1="66.2599" y1="118.092" x2="38.4329" y2="290.473" gradientUnits="userSpaceOnUse">
			<stop offset="0.117185" stop-color="#F7E806" />
			<stop offset="1" stop-color="#A6DD3F" />
		</linearGradient>
		<linearGradient id="paint9_linear_297_960" x1="40.8473" y1="238.169" x2="49.4855" y2="323.354" gradientUnits="userSpaceOnUse">
			<stop stop-color="white" />
			<stop offset="1" stop-opacity="0.33" />
		</linearGradient>
		<linearGradient id="paint10_linear_297_960" x1="466.56" y1="274.241" x2="417.116" y2="356.982" gradientUnits="userSpaceOnUse">
			<stop stop-color="#B9C3C9" />
			<stop offset="1" stop-color="#6B757E" />
		</linearGradient>
		<linearGradient id="paint11_linear_297_960" x1="544.666" y1="375.281" x2="426.003" y2="304.134" gradientUnits="userSpaceOnUse">
			<stop />
			<stop offset="1" stop-opacity="0" />
		</linearGradient>
		<linearGradient id="paint12_linear_297_960" x1="444.525" y1="283.075" x2="422.46" y2="371.15" gradientUnits="userSpaceOnUse">
			<stop stop-color="#B9C3C9" />
			<stop offset="1" stop-color="#6B757E" />
		</linearGradient>
		<linearGradient id="paint13_linear_297_960" x1="313.161" y1="118.703" x2="230.28" y2="290.261" gradientUnits="userSpaceOnUse">
			<stop stop-color="#B9C3C9" />
			<stop offset="1" stop-color="#6B757E" />
		</linearGradient>
		<linearGradient id="paint14_linear_297_960" x1="35.2876" y1="0" x2="35.2876" y2="70.5751" gradientUnits="userSpaceOnUse">
			<stop stop-color="#859299" />
			<stop offset="1" stop-color="#4A5056" />
		</linearGradient>
		<linearGradient id="paint15_linear_297_960" x1="35.2876" y1="0" x2="35.2876" y2="70.5751" gradientUnits="userSpaceOnUse">
			<stop stop-color="#B9C4C9" />
			<stop offset="1" stop-color="#6A747D" />
		</linearGradient>
		<linearGradient id="paint16_linear_297_960" x1="21.7565" y1="2.61351" x2="-0.789094" y2="52.1518" gradientUnits="userSpaceOnUse">
			<stop stop-color="#AFB7BB" />
			<stop offset="1" stop-color="#575F67" />
		</linearGradient>
		<linearGradient id="paint17_linear_297_960" x1="57.446" y1="-33.5103" x2="11.1518" y2="38.3775" gradientUnits="userSpaceOnUse">
			<stop offset="0.537867" stop-color="#8B969B" stop-opacity="0.26" />
			<stop offset="1" stop-color="#545C63" />
		</linearGradient>
	</defs>
</svg>
