<svg width="760" height="666" viewBox="0 0 760 666" fill="none" xmlns="http://www.w3.org/2000/svg">
	<g filter="url(#filter0_f_298_2694)">
		<circle cx="314" cy="160" r="40" fill="white" fill-opacity="0.28" />
	</g>
	<g filter="url(#filter1_f_298_2694)">
		<circle cx="160" cy="319" r="40" fill="white" fill-opacity="0.28" />
	</g>
	<g filter="url(#filter2_f_298_2694)">
		<circle cx="349" cy="498" r="40" fill="white" fill-opacity="0.28" />
	</g>
	<g filter="url(#filter3_f_298_2694)">
		<circle cx="600" cy="428" r="40" fill="white" fill-opacity="0.28" />
	</g>
	<g filter="url(#filter4_f_298_2694)">
		<circle cx="548" cy="249" r="40" fill="white" fill-opacity="0.28" />
	</g>
	<circle cx="416.998" cy="359.969" r="190.857" stroke="white" stroke-opacity="0.7" stroke-width="4" />
	<path d="M526.184 479.043C510.547 493.382 492.238 504.5 472.304 511.763C452.371 519.026 431.201 522.291 410.005 521.373" stroke="white" stroke-opacity="0.1" stroke-width="4" stroke-linecap="round" />
	<path d="M278.397 276.96C297.734 244.674 327.735 220.151 363.223 207.624C398.711 195.098 437.458 195.354 472.778 208.347" stroke="white" stroke-opacity="0.1" stroke-width="4" stroke-linecap="round" />
	<path d="M429.87 583.819C383.323 586.496 337.099 574.596 297.631 549.775C258.163 524.955 227.414 488.449 209.662 445.337" stroke="white" stroke-opacity="0.28" stroke-width="4" stroke-linecap="round" />
	<path d="M399.852 136.397C432.094 133.924 464.489 138.455 494.816 149.677C525.142 160.9 552.683 178.549 575.548 201.414" stroke="white" stroke-opacity="0.28" stroke-width="4" stroke-linecap="round" />
	<rect width="131.364" height="81.3794" rx="3.76181" transform="matrix(0.996917 0.0784591 -0.213371 0.976971 532.363 231)" fill="#989C9F" />
	<rect width="43.552" height="4.16122" rx="2.08061" transform="matrix(0.996917 0.0784591 -0.213371 0.976971 543.244 245.643)" fill="white" />
	<rect width="28.3857" height="4.16122" rx="2.08061" transform="matrix(0.996917 0.0784591 -0.213371 0.976971 541.768 252.411)" fill="white" fill-opacity="0.7" />
	<rect width="16.4655" height="4.16122" rx="2.08061" transform="matrix(0.996917 0.0784591 -0.213371 0.976971 532.821 293.383)" fill="white" fill-opacity="0.7" />
	<rect width="16.4655" height="4.16122" rx="2.08061" transform="matrix(0.996917 0.0784591 -0.213371 0.976971 551.998 294.901)" fill="white" fill-opacity="0.7" />
	<rect width="16.4655" height="4.16122" rx="2.08061" transform="matrix(0.996917 0.0784591 -0.213371 0.976971 571.18 296.402)" fill="white" fill-opacity="0.7" />
	<rect width="14.1837" height="14.1837" rx="1.25394" transform="matrix(0.996917 0.0784591 -0.213371 0.976971 539.099 264.616)" fill="url(#paint0_linear_298_2694)" />
	<mask id="mask0_298_2694" style="mask-type:alpha" maskUnits="userSpaceOnUse" x="536" y="264" width="17" height="16">
		<rect width="14.1837" height="14.1837" rx="1.57597" transform="matrix(0.996917 0.0784591 -0.213371 0.976971 539.1 264.617)" fill="#EDE910" />
	</mask>
	<g mask="url(#mask0_298_2694)">
		<path d="M542.979 261.458L538.463 282.132" stroke="#FFB801" stroke-width="0.630387" />
		<path d="M546.919 261.766L545.107 270.063M542.404 282.441L544.232 274.071" stroke="#FFB801" stroke-width="0.630387" />
		<path d="M550.845 262.07L546.329 282.744" stroke="#FFB801" stroke-width="0.630387" />
		<path d="M534.309 273.236L555.405 274.896" stroke="#FFB801" stroke-width="0.630387" />
		<path d="M534.902 269.366L555.999 271.027" stroke="#FFB801" stroke-width="0.630387" />
		<path d="M556.691 267.83L545.746 266.969" stroke="#FFB801" stroke-width="0.630387" />
		<path d="M533.369 276.403L543.545 277.204" stroke="#FFB801" stroke-width="0.630387" />
	</g>
	<mask id="mask1_298_2694" style="mask-type:alpha" maskUnits="userSpaceOnUse" x="515" y="231" width="148" height="90">
		<rect width="131.365" height="81.3803" rx="3.76514" transform="matrix(0.996917 0.0784591 -0.213371 0.976971 532.363 231)" fill="#989C9F" />
	</mask>
	<g mask="url(#mask1_298_2694)">
		<circle r="37.793" transform="matrix(0.996917 0.0784591 -0.213371 0.976971 629.692 303.834)" fill="url(#paint1_linear_298_2694)" />
		<circle r="37.4463" transform="matrix(0.996917 0.0784591 -0.213371 0.976971 647.078 293.439)" stroke="url(#paint2_linear_298_2694)" stroke-width="0.693536" />
	</g>
	<circle r="6.49519" transform="matrix(0.996917 0.0784591 -0.213371 0.976971 629.205 303.045)" fill="white" />
	<path fill-rule="evenodd" clip-rule="evenodd" d="M623.76 308.643C622.124 307.195 621.34 304.926 621.877 302.469C622.414 300.009 624.148 297.937 626.352 296.792C625.691 296.463 624.94 296.253 624.122 296.189C620.546 295.907 617.026 298.52 616.261 302.025C615.495 305.529 617.774 308.598 621.35 308.88C622.167 308.944 622.981 308.857 623.76 308.643Z" fill="white" fill-opacity="0.6" />
	<ellipse cx="294.276" cy="199.881" rx="42.5074" ry="46.8817" transform="rotate(32.9723 294.276 199.881)" fill="url(#paint3_linear_298_2694)" />
	<ellipse cx="289.879" cy="196.676" rx="40.6731" ry="46.9799" transform="rotate(32.9723 289.879 196.676)" fill="url(#paint4_linear_298_2694)" />
	<path d="M317.596 214.652C305.922 232.646 284.099 238.713 268.974 228.901C253.848 219.089 250.492 196.688 262.166 178.694C273.839 160.699 295.662 154.633 310.788 164.445C325.913 174.257 329.269 196.658 317.596 214.652Z" fill="url(#paint5_linear_298_2694)" stroke="url(#paint6_linear_298_2694)" stroke-width="3.31594" />
	<path d="M307.416 204.145C306.844 202.298 305.54 200.689 303.504 199.318C306.894 198.931 309.067 196.934 310.025 193.328C310.382 192.024 310.442 190.8 310.205 189.656C309.968 188.511 309.46 187.472 308.676 186.536C307.894 185.6 306.974 184.767 305.92 184.035C304.866 183.303 303.608 182.588 302.149 181.889L304.85 174.667L300.437 173.017L297.811 180.038C297.047 179.752 295.874 179.335 294.293 178.788L296.941 171.709L292.527 170.058L289.826 177.28C289.188 177.063 288.258 176.727 287.035 176.269L280.97 173.968L279.212 178.668L282.393 179.858C283.845 180.401 284.453 181.369 284.215 182.761L281.138 190.986C281.33 191.058 281.479 191.124 281.586 191.186L281.128 191.015L276.818 202.535C276.301 203.453 275.565 203.733 274.61 203.375L271.429 202.186L268.579 207.098L274.31 209.242C274.674 209.378 275.197 209.579 275.882 209.845C276.566 210.112 277.08 210.31 277.424 210.438L274.69 217.746L279.105 219.398L281.806 212.176C282.601 212.495 283.763 212.94 285.291 213.512L282.601 220.705L287.014 222.356L289.747 215.048C291.343 215.558 292.786 215.935 294.078 216.178C295.37 216.421 296.654 216.526 297.93 216.491C299.206 216.457 300.341 216.244 301.336 215.854C302.332 215.465 303.266 214.844 304.14 213.995C305.012 213.145 305.77 212.067 306.41 210.76C307.653 208.199 307.988 205.993 307.416 204.145ZM292.45 183.978C292.584 184.028 292.963 184.164 293.587 184.387C294.212 184.609 294.732 184.793 295.146 184.937C295.56 185.081 296.105 185.312 296.782 185.63C297.458 185.949 298.016 186.245 298.458 186.519C298.9 186.793 299.367 187.147 299.857 187.581C300.349 188.015 300.707 188.454 300.933 188.898C301.159 189.342 301.3 189.852 301.356 190.429C301.413 191.005 301.324 191.609 301.088 192.239C300.888 192.774 300.62 193.229 300.283 193.605C299.948 193.98 299.551 194.251 299.097 194.419C298.643 194.587 298.192 194.712 297.747 194.796C297.302 194.88 296.772 194.883 296.159 194.806C295.545 194.729 295.014 194.65 294.565 194.569C294.116 194.489 293.571 194.345 292.93 194.138C292.289 193.93 291.804 193.771 291.476 193.659C291.147 193.547 290.703 193.381 290.143 193.16C289.582 192.94 289.255 192.812 289.159 192.776L292.45 183.978L292.45 183.978L292.45 183.978ZM297.202 208.002C296.855 208.374 296.478 208.669 296.07 208.887C295.662 209.104 295.177 209.249 294.617 209.322C294.056 209.396 293.527 209.426 293.031 209.415C292.534 209.404 291.953 209.339 291.29 209.222C290.625 209.104 290.051 208.981 289.564 208.854C289.079 208.727 288.506 208.556 287.845 208.342C287.185 208.127 286.673 207.952 286.31 207.816C285.947 207.68 285.491 207.504 284.94 207.287C284.389 207.071 284.038 206.934 283.885 206.877L287.508 197.189C287.661 197.247 288.118 197.407 288.88 197.67C289.642 197.933 290.261 198.154 290.739 198.333C291.217 198.512 291.866 198.787 292.685 199.159C293.504 199.53 294.179 199.88 294.71 200.209C295.24 200.538 295.799 200.949 296.388 201.442C296.977 201.934 297.418 202.431 297.71 202.932C298.001 203.434 298.19 204.005 298.277 204.647C298.364 205.289 298.278 205.954 298.021 206.642C297.82 207.178 297.548 207.63 297.202 208.002Z" fill="#707A7E" />
	<path d="M305.316 203.783C304.744 201.936 303.44 200.326 301.405 198.955C304.795 198.568 306.968 196.571 307.925 192.965C308.282 191.661 308.342 190.438 308.106 189.293C307.869 188.148 307.36 187.109 306.577 186.174C305.795 185.238 304.875 184.404 303.821 183.672C302.766 182.94 301.509 182.225 300.049 181.527L302.751 174.305L298.338 172.654L295.711 179.676C294.947 179.39 293.775 178.973 292.194 178.425L294.842 171.346L290.428 169.695L287.726 176.918C287.089 176.701 286.158 176.364 284.936 175.907L278.871 173.605L277.113 178.305L280.294 179.495C281.746 180.038 282.353 181.006 282.115 182.398L279.039 190.623C279.23 190.695 279.379 190.762 279.487 190.824L279.028 190.652L274.719 202.173C274.202 203.09 273.465 203.37 272.51 203.013L269.329 201.823L266.479 206.736L272.211 208.88C272.574 209.015 273.097 209.217 273.782 209.483C274.466 209.749 274.98 209.947 275.324 210.076L272.591 217.384L277.005 219.035L279.706 211.813C280.501 212.133 281.663 212.578 283.192 213.15L280.501 220.343L284.914 221.993L287.648 214.685C289.243 215.195 290.687 215.573 291.978 215.815C293.27 216.058 294.554 216.163 295.83 216.129C297.106 216.094 298.242 215.882 299.237 215.492C300.232 215.102 301.166 214.482 302.04 213.632C302.912 212.783 303.67 211.705 304.311 210.398C305.553 207.836 305.888 205.631 305.316 203.783ZM290.35 183.615C290.484 183.665 290.863 183.802 291.488 184.024C292.113 184.247 292.632 184.43 293.046 184.574C293.461 184.718 294.006 184.95 294.682 185.268C295.358 185.586 295.917 185.882 296.359 186.156C296.8 186.43 297.267 186.785 297.758 187.219C298.249 187.653 298.607 188.092 298.833 188.535C299.059 188.979 299.201 189.49 299.257 190.066C299.314 190.643 299.224 191.246 298.988 191.877C298.788 192.412 298.52 192.867 298.184 193.242C297.848 193.617 297.452 193.889 296.998 194.056C296.543 194.224 296.092 194.35 295.647 194.433C295.202 194.517 294.673 194.521 294.059 194.444C293.446 194.367 292.914 194.288 292.466 194.207C292.017 194.126 291.472 193.982 290.831 193.775C290.189 193.568 289.704 193.408 289.376 193.296C289.048 193.184 288.603 193.018 288.043 192.798C287.483 192.577 287.155 192.449 287.06 192.414L290.351 183.615L290.35 183.615L290.35 183.615ZM295.102 207.64C294.755 208.011 294.379 208.306 293.971 208.524C293.563 208.741 293.078 208.887 292.517 208.96C291.956 209.033 291.427 209.064 290.931 209.052C290.434 209.042 289.854 208.976 289.19 208.859C288.526 208.741 287.951 208.618 287.465 208.491C286.979 208.364 286.406 208.193 285.745 207.979C285.086 207.764 284.574 207.589 284.211 207.454C283.848 207.318 283.391 207.141 282.84 206.924C282.289 206.708 281.938 206.571 281.785 206.514L285.408 196.827C285.561 196.884 286.018 197.044 286.78 197.307C287.543 197.57 288.162 197.792 288.64 197.97C289.117 198.149 289.766 198.424 290.585 198.796C291.404 199.167 292.079 199.517 292.61 199.847C293.14 200.176 293.699 200.586 294.289 201.079C294.877 201.572 295.318 202.068 295.61 202.57C295.901 203.071 296.091 203.642 296.177 204.284C296.264 204.927 296.179 205.592 295.921 206.28C295.721 206.815 295.448 207.268 295.102 207.64Z" fill="white" />
	<path fill-rule="evenodd" clip-rule="evenodd" d="M280.71 329.229L280.655 329.142C280.585 329.021 280.511 328.903 280.432 328.788L274.244 318.955L265.348 324.186L267.673 326.498H146.576C143.938 326.498 141.708 328.45 141.359 331.064L132.474 397.553L131.033 396.12L125.048 400.403L132.204 409.311C133.14 410.727 134.746 411.677 136.599 411.677H266.113C268.75 411.677 270.98 409.725 271.329 407.111L281.306 332.458C281.461 331.294 281.225 330.177 280.706 329.232L280.71 329.229Z" fill="#575C61" />
	<path d="M135.094 319.465C135.259 318.225 136.318 317.299 137.569 317.299H272.663C274.174 317.299 275.338 318.63 275.138 320.127L264.423 400.311C264.257 401.552 263.199 402.478 261.947 402.478H126.853C125.343 402.478 124.178 401.147 124.378 399.65L135.094 319.465Z" fill="url(#paint7_linear_298_2694)" />
	<mask id="mask2_298_2694" style="mask-type:alpha" maskUnits="userSpaceOnUse" x="124" y="317" width="151" height="86">
		<path d="M134.926 320.723C135.188 318.763 136.86 317.299 138.838 317.299H271.006C273.394 317.299 275.235 319.402 274.919 321.769L264.591 399.054C264.329 401.014 262.656 402.478 260.678 402.478H128.51C126.122 402.478 124.281 400.375 124.597 398.008L134.926 320.723Z" fill="url(#paint8_linear_298_2694)" />
	</mask>
	<g mask="url(#mask2_298_2694)">
		<path d="M144.491 303.361L129.047 419.387" stroke="black" stroke-opacity="0.07" stroke-width="0.657862" />
		<path d="M159.937 303.361L144.492 419.387" stroke="black" stroke-opacity="0.07" stroke-width="0.657862" />
		<path d="M175.378 303.361L159.934 419.387" stroke="black" stroke-opacity="0.07" stroke-width="0.657862" />
		<path d="M190.827 303.361L175.383 419.387" stroke="black" stroke-opacity="0.07" stroke-width="0.657862" />
		<path d="M206.269 303.361L190.824 419.387" stroke="black" stroke-opacity="0.07" stroke-width="0.657862" />
		<path d="M221.71 303.361L206.266 419.387" stroke="black" stroke-opacity="0.07" stroke-width="0.657862" />
		<path d="M237.159 303.361L221.715 419.387" stroke="black" stroke-opacity="0.07" stroke-width="0.657862" />
		<path d="M252.605 303.361L237.16 419.387" stroke="black" stroke-opacity="0.07" stroke-width="0.657862" />
		<path d="M268.046 303.361L252.602 419.387" stroke="black" stroke-opacity="0.07" stroke-width="0.657862" />
		<path d="M99.4962 409.279C97.3177 400.61 101.068 389.799 112.68 376.284C117.664 374.137 130.681 373.246 142.93 387.409C146.897 391.998 150.793 393.805 154.594 393.622C158.364 393.441 161.904 391.306 165.187 388.321C168.476 385.331 171.574 381.426 174.456 377.59C175.15 376.667 175.831 375.748 176.5 374.846C178.619 371.987 180.61 369.301 182.485 367.179C184.76 364.604 186.944 363.097 188.995 362.373C191.037 361.651 192.977 361.694 194.795 362.271C198.46 363.435 201.667 366.784 204.083 370.529C205.325 372.454 207.175 374.726 209.433 376.508C211.688 378.286 214.395 379.61 217.335 379.545C220.295 379.48 223.383 378.01 226.388 374.42C229.384 370.84 232.32 365.129 235.012 356.502C237.134 349.703 240.303 344.926 244.022 341.659C247.74 338.392 252.034 336.613 256.441 335.852C265.196 334.339 274.373 336.852 280.21 339.676C290.123 358.377 300.014 386.068 297.705 408.646C296.55 419.946 292.345 429.921 283.602 436.875C274.851 443.836 261.475 447.835 241.849 447.009C192.584 444.936 148.606 440.608 122.799 430.042C109.887 424.756 101.681 417.973 99.4962 409.279Z" fill="url(#paint9_linear_298_2694)" fill-opacity="0.6" stroke="white" stroke-width="1.04799" />
	</g>
	<path d="M194.573 361.602C194.25 363.284 192.657 364.37 191.037 364.059C189.416 363.747 188.339 362.148 188.663 360.466C188.986 358.783 190.579 357.697 192.2 358.008C193.82 358.32 194.897 359.919 194.573 361.602Z" fill="#F7BE2B" stroke="white" stroke-width="1.31572" />
	<g filter="url(#filter5_d_298_2694)">
		<path fill-rule="evenodd" clip-rule="evenodd" d="M181.828 340.322C181.191 340.322 180.645 340.779 180.533 341.407L179.108 349.396C178.964 350.202 179.584 350.942 180.403 350.942H188.776L190.307 353.346C190.733 354.015 191.65 354.158 192.259 353.65L195.504 350.942H204.849C205.486 350.942 206.032 350.485 206.144 349.858L207.569 341.869C207.713 341.063 207.093 340.322 206.274 340.322H181.828Z" fill="white" />
	</g>
	<path d="M185.06 346.927C185.036 347.088 184.971 347.24 184.865 347.383C184.762 347.522 184.622 347.638 184.446 347.731C184.272 347.821 184.075 347.874 183.853 347.889L183.797 348.266H183.496L183.553 347.885C183.244 347.857 183.006 347.764 182.838 347.606C182.671 347.445 182.605 347.228 182.64 346.955H183.345C183.33 347.178 183.426 347.313 183.632 347.359L183.765 346.472C183.548 346.416 183.374 346.36 183.245 346.304C183.115 346.248 183.01 346.159 182.928 346.035C182.846 345.911 182.822 345.742 182.854 345.528C182.894 345.258 183.024 345.038 183.244 344.868C183.467 344.697 183.736 344.6 184.049 344.575L184.106 344.199H184.407L184.35 344.575C184.647 344.6 184.874 344.69 185.029 344.845C185.187 345 185.257 345.213 185.238 345.486H184.529C184.533 345.396 184.511 345.319 184.465 345.254C184.422 345.186 184.357 345.137 184.27 345.11L184.138 345.988C184.365 346.047 184.541 346.104 184.667 346.16C184.797 346.213 184.903 346.301 184.985 346.425C185.067 346.546 185.092 346.713 185.06 346.927ZM183.545 345.495C183.529 345.598 183.548 345.681 183.601 345.746C183.655 345.808 183.738 345.86 183.851 345.9L183.971 345.096C183.856 345.111 183.761 345.153 183.685 345.221C183.609 345.289 183.562 345.381 183.545 345.495ZM183.931 347.369C184.054 347.347 184.153 347.299 184.23 347.225C184.31 347.15 184.358 347.06 184.374 346.955C184.389 346.853 184.369 346.771 184.312 346.709C184.256 346.647 184.169 346.595 184.053 346.555L183.931 347.369ZM185.917 345.072L186.007 344.473H187.14L186.632 347.861H185.955L186.373 345.072H185.917ZM188.125 346.067C187.835 345.906 187.716 345.657 187.767 345.319C187.792 345.151 187.857 345 187.962 344.863C188.071 344.724 188.217 344.614 188.402 344.533C188.59 344.45 188.809 344.408 189.06 344.408C189.31 344.408 189.516 344.45 189.675 344.533C189.839 344.614 189.952 344.724 190.016 344.863C190.083 345 190.104 345.151 190.079 345.319C190.054 345.489 189.989 345.639 189.885 345.77C189.781 345.897 189.653 345.996 189.502 346.067C189.663 346.142 189.781 346.25 189.857 346.393C189.933 346.535 189.956 346.704 189.927 346.899C189.895 347.11 189.813 347.294 189.679 347.452C189.55 347.607 189.384 347.727 189.184 347.81C188.983 347.894 188.766 347.936 188.53 347.936C188.295 347.936 188.09 347.894 187.915 347.81C187.742 347.727 187.613 347.607 187.527 347.452C187.444 347.294 187.418 347.11 187.45 346.899C187.479 346.704 187.553 346.535 187.671 346.393C187.79 346.247 187.941 346.138 188.125 346.067ZM189.426 345.412C189.449 345.26 189.42 345.142 189.338 345.058C189.26 344.975 189.141 344.933 188.981 344.933C188.824 344.933 188.693 344.975 188.586 345.058C188.483 345.142 188.419 345.261 188.396 345.416C188.375 345.556 188.405 345.667 188.487 345.751C188.571 345.835 188.689 345.877 188.839 345.877C188.99 345.877 189.12 345.835 189.229 345.751C189.34 345.664 189.405 345.551 189.426 345.412ZM188.768 346.351C188.59 346.351 188.437 346.396 188.311 346.485C188.188 346.575 188.114 346.704 188.089 346.871C188.065 347.026 188.099 347.153 188.191 347.252C188.286 347.349 188.426 347.397 188.611 347.397C188.796 347.397 188.949 347.347 189.071 347.248C189.192 347.149 189.264 347.023 189.287 346.871C189.312 346.707 189.276 346.58 189.18 346.49C189.084 346.397 188.947 346.351 188.768 346.351ZM190.563 346.123C190.643 345.587 190.804 345.167 191.043 344.863C191.286 344.56 191.635 344.408 192.089 344.408C192.544 344.408 192.845 344.56 192.994 344.863C193.146 345.167 193.182 345.587 193.101 346.123C193.02 346.662 192.858 347.085 192.615 347.392C192.374 347.699 192.027 347.852 191.573 347.852C191.118 347.852 190.815 347.699 190.664 347.392C190.516 347.085 190.482 346.662 190.563 346.123ZM192.453 346.123C192.487 345.894 192.5 345.701 192.492 345.547C192.487 345.388 192.447 345.26 192.371 345.161C192.298 345.062 192.174 345.012 191.999 345.012C191.823 345.012 191.683 345.062 191.577 345.161C191.474 345.26 191.395 345.388 191.34 345.547C191.289 345.701 191.246 345.894 191.212 346.123C191.176 346.358 191.161 346.557 191.165 346.718C191.169 346.876 191.209 347.005 191.285 347.104C191.362 347.2 191.488 347.248 191.663 347.248C191.839 347.248 191.979 347.2 192.084 347.104C192.19 347.005 192.269 346.876 192.321 346.718C192.373 346.557 192.417 346.358 192.453 346.123ZM193.703 347.894C193.584 347.894 193.49 347.858 193.423 347.787C193.359 347.713 193.335 347.621 193.351 347.513C193.367 347.404 193.418 347.314 193.504 347.243C193.594 347.169 193.698 347.132 193.817 347.132C193.933 347.132 194.023 347.169 194.087 347.243C194.151 347.314 194.176 347.404 194.159 347.513C194.143 347.621 194.092 347.713 194.005 347.787C193.92 347.858 193.819 347.894 193.703 347.894ZM194.823 346.123C194.903 345.587 195.063 345.167 195.303 344.863C195.546 344.56 195.895 344.408 196.349 344.408C196.803 344.408 197.105 344.56 197.254 344.863C197.405 345.167 197.441 345.587 197.361 346.123C197.28 346.662 197.118 347.085 196.874 347.392C196.634 347.699 196.287 347.852 195.832 347.852C195.378 347.852 195.075 347.699 194.924 347.392C194.775 347.085 194.742 346.662 194.823 346.123ZM196.712 346.123C196.747 345.894 196.76 345.701 196.752 345.547C196.747 345.388 196.707 345.26 196.631 345.161C196.558 345.062 196.434 345.012 196.258 345.012C196.083 345.012 195.942 345.062 195.836 345.161C195.734 345.26 195.655 345.388 195.6 345.547C195.549 345.701 195.506 345.894 195.471 346.123C195.436 346.358 195.42 346.557 195.424 346.718C195.429 346.876 195.469 347.005 195.545 347.104C195.622 347.2 195.747 347.248 195.923 347.248C196.098 347.248 196.239 347.2 196.344 347.104C196.45 347.005 196.529 346.876 196.581 346.718C196.633 346.557 196.677 346.358 196.712 346.123ZM197.861 346.123C197.942 345.587 198.102 345.167 198.342 344.863C198.585 344.56 198.933 344.408 199.388 344.408C199.842 344.408 200.144 344.56 200.292 344.863C200.444 345.167 200.48 345.587 200.399 346.123C200.319 346.662 200.156 347.085 199.913 347.392C199.673 347.699 199.325 347.852 198.871 347.852C198.417 347.852 198.114 347.699 197.962 347.392C197.814 347.085 197.78 346.662 197.861 346.123ZM199.751 346.123C199.785 345.894 199.798 345.701 199.79 345.547C199.786 345.388 199.745 345.26 199.669 345.161C199.597 345.062 199.472 345.012 199.297 345.012C199.121 345.012 198.981 345.062 198.875 345.161C198.773 345.26 198.694 345.388 198.639 345.547C198.587 345.701 198.544 345.894 198.51 346.123C198.475 346.358 198.459 346.557 198.463 346.718C198.467 346.876 198.508 347.005 198.584 347.104C198.66 347.2 198.786 347.248 198.962 347.248C199.137 347.248 199.277 347.2 199.383 347.104C199.489 347.005 199.567 346.876 199.619 346.718C199.672 346.557 199.715 346.358 199.751 346.123ZM200.9 346.123C200.98 345.587 201.14 345.167 201.38 344.863C201.623 344.56 201.972 344.408 202.426 344.408C202.881 344.408 203.182 344.56 203.331 344.863C203.483 345.167 203.518 345.587 203.438 346.123C203.357 346.662 203.195 347.085 202.952 347.392C202.711 347.699 202.364 347.852 201.91 347.852C201.455 347.852 201.152 347.699 201.001 347.392C200.853 347.085 200.819 346.662 200.9 346.123ZM202.789 346.123C202.824 345.894 202.837 345.701 202.829 345.547C202.824 345.388 202.784 345.26 202.708 345.161C202.635 345.062 202.511 345.012 202.336 345.012C202.16 345.012 202.02 345.062 201.914 345.161C201.811 345.26 201.732 345.388 201.677 345.547C201.626 345.701 201.583 345.894 201.549 346.123C201.513 346.358 201.498 346.557 201.502 346.718C201.506 346.876 201.546 347.005 201.622 347.104C201.699 347.2 201.825 347.248 202 347.248C202.176 347.248 202.316 347.2 202.421 347.104C202.527 347.005 202.606 346.876 202.658 346.718C202.71 346.557 202.754 346.358 202.789 346.123Z" fill="#29293E" />
	<path d="M554.432 428.606L587.918 415.478C589.268 414.95 590.791 415.121 591.989 415.936L625.769 438.919C626.897 439.687 627.614 440.953 627.65 442.317C628.732 482.898 594.941 503.984 575.781 510.241C574.466 510.67 573.026 510.397 571.963 509.51C548.932 490.266 547.453 452.799 551.803 431.676C552.092 430.269 553.095 429.13 554.432 428.606Z" fill="#575C61" />
	<path d="M547.569 423.97L581.055 410.843C582.404 410.314 583.927 410.485 585.125 411.3L618.905 434.283C620.034 435.051 620.75 436.317 620.787 437.682C621.869 478.262 588.078 499.349 568.918 505.605C567.602 506.034 566.162 505.761 565.1 504.874C542.069 485.631 540.589 448.164 544.939 427.04C545.229 425.633 546.232 424.494 547.569 423.97Z" fill="url(#paint10_linear_298_2694)" />
	<path d="M551.442 427.594L580.984 416.013C582.293 415.5 583.772 415.666 584.935 416.457L614.785 436.766C615.881 437.512 616.577 438.739 616.609 440.064C617.473 476.049 587.581 494.809 570.485 500.448C569.208 500.869 567.812 500.604 566.785 499.738C546.424 482.588 545.063 449.411 548.892 430.573C549.17 429.207 550.144 428.103 551.442 427.594Z" fill="url(#paint11_linear_298_2694)" fill-opacity="0.24" />
	<path d="M556.496 429.334L578.661 420.645C581.359 419.587 584.405 419.93 586.801 421.56L609.899 437.275C612.157 438.811 613.615 441.322 613.566 444.052C613.03 473.774 589.209 490.061 573.796 495.899C571.207 496.88 568.291 496.345 566.287 494.435C550.282 479.177 548.557 452.362 551.332 435.493C551.798 432.659 553.822 430.382 556.496 429.334Z" fill="url(#paint12_linear_298_2694)" />
	<path fill-rule="evenodd" clip-rule="evenodd" d="M598.133 450.591C599.511 452.392 599.169 454.969 597.368 456.347L579.695 469.875C578.122 471.078 575.914 470.988 574.445 469.659L566.402 462.385C564.72 460.864 564.589 458.267 566.11 456.586C567.631 454.904 570.228 454.773 571.91 456.294L577.418 461.276L592.377 449.827C594.178 448.448 596.755 448.791 598.133 450.591Z" fill="#707A7E" />
	<path fill-rule="evenodd" clip-rule="evenodd" d="M596.766 447.454C598.144 449.255 597.802 451.832 596.001 453.21L578.328 466.737C576.755 467.941 574.547 467.85 573.078 466.522L565.034 459.247C563.353 457.726 563.222 455.13 564.743 453.448C566.264 451.766 568.861 451.636 570.543 453.157L576.051 458.139L591.01 446.689C592.811 445.311 595.388 445.653 596.766 447.454Z" fill="white" />
	<circle cx="416.989" cy="359.967" r="90.6878" fill="url(#paint13_linear_298_2694)" />
	<path d="M451.335 335.281C453.318 337.393 455.112 339.676 456.694 342.103C462.082 350.34 464.905 359.989 464.808 369.831C464.71 379.672 461.695 389.264 456.145 397.391C450.594 405.519 442.758 411.818 433.627 415.491C424.496 419.163 414.48 420.045 404.848 418.024V418.002L404.87 417.935C404.88 417.925 404.87 417.913 404.88 417.902C404.869 417.868 404.88 417.858 404.88 417.836L408.768 399.31L425.245 320.619L425.256 320.631C425.555 320.686 425.843 320.753 426.142 320.83C426.818 320.974 427.482 321.151 428.157 321.34C428.789 321.505 429.409 321.682 430.029 321.881C430.947 322.159 431.864 322.48 432.753 322.834C433.162 322.978 433.561 323.133 433.949 323.299C434.536 323.531 435.089 323.775 435.665 324.041C436.087 324.218 436.496 324.434 436.906 324.639C437.227 324.783 437.536 324.939 437.857 325.104C439.099 325.746 440.316 326.433 441.513 327.187C445.127 329.444 448.429 332.165 451.335 335.281Z" fill="#191B1F" />
	<g style="mix-blend-mode:multiply" opacity="0.16">
		<g style="mix-blend-mode:multiply" opacity="0.16">
			<path d="M441.509 327.183L404.844 418.02L425.241 320.615C431.01 321.823 436.518 324.047 441.509 327.183Z" fill="black" />
		</g>
	</g>
	<path d="M429.184 301.89V301.912C429.174 301.923 429.184 301.957 429.162 301.978C429.17 302.011 429.166 302.046 429.152 302.078L425.264 320.627L408.776 399.306C408.466 399.239 408.177 399.175 407.879 399.095C395.313 396.253 384.352 388.621 377.326 377.823C376.397 376.398 375.539 374.927 374.757 373.415C374.757 373.415 374.746 373.381 374.725 373.337C374.68 373.275 374.643 373.208 374.613 373.138C370.407 364.873 368.595 355.596 369.383 346.356C370.171 337.116 373.526 328.28 379.071 320.847C384.616 313.413 392.129 307.678 400.761 304.289C409.393 300.9 418.801 299.993 427.922 301.669C427.967 301.669 427.999 301.679 428.022 301.679C428.41 301.735 428.798 301.813 429.184 301.89Z" fill="#191B1F" />
	<g style="mix-blend-mode:multiply" opacity="0.25">
		<g style="mix-blend-mode:multiply" opacity="0.25">
			<path d="M426.139 320.826C425.222 326.175 424.091 332.332 422.817 338.921C422.154 342.329 421.5 345.867 420.758 349.44C420.016 353.013 419.285 356.649 418.543 360.271C417.768 363.903 416.982 367.524 416.218 371.101C415.431 374.655 414.645 378.165 413.893 381.555C412.353 388.342 410.869 394.661 409.518 400.058C408.207 405.462 406.982 409.947 406.185 413.092C405.465 415.845 404.978 417.549 404.868 417.931C404.859 417.898 404.863 417.863 404.878 417.832L425.243 320.615C425.542 320.672 425.84 320.749 426.139 320.826Z" fill="black" />
		</g>
	</g>
	<path d="M429.158 301.982C429.166 302.016 429.162 302.051 429.148 302.082L408.773 399.31C408.462 399.244 408.174 399.179 407.875 399.099C408.806 393.762 409.935 387.583 411.208 380.994C411.872 377.587 412.559 374.062 413.268 370.474C414 366.909 414.741 363.265 415.483 359.644C416.258 356.012 417.044 352.391 417.808 348.814C418.55 345.237 419.381 341.749 420.133 338.361C421.662 331.583 423.157 325.261 424.496 319.845C425.807 314.441 427.044 309.967 427.841 306.823C428.561 304.065 429.048 302.36 429.158 301.982Z" fill="white" />
	<g style="mix-blend-mode:screen" opacity="0.25">
		<g style="mix-blend-mode:screen" opacity="0.25">
			<path d="M445.697 338.463C447.857 340.606 449.779 342.974 451.432 345.528C454.569 350.305 456.732 355.653 457.797 361.268C458.862 366.882 458.807 372.651 457.636 378.244C456.465 383.838 454.201 389.144 450.974 393.86C447.747 398.576 443.62 402.608 438.83 405.725C430.999 410.889 421.693 413.351 412.332 412.737L412.442 412.212L445.697 338.463Z" fill="#191B1F" />
		</g>
	</g>
	<g style="mix-blend-mode:screen" opacity="0.25">
		<g style="mix-blend-mode:screen" opacity="0.25">
			<path d="M421.677 307.17L421.455 308.211L382.886 374.886C382.776 374.731 382.654 374.565 382.554 374.399C379.42 369.619 377.259 364.267 376.197 358.65C375.136 353.033 375.193 347.262 376.366 341.667C377.539 336.072 379.805 330.764 383.034 326.047C386.263 321.33 390.391 317.297 395.182 314.178C403.017 309.024 412.318 306.564 421.677 307.17Z" fill="#191B1F" />
		</g>
	</g>
	<g style="mix-blend-mode:multiply" opacity="0.16">
		<g style="mix-blend-mode:multiply" opacity="0.16">
			<path d="M451.331 335.275C453.314 337.387 455.108 339.67 456.69 342.097C462.078 350.334 464.901 359.983 464.804 369.825C464.706 379.666 461.691 389.258 456.141 397.386C450.59 405.513 442.754 411.812 433.623 415.485C424.492 419.158 414.476 420.039 404.844 418.019C407.439 418.373 410.053 418.569 412.672 418.606C417.855 418.598 423.008 417.825 427.965 416.313C432.876 414.818 437.527 412.573 441.753 409.658L444.808 407.354C445.856 406.612 446.724 405.661 447.691 404.83L449.098 403.533L450.382 402.117C451.259 401.2 452.083 400.236 452.851 399.227L455.111 396.148L457.06 392.871C457.757 391.797 458.212 390.59 458.799 389.472C459.369 388.334 459.858 387.157 460.26 385.95C461.157 383.567 461.871 381.12 462.398 378.63L463.053 374.854C463.184 373.592 463.264 372.318 463.364 371.045C463.444 369.77 463.459 368.49 463.408 367.213L463.386 365.286L463.175 363.392C462.921 360.837 462.489 358.303 461.88 355.808L460.75 352.109C460.407 350.858 459.809 349.728 459.354 348.521C459.111 347.923 458.889 347.325 458.623 346.726L457.706 344.989C457.075 343.847 456.526 342.607 455.834 341.544C454.465 339.363 452.961 337.269 451.331 335.275Z" fill="black" />
		</g>
	</g>
	<g style="mix-blend-mode:screen" opacity="0.7">
		<g style="mix-blend-mode:screen" opacity="0.7">
			<path d="M427.914 301.662C427.715 301.64 427.404 301.617 426.997 301.585C426.199 301.473 424.993 301.441 423.486 301.329C421.673 301.268 419.858 301.302 418.049 301.43C412.967 301.783 407.96 302.856 403.18 304.619C400.337 305.701 397.592 307.023 394.974 308.572C394.299 308.965 393.59 309.447 392.893 309.882C392.251 310.276 391.608 310.835 390.954 311.289C390.299 311.787 389.659 312.274 388.988 312.762C388.333 313.286 387.749 313.847 387.117 314.39C386.507 314.955 385.865 315.485 385.267 316.062L383.551 317.911C382.397 319.132 381.325 320.427 380.34 321.787C379.811 322.437 379.327 323.121 378.889 323.835L377.505 325.951C376.653 327.379 375.921 328.908 375.145 330.369C374.536 331.908 373.805 333.393 373.284 334.931C373.03 335.695 372.786 336.471 372.531 337.234L372.155 338.386L371.892 339.538C371.561 341.089 371.128 342.583 370.951 344.111C370.693 345.585 370.523 347.073 370.443 348.567C370.324 349.981 370.286 351.401 370.331 352.819C370.315 354.147 370.378 355.475 370.52 356.795C370.664 358.068 370.807 359.297 370.941 360.449C371.173 361.612 371.384 362.687 371.583 363.726C372.004 365.763 372.632 367.48 373.025 368.953C373.988 371.443 374.587 372.995 374.709 373.337C374.73 373.381 374.742 373.416 374.742 373.416C374.742 373.416 374.687 373.316 374.598 373.138C370.391 364.873 368.58 355.596 369.367 346.356C370.155 337.116 373.511 328.28 379.055 320.847C384.6 313.413 392.113 307.678 400.745 304.289C409.377 300.9 418.785 299.993 427.906 301.669L427.914 301.662Z" fill="#191B1F" />
		</g>
	</g>
	<path d="M333.879 474.221C333.719 471.803 331.624 469.842 329.201 469.842C326.777 469.842 324.942 471.803 325.102 474.221C325.21 475.843 326.187 477.259 327.551 478.016L328.108 486.427C328.829 486.388 329.555 486.368 330.288 486.368C331.028 486.368 331.764 486.388 332.497 486.428L331.939 478.012C333.199 477.255 333.987 475.84 333.879 474.221Z" fill="#434A4C" />
	<path fill-rule="evenodd" clip-rule="evenodd" d="M357.396 496.449C358.551 497.423 359.656 498.457 360.705 499.545L363.418 496.646C364.305 497.057 365.284 497.287 366.301 497.287C369.936 497.287 372.688 494.346 372.448 490.718C372.208 487.091 369.066 484.15 365.43 484.15C361.795 484.15 359.042 487.091 359.283 490.718C359.35 491.732 359.643 492.692 360.111 493.549L357.396 496.449ZM365.72 488.529C366.932 488.529 367.98 489.509 368.06 490.718C368.14 491.928 367.222 492.908 366.01 492.908C364.799 492.908 363.751 491.928 363.671 490.718C363.591 489.509 364.509 488.529 365.72 488.529Z" fill="#434A4C" />
	<path d="M372.353 523.739C372.44 524.465 372.509 525.195 372.558 525.93C372.606 526.664 372.635 527.394 372.643 528.118H381.077C381.923 529.425 383.398 530.305 385.022 530.305C387.445 530.305 389.28 528.344 389.12 525.926C388.96 523.508 386.865 521.547 384.441 521.547C382.816 521.547 381.455 522.429 380.784 523.739H372.353Z" fill="#434A4C" />
	<path fill-rule="evenodd" clip-rule="evenodd" d="M364.204 552.311C363.299 553.399 362.332 554.433 361.306 555.408L364.181 558.098C363.948 558.828 363.847 559.621 363.902 560.45C364.142 564.077 367.284 567.018 370.92 567.018C374.555 567.018 377.308 564.077 377.067 560.45C376.827 556.822 373.685 553.881 370.05 553.881C368.852 553.881 367.75 554.201 366.819 554.759L364.204 552.311ZM370.34 558.26C369.128 558.26 368.21 559.241 368.291 560.45C368.371 561.659 369.418 562.639 370.63 562.639C371.842 562.639 372.759 561.659 372.679 560.45C372.599 559.241 371.552 558.26 370.34 558.26Z" fill="#434A4C" />
	<path d="M337.73 565.432C337.003 565.472 336.269 565.492 335.53 565.492C334.797 565.492 334.067 565.472 333.342 565.433L333.899 573.839C332.635 574.596 331.846 576.012 331.953 577.634C332.113 580.052 334.208 582.013 336.631 582.013C339.055 582.013 340.89 580.052 340.73 577.634C340.623 576.014 339.648 574.6 338.287 573.842L337.73 565.432Z" fill="#434A4C" />
	<path fill-rule="evenodd" clip-rule="evenodd" d="M308.418 555.408C307.263 554.433 306.158 553.399 305.11 552.311C304.339 553.135 303.575 553.951 302.82 554.758C301.816 554.2 300.672 553.881 299.475 553.881C295.839 553.881 293.087 556.822 293.327 560.45C293.568 564.077 296.709 567.018 300.345 567.018C303.98 567.018 306.733 564.077 306.493 560.45C306.438 559.62 306.231 558.827 305.901 558.096C306.73 557.211 307.569 556.314 308.418 555.408ZM302.104 560.45C302.024 559.241 300.977 558.26 299.765 558.26C298.553 558.26 297.636 559.241 297.716 560.45C297.796 561.659 298.843 562.639 300.055 562.639C301.267 562.639 302.184 561.659 302.104 560.45Z" fill="#434A4C" />
	<path d="M293.465 528.118C293.377 527.394 293.309 526.664 293.26 525.93C293.212 525.195 293.183 524.465 293.175 523.739H284.75C283.905 522.429 282.427 521.547 280.802 521.547C278.378 521.547 276.543 523.508 276.704 525.926C276.864 528.344 278.958 530.305 281.382 530.305C283.005 530.305 284.364 529.425 285.037 528.118H293.465Z" fill="#434A4C" />
	<path fill-rule="evenodd" clip-rule="evenodd" d="M301.619 499.544C302.523 498.456 303.491 497.422 304.517 496.448L301.42 493.549C301.774 492.692 301.94 491.732 301.873 490.718C301.633 487.091 298.491 484.15 294.855 484.15C291.22 484.15 288.468 487.091 288.708 490.718C288.948 494.346 292.09 497.287 295.726 497.287C296.743 497.287 297.69 497.057 298.523 496.646L301.619 499.544ZM293.096 490.718C293.016 489.509 293.934 488.529 295.146 488.529C296.357 488.529 297.405 489.509 297.485 490.718C297.565 491.928 296.647 492.908 295.436 492.908C294.224 492.908 293.176 491.928 293.096 490.718Z" fill="#434A4C" />
	<path d="M335.004 473.057C334.844 470.638 332.749 468.678 330.326 468.678C327.902 468.678 326.067 470.638 326.227 473.057C326.335 474.679 327.312 476.095 328.676 476.851L329.233 485.263C329.954 485.224 330.68 485.204 331.413 485.204C332.153 485.204 332.889 485.224 333.622 485.264L333.064 476.848C334.324 476.091 335.112 474.676 335.004 473.057Z" fill="#989C9F" />
	<path fill-rule="evenodd" clip-rule="evenodd" d="M358.521 495.285C359.676 496.259 360.781 497.293 361.83 498.381L364.543 495.482C365.43 495.893 366.409 496.123 367.426 496.123C371.061 496.123 373.813 493.182 373.573 489.554C373.333 485.927 370.191 482.986 366.555 482.986C362.92 482.986 360.167 485.927 360.408 489.554C360.475 490.568 360.768 491.528 361.236 492.385L358.521 495.285ZM366.845 487.365C368.057 487.365 369.105 488.345 369.185 489.554C369.265 490.764 368.347 491.744 367.135 491.744C365.924 491.744 364.876 490.764 364.796 489.554C364.716 488.345 365.634 487.365 366.845 487.365Z" fill="#989C9F" />
	<path d="M373.478 522.575C373.565 523.3 373.634 524.031 373.683 524.766C373.731 525.5 373.76 526.23 373.768 526.954H382.202C383.048 528.261 384.523 529.141 386.147 529.141C388.57 529.141 390.405 527.18 390.245 524.762C390.085 522.343 387.99 520.383 385.566 520.383C383.941 520.383 382.58 521.265 381.909 522.575H373.478Z" fill="#989C9F" />
	<path fill-rule="evenodd" clip-rule="evenodd" d="M365.329 551.147C364.424 552.235 363.457 553.269 362.431 554.244L365.306 556.934C365.073 557.664 364.972 558.457 365.027 559.286C365.267 562.913 368.409 565.854 372.045 565.854C375.68 565.854 378.433 562.913 378.192 559.286C377.952 555.658 374.81 552.717 371.175 552.717C369.977 552.717 368.875 553.037 367.944 553.595L365.329 551.147ZM371.465 557.096C370.253 557.096 369.335 558.076 369.416 559.286C369.496 560.495 370.543 561.475 371.755 561.475C372.967 561.475 373.884 560.495 373.804 559.286C373.724 558.076 372.677 557.096 371.465 557.096Z" fill="#989C9F" />
	<path d="M338.855 564.268C338.128 564.308 337.394 564.328 336.655 564.328C335.922 564.328 335.192 564.308 334.467 564.269L335.024 572.675C333.76 573.432 332.971 574.848 333.078 576.47C333.238 578.888 335.333 580.849 337.756 580.849C340.18 580.849 342.015 578.888 341.855 576.47C341.748 574.85 340.773 573.436 339.412 572.678L338.855 564.268Z" fill="#989C9F" />
	<path fill-rule="evenodd" clip-rule="evenodd" d="M309.543 554.244C308.388 553.269 307.283 552.235 306.235 551.147C305.464 551.971 304.7 552.787 303.945 553.594C302.941 553.036 301.797 552.717 300.6 552.717C296.964 552.717 294.212 555.658 294.452 559.286C294.693 562.913 297.834 565.854 301.47 565.854C305.105 565.854 307.858 562.913 307.618 559.286C307.563 558.456 307.356 557.663 307.026 556.932C307.855 556.047 308.694 555.15 309.543 554.244ZM303.229 559.286C303.149 558.076 302.102 557.096 300.89 557.096C299.678 557.096 298.761 558.076 298.841 559.286C298.921 560.495 299.968 561.475 301.18 561.475C302.392 561.475 303.309 560.495 303.229 559.286Z" fill="#989C9F" />
	<path d="M294.59 526.954C294.502 526.23 294.434 525.5 294.385 524.766C294.337 524.031 294.308 523.3 294.3 522.575H285.875C285.03 521.265 283.552 520.383 281.927 520.383C279.503 520.383 277.668 522.343 277.829 524.762C277.989 527.18 280.083 529.141 282.507 529.141C284.13 529.141 285.489 528.261 286.162 526.954H294.59Z" fill="#989C9F" />
	<path fill-rule="evenodd" clip-rule="evenodd" d="M302.744 498.38C303.648 497.292 304.616 496.258 305.642 495.284L302.545 492.385C302.899 491.528 303.065 490.568 302.998 489.554C302.758 485.927 299.616 482.986 295.98 482.986C292.345 482.986 289.593 485.927 289.833 489.554C290.073 493.182 293.215 496.123 296.851 496.123C297.868 496.123 298.815 495.893 299.648 495.482L302.744 498.38ZM294.221 489.554C294.141 488.345 295.059 487.365 296.271 487.365C297.482 487.365 298.53 488.345 298.61 489.554C298.69 490.764 297.772 491.744 296.561 491.744C295.349 491.744 294.301 490.764 294.221 489.554Z" fill="#989C9F" />
	<mask id="mask3_298_2694" style="mask-type:alpha" maskUnits="userSpaceOnUse" x="277" y="468" width="114" height="113">
		<path d="M335.012 473.057C334.852 470.638 332.757 468.678 330.334 468.678C327.91 468.678 326.075 470.638 326.235 473.057C326.343 474.679 327.32 476.095 328.684 476.851L329.241 485.263C329.961 485.224 330.688 485.204 331.421 485.204C332.161 485.204 332.897 485.224 333.629 485.264L333.072 476.848C334.332 476.091 335.119 474.676 335.012 473.057Z" fill="#989C9F" />
		<path fill-rule="evenodd" clip-rule="evenodd" d="M358.529 495.285C359.684 496.259 360.789 497.293 361.837 498.381L364.551 495.482C365.438 495.893 366.416 496.123 367.433 496.123C371.069 496.123 373.821 493.182 373.581 489.554C373.341 485.927 370.199 482.986 366.563 482.986C362.928 482.986 360.175 485.927 360.416 489.554C360.483 490.568 360.776 491.528 361.244 492.385L358.529 495.285ZM366.853 487.365C368.065 487.365 369.112 488.345 369.192 489.554C369.273 490.764 368.355 491.744 367.143 491.744C365.931 491.744 364.884 490.764 364.804 489.554C364.724 488.345 365.641 487.365 366.853 487.365Z" fill="#989C9F" />
		<path d="M373.486 522.575C373.573 523.3 373.642 524.031 373.69 524.766C373.739 525.5 373.767 526.23 373.776 526.954H382.21C383.056 528.261 384.531 529.141 386.154 529.141C388.578 529.141 390.413 527.18 390.253 524.762C390.093 522.343 387.998 520.383 385.574 520.383C383.949 520.383 382.588 521.265 381.916 522.575H373.486Z" fill="#989C9F" />
		<path fill-rule="evenodd" clip-rule="evenodd" d="M365.336 551.147C364.432 552.235 363.465 553.269 362.439 554.244L365.314 556.934C365.081 557.664 364.98 558.457 365.035 559.286C365.275 562.913 368.417 565.854 372.053 565.854C375.688 565.854 378.441 562.913 378.2 559.286C377.96 555.658 374.818 552.717 371.182 552.717C369.984 552.717 368.882 553.037 367.952 553.595L365.336 551.147ZM371.473 557.096C370.261 557.096 369.343 558.076 369.423 559.286C369.503 560.495 370.551 561.475 371.763 561.475C372.974 561.475 373.892 560.495 373.812 559.286C373.732 558.076 372.684 557.096 371.473 557.096Z" fill="#989C9F" />
		<path d="M338.863 564.268C338.136 564.308 337.402 564.328 336.663 564.328C335.93 564.328 335.2 564.308 334.475 564.269L335.031 572.675C333.768 573.432 332.978 574.848 333.086 576.47C333.246 578.888 335.341 580.849 337.764 580.849C340.188 580.849 342.023 578.888 341.863 576.47C341.755 574.85 340.78 573.436 339.42 572.678L338.863 564.268Z" fill="#989C9F" />
		<path fill-rule="evenodd" clip-rule="evenodd" d="M309.55 554.244C308.396 553.269 307.291 552.235 306.242 551.147C305.471 551.971 304.708 552.787 303.953 553.594C302.949 553.036 301.805 552.717 300.608 552.717C296.972 552.717 294.22 555.658 294.46 559.286C294.7 562.913 297.842 565.854 301.478 565.854C305.113 565.854 307.866 562.913 307.625 559.286C307.57 558.456 307.364 557.663 307.034 556.932C307.863 556.047 308.702 555.15 309.55 554.244ZM303.237 559.286C303.157 558.076 302.109 557.096 300.898 557.096C299.686 557.096 298.768 558.076 298.848 559.286C298.929 560.495 299.976 561.475 301.188 561.475C302.4 561.475 303.317 560.495 303.237 559.286Z" fill="#989C9F" />
		<path d="M294.598 526.954C294.51 526.23 294.442 525.5 294.393 524.766C294.345 524.031 294.316 523.3 294.308 522.575H285.883C285.038 521.265 283.56 520.383 281.935 520.383C279.511 520.383 277.676 522.343 277.836 524.762C277.997 527.18 280.091 529.141 282.515 529.141C284.138 529.141 285.497 528.261 286.17 526.954H294.598Z" fill="#989C9F" />
		<path fill-rule="evenodd" clip-rule="evenodd" d="M302.752 498.38C303.656 497.292 304.624 496.258 305.65 495.284L302.553 492.385C302.907 491.528 303.073 490.568 303.006 489.554C302.766 485.927 299.624 482.986 295.988 482.986C292.353 482.986 289.6 485.927 289.841 489.554C290.081 493.182 293.223 496.123 296.858 496.123C297.875 496.123 298.823 495.893 299.656 495.482L302.752 498.38ZM294.229 489.554C294.149 488.345 295.067 487.365 296.278 487.365C297.49 487.365 298.537 488.345 298.618 489.554C298.698 490.764 297.78 491.744 296.568 491.744C295.357 491.744 294.309 490.764 294.229 489.554Z" fill="#989C9F" />
	</mask>
	<g mask="url(#mask3_298_2694)">
		<rect width="25.3161" height="17.6537" transform="matrix(1 0 0.0660997 0.997813 270.973 515.842)" fill="#707A7E" />
		<rect width="25.3161" height="17.6537" transform="matrix(1 0 0.0660997 0.997813 370.754 515.842)" fill="#707A7E" />
		<rect width="25.3161" height="17.6537" transform="matrix(-0.0660997 -0.997813 1 0 323.859 486.631)" fill="#707A7E" />
		<rect width="25.3161" height="17.6537" transform="matrix(-0.0660997 -0.997813 1 0 330.508 587.061)" fill="#707A7E" />
	</g>
	<circle r="35.2876" transform="matrix(1 0 0.0660997 0.997813 330.561 528.244)" fill="url(#paint14_linear_298_2694)" />
	<circle r="35.2876" transform="matrix(1 0 0.0660997 0.997813 334.042 524.771)" fill="url(#paint15_linear_298_2694)" />
	<circle r="25.2104" transform="matrix(1 0 0.0660997 0.997813 334.044 524.767)" fill="url(#paint16_linear_298_2694)" stroke="url(#paint17_linear_298_2694)" stroke-width="2.49742" />
	<path d="M328.109 533.784H325.242L318.101 523.996L318.75 533.784H315.883L314.936 519.5H317.803L324.945 529.309L324.295 519.5H327.163L328.109 533.784ZM338.824 519.521L338.977 521.83H333.017L333.26 525.487H337.827L337.977 527.756H333.41L333.809 533.784H330.942L329.997 519.521H338.824ZM350.585 519.521L350.738 521.83H346.928L347.72 533.784H344.853L344.061 521.83H340.252L340.099 519.521H350.585Z" fill="#707A7E" />
	<path d="M329.171 532.382H326.304L319.164 522.593L319.812 532.382H316.945L315.999 518.098H318.866L326.008 527.906L325.358 518.098H328.225L329.171 532.382ZM339.886 518.118L340.039 520.427H334.08L334.322 524.085H338.889L339.039 526.353H334.472L334.872 532.382H332.005L331.06 518.118H339.886ZM351.647 518.118L351.8 520.427H347.991L348.783 532.382H345.916L345.124 520.427H341.315L341.162 518.118H351.647Z" fill="white" />
	<defs>
		<filter id="filter0_f_298_2694" x="154" y="0" width="320" height="320" filterUnits="userSpaceOnUse" color-interpolation-filters="sRGB">
			<feFlood flood-opacity="0" result="BackgroundImageFix" />
			<feBlend mode="normal" in="SourceGraphic" in2="BackgroundImageFix" result="shape" />
			<feGaussianBlur stdDeviation="60" result="effect1_foregroundBlur_298_2694" />
		</filter>
		<filter id="filter1_f_298_2694" x="0" y="159" width="320" height="320" filterUnits="userSpaceOnUse" color-interpolation-filters="sRGB">
			<feFlood flood-opacity="0" result="BackgroundImageFix" />
			<feBlend mode="normal" in="SourceGraphic" in2="BackgroundImageFix" result="shape" />
			<feGaussianBlur stdDeviation="60" result="effect1_foregroundBlur_298_2694" />
		</filter>
		<filter id="filter2_f_298_2694" x="189" y="338" width="320" height="320" filterUnits="userSpaceOnUse" color-interpolation-filters="sRGB">
			<feFlood flood-opacity="0" result="BackgroundImageFix" />
			<feBlend mode="normal" in="SourceGraphic" in2="BackgroundImageFix" result="shape" />
			<feGaussianBlur stdDeviation="60" result="effect1_foregroundBlur_298_2694" />
		</filter>
		<filter id="filter3_f_298_2694" x="440" y="268" width="320" height="320" filterUnits="userSpaceOnUse" color-interpolation-filters="sRGB">
			<feFlood flood-opacity="0" result="BackgroundImageFix" />
			<feBlend mode="normal" in="SourceGraphic" in2="BackgroundImageFix" result="shape" />
			<feGaussianBlur stdDeviation="60" result="effect1_foregroundBlur_298_2694" />
		</filter>
		<filter id="filter4_f_298_2694" x="388" y="89" width="320" height="320" filterUnits="userSpaceOnUse" color-interpolation-filters="sRGB">
			<feFlood flood-opacity="0" result="BackgroundImageFix" />
			<feBlend mode="normal" in="SourceGraphic" in2="BackgroundImageFix" result="shape" />
			<feGaussianBlur stdDeviation="60" result="effect1_foregroundBlur_298_2694" />
		</filter>
		<filter id="filter5_d_298_2694" x="171.193" y="337.691" width="44.2916" height="29.4215" filterUnits="userSpaceOnUse" color-interpolation-filters="sRGB">
			<feFlood flood-opacity="0" result="BackgroundImageFix" />
			<feColorMatrix in="SourceAlpha" type="matrix" values="0 0 0 0 0 0 0 0 0 0 0 0 0 0 0 0 0 0 127 0" result="hardAlpha" />
			<feOffset dy="5.2629" />
			<feGaussianBlur stdDeviation="3.94718" />
			<feComposite in2="hardAlpha" operator="out" />
			<feColorMatrix type="matrix" values="0 0 0 0 0.629065 0 0 0 0 0.629065 0 0 0 0 0.629065 0 0 0 0.18 0" />
			<feBlend mode="normal" in2="BackgroundImageFix" result="effect1_dropShadow_298_2694" />
			<feBlend mode="normal" in="SourceGraphic" in2="effect1_dropShadow_298_2694" result="shape" />
		</filter>
		<linearGradient id="paint0_linear_298_2694" x1="1.90901" y1="-5.63311" x2="17.0242" y2="17.457" gradientUnits="userSpaceOnUse">
			<stop stop-color="#FFEF00" />
			<stop offset="1" stop-color="#FFB900" />
		</linearGradient>
		<linearGradient id="paint1_linear_298_2694" x1="-120.993" y1="-80.6309" x2="60.9753" y2="-44.9993" gradientUnits="userSpaceOnUse">
			<stop stop-opacity="0.28" />
			<stop offset="1" stop-opacity="0" />
			<stop offset="1" stop-opacity="0" />
		</linearGradient>
		<linearGradient id="paint2_linear_298_2694" x1="32.6019" y1="-11.2697" x2="20.4949" y2="57.3052" gradientUnits="userSpaceOnUse">
			<stop stop-color="white" />
			<stop offset="1" stop-color="white" stop-opacity="0" />
		</linearGradient>
		<linearGradient id="paint3_linear_298_2694" x1="294.276" y1="153" x2="294.276" y2="246.763" gradientUnits="userSpaceOnUse">
			<stop stop-color="#859299" />
			<stop offset="1" stop-color="#4A5056" />
		</linearGradient>
		<linearGradient id="paint4_linear_298_2694" x1="289.879" y1="149.696" x2="289.879" y2="243.656" gradientUnits="userSpaceOnUse">
			<stop stop-color="#B9C4C9" />
			<stop offset="1" stop-color="#6A747D" />
		</linearGradient>
		<linearGradient id="paint5_linear_298_2694" x1="304.363" y1="163.019" x2="234.45" y2="202.248" gradientUnits="userSpaceOnUse">
			<stop stop-color="#AFB7BB" />
			<stop offset="1" stop-color="#575F67" />
		</linearGradient>
		<linearGradient id="paint6_linear_298_2694" x1="373.398" y1="142.588" x2="257.549" y2="185.637" gradientUnits="userSpaceOnUse">
			<stop offset="0.537867" stop-color="#8B969B" stop-opacity="0.26" />
			<stop offset="1" stop-color="#545C63" />
		</linearGradient>
		<linearGradient id="paint7_linear_298_2694" x1="216.609" y1="302.47" x2="226.8" y2="389.424" gradientUnits="userSpaceOnUse">
			<stop stop-color="#B9C3C9" />
			<stop offset="1" stop-color="#6B757E" />
		</linearGradient>
		<linearGradient id="paint8_linear_298_2694" x1="190.26" y1="237.092" x2="162.433" y2="409.473" gradientUnits="userSpaceOnUse">
			<stop offset="0.117185" stop-color="#F7E806" />
			<stop offset="1" stop-color="#A6DD3F" />
		</linearGradient>
		<linearGradient id="paint9_linear_298_2694" x1="164.847" y1="357.169" x2="173.486" y2="442.354" gradientUnits="userSpaceOnUse">
			<stop stop-color="white" />
			<stop offset="1" stop-opacity="0.33" />
		</linearGradient>
		<linearGradient id="paint10_linear_298_2694" x1="590.56" y1="393.241" x2="541.116" y2="475.982" gradientUnits="userSpaceOnUse">
			<stop stop-color="#B9C3C9" />
			<stop offset="1" stop-color="#6B757E" />
		</linearGradient>
		<linearGradient id="paint11_linear_298_2694" x1="668.666" y1="494.281" x2="550.003" y2="423.134" gradientUnits="userSpaceOnUse">
			<stop />
			<stop offset="1" stop-opacity="0" />
		</linearGradient>
		<linearGradient id="paint12_linear_298_2694" x1="568.525" y1="402.075" x2="546.46" y2="490.15" gradientUnits="userSpaceOnUse">
			<stop stop-color="#B9C3C9" />
			<stop offset="1" stop-color="#6B757E" />
		</linearGradient>
		<linearGradient id="paint13_linear_298_2694" x1="437.161" y1="237.703" x2="354.28" y2="409.261" gradientUnits="userSpaceOnUse">
			<stop stop-color="#B9C3C9" />
			<stop offset="1" stop-color="#6B757E" />
		</linearGradient>
		<linearGradient id="paint14_linear_298_2694" x1="35.2876" y1="0" x2="35.2876" y2="70.5751" gradientUnits="userSpaceOnUse">
			<stop stop-color="#859299" />
			<stop offset="1" stop-color="#4A5056" />
		</linearGradient>
		<linearGradient id="paint15_linear_298_2694" x1="35.2876" y1="0" x2="35.2876" y2="70.5751" gradientUnits="userSpaceOnUse">
			<stop stop-color="#B9C4C9" />
			<stop offset="1" stop-color="#6A747D" />
		</linearGradient>
		<linearGradient id="paint16_linear_298_2694" x1="21.7565" y1="2.61351" x2="-0.789094" y2="52.1518" gradientUnits="userSpaceOnUse">
			<stop stop-color="#AFB7BB" />
			<stop offset="1" stop-color="#575F67" />
		</linearGradient>
		<linearGradient id="paint17_linear_298_2694" x1="57.446" y1="-33.5103" x2="11.1518" y2="38.3775" gradientUnits="userSpaceOnUse">
			<stop offset="0.537867" stop-color="#8B969B" stop-opacity="0.26" />
			<stop offset="1" stop-color="#545C63" />
		</linearGradient>
	</defs>
</svg>
