<svg width="20" height="18" viewBox="0 0 20 18" fill="none" xmlns="http://www.w3.org/2000/svg">
	<path d="M8.14386 3.62753C8.93046 1.66653 9.32377 0.686035 10.0001 0.686035C10.6764 0.686035 11.0697 1.66653 11.8563 3.62753L11.893 3.71885C12.3373 4.82672 12.5595 5.38065 13.0124 5.71734C13.4652 6.05403 14.0597 6.10727 15.2486 6.21374L15.4636 6.23299C17.4094 6.40726 18.3823 6.49439 18.5905 7.11337C18.7986 7.73235 18.0761 8.3897 16.6311 9.70438L16.1488 10.1432C15.4173 10.8087 15.0515 11.1414 14.8811 11.5776C14.8493 11.6589 14.8228 11.7423 14.8019 11.8271C14.6899 12.2817 14.797 12.7645 15.0112 13.7299L15.0778 14.0305C15.4715 15.8048 15.6684 16.692 15.3247 17.0746C15.1963 17.2176 15.0293 17.3206 14.8439 17.3712C14.3477 17.5066 13.6433 16.9325 12.2343 15.7844C11.3091 15.0305 10.8465 14.6536 10.3154 14.5688C10.1065 14.5354 9.89365 14.5354 9.68475 14.5688C9.15365 14.6536 8.69106 15.0305 7.76589 15.7844C6.35694 16.9325 5.65246 17.5066 5.15626 17.3712C4.97084 17.3206 4.80393 17.2176 4.67551 17.0746C4.33183 16.692 4.52866 15.8048 4.92234 14.0305L4.98902 13.7299C5.20322 12.7645 5.31033 12.2817 5.19827 11.8271C5.17737 11.7423 5.15093 11.6589 5.11913 11.5776C4.94866 11.1414 4.58291 10.8087 3.8514 10.1432L3.36912 9.70439C1.92408 8.3897 1.20155 7.73235 1.40973 7.11337C1.61791 6.49439 2.59082 6.40726 4.53663 6.23299L4.75157 6.21374C5.94049 6.10727 6.53494 6.05403 6.98779 5.71734C7.44064 5.38065 7.66284 4.82672 8.10723 3.71885L8.14386 3.62753Z" fill="white" stroke="white" />
</svg>
