<svg width="31" height="30" viewBox="0 0 31 30" fill="none" xmlns="http://www.w3.org/2000/svg">
	<g clip-path="url(#clip0_427_2570)">
		<path d="M30.1325 6.4869C29.0887 6.9494 27.9675 7.2619 26.7887 7.40315C28.005 6.67539 28.9149 5.52998 29.3488 4.18065C28.2061 4.85938 26.9554 5.33714 25.6513 5.59315C24.7742 4.65673 23.6126 4.03606 22.3467 3.82749C21.0807 3.61893 19.7814 3.83414 18.6503 4.43971C17.5192 5.04529 16.6197 6.00735 16.0914 7.17653C15.5632 8.34571 15.4357 9.65659 15.7287 10.9056C13.4134 10.7894 11.1483 10.1876 9.08053 9.13928C7.01278 8.09097 5.18855 6.6196 3.72625 4.82065C3.22625 5.68315 2.93875 6.68315 2.93875 7.74815C2.93819 8.70689 3.17429 9.65095 3.6261 10.4966C4.07791 11.3422 4.73145 12.0632 5.52875 12.5956C4.6041 12.5662 3.69984 12.3164 2.89125 11.8669V11.9419C2.89116 13.2866 3.35629 14.5899 4.20773 15.6306C5.05917 16.6714 6.24446 17.3856 7.5625 17.6519C6.70473 17.884 5.80542 17.9182 4.9325 17.7519C5.30437 18.9089 6.02874 19.9207 7.00421 20.6456C7.97967 21.3704 9.1574 21.7721 10.3725 21.7944C8.30979 23.4137 5.76236 24.292 3.14 24.2881C2.67548 24.2883 2.21135 24.2611 1.75 24.2069C4.41185 25.9184 7.51043 26.8267 10.675 26.8231C21.3875 26.8231 27.2438 17.9506 27.2438 10.2556C27.2438 10.0056 27.2375 9.75315 27.2262 9.50315C28.3654 8.67937 29.3486 7.65927 30.13 6.49065L30.1325 6.4869Z" fill="#29293E" />
	</g>
	<defs>
		<clipPath id="clip0_427_2570">
			<rect width="30" height="30" fill="white" transform="translate(0.5)" />
		</clipPath>
	</defs>
</svg>
