<svg width="31" height="30" viewBox="0 0 31 30" fill="none" xmlns="http://www.w3.org/2000/svg">
	<path d="M26.6836 10.3816C26.671 9.43484 26.4938 8.49753 26.1598 7.61156C25.8703 6.86425 25.428 6.18556 24.8613 5.61885C24.2946 5.05214 23.6159 4.60988 22.8686 4.32031C21.994 3.99201 21.0701 3.81449 20.1361 3.79531C18.9336 3.74156 18.5523 3.72656 15.4998 3.72656C12.4473 3.72656 12.0561 3.72656 10.8623 3.79531C9.92879 3.81463 9.00528 3.99215 8.13109 4.32031C7.38367 4.60967 6.70487 5.05187 6.13813 5.6186C5.5714 6.18534 5.12921 6.86414 4.83984 7.61156C4.51088 8.48548 4.33375 9.4092 4.31609 10.3428C4.26234 11.5466 4.24609 11.9278 4.24609 14.9803C4.24609 18.0328 4.24609 18.4228 4.31609 19.6178C4.33484 20.5528 4.51109 21.4753 4.83984 22.3516C5.12969 23.0988 5.57221 23.7773 6.13914 24.3438C6.70606 24.9103 7.38492 25.3523 8.13234 25.6416C9.00414 25.9831 9.92781 26.1733 10.8636 26.2041C12.0673 26.2578 12.4486 26.2741 15.5011 26.2741C18.5536 26.2741 18.9448 26.2741 20.1386 26.2041C21.0725 26.1857 21.9965 26.0086 22.8711 25.6803C23.6182 25.3904 24.2967 24.948 24.8634 24.3814C25.4301 23.8147 25.8724 23.1362 26.1623 22.3891C26.4911 21.5141 26.6673 20.5916 26.6861 19.6553C26.7398 18.4528 26.7561 18.0716 26.7561 15.0178C26.7536 11.9653 26.7536 11.5778 26.6836 10.3816ZM15.4923 20.7528C12.2998 20.7528 9.71359 18.1666 9.71359 14.9741C9.71359 11.7816 12.2998 9.19531 15.4923 9.19531C17.025 9.19531 18.4948 9.80414 19.5785 10.8879C20.6623 11.9716 21.2711 13.4414 21.2711 14.9741C21.2711 16.5067 20.6623 17.9765 19.5785 19.0603C18.4948 20.144 17.025 20.7528 15.4923 20.7528ZM21.5011 10.3291C21.3241 10.3292 21.1488 10.2945 20.9852 10.2268C20.8217 10.1592 20.6731 10.0599 20.5479 9.93476C20.4227 9.8096 20.3235 9.66098 20.2558 9.49742C20.1882 9.33386 20.1534 9.15857 20.1536 8.98156C20.1536 8.80469 20.1884 8.62955 20.2561 8.46614C20.3238 8.30273 20.423 8.15425 20.5481 8.02918C20.6732 7.90411 20.8216 7.8049 20.985 7.73721C21.1485 7.66953 21.3236 7.63469 21.5005 7.63469C21.6773 7.63469 21.8525 7.66953 22.0159 7.73721C22.1793 7.8049 22.3278 7.90411 22.4529 8.02918C22.5779 8.15425 22.6771 8.30273 22.7448 8.46614C22.8125 8.62955 22.8473 8.80469 22.8473 8.98156C22.8473 9.72656 22.2448 10.3291 21.5011 10.3291Z" fill="#D49C1F" />
	<path d="M15.492 18.7263C17.5652 18.7263 19.2458 17.0456 19.2458 14.9725C19.2458 12.8994 17.5652 11.2188 15.492 11.2188C13.4189 11.2188 11.7383 12.8994 11.7383 14.9725C11.7383 17.0456 13.4189 18.7263 15.492 18.7263Z" fill="#D49C1F" />
</svg>
