<svg width="31" height="30" viewBox="0 0 31 30" fill="none" xmlns="http://www.w3.org/2000/svg">
	<path d="M26.75 12.0147C24.5383 12.0201 22.3808 11.316 20.5823 10.0019V19.1671C20.5817 20.8646 20.0734 22.5214 19.1254 23.9161C18.1775 25.3108 16.835 26.3767 15.2775 26.9715C13.72 27.5663 12.0217 27.6615 10.4098 27.2445C8.79785 26.8274 7.34906 25.9179 6.25714 24.6377C5.16522 23.3574 4.48222 21.7673 4.29947 20.0801C4.11672 18.3929 4.44293 16.689 5.23448 15.1961C6.02602 13.7032 7.24518 12.4926 8.72893 11.7262C10.2127 10.9597 11.8903 10.6739 13.5375 10.907V15.5168C12.7837 15.2748 11.9743 15.2821 11.2249 15.5376C10.4754 15.7932 9.82427 16.2839 9.36436 16.9398C8.90444 17.5957 8.65931 18.3831 8.66396 19.1897C8.66862 19.9963 8.92282 20.7807 9.39027 21.431C9.85772 22.0813 10.5145 22.5642 11.2669 22.8107C12.0192 23.0573 12.8286 23.0548 13.5795 22.8038C14.3304 22.5527 14.9844 22.0659 15.4481 21.4127C15.9117 20.7596 16.1614 19.9737 16.1614 19.1671V1.25H20.5823C20.5792 1.6311 20.6105 2.01168 20.6758 2.38693C20.8294 3.22462 21.1488 4.02152 21.6145 4.72887C22.0801 5.43622 22.6823 6.03917 23.3841 6.50082C24.3825 7.17472 25.5531 7.5339 26.75 7.53365V12.0147Z" fill="#29293E" />
</svg>
