<svg width="594" height="321" viewBox="0 0 594 321" fill="none" xmlns="http://www.w3.org/2000/svg">
	<path d="M282.771 127.329C300.221 201.206 284.527 265.101 190.362 297.768C96.197 330.436 -13.0445 284.533 58.1729 193.106C129.39 101.679 37.3845 80.1869 79.1694 31.5521C120.955 -17.0832 262.423 41.1786 282.771 127.329Z" fill="#F7BE2B" />
	<path d="M290.347 139.452C299.06 176.343 299.482 210.675 286.026 239.843C272.576 268.998 245.224 293.073 198.219 309.38C151.222 325.684 100.516 322.357 70.4799 303.626C55.4757 294.269 45.6556 281.088 43.9746 264.603C42.2924 248.106 48.7518 228.204 66.517 205.398C84.3537 182.499 91.9997 163.942 94.0549 148.212C96.1107 132.477 92.5657 119.621 88.115 108.148C87.0028 105.281 85.8335 102.499 84.6814 99.782C84.5364 99.4401 84.3917 99.0993 84.2475 98.7594C83.2445 96.3969 82.2621 94.0827 81.3464 91.7962C79.2515 86.5647 77.5171 81.5038 76.7064 76.4107C75.0913 66.2638 77.1313 55.9286 87.5003 43.8598C97.8333 31.8329 114.364 26.375 133.75 26.3439C153.131 26.3129 175.306 31.7088 196.832 41.3176C239.901 60.5437 280.216 96.5627 290.347 139.452Z" stroke="white" stroke-width="0.872372" />
	<mask id="mask0_298_2342" style="mask-type:alpha" maskUnits="userSpaceOnUse" x="35" y="13" width="255" height="296">
		<path d="M282.771 127.329C300.221 201.206 284.527 265.101 190.362 297.768C96.197 330.436 -13.0445 284.533 58.1729 193.106C129.39 101.679 37.3845 80.1869 79.1694 31.5521C120.955 -17.0832 262.423 41.1786 282.771 127.329Z" fill="#FEF7D4" />
	</mask>
	<g mask="url(#mask0_298_2342)">
		<path fill-rule="evenodd" clip-rule="evenodd" d="M116.994 168.957C116.783 166.637 107.292 163.895 104.128 171.487C100.964 179.08 106.66 189.835 117.415 190.678C128.17 191.522 125.007 189.625 125.007 189.625L116.994 168.957Z" fill="#F69E66" />
		<path fill-rule="evenodd" clip-rule="evenodd" d="M212.76 168.957C212.971 166.637 222.461 163.895 225.625 171.487C228.788 179.08 223.095 189.835 212.339 190.678C201.583 191.522 204.747 189.625 204.747 189.625L212.76 168.957Z" fill="#F69E66" />
		<path fill-rule="evenodd" clip-rule="evenodd" d="M164.763 316.84H77.9826C76.9787 272.464 111.12 246.704 140.438 237.091C142.816 224.71 142.208 208.651 142.208 208.651H164.763H187.319C187.319 208.651 186.711 224.71 189.089 237.091C218.407 246.704 252.549 272.464 251.544 316.84H164.763Z" fill="url(#paint0_linear_298_2342)" />
		<path fill-rule="evenodd" clip-rule="evenodd" d="M187.319 208.655C187.319 208.655 187.198 211.838 187.272 216.462C178.706 237.987 152.105 240.408 142.235 217.357C142.343 212.254 142.207 208.655 142.207 208.655C157.233 208.655 172.291 208.655 187.319 208.655Z" fill="#F46E48" />
		<path fill-rule="evenodd" clip-rule="evenodd" d="M254.502 316.84C255.528 273.017 221.108 247.35 191.052 237.46C178.384 265.566 150.955 264.879 138.713 237.382C108.6 247.214 73.9937 272.899 75.0224 316.84H254.502Z" fill="#2E62E7" />
		<path fill-rule="evenodd" clip-rule="evenodd" d="M153.58 255.164C152.638 254.627 151.71 254.019 150.799 253.342H107.559C106.758 253.937 105.965 254.543 105.18 255.164H153.58ZM224.341 255.164C223.557 254.544 222.765 253.937 221.964 253.342H179.02C178.112 254.02 177.185 254.627 176.246 255.164H224.341Z" fill="#2452C7" />
		<path fill-rule="evenodd" clip-rule="evenodd" d="M240.91 272.316C240.469 271.701 240.016 271.095 239.558 270.496H89.963C89.5057 271.095 89.0546 271.701 88.6133 272.316H240.91Z" fill="#2452C7" />
		<path fill-rule="evenodd" clip-rule="evenodd" d="M250.07 289.477C249.845 288.865 249.612 288.258 249.37 287.656H80.1536C79.9129 288.259 79.6789 288.865 79.4531 289.477H250.07Z" fill="#2452C7" />
		<path fill-rule="evenodd" clip-rule="evenodd" d="M254.079 306.637C254.014 306.025 253.942 305.418 253.863 304.816H75.6601C75.5794 305.418 75.5078 306.025 75.4414 306.637H254.079Z" fill="#2452C7" />
		<path fill-rule="evenodd" clip-rule="evenodd" d="M88.2579 272.821C87.6331 273.705 87.0268 274.603 86.4375 275.518V316.84H88.2579V272.821Z" fill="#2452C7" />
		<path fill-rule="evenodd" clip-rule="evenodd" d="M105.418 254.978C104.807 255.457 104.199 255.945 103.598 256.44V316.84H105.418V254.978Z" fill="#2452C7" />
		<path fill-rule="evenodd" clip-rule="evenodd" d="M122.572 244.084C121.963 244.393 121.356 244.71 120.75 245.031V316.84H122.572V244.084Z" fill="#2452C7" />
		<path fill-rule="evenodd" clip-rule="evenodd" d="M139.729 239.521C139.382 238.826 139.042 238.115 138.715 237.382C138.447 237.469 138.178 237.56 137.91 237.65V316.84H139.729V239.521Z" fill="#2452C7" />
		<path fill-rule="evenodd" clip-rule="evenodd" d="M243.086 275.518C242.498 274.603 241.89 273.704 241.266 272.821V316.84H243.086V275.518Z" fill="#2452C7" />
		<path fill-rule="evenodd" clip-rule="evenodd" d="M225.93 256.439C225.328 255.944 224.721 255.458 224.109 254.979V316.84H225.93V256.439Z" fill="#2452C7" />
		<path fill-rule="evenodd" clip-rule="evenodd" d="M208.773 245.033C208.167 244.71 207.562 244.393 206.953 244.084V316.84H208.773V245.033Z" fill="#2452C7" />
		<path fill-rule="evenodd" clip-rule="evenodd" d="M191.617 237.651C191.429 237.587 191.241 237.522 191.054 237.46C190.649 238.356 190.231 239.223 189.797 240.06V316.84H191.617V237.651Z" fill="#2452C7" />
		<path fill-rule="evenodd" clip-rule="evenodd" d="M186.306 245.787C174.229 262.611 155.292 262.277 143.432 245.705L139.059 247.412L150.603 269.739V316.84H178.922V269.739L190.468 247.412L186.306 245.787Z" fill="white" />
		<path fill-rule="evenodd" clip-rule="evenodd" d="M164.76 220.092C108.801 221.437 80.547 83.4408 164.76 86.9752C248.975 83.4408 220.72 221.437 164.76 220.092Z" fill="url(#paint1_linear_298_2342)" />
		<path fill-rule="evenodd" clip-rule="evenodd" d="M145.961 153.487C148.207 155.107 148.712 158.239 147.088 160.48C145.464 162.721 142.325 163.226 140.08 161.605C137.833 159.985 137.328 156.853 138.952 154.611C140.576 152.368 143.714 151.866 145.961 153.487Z" fill="#0D0A20" />
		<path fill-rule="evenodd" clip-rule="evenodd" d="M183.877 153.487C181.629 155.107 181.125 158.239 182.75 160.48C184.372 162.721 187.511 163.226 189.758 161.605C192.004 159.985 192.509 156.853 190.884 154.611C189.26 152.368 186.123 151.866 183.877 153.487Z" fill="#0D0A20" />
		<path fill-rule="evenodd" clip-rule="evenodd" d="M139.779 171.681C142.635 173.874 142.761 177.085 140.058 178.854C137.356 180.623 132.849 180.278 129.992 178.086C127.135 175.893 127.012 172.682 129.714 170.913C132.417 169.144 136.923 169.489 139.779 171.681Z" fill="#F37B69" />
		<path fill-rule="evenodd" clip-rule="evenodd" d="M190.059 171.681C187.202 173.874 187.078 177.085 189.78 178.854C192.483 180.623 196.989 180.278 199.845 178.086C202.701 175.893 202.827 172.682 200.124 170.913C197.421 169.144 192.916 169.489 190.059 171.681Z" fill="#F37B69" />
		<path fill-rule="evenodd" clip-rule="evenodd" d="M148.154 139.879C147.969 139.797 147.781 139.721 147.59 139.648C145.403 138.859 143.549 138.645 141.187 138.817C138.874 139.062 137.146 139.584 135.207 140.691C134.303 141.275 130.769 144.135 131.771 145.189C132.179 145.302 135.699 143.504 136.732 143.169C138.341 142.694 139.645 142.511 141.349 142.547C142.937 142.619 144.133 142.85 145.579 143.408C145.62 143.416 145.88 143.533 145.936 143.559C148.889 144.993 148.621 145.915 150.633 144.536C153.734 142.885 150.544 141.121 148.154 139.879Z" fill="#0D0A20" />
		<path fill-rule="evenodd" clip-rule="evenodd" d="M181.373 139.879C181.559 139.797 181.746 139.721 181.936 139.648C184.124 138.859 185.977 138.645 188.34 138.817C190.653 139.062 192.381 139.584 194.32 140.691C195.224 141.275 198.757 144.135 197.756 145.189C197.348 145.302 193.828 143.504 192.795 143.169C191.186 142.694 189.882 142.511 188.179 142.547C186.589 142.619 185.395 142.85 183.947 143.408C183.907 143.416 183.647 143.533 183.59 143.559C180.639 144.993 180.906 145.915 178.892 144.536C175.793 142.885 178.983 141.121 181.373 139.879Z" fill="#0D0A20" />
		<path fill-rule="evenodd" clip-rule="evenodd" d="M150.246 183.388C155.404 183.324 160.542 183.292 165.679 183.292C170.818 183.292 175.956 183.324 181.113 183.388C181.113 191.48 173.133 194.371 165.708 194.371L165.679 194.37L165.653 194.371C158.227 194.371 150.246 191.48 150.246 183.388Z" fill="white" />
		<path fill-rule="evenodd" clip-rule="evenodd" d="M162.134 199.186C161.846 199.016 161.751 198.646 161.919 198.358C162.088 198.07 162.458 197.974 162.746 198.142C163.581 198.631 164.643 198.876 165.707 198.876C166.769 198.876 167.812 198.633 168.613 198.147C168.898 197.975 169.269 198.065 169.443 198.351C169.615 198.636 169.523 199.009 169.239 199.18C168.24 199.785 166.972 200.09 165.707 200.09C164.443 200.09 163.161 199.788 162.134 199.186Z" fill="#F46E48" />
		<path fill-rule="evenodd" clip-rule="evenodd" d="M164.304 172.281C163.971 172.281 163.699 172.01 163.699 171.675C163.699 171.34 163.971 171.068 164.304 171.068C165.762 171.068 167.501 171.055 168.845 170.828C169.949 170.639 170.762 170.341 170.762 169.836C170.762 168.092 168.994 157.242 168.988 157.211C168.937 156.881 169.162 156.572 169.492 156.518C169.822 156.465 170.13 156.691 170.184 157.02C170.188 157.052 171.975 168.017 171.975 169.836C171.975 171.115 170.733 171.735 169.044 172.021C167.594 172.268 165.803 172.281 164.304 172.281Z" fill="#F46E48" />
		<path fill-rule="evenodd" clip-rule="evenodd" d="M222.185 177.481C222.185 177.816 221.913 178.088 221.577 178.088C221.242 178.088 220.971 177.816 220.971 177.481C220.971 175.639 220.653 174.48 220.14 173.85C219.832 173.471 219.442 173.298 219.012 173.288C218.516 173.276 217.948 173.463 217.359 173.796C215.767 174.696 214.119 176.609 213.209 178.694C212.769 179.696 212.391 180.728 212.174 181.507C213.106 180.859 214.134 180.601 215.001 180.688C215.494 180.738 215.944 180.898 216.308 181.161C216.692 181.437 216.979 181.821 217.122 182.304C217.371 183.135 217.179 184.253 216.286 185.588C216.1 185.865 215.723 185.939 215.447 185.753C215.168 185.567 215.095 185.19 215.281 184.913C215.948 183.919 216.115 183.16 215.962 182.65C215.897 182.434 215.77 182.263 215.601 182.141C215.412 182.006 215.164 181.92 214.882 181.892C214.102 181.814 213.117 182.155 212.295 182.98C212.075 183.201 211.868 183.327 211.679 183.368C211.191 183.473 210.909 183.258 210.803 182.782L210.795 182.749C210.76 182.569 210.768 182.329 210.814 182.041C210.951 181.179 211.469 179.652 212.1 178.21C213.111 175.899 214.962 173.763 216.761 172.743C217.534 172.306 218.313 172.063 219.034 172.079C219.823 172.097 220.527 172.409 221.078 173.087C221.76 173.926 222.185 175.339 222.185 177.481Z" fill="#F46E48" />
		<path fill-rule="evenodd" clip-rule="evenodd" d="M108.553 177.481C108.553 177.816 108.282 178.088 107.947 178.088C107.611 178.088 107.34 177.816 107.34 177.481C107.34 175.339 107.764 173.926 108.446 173.087C108.998 172.409 109.702 172.097 110.489 172.079C111.213 172.063 111.99 172.306 112.763 172.743C114.563 173.763 116.414 175.899 117.426 178.21C118.055 179.652 118.574 181.179 118.711 182.041C118.756 182.329 118.765 182.569 118.729 182.749L118.722 182.782C118.617 183.258 118.333 183.473 117.846 183.368C117.657 183.327 117.449 183.201 117.229 182.98C116.409 182.155 115.421 181.814 114.642 181.892C114.361 181.92 114.113 182.006 113.923 182.141C113.753 182.263 113.627 182.434 113.563 182.65C113.411 183.16 113.576 183.919 114.244 184.913C114.429 185.19 114.355 185.567 114.077 185.753C113.8 185.939 113.424 185.865 113.239 185.588C112.345 184.253 112.153 183.135 112.401 182.304C112.545 181.821 112.832 181.437 113.217 181.161C113.581 180.898 114.031 180.738 114.525 180.688C115.392 180.601 116.418 180.859 117.35 181.507C117.134 180.728 116.755 179.696 116.316 178.694C115.405 176.609 113.758 174.696 112.165 173.796C111.576 173.463 111.01 173.276 110.512 173.288C110.082 173.298 109.692 173.471 109.384 173.85C108.873 174.48 108.553 175.639 108.553 177.481Z" fill="#F46E48" />
		<path fill-rule="evenodd" clip-rule="evenodd" d="M165.18 110.032C165.18 136.969 184.538 131.807 196.184 138.128C204.917 142.872 203.65 143.423 206.058 153.111C208.268 162.005 209.068 175.959 210.233 180.73C227.8 137.235 235.116 116.898 211.308 97.7735C197.071 86.3378 186.931 63.6511 165.115 81.746C135.995 66.8615 133.339 86.4209 119.051 97.7735C99.4499 113.346 97.7126 128.886 103.258 145.211C105.649 152.251 119.77 179.585 121.099 183.551C122.898 165.376 121.742 149.523 127.455 143.302C132.705 137.586 143.903 136.8 149.912 133.033C160.534 126.375 165.18 117.911 165.18 110.032Z" fill="#0D0A20" />
		<path fill-rule="evenodd" clip-rule="evenodd" d="M209.599 177.114C208.715 170.839 207.851 160.315 206.06 153.111C203.651 143.423 204.919 142.872 196.185 138.128C184.539 131.807 165.182 136.969 165.182 110.032C165.182 117.911 160.536 126.375 149.913 133.033C143.904 136.8 132.707 137.586 127.456 143.302C121.743 149.523 122.9 165.376 121.1 183.551C119.771 179.585 105.651 152.251 103.26 145.211C101.126 138.929 100.073 132.763 100.699 126.668C103.362 128.684 109.727 129.885 112.568 130.463C118.66 131.703 125.329 130.078 131.675 127.483C145.802 121.704 156.717 118.815 161.212 106.615C165.706 94.4152 165.706 93.7721 165.706 93.7721C165.706 93.7721 166.669 116.888 191.711 123.309C201.979 125.942 210.359 127.928 216.539 127.958C217.894 127.965 222.202 126.859 226.436 125.632C230.21 145.211 220.109 156.275 210.341 180.47C210.3 180.556 210.262 180.642 210.235 180.73C210.202 180.59 210.166 180.441 210.132 180.283L210.127 180.258L210.122 180.234L210.076 180.01L210.073 180.002L210.071 179.99C210.055 179.908 210.038 179.822 210.021 179.735V179.733L209.971 179.469L209.967 179.452V179.449L209.599 177.114ZM209.599 177.114L209.606 177.173L209.608 177.184L209.647 177.455L209.657 177.522L209.659 177.529L209.666 177.59L209.697 177.788L209.707 177.853L209.709 177.876L209.714 177.917L209.725 177.982L209.745 178.109L209.756 178.173L209.76 178.213L209.763 178.236L209.767 178.249L209.812 178.533V178.538L209.813 178.546L209.862 178.842V178.845L209.863 178.855L209.866 178.867L209.912 179.135C209.912 179.135 209.914 179.159 209.599 177.114Z" fill="#0D0A20" />
		<path fill-rule="evenodd" clip-rule="evenodd" d="M141.8 225.089L150.604 269.742C148.698 266.916 143.531 260.219 138.667 260.219C135.567 260.219 123.856 266.56 123.942 265.854C126.951 241.082 133.256 230.876 141.8 225.089Z" fill="#153484" />
		<path fill-rule="evenodd" clip-rule="evenodd" d="M187.497 225.089L178.691 269.742C180.599 266.916 185.765 260.219 190.63 260.219C193.73 260.219 205.439 266.56 205.354 265.854C202.346 241.082 196.041 230.876 187.497 225.089Z" fill="#153484" />
		<path fill-rule="evenodd" clip-rule="evenodd" d="M101.48 291.726C101.485 291.226 101.894 290.822 102.395 290.827C102.895 290.831 103.297 291.24 103.295 291.74L103.07 316.85C103.067 317.35 102.658 317.754 102.156 317.75C101.656 317.746 101.254 317.337 101.258 316.837L101.48 291.726Z" fill="#153484" />
		<path fill-rule="evenodd" clip-rule="evenodd" d="M226.455 291.726C226.459 291.226 226.869 290.822 227.369 290.827C227.869 290.831 228.271 291.24 228.267 291.74L228.045 316.85C228.041 317.35 227.632 317.754 227.13 317.75C226.63 317.746 226.227 317.337 226.23 316.837L226.455 291.726Z" fill="#153484" />
		<path fill-rule="evenodd" clip-rule="evenodd" d="M156.756 96.1418C156.82 95.8117 157.136 95.5978 157.465 95.6601C157.794 95.7237 158.008 96.0403 157.947 96.3692C156.969 101.422 155.254 106.724 151.736 111.426C148.217 116.134 142.903 120.223 134.742 122.835C118.537 128.021 112.622 126.708 112.605 126.705C112.277 126.637 112.067 126.318 112.133 125.991C112.2 125.664 112.52 125.453 112.846 125.519C112.863 125.523 118.473 126.771 134.373 121.684C142.262 119.16 147.384 115.224 150.766 110.701C154.152 106.173 155.809 101.041 156.756 96.1418Z" fill="white" fill-opacity="0.1" />
		<path fill-rule="evenodd" clip-rule="evenodd" d="M111.344 120.44C111.195 120.738 110.833 120.858 110.532 120.71C110.235 120.561 110.114 120.198 110.263 119.9C111.995 116.434 114.828 113.473 118.331 110.913C121.804 108.375 125.939 106.225 130.31 104.363C134.982 102.373 137.165 97.8082 139.141 93.676C140.756 90.2981 142.24 87.1941 144.866 85.7674C150.808 82.5436 160.067 88.6636 160.094 88.6807C160.375 88.8641 160.453 89.2406 160.27 89.5194C160.088 89.8006 159.711 89.8788 159.431 89.6954C159.407 89.6783 150.74 83.9556 145.445 86.8298C143.161 88.0694 141.757 91.0047 140.231 94.1968C138.16 98.5271 135.873 103.308 130.785 105.477C126.49 107.306 122.436 109.411 119.047 111.889C115.688 114.344 112.982 117.164 111.344 120.44Z" fill="white" fill-opacity="0.1" />
		<path fill-rule="evenodd" clip-rule="evenodd" d="M172.171 96.3692C172.109 96.0403 172.323 95.7237 172.653 95.6601C172.98 95.5978 173.298 95.8117 173.36 96.1418C174.308 101.041 175.965 106.173 179.351 110.701C182.734 115.224 187.855 119.16 195.744 121.684C211.644 126.771 217.253 125.523 217.271 125.519C217.597 125.453 217.916 125.664 217.983 125.991C218.051 126.318 217.839 126.637 217.511 126.705C217.496 126.708 211.581 128.021 195.375 122.835C187.213 120.223 181.9 116.134 178.379 111.426C174.864 106.724 173.149 101.422 172.171 96.3692Z" fill="white" fill-opacity="0.1" />
		<path fill-rule="evenodd" clip-rule="evenodd" d="M219.855 119.9C220.004 120.198 219.884 120.561 219.586 120.71C219.287 120.858 218.925 120.738 218.774 120.44C217.137 117.164 214.432 114.344 211.072 111.889C207.682 109.411 203.63 107.306 199.334 105.477C194.245 103.308 191.958 98.5271 189.888 94.1968C188.361 91.0047 186.959 88.0694 184.674 86.8298C179.378 83.9556 170.713 89.6783 170.687 89.6954C170.408 89.8788 170.032 89.8006 169.848 89.5194C169.666 89.2406 169.744 88.8641 170.024 88.6807C170.051 88.6636 179.312 82.5436 185.254 85.7674C187.88 87.1941 189.362 90.2981 190.979 93.676C192.954 97.8082 195.137 102.373 199.808 104.363C204.181 106.225 208.314 108.375 211.788 110.913C215.29 113.473 218.123 116.435 219.855 119.9Z" fill="white" fill-opacity="0.1" />
	</g>
	<path d="M55.3346 110.558C49.1204 93.6618 29.8289 80.4438 15.8031 88.5986C8.38771 92.9099 0.295822 109.528 20.3277 125.947C34.6364 137.674 21.1644 158.391 33.1271 162.296C51.2449 168.21 63.0618 131.569 55.3346 110.558Z" fill="#F7BE2B" />
	<circle cx="24.6755" cy="174.699" r="7.5" transform="rotate(3.50777 24.6755 174.699)" fill="#F7BE2B" />
	<g opacity="0.7">
		<g filter="url(#filter0_b_298_2342)">
			<path d="M568.142 132.429C582.59 193.602 569.596 246.508 491.624 273.558C413.653 300.607 323.199 262.598 382.168 186.895C441.138 111.191 364.955 93.3947 399.554 53.1239C434.153 12.8526 551.293 61.0949 568.142 132.429Z" fill="white" fill-opacity="0.14" />
		</g>
		<mask id="mask1_298_2342" style="mask-type:alpha" maskUnits="userSpaceOnUse" x="363" y="38" width="211" height="245">
			<path d="M568.142 132.429C582.59 193.602 569.596 246.508 491.624 273.558C413.653 300.607 323.199 262.598 382.168 186.895C441.138 111.191 364.955 93.3947 399.554 53.1239C434.153 12.8526 551.293 61.0949 568.142 132.429Z" fill="white" fill-opacity="0.14" />
		</mask>
		<g mask="url(#mask1_298_2342)">
			<path fill-rule="evenodd" clip-rule="evenodd" d="M476.911 224.879C440.313 226.116 430.402 204.241 430.963 207.106C431.678 210.741 433.635 213.431 435.014 215.441C435.114 215.59 435.831 216.052 434.499 215.592C411.583 207.676 410.905 188.945 410.863 189.07C409.819 192.109 412.746 200.671 411.578 200.597C391.07 173.396 454.466 48.7772 484.753 106.004C500.52 107.581 506.55 109.158 513.487 124.609C526.664 153.957 512.451 165.992 542.34 193.82C541.352 195.445 537.133 198.081 532.992 199.364C528.472 200.764 524.043 200.75 524.01 201.004C523.891 201.931 529.989 204.096 533.042 204.446C519.841 216.057 500.923 215.754 495.652 216.116C494.673 216.183 505.232 218.669 506.689 219.6C500.73 224.705 486.343 225.106 476.911 224.879Z" fill="#0D0A20" />
			<path fill-rule="evenodd" clip-rule="evenodd" d="M469.889 286.242H539.76C540.569 250.515 513.08 229.773 489.476 222.033C487.562 212.065 488.051 199.135 488.051 199.135H469.889H451.73C451.73 199.135 452.219 212.065 450.303 222.033C426.699 229.773 399.21 250.515 400.019 286.242H469.889Z" fill="url(#paint2_linear_298_2342)" />
			<path fill-rule="evenodd" clip-rule="evenodd" d="M508.352 170.478C508.521 168.609 516.162 166.403 518.71 172.515C521.256 178.628 516.671 187.288 508.012 187.967C499.353 188.645 501.9 187.118 501.9 187.118L508.352 170.478Z" fill="#F69E66" />
			<path fill-rule="evenodd" clip-rule="evenodd" d="M431.245 170.478C431.076 168.609 423.435 166.403 420.888 172.515C418.341 178.628 422.926 187.288 431.585 187.967C440.245 188.645 437.697 187.118 437.697 187.118L431.245 170.478Z" fill="#F69E66" />
			<path fill-rule="evenodd" clip-rule="evenodd" d="M451.505 211.952C459.368 226.992 479.617 228.56 488.312 212.531C488.084 209.253 488.01 206.166 487.997 203.784H451.783C451.771 206.026 451.704 208.891 451.505 211.952Z" fill="#F46E48" />
			<path fill-rule="evenodd" clip-rule="evenodd" d="M469.889 211.648C514.945 212.73 537.693 101.625 469.889 104.471C402.086 101.625 424.834 212.73 469.889 211.648Z" fill="url(#paint3_linear_298_2342)" />
			<path fill-rule="evenodd" clip-rule="evenodd" d="M485.028 160.081C483.218 161.386 482.813 163.908 484.12 165.712C485.428 167.517 487.955 167.923 489.763 166.619C491.572 165.312 491.979 162.791 490.671 160.986C489.364 159.181 486.837 158.776 485.028 160.081Z" fill="#0D0A20" />
			<path fill-rule="evenodd" clip-rule="evenodd" d="M454.502 160.081C456.311 161.386 456.717 163.908 455.409 165.712C454.101 167.517 451.575 167.923 449.767 166.619C447.957 165.312 447.551 162.791 448.859 160.986C450.166 159.181 452.693 158.776 454.502 160.081Z" fill="#0D0A20" />
			<path fill-rule="evenodd" clip-rule="evenodd" d="M490.004 174.729C487.705 176.495 487.604 179.081 489.78 180.504C491.955 181.927 495.583 181.651 497.883 179.885C500.183 178.12 500.283 175.534 498.107 174.111C495.932 172.688 492.303 172.964 490.004 174.729Z" fill="#F37B69" />
			<path fill-rule="evenodd" clip-rule="evenodd" d="M449.524 174.729C451.824 176.495 451.923 179.081 449.748 180.504C447.573 181.927 443.944 181.651 441.645 179.885C439.346 178.12 439.245 175.534 441.422 174.111C443.596 172.688 447.225 172.964 449.524 174.729Z" fill="#F37B69" />
			<path fill-rule="evenodd" clip-rule="evenodd" d="M483.26 149.126C483.41 149.06 483.561 148.999 483.714 148.94C485.475 148.305 486.967 148.132 488.87 148.27C490.732 148.467 492.123 148.888 493.684 149.779C494.413 150.249 497.257 152.552 496.451 153.402C496.122 153.492 493.289 152.044 492.457 151.774C491.162 151.392 490.111 151.246 488.739 151.274C487.461 151.332 486.499 151.518 485.333 151.967C485.301 151.973 485.091 152.068 485.046 152.087C482.669 153.243 482.884 153.986 481.264 152.874C478.768 151.546 481.336 150.125 483.26 149.126Z" fill="#0D0A20" />
			<path fill-rule="evenodd" clip-rule="evenodd" d="M456.517 149.126C456.368 149.06 456.217 148.999 456.063 148.94C454.302 148.305 452.809 148.132 450.908 148.27C449.045 148.467 447.654 148.888 446.093 149.779C445.365 150.249 442.52 152.552 443.326 153.402C443.655 153.492 446.489 152.044 447.321 151.774C448.616 151.392 449.666 151.246 451.038 151.274C452.317 151.332 453.279 151.518 454.445 151.967C454.477 151.973 454.686 152.068 454.732 152.087C457.109 153.243 456.893 153.986 458.513 152.874C461.01 151.546 458.441 150.125 456.517 149.126Z" fill="#0D0A20" />
			<path fill-rule="evenodd" clip-rule="evenodd" d="M472.005 196.882C472.238 196.746 472.315 196.448 472.18 196.217C472.043 195.985 471.745 195.907 471.513 196.042C470.842 196.436 469.986 196.633 469.129 196.633C468.275 196.633 467.434 196.437 466.79 196.046C466.56 195.907 466.261 195.981 466.121 196.211C465.982 196.44 466.056 196.739 466.286 196.879C467.09 197.366 468.11 197.609 469.129 197.609C470.147 197.609 471.178 197.367 472.005 196.882Z" fill="#F46E48" />
			<path fill-rule="evenodd" clip-rule="evenodd" d="M470.257 179.203C470.527 179.203 470.746 178.985 470.746 178.715C470.746 178.445 470.527 178.227 470.257 178.227C469.085 178.227 467.684 178.216 466.602 178.032C465.713 177.881 465.059 177.64 465.059 177.235C465.059 175.83 466.482 167.094 466.486 167.069C466.528 166.804 466.348 166.554 466.081 166.511C465.816 166.47 465.567 166.65 465.524 166.916C465.52 166.943 464.082 175.77 464.082 177.235C464.082 178.264 465.082 178.763 466.442 178.993C467.609 179.191 469.052 179.203 470.257 179.203Z" fill="#F46E48" />
			<path fill-rule="evenodd" clip-rule="evenodd" d="M423.657 177.344C423.657 177.613 423.874 177.832 424.145 177.832C424.415 177.832 424.633 177.613 424.633 177.344C424.633 175.859 424.89 174.927 425.303 174.419C425.55 174.115 425.864 173.974 426.21 173.967C426.611 173.958 427.068 174.107 427.541 174.376C428.824 175.102 430.149 176.642 430.883 178.319C431.236 179.127 431.54 179.957 431.715 180.585C430.965 180.063 430.139 179.856 429.441 179.926C429.043 179.966 428.682 180.094 428.388 180.306C428.078 180.528 427.846 180.838 427.732 181.226C427.532 181.896 427.686 182.796 428.405 183.87C428.555 184.093 428.857 184.153 429.08 184.004C429.304 183.854 429.364 183.552 429.214 183.327C428.677 182.526 428.544 181.916 428.667 181.505C428.718 181.331 428.82 181.193 428.955 181.096C429.109 180.986 429.309 180.918 429.535 180.895C430.163 180.831 430.958 181.106 431.619 181.771C431.795 181.949 431.962 182.05 432.114 182.083C432.507 182.168 432.734 181.996 432.819 181.611L432.826 181.585C432.854 181.44 432.848 181.246 432.811 181.015C432.701 180.32 432.283 179.092 431.777 177.93C430.962 176.069 429.472 174.349 428.021 173.529C427.399 173.177 426.774 172.98 426.192 172.993C425.558 173.009 424.991 173.259 424.547 173.805C423.997 174.48 423.657 175.618 423.657 177.344Z" fill="#F46E48" />
			<path fill-rule="evenodd" clip-rule="evenodd" d="M515.144 177.344C515.144 177.613 515.362 177.832 515.633 177.832C515.902 177.832 516.121 177.613 516.121 177.344C516.121 175.618 515.78 174.48 515.23 173.805C514.786 173.259 514.219 173.009 513.585 172.993C513.004 172.98 512.378 173.177 511.755 173.529C510.306 174.349 508.816 176.069 508 177.93C507.494 179.092 507.076 180.32 506.965 181.015C506.93 181.246 506.923 181.44 506.952 181.585L506.957 181.611C507.043 181.995 507.269 182.168 507.662 182.083C507.815 182.05 507.982 181.949 508.159 181.771C508.82 181.106 509.614 180.831 510.242 180.895C510.468 180.918 510.668 180.986 510.821 181.096C510.957 181.193 511.059 181.331 511.111 181.505C511.233 181.916 511.1 182.526 510.563 183.327C510.413 183.552 510.472 183.854 510.696 184.004C510.919 184.153 511.222 184.093 511.372 183.87C512.091 182.796 512.246 181.896 512.046 181.226C511.93 180.838 511.699 180.528 511.389 180.306C511.096 180.094 510.734 179.966 510.336 179.926C509.639 179.856 508.811 180.063 508.062 180.585C508.236 179.957 508.541 179.127 508.894 178.319C509.627 176.642 510.953 175.102 512.236 174.376C512.71 174.107 513.166 173.958 513.566 173.967C513.913 173.974 514.227 174.115 514.475 174.419C514.887 174.927 515.144 175.859 515.144 177.344Z" fill="#F46E48" />
			<path fill-rule="evenodd" clip-rule="evenodd" d="M479.922 156.695C482.092 154.523 485.092 153.18 488.405 153.18C491.718 153.18 494.717 154.523 496.889 156.695C499.058 158.866 500.402 161.865 500.402 165.178C500.402 168.491 499.058 171.49 496.889 173.661C494.717 175.832 491.718 177.174 488.405 177.174C485.092 177.174 482.092 175.832 479.922 173.661C477.751 171.49 476.408 168.491 476.408 165.178C476.408 161.865 477.751 158.866 479.922 156.695ZM488.405 150.738C484.417 150.738 480.808 152.355 478.195 154.969C475.582 157.58 473.965 161.191 473.965 165.178C473.965 169.164 475.582 172.774 478.195 175.388C480.808 178 484.417 179.617 488.405 179.617C492.391 179.617 496.003 178 498.614 175.388C501.228 172.774 502.844 169.164 502.844 165.178C502.844 161.191 501.228 157.58 498.614 154.969C496.003 152.355 492.391 150.738 488.405 150.738Z" fill="white" />
			<path fill-rule="evenodd" clip-rule="evenodd" d="M442.886 156.695C445.058 154.523 448.056 153.18 451.369 153.18C454.683 153.18 457.682 154.523 459.853 156.695C462.024 158.866 463.367 161.865 463.367 165.178C463.367 168.491 462.024 171.49 459.853 173.661C457.682 175.832 454.683 177.174 451.369 177.174C448.056 177.174 445.058 175.832 442.886 173.661C440.716 171.49 439.372 168.491 439.372 165.178C439.372 161.865 440.716 158.866 442.886 156.695ZM451.369 150.738C447.383 150.738 443.773 152.355 441.159 154.969C438.548 157.58 436.931 161.191 436.931 165.178C436.931 169.164 438.548 172.774 441.159 175.388C443.773 178 447.383 179.617 451.369 179.617C455.357 179.617 458.967 178 461.579 175.388C464.192 172.774 465.809 169.164 465.809 165.178C465.809 161.191 464.192 157.58 461.579 154.969C458.967 152.355 455.357 150.738 451.369 150.738Z" fill="white" />
			<path fill-rule="evenodd" clip-rule="evenodd" d="M502.056 163.997C501.55 163.816 500.992 164.079 500.811 164.585C500.63 165.09 500.893 165.648 501.399 165.83L509.999 168.927C510.506 169.108 511.062 168.845 511.243 168.339C511.425 167.834 511.161 167.277 510.656 167.094L502.056 163.997Z" fill="white" />
			<path fill-rule="evenodd" clip-rule="evenodd" d="M438.339 165.83C438.844 165.648 439.109 165.09 438.927 164.585C438.746 164.079 438.189 163.816 437.684 163.997L429.083 167.094C428.578 167.277 428.314 167.834 428.495 168.339C428.676 168.845 429.234 169.108 429.739 168.927L438.339 165.83Z" fill="white" />
			<path fill-rule="evenodd" clip-rule="evenodd" d="M474.979 164.057C475.259 164.516 475.859 164.661 476.319 164.38C476.777 164.1 476.923 163.501 476.642 163.042C476.637 163.034 474.987 160.231 469.89 160.231C464.795 160.231 463.142 163.034 463.139 163.042C462.858 163.501 463.004 164.1 463.462 164.38C463.921 164.661 464.522 164.516 464.802 164.057C464.805 164.051 465.9 162.185 469.89 162.185C473.882 162.185 474.976 164.051 474.979 164.057Z" fill="white" />
			<path fill-rule="evenodd" clip-rule="evenodd" d="M454.608 183.831C460.742 186.108 479.384 186.062 485.172 184.105C481.974 195.758 457.718 195.574 454.608 183.831Z" fill="white" />
			<path fill-rule="evenodd" clip-rule="evenodd" d="M482.666 104.418C512.631 104.418 514.976 124.488 518.684 151.079C517.955 152.992 504.64 188.142 504.477 181.767C504.22 171.768 503.751 153.505 502.693 150.284C502.172 148.695 501.459 149.016 499.791 148.373C485.195 142.76 472.605 131.505 482.666 104.418Z" fill="#0D0A20" />
			<path fill-rule="evenodd" clip-rule="evenodd" d="M422.245 133.51C432.202 111.102 448.361 92.6829 463.56 90.2418C473.433 88.6551 486.636 95.0078 484.733 107.318C483.569 114.858 476.87 127.096 475.375 129.374C466.657 142.662 452.921 140.561 439.609 150.357C434.714 153.958 434.879 175.316 436.237 181.557C436.765 183.99 430.91 172.686 426.475 162.002C421.988 151.195 418.937 140.951 422.245 133.51Z" fill="#0D0A20" />
			<path fill-rule="evenodd" clip-rule="evenodd" d="M469.927 231.497C477.129 231.718 484.281 228.314 489.518 220.73C498.556 233.808 482.657 262.228 471.461 236.136C469.668 231.957 470.14 232.078 468.362 236.206C457.167 262.177 441.306 233.797 450.336 220.73C455.572 228.314 462.724 231.718 469.927 231.497Z" fill="#FF4444" />
			<path fill-rule="evenodd" clip-rule="evenodd" d="M471.461 236.141C481.683 259.964 495.827 238.342 491.329 224.447C491.097 223.731 490.816 223.037 490.482 222.37C491.923 222.863 493.378 223.405 494.837 223.994C517.043 232.968 540.508 253.193 539.76 286.242H469.889H400.019C399.22 250.977 425.994 230.312 449.386 222.341C442.545 235.946 457.607 261.16 468.361 236.211C470.14 232.082 469.668 231.961 471.461 236.141Z" fill="#D42727" />
			<path fill-rule="evenodd" clip-rule="evenodd" d="M520.84 266.017C520.836 265.613 520.508 265.289 520.104 265.292C519.702 265.296 519.378 265.625 519.38 266.029L519.561 286.244C519.563 286.648 519.892 286.972 520.295 286.969C520.699 286.966 521.022 286.636 521.02 286.234L520.84 266.017Z" fill="#820C0C" />
			<path fill-rule="evenodd" clip-rule="evenodd" d="M420.219 266.017C420.216 265.613 419.887 265.289 419.483 265.292C419.08 265.296 418.757 265.625 418.759 266.029L418.939 286.244C418.943 286.648 419.271 286.972 419.675 286.969C420.078 286.966 420.401 286.636 420.398 286.234L420.219 266.017Z" fill="#820C0C" />
			<path fill-rule="evenodd" clip-rule="evenodd" d="M471.654 109.433C471.679 109.165 471.483 108.928 471.215 108.902C470.948 108.876 470.709 109.073 470.685 109.341C470.147 114.881 469.496 119.824 467.011 124.441C464.527 129.055 460.191 133.384 452.271 137.728C450.565 138.663 448.959 139.533 447.426 140.364C434.246 147.503 426.284 151.816 421.822 161.21C416.887 171.6 415.844 176.816 415.841 176.829C415.787 177.093 415.957 177.351 416.221 177.404C416.484 177.457 416.741 177.287 416.795 177.024C416.798 177.01 417.817 171.915 422.704 161.627C427.027 152.522 434.884 148.266 447.888 141.223C449.441 140.38 451.066 139.5 452.741 138.582C460.846 134.137 465.299 129.676 467.869 124.902C470.438 120.13 471.106 115.082 471.654 109.433Z" fill="white" fill-opacity="0.1" />
			<path fill-rule="evenodd" clip-rule="evenodd" d="M467.812 103.375C468.016 103.202 468.043 102.894 467.871 102.689C467.697 102.483 467.391 102.458 467.186 102.631C464.832 104.609 462.001 106.802 458.93 109.181C447.271 118.212 432.137 129.933 424.93 144.141C415.858 162.027 413.268 172.384 413.26 172.415C413.194 172.676 413.352 172.942 413.613 173.008C413.874 173.074 414.141 172.916 414.207 172.655C414.214 172.625 416.779 162.363 425.799 144.58C432.908 130.568 447.942 118.922 459.525 109.951C462.589 107.578 465.414 105.391 467.812 103.375Z" fill="white" fill-opacity="0.1" />
			<path fill-rule="evenodd" clip-rule="evenodd" d="M483.497 119.049C483.503 118.779 483.292 118.556 483.023 118.549C482.755 118.541 482.53 118.753 482.522 119.021C482.397 123.021 484.103 127.119 486.975 131.019C490.186 135.38 494.864 139.505 500.059 142.963C509.623 149.329 513.553 161.542 513.565 161.577C513.647 161.832 513.922 161.974 514.179 161.89C514.435 161.807 514.575 161.532 514.492 161.276C514.479 161.239 510.448 148.707 500.596 142.15C495.491 138.752 490.901 134.708 487.761 130.442C485.013 126.71 483.379 122.814 483.497 119.049Z" fill="white" fill-opacity="0.1" />
			<path fill-rule="evenodd" clip-rule="evenodd" d="M513.546 152.719C513.592 152.985 513.844 153.163 514.11 153.118C514.376 153.073 514.553 152.821 514.509 152.555C513.729 148.012 512.431 141.863 510.122 135.661C507.806 129.441 504.476 123.175 499.636 118.428C497.945 116.77 496.473 115.496 495.196 114.525C493.685 113.375 492.447 112.65 491.442 112.206C491.195 112.098 490.908 112.209 490.799 112.455C490.691 112.702 490.803 112.989 491.05 113.1C491.999 113.518 493.171 114.207 494.607 115.299C495.847 116.243 497.286 117.489 498.953 119.123C503.677 123.757 506.938 129.898 509.21 136.001C511.489 142.122 512.775 148.214 513.546 152.719Z" fill="white" fill-opacity="0.1" />
		</g>
		<g filter="url(#filter1_b_298_2342)">
			<path d="M379.819 118.546C374.674 104.555 358.7 93.6101 347.086 100.362C340.946 103.932 334.246 117.693 350.833 131.288C362.681 140.998 351.526 158.152 361.431 161.386C376.433 166.283 386.218 135.943 379.819 118.546Z" fill="white" fill-opacity="0.14" />
		</g>
		<g filter="url(#filter2_b_298_2342)">
			<circle cx="354.432" cy="171.657" r="6.21019" transform="rotate(3.50777 354.432 171.657)" fill="white" fill-opacity="0.14" />
		</g>
	</g>
	<defs>
		<filter id="filter0_b_298_2342" x="325.213" y="0.494385" width="286.086" height="319.761" filterUnits="userSpaceOnUse" color-interpolation-filters="sRGB">
			<feFlood flood-opacity="0" result="BackgroundImageFix" />
			<feGaussianBlur in="BackgroundImage" stdDeviation="19" />
			<feComposite in2="SourceAlpha" operator="in" result="effect1_backgroundBlur_298_2342" />
			<feBlend mode="normal" in="SourceGraphic" in2="effect1_backgroundBlur_298_2342" result="shape" />
		</filter>
		<filter id="filter1_b_298_2342" x="302.402" y="60.3142" width="117.41" height="139.599" filterUnits="userSpaceOnUse" color-interpolation-filters="sRGB">
			<feFlood flood-opacity="0" result="BackgroundImageFix" />
			<feGaussianBlur in="BackgroundImage" stdDeviation="19" />
			<feComposite in2="SourceAlpha" operator="in" result="effect1_backgroundBlur_298_2342" />
			<feBlend mode="normal" in="SourceGraphic" in2="effect1_backgroundBlur_298_2342" result="shape" />
		</filter>
		<filter id="filter2_b_298_2342" x="310.221" y="127.446" width="88.4209" height="88.4207" filterUnits="userSpaceOnUse" color-interpolation-filters="sRGB">
			<feFlood flood-opacity="0" result="BackgroundImageFix" />
			<feGaussianBlur in="BackgroundImage" stdDeviation="19" />
			<feComposite in2="SourceAlpha" operator="in" result="effect1_backgroundBlur_298_2342" />
			<feBlend mode="normal" in="SourceGraphic" in2="effect1_backgroundBlur_298_2342" result="shape" />
		</filter>
		<linearGradient id="paint0_linear_298_2342" x1="165.002" y1="335.984" x2="165.002" y2="230.984" gradientUnits="userSpaceOnUse">
			<stop stop-color="#FFC39D" />
			<stop offset="1" stop-color="#F69E66" />
		</linearGradient>
		<linearGradient id="paint1_linear_298_2342" x1="164.76" y1="220.102" x2="164.76" y2="86.9084" gradientUnits="userSpaceOnUse">
			<stop stop-color="#F69E66" />
			<stop offset="1" stop-color="#FFC39D" />
		</linearGradient>
		<linearGradient id="paint2_linear_298_2342" x1="469.697" y1="301.656" x2="469.697" y2="217.117" gradientUnits="userSpaceOnUse">
			<stop stop-color="#FFC39D" />
			<stop offset="1" stop-color="#F69E66" />
		</linearGradient>
		<linearGradient id="paint3_linear_298_2342" x1="469.889" y1="211.656" x2="469.889" y2="104.418" gradientUnits="userSpaceOnUse">
			<stop stop-color="#F69E66" />
			<stop offset="1" stop-color="#FFC39D" />
		</linearGradient>
	</defs>
</svg>
