<svg width="250" height="260" viewBox="0 0 250 260" fill="none" xmlns="http://www.w3.org/2000/svg">
	<path d="M225.735 98.9425C239.295 156.35 227.1 206.001 153.927 231.386C80.7542 256.771 -4.13415 221.101 51.2067 150.056C106.548 79.0113 35.0527 62.31 67.5225 24.5174C99.9927 -13.2756 209.923 31.9978 225.735 98.9425Z" fill="#F7BE2B" />
	<path d="M231.62 108.364C238.391 137.031 238.719 163.709 228.263 186.375C217.811 209.03 196.557 227.738 160.031 240.41C123.51 253.079 84.1083 250.494 60.7684 235.938C49.1091 228.667 41.4782 218.425 40.1719 205.615C38.8647 192.795 43.8842 177.33 57.689 159.608C71.5493 141.815 77.4908 127.395 79.0879 115.171C80.6853 102.944 77.9306 92.9536 74.4721 84.0383C73.6079 81.8105 72.6993 79.6488 71.804 77.5375C71.6913 77.2717 71.5787 77.0067 71.4666 76.7424C70.6873 74.9067 69.9239 73.1086 69.2125 71.3319C67.5846 67.2667 66.2368 63.3341 65.6069 59.3764C64.3518 51.4915 65.937 43.4603 73.9944 34.082C82.024 24.7363 94.8694 20.4952 109.933 20.471C124.994 20.4468 142.226 24.6398 158.952 32.1066C192.421 47.0466 223.748 75.0359 231.62 108.364Z" stroke="white" stroke-width="0.677894" />
	<mask id="mask0_298_3156" style="mask-type:alpha" maskUnits="userSpaceOnUse" x="33" y="10" width="198" height="230">
		<path d="M225.735 98.9425C239.295 156.35 227.1 206.001 153.927 231.386C80.7542 256.771 -4.13415 221.101 51.2067 150.056C106.548 79.0113 35.0527 62.31 67.5225 24.5174C99.9927 -13.2756 209.923 31.9978 225.735 98.9425Z" fill="#FEF7D4" />
	</mask>
	<g mask="url(#mask0_298_3156)">
		<path fill-rule="evenodd" clip-rule="evenodd" d="M96.9125 131.285C96.7481 129.482 89.3732 127.351 86.9146 133.251C84.456 139.151 88.8821 147.509 97.2393 148.164C105.596 148.82 103.139 147.345 103.139 147.345L96.9125 131.285Z" fill="#F69E66" />
		<path fill-rule="evenodd" clip-rule="evenodd" d="M171.33 131.285C171.494 129.482 178.868 127.351 181.327 133.251C183.785 139.151 179.361 147.509 171.002 148.164C162.644 148.82 165.103 147.345 165.103 147.345L171.33 131.285Z" fill="#F69E66" />
		<path fill-rule="evenodd" clip-rule="evenodd" d="M134.033 246.199H66.5988C65.8188 211.716 92.3491 191.699 115.131 184.229C116.979 174.608 116.507 162.129 116.507 162.129H134.033H151.561C151.561 162.129 151.089 174.608 152.936 184.229C175.718 191.699 202.249 211.716 201.468 246.199H134.033Z" fill="url(#paint0_linear_298_3156)" />
		<path fill-rule="evenodd" clip-rule="evenodd" d="M151.559 162.133C151.559 162.133 151.465 164.607 151.523 168.199C144.866 184.926 124.195 186.807 116.526 168.895C116.609 164.93 116.504 162.133 116.504 162.133C128.18 162.133 139.882 162.133 151.559 162.133Z" fill="#F46E48" />
		<path fill-rule="evenodd" clip-rule="evenodd" d="M203.767 246.199C204.564 212.145 177.818 192.201 154.462 184.516C144.618 206.356 123.304 205.822 113.79 184.455C90.3909 192.095 63.4993 212.054 64.2987 246.199H203.767Z" fill="#2E62E7" />
		<path fill-rule="evenodd" clip-rule="evenodd" d="M125.345 198.273C124.613 197.856 123.891 197.383 123.184 196.858H89.5831C88.9608 197.32 88.3443 197.791 87.7344 198.273H125.345ZM180.331 198.273C179.722 197.792 179.106 197.32 178.484 196.858H145.114C144.408 197.384 143.688 197.856 142.958 198.273H180.331Z" fill="#2452C7" />
		<path fill-rule="evenodd" clip-rule="evenodd" d="M193.205 211.602C192.862 211.124 192.51 210.652 192.154 210.187H75.9082C75.5529 210.652 75.2023 211.124 74.8594 211.602H193.205Z" fill="#2452C7" />
		<path fill-rule="evenodd" clip-rule="evenodd" d="M200.324 224.938C200.149 224.462 199.967 223.99 199.779 223.523H68.2865C68.0995 223.991 67.9177 224.462 67.7422 224.938H200.324Z" fill="#2452C7" />
		<path fill-rule="evenodd" clip-rule="evenodd" d="M203.439 238.273C203.389 237.798 203.333 237.326 203.271 236.859H64.795C64.7323 237.326 64.6766 237.798 64.625 238.273H203.439Z" fill="#2452C7" />
		<path fill-rule="evenodd" clip-rule="evenodd" d="M74.5825 211.993C74.0971 212.68 73.6259 213.379 73.168 214.089V246.199H74.5825V211.993Z" fill="#2452C7" />
		<path fill-rule="evenodd" clip-rule="evenodd" d="M87.9185 198.128C87.4435 198.501 86.9713 198.88 86.5039 199.264V246.199H87.9185V198.128Z" fill="#2452C7" />
		<path fill-rule="evenodd" clip-rule="evenodd" d="M101.248 189.663C100.774 189.903 100.303 190.149 99.832 190.399V246.199H101.248V189.663Z" fill="#2452C7" />
		<path fill-rule="evenodd" clip-rule="evenodd" d="M114.582 186.117C114.312 185.577 114.048 185.025 113.793 184.455C113.585 184.522 113.376 184.593 113.168 184.663V246.199H114.582V186.117Z" fill="#2452C7" />
		<path fill-rule="evenodd" clip-rule="evenodd" d="M194.895 214.089C194.438 213.379 193.966 212.679 193.48 211.993V246.199H194.895V214.089Z" fill="#2452C7" />
		<path fill-rule="evenodd" clip-rule="evenodd" d="M181.563 199.263C181.096 198.879 180.623 198.502 180.148 198.129V246.199H181.563V199.263Z" fill="#2452C7" />
		<path fill-rule="evenodd" clip-rule="evenodd" d="M168.231 190.4C167.76 190.149 167.29 189.903 166.816 189.663V246.199H168.231V190.4Z" fill="#2452C7" />
		<path fill-rule="evenodd" clip-rule="evenodd" d="M154.903 184.664C154.757 184.614 154.61 184.564 154.465 184.516C154.15 185.212 153.826 185.885 153.488 186.536V246.199H154.903V184.664Z" fill="#2452C7" />
		<path fill-rule="evenodd" clip-rule="evenodd" d="M150.773 190.986C141.388 204.06 126.673 203.8 117.457 190.922L114.059 192.249L123.029 209.598V246.199H145.035V209.598L154.007 192.249L150.773 190.986Z" fill="white" />
		<path fill-rule="evenodd" clip-rule="evenodd" d="M134.031 171.02C90.5462 172.065 68.5912 64.8324 134.031 67.5788C199.471 64.8324 177.515 172.065 134.031 171.02Z" fill="url(#paint1_linear_298_3156)" />
		<path fill-rule="evenodd" clip-rule="evenodd" d="M119.425 119.266C121.17 120.525 121.562 122.959 120.301 124.7C119.038 126.442 116.599 126.834 114.854 125.574C113.108 124.316 112.716 121.882 113.978 120.139C115.24 118.397 117.679 118.007 119.425 119.266Z" fill="#0D0A20" />
		<path fill-rule="evenodd" clip-rule="evenodd" d="M148.886 119.266C147.139 120.525 146.747 122.959 148.01 124.7C149.271 126.442 151.71 126.834 153.456 125.574C155.201 124.316 155.594 121.882 154.331 120.139C153.069 118.397 150.631 118.007 148.886 119.266Z" fill="#0D0A20" />
		<path fill-rule="evenodd" clip-rule="evenodd" d="M114.62 133.403C116.839 135.107 116.937 137.602 114.837 138.977C112.737 140.351 109.236 140.084 107.015 138.38C104.795 136.676 104.699 134.181 106.799 132.807C108.899 131.432 112.401 131.7 114.62 133.403Z" fill="#F37B69" />
		<path fill-rule="evenodd" clip-rule="evenodd" d="M153.691 133.403C151.471 135.107 151.375 137.602 153.475 138.977C155.575 140.351 159.077 140.084 161.296 138.38C163.515 136.676 163.613 134.181 161.513 132.807C159.412 131.432 155.911 131.7 153.691 133.403Z" fill="#F37B69" />
		<path fill-rule="evenodd" clip-rule="evenodd" d="M121.126 108.69C120.983 108.626 120.837 108.567 120.688 108.51C118.989 107.897 117.548 107.731 115.712 107.864C113.915 108.055 112.573 108.461 111.066 109.32C110.363 109.774 107.617 111.997 108.395 112.815C108.713 112.904 111.448 111.506 112.25 111.246C113.501 110.877 114.514 110.735 115.839 110.763C117.073 110.819 118.002 110.998 119.126 111.432C119.157 111.438 119.359 111.529 119.403 111.549C121.697 112.663 121.489 113.38 123.053 112.308C125.462 111.026 122.984 109.655 121.126 108.69Z" fill="#0D0A20" />
		<path fill-rule="evenodd" clip-rule="evenodd" d="M146.94 108.69C147.084 108.626 147.23 108.567 147.378 108.51C149.078 107.897 150.518 107.731 152.354 107.864C154.152 108.055 155.494 108.461 157.001 109.32C157.704 109.774 160.449 111.997 159.671 112.815C159.354 112.904 156.619 111.506 155.816 111.246C154.566 110.877 153.552 110.735 152.229 110.763C150.994 110.819 150.066 110.998 148.941 111.432C148.909 111.438 148.707 111.529 148.663 111.549C146.37 112.663 146.577 113.38 145.013 112.308C142.604 111.026 145.083 109.655 146.94 108.69Z" fill="#0D0A20" />
		<path fill-rule="evenodd" clip-rule="evenodd" d="M122.754 142.5C126.762 142.451 130.755 142.426 134.747 142.426C138.74 142.426 142.732 142.451 146.74 142.5C146.74 148.788 140.539 151.035 134.769 151.035L134.747 151.034L134.726 151.035C128.956 151.035 122.754 148.788 122.754 142.5Z" fill="white" />
		<path fill-rule="evenodd" clip-rule="evenodd" d="M131.99 154.775C131.766 154.642 131.691 154.355 131.823 154.13C131.954 153.907 132.242 153.832 132.465 153.963C133.114 154.343 133.939 154.533 134.766 154.533C135.591 154.533 136.402 154.344 137.024 153.967C137.245 153.833 137.534 153.903 137.669 154.126C137.803 154.347 137.732 154.637 137.51 154.77C136.734 155.24 135.749 155.477 134.766 155.477C133.783 155.477 132.788 155.242 131.99 154.775Z" fill="#F46E48" />
		<path fill-rule="evenodd" clip-rule="evenodd" d="M133.677 133.867C133.418 133.867 133.207 133.656 133.207 133.396C133.207 133.136 133.418 132.925 133.677 132.925C134.81 132.925 136.162 132.914 137.206 132.738C138.063 132.591 138.695 132.36 138.695 131.967C138.695 130.612 137.321 122.18 137.317 122.157C137.277 121.9 137.452 121.66 137.708 121.618C137.965 121.577 138.204 121.753 138.246 122.008C138.25 122.033 139.638 130.554 139.638 131.967C139.638 132.961 138.672 133.443 137.36 133.665C136.234 133.857 134.842 133.867 133.677 133.867Z" fill="#F46E48" />
		<path fill-rule="evenodd" clip-rule="evenodd" d="M178.652 137.911C178.652 138.171 178.442 138.382 178.18 138.382C177.92 138.382 177.709 138.171 177.709 137.911C177.709 136.479 177.462 135.578 177.064 135.089C176.825 134.795 176.522 134.66 176.187 134.652C175.801 134.643 175.361 134.788 174.903 135.047C173.666 135.746 172.385 137.233 171.677 138.853C171.335 139.632 171.042 140.434 170.874 141.039C171.598 140.535 172.397 140.335 173.07 140.402C173.453 140.441 173.803 140.566 174.086 140.77C174.384 140.985 174.607 141.283 174.718 141.658C174.912 142.304 174.763 143.173 174.069 144.21C173.924 144.426 173.632 144.483 173.417 144.338C173.2 144.194 173.143 143.901 173.288 143.686C173.806 142.913 173.936 142.323 173.817 141.927C173.767 141.759 173.668 141.626 173.537 141.532C173.389 141.426 173.197 141.36 172.978 141.338C172.372 141.277 171.606 141.542 170.968 142.184C170.797 142.356 170.635 142.453 170.489 142.485C170.11 142.566 169.891 142.399 169.808 142.03L169.802 142.004C169.775 141.864 169.781 141.677 169.816 141.454C169.923 140.784 170.326 139.598 170.816 138.477C171.601 136.681 173.04 135.022 174.438 134.228C175.039 133.889 175.644 133.7 176.204 133.712C176.817 133.727 177.364 133.969 177.793 134.496C178.323 135.148 178.652 136.246 178.652 137.911Z" fill="#F46E48" />
		<path fill-rule="evenodd" clip-rule="evenodd" d="M90.3526 137.911C90.3526 138.171 90.1426 138.382 89.8823 138.382C89.6211 138.382 89.4102 138.171 89.4102 137.911C89.4102 136.246 89.7398 135.148 90.2699 134.496C90.6984 133.969 91.2456 133.727 91.8574 133.712C92.4198 133.7 93.024 133.889 93.6244 134.228C95.0228 135.022 96.4611 136.681 97.2477 138.477C97.7369 139.598 98.1397 140.784 98.2461 141.454C98.2813 141.677 98.2879 141.864 98.2604 142.004L98.2547 142.03C98.173 142.399 97.9526 142.566 97.5745 142.485C97.4272 142.453 97.2657 142.356 97.0947 142.184C96.4573 141.542 95.6897 141.277 95.0845 141.338C94.866 141.36 94.6732 141.426 94.5259 141.532C94.3939 141.626 94.296 141.759 94.2457 141.927C94.1279 142.323 94.2561 142.913 94.7748 143.686C94.9192 143.901 94.8613 144.194 94.6456 144.338C94.43 144.483 94.1383 144.426 93.9939 144.21C93.2995 143.173 93.1503 142.304 93.3432 141.658C93.4553 141.283 93.6776 140.985 93.9768 140.77C94.2599 140.566 94.6095 140.441 94.9933 140.402C95.6669 140.335 96.4649 140.535 97.1888 141.039C97.0206 140.434 96.7261 139.632 96.3851 138.853C95.6773 137.233 94.3977 135.746 93.1598 135.047C92.7019 134.788 92.2621 134.643 91.8754 134.652C91.541 134.66 91.238 134.795 90.9986 135.089C90.6015 135.578 90.3526 136.479 90.3526 137.911Z" fill="#F46E48" />
		<path fill-rule="evenodd" clip-rule="evenodd" d="M134.358 85.4957C134.358 106.428 149.4 102.416 158.45 107.329C165.237 111.015 164.252 111.443 166.123 118.971C167.841 125.882 168.462 136.726 169.368 140.433C183.018 106.634 188.703 90.8309 170.203 75.97C159.14 67.0837 151.26 49.4545 134.308 63.5155C111.68 51.9492 109.615 67.1483 98.5126 75.97C83.2812 88.0711 81.9313 100.147 86.2405 112.832C88.0987 118.303 99.0712 139.543 100.104 142.625C101.502 128.502 100.604 116.183 105.043 111.349C109.123 106.907 117.824 106.296 122.493 103.369C130.748 98.1953 134.358 91.6184 134.358 85.4957Z" fill="#0D0A20" />
		<path fill-rule="evenodd" clip-rule="evenodd" d="M168.876 137.623C168.189 132.747 167.517 124.569 166.125 118.971C164.254 111.443 165.239 111.015 158.452 107.329C149.403 102.416 134.36 106.428 134.36 85.4957C134.36 91.6184 130.75 98.1953 122.496 103.369C117.826 106.296 109.125 106.907 105.045 111.349C100.606 116.183 101.504 128.502 100.106 142.625C99.0734 139.543 88.1009 118.303 86.2427 112.832C84.5849 107.951 83.766 103.159 84.2524 98.4233C86.3225 99.9899 91.2682 100.923 93.476 101.372C98.2098 102.335 103.392 101.073 108.324 99.056C119.301 94.5654 127.782 92.3205 131.276 82.8404C134.768 73.3604 134.768 72.8606 134.768 72.8606C134.768 72.8606 135.516 90.8233 154.975 95.8127C162.954 97.859 169.467 99.4018 174.269 99.4256C175.321 99.4313 178.669 98.5715 181.959 97.6177C184.892 112.832 177.043 121.43 169.452 140.231C169.42 140.297 169.391 140.365 169.37 140.433C169.344 140.324 169.317 140.208 169.29 140.086L169.286 140.067L169.282 140.048L169.246 139.874L169.244 139.867L169.242 139.858C169.23 139.794 169.217 139.727 169.203 139.66V139.658L169.165 139.453L169.162 139.44V139.438L168.876 137.623ZM168.876 137.623L168.881 137.669L168.882 137.677L168.913 137.888L168.92 137.941L168.922 137.945L168.928 137.993L168.952 138.147L168.959 138.197L168.961 138.215L168.965 138.247L168.974 138.298L168.989 138.397L168.997 138.446L169.001 138.477L169.003 138.495L169.006 138.505L169.041 138.726V138.73L169.042 138.736L169.08 138.966V138.968L169.081 138.976L169.083 138.986L169.119 139.194C169.119 139.194 169.121 139.213 168.876 137.623Z" fill="#0D0A20" />
		<path fill-rule="evenodd" clip-rule="evenodd" d="M116.19 174.903L123.031 209.602C121.55 207.405 117.535 202.201 113.756 202.201C111.346 202.201 102.246 207.129 102.313 206.581C104.651 187.331 109.551 179.4 116.19 174.903Z" fill="#153484" />
		<path fill-rule="evenodd" clip-rule="evenodd" d="M151.698 174.903L144.855 209.602C146.337 207.405 150.352 202.201 154.132 202.201C156.541 202.201 165.641 207.129 165.574 206.581C163.237 187.331 158.337 179.4 151.698 174.903Z" fill="#153484" />
		<path fill-rule="evenodd" clip-rule="evenodd" d="M84.8565 226.687C84.8603 226.299 85.1776 225.985 85.5671 225.989C85.9557 225.992 86.2682 226.31 86.2663 226.699L86.0915 246.211C86.0896 246.599 85.7714 246.913 85.3819 246.91C84.9933 246.907 84.6808 246.589 84.6836 246.2L84.8565 226.687Z" fill="#153484" />
		<path fill-rule="evenodd" clip-rule="evenodd" d="M181.972 226.687C181.975 226.299 182.293 225.985 182.681 225.989C183.07 225.992 183.382 226.31 183.38 226.699L183.207 246.211C183.204 246.599 182.886 246.913 182.496 246.91C182.108 246.907 181.794 246.589 181.797 246.2L181.972 226.687Z" fill="#153484" />
		<path fill-rule="evenodd" clip-rule="evenodd" d="M127.809 74.7036C127.859 74.4471 128.105 74.2809 128.36 74.3293C128.616 74.3787 128.782 74.6248 128.735 74.8803C127.975 78.8067 126.642 82.9269 123.909 86.5806C121.174 90.239 117.045 93.4168 110.703 95.446C98.1105 99.4759 93.5144 98.4556 93.5011 98.4537C93.2465 98.4005 93.0831 98.1525 93.1344 97.8988C93.1867 97.6442 93.4346 97.4809 93.6883 97.5322C93.7016 97.535 98.0611 98.505 110.416 94.552C116.546 92.5902 120.527 89.5322 123.154 86.0172C125.786 82.4984 127.073 78.5103 127.809 74.7036Z" fill="white" fill-opacity="0.1" />
		<path fill-rule="evenodd" clip-rule="evenodd" d="M92.5223 93.5846C92.4064 93.8164 92.1252 93.9095 91.8915 93.7945C91.6606 93.6786 91.5666 93.3965 91.6825 93.1647C93.0286 90.4714 95.2298 88.1705 97.9515 86.1812C100.65 84.209 103.863 82.5389 107.261 81.0921C110.891 79.5455 112.587 75.9982 114.122 72.7872C115.377 70.1623 116.531 67.7503 118.571 66.6416C123.188 64.1365 130.384 68.8922 130.405 68.9055C130.623 69.048 130.684 69.3406 130.541 69.5572C130.4 69.7757 130.107 69.8365 129.89 69.694C129.871 69.6807 123.136 65.2337 119.022 67.4672C117.246 68.4305 116.155 70.7114 114.97 73.1918C113.361 76.5567 111.583 80.2722 107.629 81.9575C104.292 83.3787 101.142 85.0146 98.5082 86.9403C95.8976 88.8479 93.7953 91.0386 92.5223 93.5846Z" fill="white" fill-opacity="0.1" />
		<path fill-rule="evenodd" clip-rule="evenodd" d="M139.79 74.8803C139.741 74.6248 139.907 74.3787 140.164 74.3293C140.419 74.2809 140.666 74.4471 140.714 74.7036C141.45 78.5103 142.738 82.4984 145.369 86.0172C147.998 89.5322 151.977 92.5902 158.108 94.552C170.463 98.505 174.822 97.535 174.835 97.5322C175.089 97.4809 175.337 97.6442 175.389 97.8988C175.441 98.1525 175.277 98.4005 175.022 98.4537C175.01 98.4556 170.414 99.4759 157.821 95.446C151.478 93.4168 147.35 90.239 144.614 86.5806C141.882 82.9269 140.55 78.8067 139.79 74.8803Z" fill="white" fill-opacity="0.1" />
		<path fill-rule="evenodd" clip-rule="evenodd" d="M176.845 93.1647C176.961 93.3965 176.868 93.6786 176.636 93.7945C176.404 93.9095 176.122 93.8164 176.006 93.5846C174.734 91.0386 172.631 88.8479 170.021 86.9403C167.386 85.0146 164.237 83.3787 160.899 81.9575C156.945 80.2722 155.167 76.5567 153.559 73.1918C152.372 70.7114 151.283 68.4305 149.507 67.4672C145.392 65.2337 138.658 69.6807 138.638 69.694C138.422 69.8365 138.129 69.7757 137.986 69.5572C137.845 69.3406 137.906 69.048 138.123 68.9055C138.144 68.8922 145.34 64.1365 149.957 66.6416C151.998 67.7503 153.15 70.1623 154.406 72.7872C155.942 75.9982 157.637 79.5455 161.267 81.0921C164.665 82.5389 167.877 84.209 170.576 86.1812C173.298 88.1705 175.499 90.4724 176.845 93.1647Z" fill="white" fill-opacity="0.1" />
	</g>
	<path d="M49.0013 85.9092C44.1724 72.7795 29.1816 62.5082 18.2825 68.845C12.5203 72.1952 6.23234 85.109 21.7985 97.867C32.9174 106.98 22.4487 123.078 31.7445 126.113C45.8234 130.709 55.0059 102.236 49.0013 85.9092Z" fill="#F7BE2B" />
	<circle cx="25.1754" cy="135.752" r="5.82803" transform="rotate(3.50777 25.1754 135.752)" fill="#F7BE2B" />
	<defs>
		<linearGradient id="paint0_linear_298_3156" x1="134.219" y1="261.076" x2="134.219" y2="179.484" gradientUnits="userSpaceOnUse">
			<stop stop-color="#FFC39D" />
			<stop offset="1" stop-color="#F69E66" />
		</linearGradient>
		<linearGradient id="paint1_linear_298_3156" x1="134.031" y1="171.027" x2="134.031" y2="67.5269" gradientUnits="userSpaceOnUse">
			<stop stop-color="#F69E66" />
			<stop offset="1" stop-color="#FFC39D" />
		</linearGradient>
	</defs>
</svg>
