<svg width="400" height="360" viewBox="0 0 400 360" fill="none" xmlns="http://www.w3.org/2000/svg">
	<path d="M212.582 248.882C193.517 279.007 172.566 303.899 154.129 319.795C144.906 327.748 136.357 333.41 129.024 336.369C121.664 339.339 115.748 339.505 111.566 336.858C107.384 334.212 105.002 328.794 104.536 320.871C104.071 312.978 105.528 302.828 108.767 291.088C115.241 267.621 128.768 238.032 147.833 207.906C166.898 177.781 187.849 152.889 206.286 136.993C215.509 129.041 224.058 123.378 231.391 120.42C238.751 117.45 244.667 117.284 248.848 119.93C253.03 122.577 255.413 127.994 255.879 135.917C256.344 143.81 254.886 153.961 251.648 165.7C245.174 189.167 231.646 218.757 212.582 248.882Z" stroke="url(#paint0_linear_401_1817)" stroke-width="2" />
	<g filter="url(#filter0_f_401_1817)">
		<circle cx="85.2499" cy="193.687" r="21.2499" fill="white" fill-opacity="0.28" />
	</g>
	<g filter="url(#filter1_f_401_1817)">
		<circle cx="146.42" cy="103.983" r="23.9827" fill="white" fill-opacity="0.28" />
	</g>
	<g filter="url(#filter2_f_401_1817)">
		<circle cx="263.295" cy="177.826" r="23.9827" fill="white" fill-opacity="0.28" />
	</g>
	<path d="M94.8777 209.905C94.4696 206.619 97.032 203.719 100.343 203.719L241.297 203.719C244.076 203.719 246.42 205.789 246.762 208.547L256.857 289.819C257.265 293.104 254.703 296.005 251.392 296.005H110.438C107.659 296.005 105.315 293.934 104.973 291.177L94.8777 209.905Z" fill="url(#paint1_linear_401_1817)" />
	<g filter="url(#filter3_f_401_1817)">
		<path d="M147.558 236.466C149.569 243.673 145.862 251.004 139.28 252.841C132.697 254.677 125.731 250.323 123.72 243.115C121.709 235.908 125.416 228.577 131.999 226.74C138.582 224.904 145.548 229.258 147.558 236.466Z" fill="#0B1021" fill-opacity="0.14" />
		<path d="M136.942 257.681C126.434 258.38 117.861 266.871 116.488 276.746C116.142 279.235 117.763 281.486 120.136 282.314C129.855 285.706 147.746 289.157 160.139 281.621C162.016 280.48 162.988 278.274 162.399 276.158C159.564 265.967 147.676 256.967 136.942 257.681Z" fill="#0B1021" fill-opacity="0.14" />
	</g>
	<g filter="url(#filter4_dd_401_1817)">
		<path d="M153.816 230.204C155.827 237.411 152.12 244.743 145.537 246.579C138.955 248.415 131.988 244.061 129.978 236.854C127.967 229.646 131.674 222.315 138.257 220.479C144.839 218.642 151.806 222.997 153.816 230.204Z" fill="white" />
		<path d="M143.2 251.419C132.691 252.118 124.119 260.609 122.746 270.484C122.4 272.973 124.021 275.225 126.393 276.053C136.112 279.444 154.003 282.896 166.397 275.36C168.274 274.218 169.246 272.012 168.657 269.896C165.822 259.705 153.934 250.705 143.2 251.419Z" fill="white" />
	</g>
	<path d="M176.974 227.6C176.435 226.077 177.565 224.48 179.18 224.48H221.191C222.183 224.48 223.067 225.106 223.397 226.041C223.935 227.563 222.806 229.16 221.191 229.16H179.18C178.188 229.16 177.304 228.535 176.974 227.6Z" fill="white" />
	<path opacity="0.5" d="M179.009 240.545C178.471 239.023 179.6 237.426 181.215 237.426H228.546C229.537 237.426 230.421 238.051 230.752 238.986C231.29 240.508 230.16 242.105 228.546 242.105H181.215C180.223 242.105 179.339 241.48 179.009 240.545Z" fill="white" />
	<path opacity="0.5" d="M181.325 249.401C180.787 247.878 181.916 246.281 183.531 246.281H213.369C214.361 246.281 215.245 246.906 215.575 247.841C216.113 249.364 214.984 250.961 213.369 250.961H183.531C182.539 250.961 181.656 250.336 181.325 249.401Z" fill="white" />
	<path d="M183.875 274.158C183.406 270.647 186.138 267.527 189.68 267.527H230.751C233.686 267.527 236.168 269.7 236.556 272.609C237.025 276.12 234.293 279.24 230.751 279.24H189.68C186.745 279.24 184.263 277.068 183.875 274.158Z" stroke="white" stroke-width="0.679919" />
	<path d="M206.506 271.926C206.54 272.2 206.508 272.452 206.409 272.682C206.311 272.907 206.138 273.089 205.893 273.228C205.647 273.368 205.33 273.437 204.94 273.437H204.219L204.431 275.138H203.269L202.678 270.401H204.561C204.942 270.401 205.272 270.466 205.551 270.597C205.83 270.727 206.05 270.907 206.21 271.137C206.37 271.366 206.469 271.629 206.506 271.926ZM204.737 272.52C204.959 272.52 205.118 272.468 205.214 272.365C205.31 272.261 205.346 272.115 205.322 271.926C205.299 271.737 205.226 271.591 205.105 271.488C204.983 271.384 204.811 271.332 204.589 271.332H203.957L204.105 272.52H204.737ZM211.058 274.301H209.277L209.096 275.138H207.879L209.015 270.401H210.361L212.679 275.138H211.448L211.058 274.301ZM210.648 273.41L209.84 271.676L209.472 273.41H210.648ZM217.387 270.401L216.13 273.572L216.325 275.138H215.163L214.967 273.572L212.92 270.401H214.239L215.411 272.385L216.081 270.401H217.387Z" fill="white" />
	<mask id="mask0_401_1817" style="mask-type:alpha" maskUnits="userSpaceOnUse" x="94" y="203" width="163" height="94">
		<path d="M94.8777 209.905C94.4696 206.619 97.032 203.719 100.343 203.719L241.297 203.719C244.076 203.719 246.42 205.789 246.762 208.547L256.857 289.819C257.265 293.104 254.703 296.005 251.392 296.005H110.438C107.659 296.005 105.315 293.934 104.973 291.177L94.8777 209.905Z" fill="url(#paint2_linear_401_1817)" />
		<path d="M147.558 236.466C149.569 243.673 145.862 251.004 139.28 252.841C132.697 254.677 125.731 250.323 123.72 243.115C121.709 235.908 125.416 228.577 131.999 226.74C138.582 224.904 145.548 229.258 147.558 236.466Z" fill="#0B1021" fill-opacity="0.14" />
		<path d="M136.942 257.681C126.434 258.38 117.861 266.871 116.488 276.746C116.142 279.235 117.763 281.486 120.136 282.314C129.855 285.706 147.746 289.157 160.139 281.621C162.016 280.48 162.988 278.274 162.399 276.158C159.564 265.967 147.676 256.967 136.942 257.681Z" fill="#0B1021" fill-opacity="0.14" />
		<path d="M153.816 230.204C155.827 237.411 152.12 244.743 145.537 246.579C138.955 248.415 131.988 244.061 129.978 236.854C127.967 229.646 131.674 222.315 138.257 220.479C144.839 218.642 151.806 222.997 153.816 230.204Z" fill="white" />
		<path d="M143.2 251.419C132.691 252.118 124.119 260.609 122.746 270.484C122.4 272.973 124.021 275.225 126.393 276.053C136.112 279.444 154.003 282.896 166.397 275.36C168.274 274.218 169.246 272.012 168.657 269.896C165.822 259.705 153.934 250.705 143.2 251.419Z" fill="white" />
		<path d="M176.974 227.6C176.435 226.077 177.565 224.48 179.18 224.48H221.191C222.183 224.48 223.067 225.106 223.397 226.041C223.935 227.563 222.806 229.16 221.191 229.16H179.18C178.188 229.16 177.304 228.535 176.974 227.6Z" fill="white" />
		<path opacity="0.5" d="M179.009 240.545C178.471 239.023 179.6 237.426 181.215 237.426H228.546C229.537 237.426 230.421 238.051 230.752 238.986C231.29 240.508 230.16 242.105 228.546 242.105H181.215C180.223 242.105 179.339 241.48 179.009 240.545Z" fill="white" />
		<path opacity="0.5" d="M181.325 249.401C180.787 247.878 181.916 246.281 183.531 246.281H213.369C214.361 246.281 215.245 246.906 215.575 247.841C216.113 249.364 214.984 250.961 213.369 250.961H183.531C182.539 250.961 181.656 250.336 181.325 249.401Z" fill="white" />
		<path d="M183.875 274.158C183.406 270.647 186.138 267.527 189.68 267.527H230.751C233.686 267.527 236.168 269.7 236.556 272.609C237.025 276.12 234.293 279.24 230.751 279.24H189.68C186.745 279.24 184.263 277.068 183.875 274.158Z" stroke="white" stroke-width="0.679919" />
		<path d="M206.506 271.926C206.54 272.2 206.508 272.452 206.409 272.682C206.311 272.907 206.138 273.089 205.893 273.228C205.647 273.368 205.33 273.437 204.94 273.437H204.219L204.431 275.138H203.269L202.678 270.401H204.561C204.942 270.401 205.272 270.466 205.551 270.597C205.83 270.727 206.05 270.907 206.21 271.137C206.37 271.366 206.469 271.629 206.506 271.926ZM204.737 272.52C204.959 272.52 205.118 272.468 205.214 272.365C205.31 272.261 205.346 272.115 205.322 271.926C205.299 271.737 205.226 271.591 205.105 271.488C204.983 271.384 204.811 271.332 204.589 271.332H203.957L204.105 272.52H204.737ZM211.058 274.301H209.277L209.096 275.138H207.879L209.015 270.401H210.361L212.679 275.138H211.448L211.058 274.301ZM210.648 273.41L209.84 271.676L209.472 273.41H210.648ZM217.387 270.401L216.13 273.572L216.325 275.138H215.163L214.967 273.572L212.92 270.401H214.239L215.411 272.385L216.081 270.401H217.387Z" fill="white" />
	</mask>
	<g mask="url(#mask0_401_1817)">
		<rect x="75.6914" y="193.688" width="212.499" height="112.625" fill="black" fill-opacity="0.3" />
	</g>
	<mask id="mask1_401_1817" style="mask-type:alpha" maskUnits="userSpaceOnUse" x="94" y="203" width="163" height="94">
		<path d="M94.8777 209.909C94.4696 206.623 97.032 203.723 100.343 203.723L241.297 203.723C244.076 203.723 246.42 205.793 246.762 208.551L256.857 289.823C257.265 293.108 254.703 296.009 251.392 296.009H110.438C107.659 296.009 105.315 293.938 104.973 291.181L94.8777 209.909Z" fill="#707478" />
	</mask>
	<g mask="url(#mask1_401_1817)">
		<path d="M81.9837 212.74C91.7839 221.185 105.936 220.828 113.594 211.942C121.251 203.056 119.514 189.007 109.714 180.561C99.9134 172.116 85.7612 172.473 78.1038 181.359C70.4464 190.245 72.1835 204.294 81.9837 212.74Z" fill="black" fill-opacity="0.1" />
		<path d="M125.222 177.848C124.718 173.792 127.882 170.211 131.969 170.211L270.32 170.211C273.751 170.211 276.644 172.767 277.067 176.172L286.841 254.86C287.345 258.916 284.181 262.497 280.094 262.497H141.743C138.312 262.497 135.419 259.941 134.996 256.536L125.222 177.848Z" fill="black" fill-opacity="0.1" />
	</g>
	<path d="M131.839 169.557C131.431 166.271 133.993 163.371 137.304 163.371L278.258 163.371C281.037 163.371 283.381 165.442 283.723 168.199L293.818 249.471C294.226 252.757 291.664 255.657 288.353 255.657H147.399C144.62 255.657 142.276 253.587 141.934 250.829L131.839 169.557Z" fill="url(#paint3_linear_401_1817)" />
	<g filter="url(#filter5_dd_401_1817)">
		<path d="M190.781 189.856C192.792 197.064 189.085 204.395 182.503 206.231C175.92 208.068 168.954 203.713 166.943 196.506C164.933 189.299 168.639 181.967 175.222 180.131C181.805 178.295 188.771 182.649 190.781 189.856Z" fill="white" />
		<path d="M180.16 211.071C169.652 211.77 161.08 220.262 159.707 230.137C159.361 232.626 160.982 234.877 163.354 235.705C173.073 239.097 190.964 242.548 203.358 235.012C205.235 233.871 206.207 231.665 205.618 229.548C202.782 219.357 190.895 210.357 180.16 211.071Z" fill="white" />
	</g>
	<g filter="url(#filter6_dd_401_1817)">
		<path d="M220.499 233.856C220.003 230.141 222.893 226.84 226.641 226.84H267.712C270.817 226.84 273.443 229.138 273.854 232.217C274.35 235.931 271.46 239.232 267.712 239.232H226.641C223.535 239.232 220.91 236.934 220.499 233.856Z" fill="white" />
	</g>
	<path d="M213.931 187.252C213.392 185.73 214.522 184.133 216.137 184.133H258.148C259.14 184.133 260.024 184.758 260.354 185.693C260.892 187.215 259.763 188.812 258.148 188.812H216.137C215.145 188.812 214.261 188.187 213.931 187.252Z" fill="white" />
	<path opacity="0.5" d="M215.974 200.198C215.435 198.675 216.565 197.078 218.18 197.078H265.51C266.502 197.078 267.386 197.703 267.717 198.638C268.255 200.161 267.125 201.758 265.51 201.758H218.18C217.188 201.758 216.304 201.132 215.974 200.198Z" fill="white" />
	<path opacity="0.5" d="M218.286 209.053C217.748 207.531 218.877 205.934 220.492 205.934H250.33C251.322 205.934 252.206 206.559 252.536 207.494C253.074 209.016 251.945 210.613 250.33 210.613H220.492C219.5 210.613 218.616 209.988 218.286 209.053Z" fill="white" />
	<path d="M243.466 231.578C243.501 231.853 243.469 232.105 243.37 232.334C243.271 232.559 243.099 232.741 242.854 232.881C242.608 233.02 242.291 233.09 241.901 233.09H241.18L241.392 234.79H240.23L239.639 230.054H241.522C241.903 230.054 242.233 230.119 242.512 230.249C242.791 230.38 243.011 230.56 243.171 230.789C243.331 231.018 243.429 231.282 243.466 231.578ZM241.698 232.172C241.92 232.172 242.079 232.12 242.175 232.017C242.271 231.913 242.307 231.767 242.283 231.578C242.26 231.389 242.187 231.243 242.066 231.14C241.944 231.036 241.772 230.985 241.55 230.985H240.918L241.066 232.172H241.698ZM248.019 233.953H246.238L246.057 234.79H244.84L245.976 230.054H247.322L249.64 234.79H248.409L248.019 233.953ZM247.609 233.063L246.801 231.329L246.433 233.063H247.609ZM254.348 230.054L253.091 233.225L253.286 234.79H252.124L251.928 233.225L249.881 230.054H251.2L252.372 232.037L253.042 230.054H254.348Z" fill="#989C9F" />
	<path d="M305.108 245.35C313.51 247.524 326.024 258.657 331.23 263.952L299.443 271.26C303.766 278.886 298.532 283.336 295.374 284.608L283.099 273.434C286.934 263.167 296.707 243.177 305.108 245.35Z" fill="url(#paint4_linear_401_1817)" />
	<mask id="mask2_401_1817" style="mask-type:alpha" maskUnits="userSpaceOnUse" x="131" y="163" width="163" height="93">
		<path d="M131.835 169.549C131.427 166.264 133.989 163.363 137.3 163.363L278.254 163.363C281.033 163.363 283.377 165.434 283.719 168.192L293.814 249.463C294.223 252.749 291.66 255.649 288.349 255.649L147.395 255.649C144.616 255.649 142.272 253.579 141.93 250.821L131.835 169.549Z" fill="#989C9F" />
	</mask>
	<g mask="url(#mask2_401_1817)">
		<path d="M312.51 314.366L334.046 349.364C334.391 349.926 334.818 350.447 335.332 350.86C349.462 362.233 372.849 348.587 372.859 330.734C372.86 329.161 372.087 327.716 370.994 326.585C352.953 307.927 338.249 272.221 331.951 267.067C325.455 261.751 297.928 258.394 281.332 244.153C271.416 235.644 265.132 232.968 261.868 232.557C260.359 232.367 259.158 233.527 258.841 235.014C257.607 240.807 262.693 243.723 271.254 253.869C281.409 265.878 290.77 274.099 296.854 278.698C299.75 280.888 301.053 285.184 298.156 287.373C295.562 289.332 292.674 289.736 290.057 289.387C286.317 288.887 285.919 284.117 284.99 280.46C284.871 279.989 284.712 279.541 284.528 279.121C283.622 277.055 281.141 276.442 279.043 277.273C274.333 279.136 268.874 282.85 270.195 288.506C273.813 303.095 294.659 309.33 307.292 311.057C309.435 311.35 311.376 312.523 312.51 314.366Z" fill="black" fill-opacity="0.1" />
	</g>
	<path d="M312.828 307.72L336.211 345.721C336.527 346.236 336.919 346.712 337.388 347.093C351.565 358.605 375.151 344.795 374.979 326.814C374.965 325.373 374.263 324.052 373.259 323.02C355.153 304.403 340.387 268.519 334.073 263.352C327.576 258.036 300.049 254.679 283.453 240.438C270.176 229.045 263.41 228.11 261.687 229.066C258.554 236.495 263.784 238.787 273.375 250.154C287.354 266.686 299.829 276.038 304.32 278.647C299.044 288.788 289.798 285.943 285.835 283.252C289.088 278.532 286.366 274.095 284.599 272.467C279.809 273.596 270.646 277.642 272.316 284.791C276.284 300.792 300.978 306.744 312.828 307.72Z" fill="url(#paint5_linear_401_1817)" />
	<mask id="mask3_401_1817" style="mask-type:alpha" maskUnits="userSpaceOnUse" x="260" y="228" width="115" height="124">
		<path d="M312.832 307.72L336.215 345.721C336.531 346.236 336.923 346.712 337.392 347.093C351.569 358.605 375.154 344.795 374.983 326.814C374.969 325.373 374.267 324.052 373.263 323.02C355.157 304.403 340.391 268.519 334.076 263.352C327.58 258.036 300.053 254.679 283.457 240.438C270.18 229.045 263.414 228.11 261.691 229.066C258.558 236.495 263.788 238.787 273.379 250.154C287.358 266.686 299.833 276.038 304.324 278.647C299.047 288.788 289.802 285.943 285.839 283.252C289.092 278.532 286.37 274.095 284.603 272.467C279.813 273.596 270.65 277.642 272.32 284.791C276.288 300.792 300.981 306.744 312.832 307.72Z" fill="url(#paint6_linear_401_1817)" />
	</mask>
	<g mask="url(#mask3_401_1817)">
		<path d="M276.355 275.23C277.662 277.352 282.057 279.806 284.572 272.491C287.229 264.761 281.363 272.075 276.355 275.23Z" fill="white" fill-opacity="0.3" />
		<path d="M266.961 234.384C263.486 234.702 260.359 229.411 259.229 226.726C259.963 222.402 268.155 224.684 272.16 226.365C271.875 228.905 270.435 234.065 266.961 234.384Z" fill="white" fill-opacity="0.3" />
	</g>
	<mask id="mask4_401_1817" style="mask-type:alpha" maskUnits="userSpaceOnUse" x="283" y="245" width="49" height="40">
		<path d="M305.101 245.346C313.502 247.52 326.016 258.653 331.222 263.948L299.435 271.256C303.758 278.882 298.524 283.332 295.366 284.604L283.091 273.43C286.927 263.163 296.699 243.173 305.101 245.346Z" fill="url(#paint7_linear_401_1817)" />
	</mask>
	<g mask="url(#mask4_401_1817)">
		<path d="M290.403 280.99C291.589 279.406 294.697 277.691 297.642 283.501C300.588 289.311 294.044 284.248 290.403 280.99Z" fill="white" fill-opacity="0.3" />
	</g>
	<path d="M84.7563 208.707C92.6941 215.547 104.157 215.258 110.359 208.061C116.561 200.864 115.154 189.484 107.216 182.643C99.2786 175.803 87.8159 176.092 81.6137 183.289C75.4115 190.487 76.8185 201.866 84.7563 208.707Z" fill="url(#paint8_linear_401_1817)" />
	<path d="M86.5837 206.397C94.5381 213.252 105.797 213.226 111.732 206.339C117.666 199.453 116.029 188.313 108.075 181.459C100.12 174.604 88.861 174.63 82.9264 181.516C76.9919 188.403 78.6293 199.542 86.5837 206.397Z" fill="url(#paint9_linear_401_1817)" />
	<path d="M88.157 204.563C94.942 210.41 104.546 210.388 109.608 204.513C114.67 198.639 113.274 189.137 106.489 183.29C99.7035 177.443 90.0995 177.465 85.0373 183.339C79.9752 189.214 81.3719 198.715 88.157 204.563Z" fill="url(#paint10_linear_401_1817)" />
	<mask id="path-44-inside-1_401_1817" fill="white">
		<path fill-rule="evenodd" clip-rule="evenodd" d="M108.8 203.817C104.214 209.14 95.3052 209.315 88.8531 203.755C82.4009 198.195 81.2582 189.358 85.8451 184.035C90.432 178.713 99.3403 178.538 105.792 184.098C112.245 189.658 113.387 198.495 108.8 203.817ZM109.608 204.513C104.546 210.388 94.942 210.41 88.157 204.563C81.3719 198.715 79.9752 189.214 85.0373 183.339C90.0995 177.465 99.7035 177.443 106.489 183.29C113.274 189.137 114.67 198.639 109.608 204.513Z" />
	</mask>
	<path fill-rule="evenodd" clip-rule="evenodd" d="M108.8 203.817C104.214 209.14 95.3052 209.315 88.8531 203.755C82.4009 198.195 81.2582 189.358 85.8451 184.035C90.432 178.713 99.3403 178.538 105.792 184.098C112.245 189.658 113.387 198.495 108.8 203.817ZM109.608 204.513C104.546 210.388 94.942 210.41 88.157 204.563C81.3719 198.715 79.9752 189.214 85.0373 183.339C90.0995 177.465 99.7035 177.443 106.489 183.29C113.274 189.137 114.67 198.639 109.608 204.513Z" fill="url(#paint11_linear_401_1817)" />
	<path d="M90.0754 202.336C95.9384 207.389 103.626 206.953 107.382 202.595L110.219 205.04C104.801 211.327 94.672 211.241 87.6307 205.173L90.0754 202.336ZM87.2635 185.258C83.5078 189.616 84.2123 197.284 90.0754 202.336L87.6307 205.173C80.5894 199.105 79.0087 189.1 84.4267 182.813L87.2635 185.258ZM104.57 185.516C98.7071 180.464 91.0193 180.899 87.2635 185.258L84.4267 182.813C89.8447 176.526 99.9735 176.612 107.015 182.679L104.57 185.516ZM107.382 202.595C111.138 198.237 110.433 190.569 104.57 185.516L107.015 182.679C114.056 188.747 115.637 198.752 110.219 205.04L107.382 202.595ZM89.3793 203.144C95.5798 208.487 103.962 208.197 108.19 203.291L111.027 205.736C105.13 212.578 94.3042 212.332 86.9346 205.981L89.3793 203.144ZM86.4558 184.562C82.2282 189.467 83.1788 197.801 89.3793 203.144L86.9346 205.981C79.565 199.63 77.7222 188.96 83.6189 182.117L86.4558 184.562ZM105.266 184.709C99.0657 179.365 90.6833 179.656 86.4558 184.562L83.6189 182.117C89.5156 175.274 100.341 175.521 107.711 181.872L105.266 184.709ZM108.19 203.291C112.417 198.385 111.467 190.052 105.266 184.709L107.711 181.872C115.08 188.223 116.923 198.893 111.027 205.736L108.19 203.291Z" fill="url(#paint12_linear_401_1817)" mask="url(#path-44-inside-1_401_1817)" />
	<path fill-rule="evenodd" clip-rule="evenodd" d="M104.367 193.748L104.367 193.748L99.2251 199.216L91.7617 200.016L101.731 204.256L101.731 204.256L101.731 204.256L104.367 193.748L104.367 193.748Z" fill="#707A7E" />
	<path fill-rule="evenodd" clip-rule="evenodd" d="M103.98 192.252L103.98 192.252L91.7625 184.211L91.7626 184.211L91.7625 184.211L90.7993 198.806L98.6037 197.97L98.6037 197.97L103.98 192.252Z" fill="#707A7E" />
	<path fill-rule="evenodd" clip-rule="evenodd" d="M105.312 193.275L100.17 198.743L92.707 199.543L102.677 203.784L105.312 193.275Z" fill="white" />
	<path fill-rule="evenodd" clip-rule="evenodd" d="M104.922 191.768L92.7039 183.727L91.7407 198.322L99.5451 197.486L104.922 191.768Z" fill="white" />
	<ellipse cx="127.568" cy="119.785" rx="24.0031" ry="26.4732" transform="rotate(49.2467 127.568 119.785)" fill="url(#paint13_linear_401_1817)" />
	<ellipse cx="125.69" cy="117.353" rx="22.9673" ry="26.5286" transform="rotate(49.2467 125.69 117.353)" fill="url(#paint14_linear_401_1817)" />
	<path d="M137.868 131.483C128.693 139.389 115.903 139.224 109.257 131.512C102.612 123.8 104.337 111.126 113.512 103.22C122.687 95.3131 135.477 95.4781 142.123 103.19C148.769 110.902 147.043 123.576 137.868 131.483Z" fill="url(#paint15_linear_401_1817)" stroke="url(#paint16_linear_401_1817)" stroke-width="1.87245" />
	<path d="M134.018 124.178C134.001 123.087 133.549 122.008 132.662 120.943C134.561 121.269 136.055 120.531 137.145 118.728C137.544 118.077 137.771 117.424 137.824 116.766C137.876 116.108 137.765 115.464 137.488 114.833C137.212 114.202 136.846 113.604 136.39 113.041C135.935 112.477 135.366 111.891 134.686 111.281L137.293 107.794L135.162 106.201L132.627 109.591C132.258 109.315 131.688 108.904 130.918 108.357L133.474 104.939L131.342 103.345L128.735 106.833C128.424 106.614 127.973 106.284 127.382 105.843L124.459 103.636L122.762 105.905L124.298 107.054C125 107.578 125.176 108.198 124.827 108.915L121.857 112.887C121.95 112.956 122.02 113.016 122.068 113.067L121.847 112.901L117.688 118.464C117.263 118.879 116.819 118.915 116.358 118.57L114.822 117.422L112.499 119.633L115.267 121.702C115.442 121.834 115.694 122.025 116.023 122.278C116.352 122.531 116.599 122.719 116.765 122.844L114.127 126.372L116.259 127.966L118.866 124.479C119.246 124.778 119.806 125.203 120.544 125.755L117.947 129.228L120.078 130.821L122.716 127.292C123.5 127.821 124.223 128.254 124.885 128.59C125.547 128.926 126.226 129.186 126.923 129.369C127.62 129.553 128.269 129.617 128.87 129.563C129.472 129.51 130.076 129.321 130.684 128.999C131.291 128.676 131.873 128.212 132.427 127.605C133.506 126.413 134.036 125.271 134.018 124.178ZM129.098 110.878C129.162 110.927 129.346 111.06 129.65 111.28C129.953 111.499 130.205 111.681 130.407 111.825C130.609 111.968 130.868 112.18 131.184 112.46C131.5 112.739 131.756 112.988 131.952 113.206C132.149 113.425 132.346 113.691 132.543 114.004C132.74 114.317 132.865 114.611 132.917 114.888C132.97 115.164 132.965 115.463 132.905 115.784C132.844 116.106 132.7 116.419 132.473 116.723C132.279 116.982 132.062 117.186 131.82 117.336C131.579 117.487 131.321 117.571 131.049 117.59C130.776 117.609 130.512 117.606 130.257 117.581C130.003 117.556 129.715 117.474 129.395 117.335C129.074 117.196 128.799 117.069 128.568 116.954C128.338 116.839 128.065 116.675 127.75 116.461C127.435 116.248 127.198 116.084 127.038 115.972C126.877 115.859 126.663 115.699 126.394 115.491C126.125 115.283 125.968 115.161 125.922 115.127L129.098 110.878L129.098 110.878L129.098 110.878ZM127.872 124.653C127.625 124.799 127.374 124.9 127.118 124.953C126.863 125.006 126.577 125.008 126.262 124.959C125.946 124.91 125.654 124.843 125.387 124.759C125.119 124.674 124.815 124.547 124.474 124.378C124.133 124.209 123.841 124.052 123.597 123.906C123.354 123.76 123.07 123.577 122.746 123.356C122.422 123.135 122.173 122.959 121.997 122.828C121.822 122.697 121.602 122.529 121.338 122.325C121.074 122.12 120.905 121.99 120.831 121.935L124.328 117.258C124.402 117.313 124.624 117.472 124.996 117.735C125.367 117.998 125.668 118.216 125.899 118.389C126.129 118.561 126.438 118.813 126.823 119.144C127.208 119.475 127.518 119.772 127.754 120.034C127.989 120.296 128.227 120.607 128.469 120.968C128.71 121.328 128.87 121.667 128.949 121.985C129.028 122.303 129.04 122.642 128.985 123.004C128.931 123.366 128.779 123.713 128.531 124.045C128.337 124.304 128.118 124.506 127.872 124.653Z" fill="#707A7E" />
	<path d="M132.933 123.651C132.915 122.559 132.463 121.481 131.576 120.415C133.475 120.742 134.969 120.003 136.059 118.2C136.458 117.55 136.685 116.896 136.738 116.238C136.79 115.58 136.679 114.937 136.403 114.306C136.127 113.674 135.76 113.077 135.304 112.514C134.849 111.95 134.28 111.363 133.6 110.754L136.207 107.266L134.076 105.673L131.541 109.064C131.172 108.788 130.603 108.376 129.832 107.829L132.388 104.411L130.256 102.818L127.649 106.305C127.338 106.087 126.887 105.757 126.297 105.316L123.373 103.108L121.677 105.378L123.213 106.526C123.914 107.05 124.09 107.671 123.741 108.388L120.771 112.36C120.864 112.429 120.934 112.489 120.982 112.539L120.761 112.374L116.602 117.937C116.177 118.352 115.733 118.387 115.272 118.042L113.736 116.894L111.413 119.106L114.181 121.175C114.357 121.306 114.608 121.498 114.937 121.751C115.266 122.004 115.513 122.192 115.679 122.316L113.041 125.845L115.173 127.439L117.78 123.951C118.16 124.25 118.72 124.676 119.458 125.227L116.861 128.701L118.992 130.294L121.63 126.765C122.414 127.294 123.137 127.727 123.799 128.063C124.461 128.399 125.14 128.659 125.837 128.842C126.534 129.025 127.183 129.09 127.784 129.036C128.386 128.982 128.99 128.794 129.598 128.472C130.206 128.149 130.787 127.685 131.341 127.078C132.42 125.886 132.95 124.743 132.933 123.651ZM128.012 110.351C128.076 110.399 128.26 110.533 128.564 110.753C128.867 110.972 129.12 111.154 129.321 111.297C129.523 111.441 129.782 111.653 130.098 111.932C130.414 112.212 130.67 112.461 130.866 112.679C131.063 112.898 131.26 113.163 131.457 113.476C131.655 113.789 131.779 114.084 131.831 114.36C131.884 114.637 131.879 114.936 131.819 115.257C131.758 115.579 131.614 115.892 131.387 116.196C131.193 116.454 130.976 116.659 130.734 116.809C130.493 116.959 130.235 117.043 129.963 117.062C129.69 117.081 129.426 117.078 129.171 117.053C128.917 117.028 128.629 116.946 128.309 116.807C127.988 116.669 127.713 116.542 127.482 116.427C127.252 116.312 126.979 116.148 126.664 115.934C126.35 115.72 126.112 115.557 125.952 115.444C125.791 115.332 125.577 115.171 125.308 114.963C125.039 114.755 124.882 114.634 124.836 114.599L128.012 110.351L128.012 110.351L128.012 110.351ZM126.786 124.125C126.539 124.272 126.288 124.372 126.033 124.426C125.777 124.479 125.491 124.481 125.176 124.432C124.86 124.383 124.568 124.316 124.301 124.231C124.033 124.147 123.729 124.019 123.388 123.851C123.047 123.682 122.755 123.524 122.511 123.378C122.268 123.233 121.984 123.049 121.66 122.829C121.337 122.608 121.087 122.432 120.911 122.301C120.736 122.17 120.517 122.002 120.252 121.797C119.988 121.593 119.819 121.463 119.745 121.408L123.242 116.73C123.316 116.785 123.538 116.945 123.91 117.208C124.282 117.471 124.582 117.689 124.813 117.862C125.043 118.034 125.352 118.286 125.737 118.617C126.122 118.948 126.432 119.244 126.668 119.507C126.903 119.769 127.142 120.08 127.383 120.441C127.624 120.801 127.784 121.14 127.863 121.458C127.942 121.776 127.954 122.115 127.899 122.477C127.845 122.839 127.693 123.186 127.445 123.518C127.252 123.776 127.032 123.979 126.786 124.125Z" fill="white" />
	<defs>
		<filter id="filter0_f_401_1817" x="0.250191" y="108.688" width="170" height="169.999" filterUnits="userSpaceOnUse" color-interpolation-filters="sRGB">
			<feFlood flood-opacity="0" result="BackgroundImageFix" />
			<feBlend mode="normal" in="SourceGraphic" in2="BackgroundImageFix" result="shape" />
			<feGaussianBlur stdDeviation="31.8749" result="effect1_foregroundBlur_401_1817" />
		</filter>
		<filter id="filter1_f_401_1817" x="42.7502" y="0.312737" width="207.34" height="207.34" filterUnits="userSpaceOnUse" color-interpolation-filters="sRGB">
			<feFlood flood-opacity="0" result="BackgroundImageFix" />
			<feBlend mode="normal" in="SourceGraphic" in2="BackgroundImageFix" result="shape" />
			<feGaussianBlur stdDeviation="39.8436" result="effect1_foregroundBlur_401_1817" />
		</filter>
		<filter id="filter2_f_401_1817" x="159.625" y="74.1565" width="207.34" height="207.34" filterUnits="userSpaceOnUse" color-interpolation-filters="sRGB">
			<feFlood flood-opacity="0" result="BackgroundImageFix" />
			<feBlend mode="normal" in="SourceGraphic" in2="BackgroundImageFix" result="shape" />
			<feGaussianBlur stdDeviation="39.8436" result="effect1_foregroundBlur_401_1817" />
		</filter>
		<filter id="filter3_f_401_1817" x="99.9202" y="209.799" width="79.1713" height="92.8505" filterUnits="userSpaceOnUse" color-interpolation-filters="sRGB">
			<feFlood flood-opacity="0" result="BackgroundImageFix" />
			<feBlend mode="normal" in="SourceGraphic" in2="BackgroundImageFix" result="shape" />
			<feGaussianBlur stdDeviation="8.2606" result="effect1_foregroundBlur_401_1817" />
		</filter>
		<filter id="filter4_dd_401_1817" x="112.605" y="212.09" width="65.7851" height="79.4643" filterUnits="userSpaceOnUse" color-interpolation-filters="sRGB">
			<feFlood flood-opacity="0" result="BackgroundImageFix" />
			<feColorMatrix in="SourceAlpha" type="matrix" values="0 0 0 0 0 0 0 0 0 0 0 0 0 0 0 0 0 0 127 0" result="hardAlpha" />
			<feOffset dy="2.12499" />
			<feGaussianBlur stdDeviation="4.78124" />
			<feComposite in2="hardAlpha" operator="out" />
			<feColorMatrix type="matrix" values="0 0 0 0 0.320732 0 0 0 0 0.320732 0 0 0 0 0.320732 0 0 0 0.25 0" />
			<feBlend mode="normal" in2="BackgroundImageFix" result="effect1_dropShadow_401_1817" />
			<feColorMatrix in="SourceAlpha" type="matrix" values="0 0 0 0 0 0 0 0 0 0 0 0 0 0 0 0 0 0 127 0" result="hardAlpha" />
			<feOffset dx="-2.65624" dy="-0.531248" />
			<feGaussianBlur stdDeviation="3.71874" />
			<feComposite in2="hardAlpha" operator="out" />
			<feColorMatrix type="matrix" values="0 0 0 0 1 0 0 0 0 1 0 0 0 0 1 0 0 0 0.3 0" />
			<feBlend mode="normal" in2="effect1_dropShadow_401_1817" result="effect2_dropShadow_401_1817" />
			<feBlend mode="normal" in="SourceGraphic" in2="effect2_dropShadow_401_1817" result="shape" />
		</filter>
		<filter id="filter5_dd_401_1817" x="149.566" y="171.742" width="65.7851" height="79.4643" filterUnits="userSpaceOnUse" color-interpolation-filters="sRGB">
			<feFlood flood-opacity="0" result="BackgroundImageFix" />
			<feColorMatrix in="SourceAlpha" type="matrix" values="0 0 0 0 0 0 0 0 0 0 0 0 0 0 0 0 0 0 127 0" result="hardAlpha" />
			<feOffset dy="2.12499" />
			<feGaussianBlur stdDeviation="4.78124" />
			<feComposite in2="hardAlpha" operator="out" />
			<feColorMatrix type="matrix" values="0 0 0 0 0.320732 0 0 0 0 0.320732 0 0 0 0 0.320732 0 0 0 0.25 0" />
			<feBlend mode="normal" in2="BackgroundImageFix" result="effect1_dropShadow_401_1817" />
			<feColorMatrix in="SourceAlpha" type="matrix" values="0 0 0 0 0 0 0 0 0 0 0 0 0 0 0 0 0 0 127 0" result="hardAlpha" />
			<feOffset dx="-2.65624" dy="-0.531248" />
			<feGaussianBlur stdDeviation="3.71874" />
			<feComposite in2="hardAlpha" operator="out" />
			<feColorMatrix type="matrix" values="0 0 0 0 1 0 0 0 0 1 0 0 0 0 1 0 0 0 0.3 0" />
			<feBlend mode="normal" in2="effect1_dropShadow_401_1817" result="effect2_dropShadow_401_1817" />
			<feBlend mode="normal" in="SourceGraphic" in2="effect2_dropShadow_401_1817" result="shape" />
		</filter>
		<filter id="filter6_dd_401_1817" x="210.881" y="219.402" width="72.5913" height="31.5175" filterUnits="userSpaceOnUse" color-interpolation-filters="sRGB">
			<feFlood flood-opacity="0" result="BackgroundImageFix" />
			<feColorMatrix in="SourceAlpha" type="matrix" values="0 0 0 0 0 0 0 0 0 0 0 0 0 0 0 0 0 0 127 0" result="hardAlpha" />
			<feOffset dy="2.12499" />
			<feGaussianBlur stdDeviation="4.78124" />
			<feComposite in2="hardAlpha" operator="out" />
			<feColorMatrix type="matrix" values="0 0 0 0 0.321569 0 0 0 0 0.321569 0 0 0 0 0.321569 0 0 0 0.25 0" />
			<feBlend mode="normal" in2="BackgroundImageFix" result="effect1_dropShadow_401_1817" />
			<feColorMatrix in="SourceAlpha" type="matrix" values="0 0 0 0 0 0 0 0 0 0 0 0 0 0 0 0 0 0 127 0" result="hardAlpha" />
			<feOffset dx="-2.65624" dy="-1.59375" />
			<feGaussianBlur stdDeviation="2.39062" />
			<feComposite in2="hardAlpha" operator="out" />
			<feColorMatrix type="matrix" values="0 0 0 0 1 0 0 0 0 1 0 0 0 0 1 0 0 0 0.25 0" />
			<feBlend mode="normal" in2="effect1_dropShadow_401_1817" result="effect2_dropShadow_401_1817" />
			<feBlend mode="normal" in="SourceGraphic" in2="effect2_dropShadow_401_1817" result="shape" />
		</filter>
		<linearGradient id="paint0_linear_401_1817" x1="252.063" y1="83.9844" x2="139.969" y2="270.187" gradientUnits="userSpaceOnUse">
			<stop stop-color="white" />
			<stop offset="1" stop-color="#51595C" stop-opacity="0.3" />
		</linearGradient>
		<linearGradient id="paint1_linear_401_1817" x1="175.795" y1="193.397" x2="185.623" y2="302.834" gradientUnits="userSpaceOnUse">
			<stop stop-color="#A2A7AA" />
			<stop offset="1" stop-color="#94989A" />
		</linearGradient>
		<linearGradient id="paint2_linear_401_1817" x1="175.795" y1="193.397" x2="185.623" y2="302.834" gradientUnits="userSpaceOnUse">
			<stop stop-color="#A2A7AA" />
			<stop offset="1" stop-color="#94989A" />
		</linearGradient>
		<linearGradient id="paint3_linear_401_1817" x1="212.756" y1="153.049" x2="222.584" y2="264.346" gradientUnits="userSpaceOnUse">
			<stop stop-color="#A2A7AA" />
			<stop offset="1" stop-color="#94989A" />
		</linearGradient>
		<linearGradient id="paint4_linear_401_1817" x1="312.278" y1="286.085" x2="291.722" y2="245.237" gradientUnits="userSpaceOnUse">
			<stop stop-color="#41434A" />
			<stop offset="1" stop-color="#7F8284" />
		</linearGradient>
		<linearGradient id="paint5_linear_401_1817" x1="344.207" y1="381.266" x2="277.203" y2="232.857" gradientUnits="userSpaceOnUse">
			<stop stop-color="#41434A" />
			<stop offset="1" stop-color="#7F8284" />
		</linearGradient>
		<linearGradient id="paint6_linear_401_1817" x1="333.878" y1="334.301" x2="277.207" y2="232.857" gradientUnits="userSpaceOnUse">
			<stop stop-color="#3D3F45" />
			<stop offset="1" stop-color="#7F8284" />
		</linearGradient>
		<linearGradient id="paint7_linear_401_1817" x1="303.368" y1="283.342" x2="324.068" y2="215.428" gradientUnits="userSpaceOnUse">
			<stop stop-color="#FFC39D" />
			<stop offset="1" stop-color="#F69E66" />
		</linearGradient>
		<linearGradient id="paint8_linear_401_1817" x1="81.6137" y1="183.289" x2="104.069" y2="220.024" gradientUnits="userSpaceOnUse">
			<stop stop-color="#859299" />
			<stop offset="1" stop-color="#4A5056" />
		</linearGradient>
		<linearGradient id="paint9_linear_401_1817" x1="82.9264" y1="181.516" x2="111.732" y2="206.339" gradientUnits="userSpaceOnUse">
			<stop stop-color="#B9C4C9" />
			<stop offset="1" stop-color="#6A747D" />
		</linearGradient>
		<linearGradient id="paint10_linear_401_1817" x1="87.8799" y1="182.495" x2="119.489" y2="189.806" gradientUnits="userSpaceOnUse">
			<stop stop-color="#AFB7BB" />
			<stop offset="1" stop-color="#575F67" />
		</linearGradient>
		<linearGradient id="paint11_linear_401_1817" x1="87.8799" y1="182.495" x2="119.489" y2="189.806" gradientUnits="userSpaceOnUse">
			<stop stop-color="#AFB7BB" />
			<stop offset="1" stop-color="#575F67" />
		</linearGradient>
		<linearGradient id="paint12_linear_401_1817" x1="58.7437" y1="182.387" x2="108.631" y2="185.972" gradientUnits="userSpaceOnUse">
			<stop offset="0.537867" stop-color="#8B969B" stop-opacity="0.26" />
			<stop offset="1" stop-color="#545C63" />
		</linearGradient>
		<linearGradient id="paint13_linear_401_1817" x1="127.568" y1="93.3119" x2="127.568" y2="146.258" gradientUnits="userSpaceOnUse">
			<stop stop-color="#859299" />
			<stop offset="1" stop-color="#4A5056" />
		</linearGradient>
		<linearGradient id="paint14_linear_401_1817" x1="125.69" y1="90.8244" x2="125.69" y2="143.882" gradientUnits="userSpaceOnUse">
			<stop stop-color="#B9C4C9" />
			<stop offset="1" stop-color="#6A747D" />
		</linearGradient>
		<linearGradient id="paint15_linear_401_1817" x1="138.866" y1="101.4" x2="94.7617" y2="111.601" gradientUnits="userSpaceOnUse">
			<stop stop-color="#AFB7BB" />
			<stop offset="1" stop-color="#575F67" />
		</linearGradient>
		<linearGradient id="paint16_linear_401_1817" x1="179.52" y1="101.25" x2="109.911" y2="106.253" gradientUnits="userSpaceOnUse">
			<stop offset="0.537867" stop-color="#8B969B" stop-opacity="0.26" />
			<stop offset="1" stop-color="#545C63" />
		</linearGradient>
	</defs>
</svg>
